<svg width="33" height="33" viewBox="0 0 33 33" fill="none" xmlns="http://www.w3.org/2000/svg">
<g clip-path="url(#clip0_581_150)">
<path d="M33 11.4596V31.8126C32.8007 32.404 32.407 32.801 31.8139 32.9987H2.21866C1.35368 32.6859 0.997511 32.072 1.00001 31.152C1.01503 24.7339 1.01086 18.3157 1.00085 11.8967C1.00085 11.5197 1.12847 11.2853 1.43459 11.0726C2.77668 10.1426 4.09959 9.18426 5.44001 8.25177C5.69275 8.07578 5.787 7.87977 5.782 7.57784C5.76615 6.71458 5.77699 5.85131 5.77783 4.98805C5.77783 4.54098 5.88793 4.1423 6.27746 3.86956C6.54605 3.68106 6.85384 3.64769 7.16996 3.64769C8.63717 3.64769 10.1035 3.64603 11.5708 3.64936C11.796 3.64936 11.9945 3.61099 12.1838 3.47337C12.9495 2.91705 13.7278 2.37824 14.4927 1.82024C15.9816 0.735115 18.0135 0.724272 19.5149 1.80189C20.2756 2.34738 21.0413 2.88535 21.7987 3.43667C22.0022 3.58514 22.2107 3.65186 22.4626 3.65103C23.909 3.64436 25.3545 3.64686 26.8009 3.64853C27.8227 3.6502 28.2464 4.06807 28.2531 5.08563C28.2589 5.93889 28.2614 6.79131 28.2506 7.64457C28.2472 7.89896 28.3331 8.06744 28.5442 8.21591C29.9163 9.17676 31.2801 10.1485 32.6472 11.116C32.784 11.2127 32.9224 11.3045 32.9992 11.4613L33 11.4596ZM17.0434 4.80038C13.8187 4.80038 10.5948 4.80038 7.37015 4.80038C6.92724 4.80038 6.92307 4.80372 6.92307 5.22576C6.92307 8.50199 6.9264 11.7782 6.9189 15.0545C6.9189 15.3114 7.00815 15.4773 7.20083 15.635C8.19009 16.4457 9.17017 17.2681 10.1544 18.0855C11.7543 19.415 13.3508 20.7487 14.9556 22.0707C16.1976 23.0932 17.8024 23.0949 19.0578 22.089C19.2446 21.9397 19.4206 21.7779 19.605 21.6253C22.0139 19.626 24.422 17.6259 26.8367 15.6333C27.0428 15.4632 27.1137 15.278 27.1128 15.0161C27.1062 11.7607 27.1087 8.50533 27.1078 5.24995C27.1078 4.80122 27.107 4.80038 26.6541 4.80038C23.4502 4.80038 20.2472 4.80038 17.0434 4.80038V4.80038ZM3.15787 31.886H30.7796C30.7296 31.7184 30.5994 31.6583 30.5002 31.5749C27.0845 28.7341 23.6654 25.8966 20.2547 23.0507C20.032 22.8655 19.8927 22.8797 19.6717 23.0482C18.0543 24.2835 15.9891 24.2918 14.3809 23.0607C14.129 22.868 13.9822 22.8814 13.7486 23.0766C11.4823 24.9732 9.20687 26.8574 6.93391 28.7458C5.69441 29.7758 4.45575 30.8067 3.15787 31.886V31.886ZM31.9107 22.0924C31.9107 19.1598 31.9107 16.2263 31.909 13.2937C31.909 13.1953 31.9632 13.0569 31.8556 13.0068C31.748 12.9576 31.6796 13.0894 31.6037 13.1519C28.1229 16.042 24.6438 18.9329 21.1648 21.8246C20.8653 22.0732 20.8645 22.0832 21.1606 22.3292C24.6322 25.2143 28.1038 28.0985 31.5753 30.9827C31.6312 31.0294 31.6863 31.077 31.7447 31.1204C31.8431 31.1954 31.899 31.1629 31.9073 31.0461C31.914 30.9527 31.9115 30.8593 31.9115 30.765C31.9115 27.8741 31.9115 24.9824 31.9115 22.0915L31.9107 22.0924ZM2.1219 22.0406C2.1219 24.9532 2.1219 27.865 2.1219 30.7775C2.1219 30.861 2.1194 30.9444 2.1244 31.0269C2.13107 31.1512 2.17612 31.2113 2.2979 31.1162C2.35545 31.0711 2.4105 31.0244 2.46639 30.9777C5.93798 28.0927 9.4104 25.2076 12.882 22.3226C13.1689 22.084 13.1681 22.0723 12.862 21.8179C9.39872 18.9396 5.93547 16.0604 2.46972 13.1845C2.38047 13.1102 2.29956 12.9501 2.17111 13.0143C2.06685 13.0669 2.1244 13.2245 2.1244 13.3346C2.1219 16.2363 2.12273 19.1381 2.12273 22.0406H2.1219ZM28.2556 11.9184C28.2556 12.6457 28.2556 13.3738 28.2564 14.1011C28.2564 14.1812 28.2255 14.2871 28.3048 14.333C28.3949 14.3847 28.4533 14.2813 28.5116 14.2329C29.4408 13.4647 30.3659 12.6907 31.2959 11.9234C31.4711 11.7791 31.4761 11.679 31.2842 11.5439C30.365 10.8999 29.4509 10.2477 28.5342 9.59963C28.4691 9.55376 28.4032 9.46451 28.3173 9.50955C28.2189 9.5621 28.2572 9.6772 28.2564 9.76561C28.2531 10.4829 28.2547 11.2002 28.2547 11.9175L28.2556 11.9184ZM5.77699 11.9359C5.77699 11.1977 5.77699 10.4604 5.77699 9.72224C5.77699 9.65051 5.79618 9.56043 5.73112 9.51789C5.6427 9.45951 5.57764 9.54625 5.51341 9.59129C4.59672 10.2385 3.68253 10.8891 2.76417 11.5347C2.59568 11.6531 2.52728 11.749 2.72413 11.9108C3.66251 12.6832 4.59505 13.4639 5.53093 14.2396C5.58431 14.2838 5.63936 14.3664 5.71276 14.3388C5.81119 14.3021 5.77449 14.1945 5.77449 14.1178C5.77783 13.3905 5.77616 12.6632 5.77616 11.9359H5.77699ZM14.0055 3.62267H20.0337C17.7799 1.64259 16.2376 1.65426 14.0055 3.62267V3.62267Z" fill="#272765"/>
<path d="M17.6438 19.1628C16.6062 19.187 15.5919 19.0252 14.5951 18.7524C11.1102 17.8007 9.45947 14.1517 11.1219 10.9413C12.2554 8.75356 14.0338 7.31812 16.5144 6.91443C19.1102 6.49239 21.379 7.51997 22.4942 9.79782C23.4209 11.6912 23.1315 13.9256 21.7643 15.4595C21.1037 16.201 20.2629 16.5138 19.267 16.3545C18.8474 16.2869 18.4938 16.0951 18.2544 15.7423C18.1193 15.5437 18.0258 15.5779 17.8615 15.703C17.1066 16.2777 16.2592 16.5413 15.3141 16.3561C14.2606 16.1501 13.5133 15.3185 13.379 14.2526C13.1604 12.5077 14.2006 10.5618 15.7771 9.76613C16.7163 9.29237 17.8015 9.44834 18.6489 10.1857C18.7957 10.3133 18.8933 10.4242 18.9667 10.1214C19.071 9.69356 19.3404 9.50673 19.6665 9.5868C19.9985 9.66854 20.1528 9.9588 20.0736 10.3808C19.8108 11.7804 19.5431 13.1783 19.1928 14.5595C19.0585 15.0867 19.1886 15.2518 19.7291 15.2468C20.2412 15.2418 20.6475 15.0208 20.9744 14.6354C22.8454 12.4327 21.6517 8.78859 18.8383 8.1155C15.8605 7.4032 12.4823 9.46336 11.7441 12.4418C11.1894 14.6805 12.469 16.9316 14.6852 17.5872C16.3159 18.0701 17.9691 18.2169 19.6407 17.8066C20.6975 17.5472 21.6117 17.0359 22.3315 16.2043C22.4925 16.0183 22.6694 15.854 22.9404 15.8924C23.1498 15.9216 23.3066 16.0408 23.3875 16.2394C23.4851 16.4779 23.4134 16.6873 23.2549 16.8749C22.6485 17.5956 21.9136 18.1485 21.0495 18.5222C19.9635 18.9918 18.8249 19.1945 17.6438 19.1619V19.1628ZM15.8671 15.2568C16.2976 15.2668 16.6963 15.1509 17.0391 14.8973C17.5287 14.5345 17.9766 14.0975 18.2168 13.5453C18.5547 12.768 18.7048 11.9672 18.0517 11.2166C17.5504 10.6394 16.8022 10.4592 16.1532 10.8646C15.1723 11.4776 14.6293 12.3893 14.4909 13.5203C14.3616 14.5771 14.9313 15.2602 15.8671 15.2577V15.2568Z" fill="#272765"/>
</g>
<defs>
<clipPath id="clip0_581_150">
<rect width="33" height="33" fill="white"/>
</clipPath>
</defs>
</svg>
