<svg width="33" height="33" viewBox="0 0 33 33" fill="none" xmlns="http://www.w3.org/2000/svg">
<path d="M33 26.891C32.8357 27.5868 32.4203 28.125 31.8898 28.6034C31.1357 29.2831 30.4 29.9814 29.6576 30.6723C28.7267 31.5379 27.5956 31.9306 26.3269 31.9904C24.5027 32.0769 22.8119 31.567 21.1686 30.8752C18.6112 29.7987 16.3206 28.3004 14.1569 26.6162C10.8721 24.06 7.95677 21.1547 5.45937 17.8638C3.97544 15.9081 2.67252 13.8505 1.78917 11.5659C1.35375 10.4385 1.05263 9.28362 1.00508 8.06896C0.940022 6.3993 1.49806 4.99311 2.75176 3.83421C3.38404 3.25072 3.97878 2.62925 4.57518 2.0102C5.04981 1.51884 5.5945 1.15436 6.27682 1H7.4004C8.42138 1.22063 9.01445 1.9803 9.65757 2.67935C10.7995 3.92068 11.9348 5.16767 13.0867 6.40011C14.2361 7.62932 14.2862 8.99996 13.2068 10.2987C12.7631 10.8329 12.321 11.367 11.8814 11.9037C11.2683 12.652 11.2516 13.3179 11.7738 14.1261C13.7565 17.1947 16.3348 19.6814 19.5037 21.5983C20.2603 22.0557 20.9701 22.0452 21.6716 21.5159C22.2705 21.0641 22.8594 20.5994 23.4517 20.1388C24.7404 19.1375 26.1768 19.1957 27.4038 20.2721C28.8919 21.5765 30.3892 22.8728 31.8973 24.1561C32.4311 24.6103 32.8098 25.1421 33 25.8024V26.891ZM12.889 8.37929C12.9165 7.97359 12.7589 7.6075 12.4711 7.29474C11.0389 5.73661 9.61002 4.17606 8.1653 2.62844C7.37454 1.78068 6.31602 1.77826 5.48939 2.59773C4.74034 3.34043 3.99546 4.08716 3.25224 4.83471C2.94779 5.141 2.68003 5.47315 2.49235 5.86269C1.97018 6.944 1.9902 8.06896 2.20707 9.20684C2.53489 10.9242 3.27226 12.4888 4.14477 13.9976C5.77717 16.8221 7.84749 19.3282 10.1555 21.6549C12.8415 24.3622 15.7618 26.7972 19.1225 28.6972C21.1461 29.8407 23.2456 30.8154 25.6404 30.9584C26.7849 31.0263 27.8742 30.8243 28.7543 30.0581C29.6201 29.3041 30.4459 28.5057 31.2817 27.7193C32.2243 26.832 32.2184 25.8484 31.2508 25.0015C29.7068 23.6502 28.1495 22.3135 26.5972 20.9712C25.8323 20.3101 24.9689 20.2923 24.1657 20.9154C23.5075 21.4254 22.8628 21.9531 22.1821 22.4332C21.2012 23.1241 20.1401 23.1823 19.1092 22.5722C17.5351 21.6404 16.0662 20.5631 14.7299 19.325C13.2252 17.9301 11.9765 16.334 10.8462 14.6466C10.1013 13.5345 10.1439 12.3837 10.9855 11.3371C11.4776 10.7254 11.9815 10.1217 12.4844 9.51718C12.7564 9.19068 12.9099 8.82782 12.889 8.38171V8.37929Z" fill="#272765"/>
</svg>
