<svg width="33" height="33" viewBox="0 0 33 33" fill="none" xmlns="http://www.w3.org/2000/svg">
<g clip-path="url(#clip0_581_142)">
<path d="M16.4844 32.9987C11.3114 32.9987 6.13923 32.9987 0.966175 32.9987C0.839348 32.9987 0.711596 33.0023 0.584769 32.9969C0.113565 32.9763 -0.109539 32.6784 0.0524658 32.247C0.381105 31.375 0.728259 30.5103 1.06893 29.6429C1.98449 27.3124 2.90191 24.9819 3.81747 22.6514C4.08593 21.9678 4.11741 21.9454 4.87189 21.9454C7.0659 21.9454 9.25992 21.9454 11.453 21.9436C11.5622 21.9436 11.7094 21.9992 11.7742 21.888C11.8381 21.7776 11.7141 21.6844 11.6576 21.5929C10.2319 19.2686 8.98682 16.8637 8.19161 14.2605C7.73059 12.7535 7.45286 11.2195 7.4649 9.63715C7.4973 5.48925 10.6791 1.83651 14.8958 1.13324C19.7634 0.322315 24.307 3.28882 25.3447 7.96866C25.6928 9.53937 25.5465 11.1065 25.216 12.662C24.6328 15.4087 23.459 17.9303 22.0657 20.3666C21.8306 20.7774 21.5843 21.182 21.3409 21.5884C21.1307 21.94 21.1307 21.9445 21.5408 21.9454C23.758 21.9463 25.9742 21.9454 28.1914 21.9454C28.8616 21.9454 28.9125 21.9777 29.1523 22.5859C30.3872 25.7201 31.6213 28.8544 32.8553 31.9895C32.9006 32.1043 32.9479 32.2192 32.9793 32.3385C33.0664 32.6695 32.8719 32.9475 32.522 32.9897C32.385 33.0059 32.2452 32.9987 32.1073 32.9987C26.9 32.9987 21.6927 32.9987 16.4854 32.9987H16.4844ZM24.4708 9.94214C24.4754 9.40392 24.4597 8.86749 24.3551 8.33734C23.2942 2.95781 17.0501 0.284639 12.2667 3.19911C9.89405 4.64514 8.64893 6.78098 8.53506 9.50708C8.44526 11.6618 9.01089 13.6998 9.80888 15.6814C11.3715 19.562 13.6702 23.0272 16.2798 26.3122C16.4789 26.5624 16.5881 26.4844 16.7446 26.2862C19.1756 23.2111 21.34 19.9791 22.8933 16.3945C23.7876 14.3313 24.4523 12.209 24.4708 9.94124V9.94214ZM4.23775 31.9707C5.02279 31.9707 5.80782 31.9653 6.59192 31.9734C6.88538 31.9761 7.16126 31.9267 7.43713 31.8298C9.04329 31.2701 10.6532 30.7175 12.2612 30.1631C12.6352 30.034 12.638 30.0322 12.3936 29.7245C10.6708 27.5528 8.94516 25.3819 7.22606 23.2075C7.09275 23.0398 6.94648 22.9635 6.72986 22.9671C6.21052 22.9752 5.69117 22.9797 5.17183 22.9653C4.91262 22.9581 4.77469 23.0523 4.68304 23.2874C3.59251 26.078 2.49736 28.8678 1.39294 31.654C1.28 31.9393 1.38369 31.9761 1.64012 31.9734C2.50569 31.9653 3.37126 31.9707 4.23683 31.9707H4.23775ZM10.5115 22.9698C9.92275 22.9698 9.33398 22.9689 8.7452 22.9707C8.65541 22.9707 8.53784 22.9402 8.486 23.0209C8.41471 23.1322 8.54154 23.2003 8.59986 23.2739C10.2301 25.3317 11.8659 27.3859 13.4933 29.4464C13.6267 29.616 13.7433 29.6572 13.9562 29.5837C18.0415 28.1708 22.1296 26.7652 26.2168 25.3577C26.9666 25.0994 27.7137 24.8312 28.4673 24.5845C28.7154 24.5028 28.7635 24.3925 28.657 24.1665C28.533 23.9027 28.421 23.63 28.3395 23.351C28.2516 23.0505 28.0738 22.9617 27.7581 22.9626C25.4614 22.9743 23.1646 22.9734 20.8678 22.9626C20.5642 22.9608 20.3837 23.064 20.2226 23.308C19.2598 24.7576 18.2072 26.1444 17.088 27.4837C16.6335 28.0282 16.3687 28.0282 15.9179 27.4882C14.7986 26.1489 13.7442 24.763 12.7833 23.3125C12.612 23.0541 12.4176 22.951 12.1047 22.9626C11.5743 22.9824 11.0429 22.968 10.5124 22.968L10.5115 22.9698ZM10.2421 31.9384H26.0714C25.9668 31.7993 25.8955 31.6998 25.8187 31.6038C24.855 30.3892 23.8848 29.1809 22.9322 27.9582C22.7471 27.7205 22.5842 27.6766 22.2935 27.7779C19.6458 28.701 16.9927 29.6088 14.3413 30.522C13.0055 30.9821 11.6715 31.4441 10.2412 31.9384H10.2421ZM29.5198 31.9707C30.1429 31.9707 30.7668 31.9635 31.3898 31.9743C31.662 31.9787 31.7018 31.8971 31.6065 31.6576C30.8233 29.685 30.0456 27.7106 29.2773 25.7327C29.1838 25.4932 29.0829 25.4349 28.8227 25.5264C27.2286 26.0888 25.6308 26.6405 24.0292 27.1796C23.7284 27.281 23.7848 27.3841 23.9348 27.5716C25.0457 28.9593 26.151 30.3506 27.2518 31.7464C27.3767 31.9043 27.5147 31.9752 27.7183 31.9725C28.3182 31.9644 28.919 31.9698 29.5189 31.9698L29.5198 31.9707Z" fill="#272765"/>
<path d="M20.6165 9.73383C20.6276 11.9531 18.7641 13.7777 16.4988 13.7669C14.2307 13.7552 12.3987 11.9908 12.3839 9.8029C12.3691 7.56569 14.1659 5.77072 16.4303 5.76085C18.7863 5.75009 20.6054 7.47778 20.6165 9.73473V9.73383ZM16.5044 12.7452C18.1911 12.7452 19.5964 11.3799 19.5936 9.74639C19.5908 8.11378 18.1744 6.74311 16.4951 6.74939C14.8075 6.75567 13.3985 8.12544 13.405 9.75356C13.4115 11.3916 14.8149 12.7461 16.5034 12.7452H16.5044Z" fill="#272765"/>
</g>
<defs>
<clipPath id="clip0_581_142">
<rect width="33" height="33" fill="white"/>
</clipPath>
</defs>
</svg>
