<svg width="60" height="60" viewBox="0 0 60 60" fill="none" xmlns="http://www.w3.org/2000/svg">
<rect width="60" height="60" fill="white"/>
<path d="M57.0004 9.50082V39.5479C56.9849 39.5988 56.9638 39.6468 56.9539 39.6991C56.3513 43.1818 53.2837 46.2632 48.7026 46.1557C45.1225 46.0709 41.5382 46.1911 37.9567 46.1133C36.5446 46.0822 35.3578 46.4299 34.1499 47.148C29.4365 49.9494 24.6724 52.6646 19.9323 55.4209C19.0749 55.9198 18.1711 56.1276 17.2025 55.9269C15.4681 55.5693 14.3263 54.1262 14.3066 52.2632C14.2869 50.5007 14.3024 48.7367 14.301 46.9741C14.301 46.1416 14.2982 46.1543 13.4929 46.1374C12.2132 46.1105 10.932 46.2024 9.65233 46.0483C6.00888 45.6087 3.01443 42.2815 3.0088 38.5839C2.99754 29.2226 2.99613 19.8614 3.01021 10.5001C3.01584 6.52552 6.45657 3.02017 10.4041 3.0131C23.4335 2.9919 36.463 3.0018 49.4924 3.00604C51.5239 3.00604 53.2457 3.78909 54.707 5.18133C55.9501 6.36438 56.6301 7.84992 57.0004 9.50082V9.50082ZM30.0109 6.47181C23.725 6.47181 17.439 6.47181 11.1517 6.46898C10.6392 6.46898 10.1324 6.50856 9.63966 6.64142C7.70249 7.16157 6.47909 8.82519 6.46079 10.9835C6.44671 12.7108 6.45797 14.4394 6.45797 16.1666C6.45797 23.4303 6.47768 30.694 6.44953 37.9563C6.43826 40.9684 8.67108 42.7366 11.0475 42.6108C12.5356 42.5317 14.0321 42.5953 15.5244 42.5967C17.1969 42.5967 17.8276 43.2242 17.829 44.885C17.829 47.1946 17.829 49.5042 17.829 51.8138C17.829 52.5346 17.8656 52.5586 18.478 52.2039C23.7236 49.165 28.9719 46.1275 34.2105 43.0758C34.7778 42.7451 35.355 42.5882 36.0083 42.591C40.2923 42.6023 44.5777 42.5981 48.8617 42.5953C49.2827 42.5953 49.705 42.6165 50.1217 42.5302C52.2391 42.0921 53.5822 40.3677 53.5836 38.0397C53.5892 29.0488 53.585 20.0579 53.5864 11.0669C53.5864 10.6061 53.5301 10.151 53.4203 9.70577C52.9346 7.74391 51.2409 6.47605 49.0785 6.47463C42.7222 6.46898 36.3658 6.47322 30.0095 6.47181H30.0109Z" fill="#272765"/>
<path d="M26.576 13.7922C29.5085 13.7922 32.4396 13.7879 35.3721 13.7922C37.505 13.7964 38.8269 14.8805 39.2493 16.9837C39.3239 17.3583 39.4253 17.4586 39.7871 17.2367C40.6712 16.6968 41.5919 16.2148 42.4718 15.6678C44.2963 14.5356 46.2589 15.9251 46.2138 17.8403C46.1237 21.7682 46.1899 25.7005 46.1856 29.6312C46.1828 31.7444 44.3386 32.8157 42.4943 31.7754C41.5919 31.2666 40.6937 30.7465 39.804 30.215C39.4591 30.0086 39.3239 30.0284 39.3098 30.4765C39.2366 32.7988 37.405 34.2419 35.3229 34.2207C29.3889 34.1571 23.4549 34.2037 17.5209 34.1924C15.7301 34.1882 14.311 33.0235 13.9309 31.2878C13.8718 31.0164 13.862 30.7281 13.862 30.4482C13.8577 26.1471 13.8549 21.846 13.862 17.5463C13.8648 15.3766 15.4077 13.8091 17.5716 13.7978C20.5731 13.7823 23.576 13.7936 26.5774 13.7936L26.576 13.7922ZM26.5972 17.2636C23.7533 17.2636 20.9095 17.2636 18.0657 17.2636C17.3759 17.2636 17.3139 17.3258 17.3139 18.0212C17.3125 22.0043 17.3125 25.9874 17.3139 29.9705C17.3139 30.6617 17.3759 30.7238 18.0699 30.7238C23.7407 30.7238 29.41 30.7238 35.0807 30.7238C35.7466 30.7238 35.7889 30.68 35.7889 29.9917C35.7903 25.9902 35.7903 21.9902 35.7889 17.9887C35.7889 17.3046 35.7452 17.2622 35.0765 17.2622C32.2496 17.2608 29.4241 17.2622 26.5972 17.2622V17.2636ZM42.7337 23.7838C42.7337 22.5527 42.7252 21.3216 42.7379 20.0905C42.7421 19.6792 42.6154 19.6354 42.2832 19.8347C41.4399 20.3378 40.5909 20.8297 39.735 21.3117C39.4408 21.4771 39.3126 21.6919 39.3169 22.0326C39.3295 23.1577 39.3281 24.2842 39.3169 25.4093C39.3126 25.7485 39.4365 25.9648 39.7322 26.1316C40.5881 26.6121 41.4413 27.0984 42.2803 27.61C42.6816 27.8545 42.7435 27.7104 42.7393 27.3217C42.7266 26.1429 42.7351 24.964 42.7351 23.7866L42.7337 23.7838Z" fill="#272765"/>
</svg>
