<svg width="1066" height="232" viewBox="0 0 1066 232" fill="none" xmlns="http://www.w3.org/2000/svg">
<path d="M1038.79 63.7378C1039.39 66.1498 1041.83 67.6197 1044.24 67.0207L1065.11 61.8394L1059.92 40.9731C1059.32 38.5611 1056.88 37.0912 1054.47 37.6902L1033.61 42.8715L1038.79 63.7378Z" stroke="#272765"/>
<path d="M239.787 27.7378C240.386 30.1498 242.827 31.6197 245.239 31.0207L266.105 25.8394L260.924 4.97309C260.325 2.56105 257.884 1.09124 255.472 1.69017L234.606 6.87146L239.787 27.7378Z" stroke="#272765"/>
<path d="M621.836 106.959C618.255 100.716 610.498 98.476 604.525 101.902C598.552 105.329 596.57 113.155 600.151 119.398C603.732 125.642 611.489 127.881 617.462 124.455C623.435 121.029 625.418 113.202 621.836 106.959Z" stroke="#49B49E"/>
<path d="M28.8364 206.959C25.255 200.716 17.4982 198.476 11.5252 201.902C5.55219 205.329 3.56957 213.155 7.15097 219.398C10.7324 225.642 18.4892 227.881 24.4622 224.455C30.4352 221.029 32.4178 213.202 28.8364 206.959Z" stroke="#49B49E"/>
</svg>
