<svg width="1272" height="719" viewBox="0 0 1272 719" fill="none" xmlns="http://www.w3.org/2000/svg">
<path d="M70.8365 451.959C67.2551 445.716 59.4982 443.476 53.5252 446.902C47.5523 450.329 45.5696 458.155 49.151 464.398C52.7324 470.642 60.4893 472.881 66.4623 469.455C72.4353 466.029 74.4179 458.202 70.8365 451.959Z" stroke="#6989B3"/>
<path d="M1264.84 77.959C1261.26 71.7156 1253.5 69.476 1247.53 72.9023C1241.55 76.3286 1239.57 84.1551 1243.15 90.3985C1246.73 96.6419 1254.49 98.8815 1260.46 95.4552C1266.44 92.0289 1268.42 84.2024 1264.84 77.959Z" stroke="#49B49E"/>
<path d="M28.8364 296.959C25.255 290.716 17.4982 288.476 11.5252 291.902C5.55219 295.329 3.56957 303.155 7.15097 309.398C10.7324 315.642 18.4892 317.881 24.4622 314.455C30.4352 311.029 32.4178 303.202 28.8364 296.959Z" stroke="#49B49E"/>
<path d="M1145.79 27.7378C1146.39 30.1498 1148.83 31.6197 1151.24 31.0207L1172.11 25.8394L1166.92 4.97309C1166.32 2.56105 1163.88 1.09124 1161.47 1.69017L1140.61 6.87146L1145.79 27.7378Z" stroke="#6989B3"/>
<path d="M1142.79 713.738C1143.39 716.15 1145.83 717.62 1148.24 717.021L1169.11 711.839L1163.92 690.973C1163.32 688.561 1160.88 687.091 1158.47 687.69L1137.61 692.871L1142.79 713.738Z" stroke="#6989B3"/>
</svg>
