<svg width="1246" height="850" viewBox="0 0 1246 850" fill="none" xmlns="http://www.w3.org/2000/svg">
<path d="M107.836 11.959C104.255 5.71563 96.4982 3.476 90.5252 6.9023C84.5522 10.3286 82.5696 18.1551 86.151 24.3985C89.7324 30.6419 97.4892 32.8815 103.462 29.4552C109.435 26.0289 111.418 18.2024 107.836 11.959Z" stroke="#49B49E"/>
<path d="M1098.84 76.9589C1095.26 70.7155 1087.5 68.4759 1081.53 71.9022C1075.55 75.3285 1073.57 83.155 1077.15 89.3984C1080.73 95.6417 1088.49 97.8814 1094.46 94.4551C1100.44 91.0288 1102.42 83.2023 1098.84 76.9589Z" stroke="#49B49E"/>
<path d="M1216.27 44.8134C1215.88 47.2689 1217.56 49.5705 1220.02 49.9542L1241.26 53.2734L1244.58 32.0311C1244.96 29.5757 1243.28 27.2741 1240.83 26.8904L1219.59 23.5712L1216.27 44.8134Z" stroke="#6989B3"/>
<path d="M231.787 91.7378C232.386 94.1498 234.827 95.6197 237.239 95.0207L258.105 89.8394L252.924 68.9731C252.325 66.5611 249.884 65.0912 247.472 65.6902L226.606 70.8715L231.787 91.7378Z" stroke="#786CB1"/>
<path d="M5.78703 844.738C6.38595 847.15 8.82682 848.62 11.2389 848.021L32.1052 842.839L26.9239 821.973C26.325 819.561 23.8841 818.091 21.4721 818.69L0.605733 823.871L5.78703 844.738Z" stroke="#272765"/>
</svg>
