<svg width="1325" height="654" viewBox="0 0 1325 654" fill="none" xmlns="http://www.w3.org/2000/svg">
<path d="M1317.84 628.959C1314.26 622.716 1306.5 620.476 1300.53 623.902C1294.55 627.329 1292.57 635.155 1296.15 641.398C1299.73 647.642 1307.49 649.881 1313.46 646.455C1319.44 643.029 1321.42 635.202 1317.84 628.959Z" stroke="#6989B3"/>
<path d="M709.836 83.9589C706.255 77.7156 698.498 75.4759 692.525 78.9022C686.552 82.3285 684.57 90.155 688.151 96.3984C691.732 102.642 699.489 104.881 705.462 101.455C711.435 98.0288 713.418 90.2023 709.836 83.9589Z" stroke="#6989B3"/>
<path d="M4.75975 466.845C2.56344 468.008 1.72588 470.732 2.88901 472.928L12.9511 491.928L31.9512 481.866C34.1475 480.703 34.9851 477.979 33.822 475.783L23.7598 456.783L4.75975 466.845Z" stroke="#786CB1"/>
<path d="M611.787 27.7379C612.386 30.1499 614.827 31.6197 617.239 31.0208L638.105 25.8395L632.924 4.97315C632.325 2.56111 629.884 1.0913 627.472 1.69023L606.606 6.87152L611.787 27.7379Z" stroke="#786CB1"/>
</svg>
