<svg width="1200" height="500" viewBox="0 0 1200 500" fill="none" xmlns="http://www.w3.org/2000/svg">
<path d="M28.8365 85.9589C25.2551 79.7155 17.4982 77.4759 11.5252 80.9022C5.55225 84.3285 3.56963 92.155 7.15103 98.3984C10.7324 104.642 18.4893 106.881 24.4623 103.455C30.4353 100.029 32.4179 92.2023 28.8365 85.9589Z" stroke="#6989B3"/>
<path d="M1192.84 474.959C1189.26 468.716 1181.5 466.476 1175.53 469.902C1169.55 473.329 1167.57 481.155 1171.15 487.398C1174.73 493.642 1182.49 495.881 1188.46 492.455C1194.44 489.029 1196.42 481.202 1192.84 474.959Z" stroke="#6989B3"/>
<path d="M279.787 27.7378C280.386 30.1498 282.827 31.6197 285.239 31.0207L306.105 25.8394L300.924 4.97309C300.325 2.56105 297.884 1.09124 295.472 1.69017L274.606 6.87146L279.787 27.7378Z" stroke="#786CB1"/>
<path d="M1172.79 81.7378C1173.39 84.1498 1175.83 85.6197 1178.24 85.0207L1199.11 79.8394L1193.92 58.9731C1193.33 56.5611 1190.88 55.0912 1188.47 55.6902L1167.61 60.8715L1172.79 81.7378Z" stroke="#786CB1"/>
</svg>
