<svg width="211" height="434" viewBox="0 0 211 434" fill="none" xmlns="http://www.w3.org/2000/svg">
<g clip-path="url(#clip0_139_601)">
<path d="M3.0039 103.948C-6.01617 99.3249 -9.63113 92.4652 -8.26572 82.2688C-6.89023 71.982 1.26152 60.6651 9.13916 59.9869C13.9769 59.5649 19.0632 61.4143 23.9999 62.5602C27.825 63.4448 31.5947 64.8269 35.6098 66.0531C36.1785 62.5907 36.5919 59.2941 37.3206 56.0327C38.0444 52.8165 39.0335 49.6757 40.1032 45.8112C37.0244 44.7809 34.4113 43.6652 31.7427 43.0471C23.2112 40.9965 18.6334 35.8153 17.7594 26.8802C17.0888 20.2116 21.6558 14.0356 29.0001 10.3672C38.5236 5.56828 47.1031 10.0511 55.7543 12.6645C87.5904 22.1682 119.301 31.9784 151.077 41.6128C164.139 45.5881 177.281 49.2519 190.348 53.1821C201.602 56.5895 207.28 64.595 205.494 74.0577C203.829 82.847 192.882 89.3646 181.376 88.2185C178.581 87.9069 175.803 87.0474 172.689 86.3338C171.528 91.4244 169.956 96.515 169.426 101.676C169.28 102.988 172.322 105.571 174.2 105.918C184.219 107.722 190.338 113.808 193.651 122.969C197.064 132.462 195.058 141.442 187.762 147.955C183.051 152.146 176.474 154.251 169.971 157.739C155.31 205.328 140.177 254.285 125.169 303.347C116.422 331.86 107.495 360.354 99.3644 389.073C93.4985 409.757 71.6191 429.205 42.9839 418.41C15.7955 408.142 -12.3113 400.382 -40.1019 391.834C-55.1863 387.175 -67.976 368.897 -69.7393 351.163C-70.8669 340.002 -65.7416 330.866 -62.8692 321.066C-52.3636 284.965 -40.9269 249.104 -29.9807 213.143C-18.8991 176.785 -7.90757 140.417 3.08899 104.004L3.0039 103.948ZM-64.9853 342.901C-65.9979 356.48 -62.9466 366.757 -55.6975 375.395C-52.2305 379.491 -48.098 384.165 -43.3069 385.798C-11.7822 396.458 19.9785 406.228 51.6236 416.626C65.8867 421.285 89.0825 408.853 93.3559 394.264C102.561 362.871 112.076 331.559 121.591 300.246C134.751 257.114 147.827 213.926 161.387 170.885C164.144 162.126 163.617 150.894 177.855 149.231C186.499 148.226 191.52 138.392 191.252 129.341C191.028 121.532 184.85 113.928 176.99 111.586C148.458 103.138 119.931 94.6444 91.399 86.1961C67.333 79.0243 43.2669 71.8526 19.2058 64.6356C10.2443 61.9418 4.93432 64.1428 -0.0453785 72.7912C-5.31093 81.9573 -5.5403 93.0131 1.01633 97.2244C8.04346 101.717 6.41203 106.526 4.55932 112.502C-4.42344 141.905 -13.1358 171.338 -22.0284 200.751C-32.9547 236.943 -43.9261 273.13 -54.8523 309.322C-58.4525 321.147 -62.0577 333.017 -65.0202 342.806L-64.9853 342.901ZM182.776 84.6656C185.911 83.9621 190.228 83.711 193.885 82.0125C199.225 79.5402 203.521 74.5702 201.517 68.8061C199.998 64.424 195.601 59.2629 191.376 57.8758C171.851 51.3021 151.91 46.01 132.174 40.0997C102.686 31.2242 73.2634 22.1729 43.7703 13.3426C35.6448 10.9252 28.9769 14.2568 23.7789 20.3625C19.5835 25.2521 23.1746 36.8255 29.0273 38.3483C33.6384 39.5495 38.385 40.3536 42.9259 41.7759C76.1435 51.9832 109.306 62.2759 142.524 72.4832C155.535 76.4988 168.602 80.4289 182.765 84.7561L182.776 84.6656ZM44.2839 46.7812C42.872 52.4849 41.8668 56.9976 40.6363 61.4852C39.476 65.7517 40.6312 67.6664 45.1922 68.9078C74.4805 77.1199 103.683 85.6888 132.906 94.0768C143.16 97.0521 153.473 99.8967 164.087 102.912C165.475 96.1983 166.641 90.6504 167.918 84.5195C126.665 71.9049 85.6771 59.3657 44.334 46.741L44.2839 46.7812Z" fill="#272765"/>
<path d="M111.647 310.447L101.778 309.346C97.4199 323.468 93.3919 337.9 88.4479 351.956C85.0949 361.564 84.3752 372.107 76.4414 380.243C67.7357 389.163 57.4935 390.997 46.7442 388.379C23.383 382.659 0.328144 375.829 -22.8071 369.311C-37.9368 365.059 -47.3978 348.435 -43.1983 332.464C-37.7831 311.73 -31.7871 291.106 -25.9259 270.055C-32.3447 268.698 -35.1871 266.366 -32.7069 258.447C-24.5682 232.521 -17.6612 206.183 -10.0482 180.062C-8.58694 175.142 -5.5696 171.815 0.316774 175.082C1.39295 175.66 2.81015 175.635 4.27712 175.982C10.8186 155.785 17.2448 135.804 23.6659 115.869C26.171 108.135 26.7471 107.879 34.4018 110.427C70.3624 122.222 106.323 134.018 142.349 145.637C146.839 147.1 148.836 148.421 147.119 153.999C141.094 173.658 135.73 193.528 130.11 213.233C139.636 216.997 139.566 217.218 136.478 227.314C128.123 254.772 119.983 282.346 111.547 310.528L111.647 310.447ZM-29.7971 264.266C-12.2194 269.478 4.83267 274.493 21.9197 279.605C49.3852 287.797 76.8907 296.039 104.356 304.231C107.625 305.191 109.469 304.618 110.589 300.713C118.543 273.577 126.758 246.561 135.008 219.228C88.5024 205.432 41.7319 191.561 -4.99855 177.74C-13.3702 206.983 -21.5159 235.426 -29.8022 264.311L-29.7971 264.266ZM97.9031 308.09C95.9909 307.236 94.6696 306.401 93.2127 305.964C56.0548 294.676 18.9471 283.348 -18.281 272.282C-19.6528 271.9 -22.9493 273.638 -23.3259 274.97C-28.9107 294.77 -34.2801 314.685 -39.5094 334.57C-42.6239 346.54 -35.0537 360.481 -23.0031 364.115C-2.742 370.221 17.6597 375.885 38.0463 381.685C43.1329 383.122 48.1936 385.61 53.2914 385.72C65.9906 385.992 76.9098 376.861 80.5255 364.489C82.956 356.197 85.6468 348.026 88.2074 339.795C91.4309 329.302 94.6144 318.759 97.8682 307.995L97.9031 308.09ZM143.742 150.326C104.853 137.792 66.9344 125.549 29.0162 113.306C22.1024 135.614 15.6756 156.418 9.16332 177.58C28.6284 183.46 47.7279 189.345 66.8927 195.054C86.2377 200.784 105.648 206.337 125.494 212.077C131.565 191.599 137.571 171.296 143.792 150.286L143.742 150.326Z" fill="#272765"/>
<path d="M110.913 265.49C106.224 267.44 -4.96055 235.486 -11.4513 230.275C-6.7571 227.868 106.811 260.545 110.913 265.49Z" fill="#272765"/>
<path d="M114.473 235.62C77.9838 226.925 41.8668 216.532 5.06983 204.872C10.3707 201.526 108.864 229.042 114.473 235.62Z" fill="#272765"/>
</g>
<defs>
<clipPath id="clip0_139_601">
<rect width="243.681" height="408.756" fill="white" transform="translate(-31.4345 0.375488) rotate(6.36433)"/>
</clipPath>
</defs>
</svg>
