<svg width="159" height="238" viewBox="0 0 159 238" fill="none" xmlns="http://www.w3.org/2000/svg">
<g clip-path="url(#clip0_139_586)">
<path d="M210.632 167.446C210.754 170 211.061 172.574 210.959 175.129C210.775 179.399 208.953 182.28 204.736 184.364C174.216 199.566 143.86 215.054 113.442 230.46C109.103 232.667 104.784 234.935 100.424 237.101C96.1454 239.226 88.4898 237.326 83.9456 233.443C78.6849 228.928 76.2285 222.716 73.2809 216.77C64.4586 199.014 55.5953 181.258 46.7524 163.502C38.2985 146.543 29.8241 129.605 21.4111 112.625C14.7585 99.2007 8.18781 85.7151 1.57615 72.2908C-1.06442 66.917 -0.38893 62.1562 3.43887 57.6202C7.24621 53.1045 12.6297 51.1634 17.6652 48.6298C37.7868 38.4952 57.9083 28.381 78.0299 18.2464C88.6536 12.893 99.0725 7.11055 109.901 2.24757C119.276 -1.96157 127.116 -0.817338 132.602 10.0937C149.039 42.7452 165.271 75.4988 181.565 108.212C190.735 126.621 199.844 145.031 208.953 163.462C209.567 164.708 209.833 166.118 210.263 167.446C210.386 167.446 210.509 167.446 210.632 167.446ZM208.851 167.875C207.397 164.871 206.046 161.99 204.634 159.171C194.829 139.514 184.983 119.879 175.178 100.222C165.824 81.4651 156.449 62.6875 147.135 43.9098C141.342 32.2428 135.57 20.5757 129.859 8.84733C128.057 5.14901 122.449 1.59372 118.293 2.28843C114.977 2.84011 111.538 3.57569 108.529 5.00598C97.6192 10.2367 86.8522 15.7944 76.0443 21.25C56.803 30.9555 37.5411 40.6202 18.3202 50.387C13.3257 52.9411 7.83982 54.7392 4.19625 59.5204C1.59662 62.9327 1.04394 67.8774 2.96807 71.5961C8.63814 82.6298 14.3082 93.6634 19.8554 104.758C28.7802 122.596 37.623 140.475 46.5068 158.353C56.3936 178.255 66.2599 198.177 76.1262 218.099C78.7258 223.329 80.9365 228.785 85.7674 232.565C89.7999 235.691 94.4464 237.632 99.134 235.507C108.98 231.053 118.519 225.883 128.18 220.98C153.358 208.23 178.515 195.398 203.774 182.811C207.356 181.034 208.871 178.5 209.137 174.945C209.301 172.615 208.973 170.225 208.871 167.895L208.851 167.875Z" fill="#272765"/>
<path d="M148.466 191.7C149.284 194.274 148.67 196.399 146.5 197.829C144.208 199.341 141.629 199.035 139.991 196.93C138.006 194.376 136.388 191.495 134.956 188.594C122.121 162.869 109.348 137.103 96.5752 111.358C86.8113 91.6611 77.0678 71.9435 67.3243 52.226C66.3212 50.1827 64.8679 48.1394 64.6632 46.0144C64.5199 44.4207 65.6458 42.1731 66.9353 41.131C68.6343 39.762 70.9064 40.4363 72.0937 42.4183C75.0208 47.3426 77.9479 52.2873 80.5476 57.3954C89.9636 75.8666 99.1953 94.3991 108.55 112.891C119.378 134.304 130.248 155.697 141.096 177.09C143.573 181.953 146.009 186.837 148.445 191.72L148.466 191.7ZM65.8504 45.8918C68.6343 51.3678 71.0702 56.1286 73.4447 60.9303C81.8986 77.9916 90.2911 95.0938 98.7859 112.135C107.178 129.012 115.694 145.808 124.086 162.685C129.306 173.167 134.403 183.71 139.561 194.213C140.708 196.542 143.676 197.727 145.559 196.419C147.647 194.969 147.422 193.191 146.255 190.984C141.158 181.238 136.266 171.369 131.312 161.541C123.472 145.971 115.694 130.361 107.813 114.811C98.7245 96.8714 89.5542 78.9519 80.4043 61.0529C77.4771 55.3113 74.55 49.5902 71.3568 43.9916C70.7836 42.9904 68.9618 42.6839 67.7132 42.0709C67.0377 43.4604 66.3622 44.8498 65.8709 45.8918H65.8504Z" fill="#272765"/>
<path d="M127.873 38.2704C130.575 46.9952 125.724 57.2115 114.568 60.1743C104.006 62.9736 95.6337 57.1707 92.7065 49.3245C89.3495 40.3341 95.8793 28.8305 105.357 26.2969C115.059 23.7019 125.683 28.851 127.873 38.2704ZM123.882 37.4736C122.408 29.5252 112.951 25.8269 106.442 27.7272C97.6601 30.3017 91.8877 39.1899 94.078 47.3017C96.1044 54.8209 103.944 58.9279 111.989 56.8233C120.606 54.5553 126.502 45.1563 123.861 37.4736H123.882ZM126.358 40.9267C125.867 50.244 120.299 55.5361 112.234 58.887C121.241 57.7224 128.59 48.5685 126.358 40.9267Z" fill="#272765"/>
<path d="M122.06 106.72C119.644 97.7705 125.744 87.2477 134.935 84.8775C144.597 82.3847 155.139 87.3907 157.595 97.1371C159.785 105.862 155.2 115.833 144.146 118.775C132.991 121.738 123.841 115.118 122.06 106.72ZM153.501 96.1563C152.027 88.065 142.529 84.4484 136.143 86.3078C127.341 88.8618 121.528 97.7296 123.656 105.801C125.662 113.34 133.482 117.508 141.506 115.445C150.205 113.197 156.08 103.778 153.501 96.1563ZM141.874 117.447C150.881 116.426 158.536 106.577 155.814 99.4051C155.405 108.784 149.96 114.117 141.874 117.447Z" fill="#272765"/>
<path d="M46.8547 93.2957C35.8626 96.1767 26.6922 89.3727 24.5634 81.0157C22.803 74.1094 26.9993 62.3811 37.8072 59.5205C47.8782 56.8642 58.0106 62.3811 60.3237 71.9436C62.5549 81.1996 56.762 90.6395 46.8547 93.2957ZM56.2912 70.8811C54.715 62.5037 45.2786 59.4388 39.5471 60.7056C29.7627 62.8919 24.3178 72.6996 26.3442 80.2801C28.3503 87.7993 35.924 92.1924 43.4977 90.2308C53.057 87.7585 58.5224 79.4832 56.3116 70.8811H56.2912ZM58.42 70.6563C59.075 81.9556 53.7325 88.5349 43.1907 92.2945C54.4489 91.2729 61.3472 81.3017 58.42 70.6563Z" fill="#272765"/>
<path d="M106.933 211.499C95.9407 214.38 86.7703 207.576 84.6415 199.198C82.8811 192.292 87.0774 180.564 97.8853 177.703C107.956 175.047 118.089 180.584 120.402 190.126C122.633 199.382 116.84 208.822 106.933 211.478V211.499ZM116.369 189.023C114.793 180.686 105.336 177.621 99.5843 178.909C89.8817 181.095 84.3754 190.903 86.4428 198.524C88.4693 206.002 96.0431 210.395 103.637 208.413C113.176 205.921 118.621 197.625 116.369 189.023ZM104.088 210.355C114.732 209.21 121.589 199.26 118.498 188.982C119.194 200.159 113.811 206.738 104.088 210.355Z" fill="#272765"/>
<path d="M173.868 177.867C163.06 180.686 153.603 174.127 151.536 165.26C149.96 158.476 154.074 146.931 164.882 144.091C174.974 141.435 185.086 146.993 187.378 156.555C189.589 165.811 183.796 175.251 173.868 177.887V177.867ZM183.305 155.329C181.708 147.054 172.251 143.969 166.458 145.297C156.838 147.504 151.29 157.291 153.378 164.974C155.425 172.431 162.958 176.559 170.634 174.843C179.641 172.82 185.904 163.155 183.284 155.35L183.305 155.329ZM170.716 176.947C180.173 175.946 189.098 166.465 185.536 155.983C185.556 166.649 182.425 171.185 170.716 176.947Z" fill="#272765"/>
<path d="M78.1732 151.427C67.3653 154.246 57.9083 147.687 55.8409 138.82C54.2648 132.036 58.3791 120.492 69.1871 117.651C79.2785 114.995 89.3905 120.553 91.6831 130.115C93.9143 139.371 88.1009 148.811 78.1732 151.447V151.427ZM87.6301 128.971C86.054 120.635 76.597 117.549 70.8451 118.857C61.1221 121.043 55.6362 130.851 57.6832 138.472C59.7097 145.971 67.2834 150.344 74.8776 148.362C84.4164 145.869 89.8613 137.573 87.6301 128.971ZM89.8818 129.543C90.4344 140.168 85.01 146.645 75.4303 150.323C86.4019 148.525 92.5633 139.514 89.8818 129.543Z" fill="#272765"/>
<path d="M98.2947 48.6094C105.377 45.238 112.46 41.8666 119.849 38.3522C119.174 40.9063 101.038 49.9784 98.2947 48.6094Z" fill="#272765"/>
<path d="M149.12 97.0962C148.302 99.7524 130.391 108.477 127.894 107.21C134.976 103.839 142.058 100.468 149.12 97.0962Z" fill="#272765"/>
<path d="M52.4838 73.1287C45.5037 76.4796 38.5441 79.8306 31.5639 83.1815C31.3797 82.8342 31.216 82.4664 31.0317 82.119C37.4182 77.583 45.1148 75.6419 51.7878 71.6984C52.013 72.1683 52.2586 72.6587 52.4838 73.1287Z" fill="#272765"/>
<path d="M91.376 200.833C97.5373 195.868 105.172 193.784 112.153 190.474C105.909 195.296 98.4789 197.727 91.376 200.833Z" fill="#272765"/>
<path d="M157.922 166.302C164.902 162.992 171.903 159.661 178.883 156.351C179.047 156.678 179.211 157.005 179.374 157.332C172.947 161.725 165.414 164.013 158.659 167.773C158.414 167.282 158.168 166.792 157.922 166.322V166.302Z" fill="#272765"/>
<path d="M83.4133 130.401C77.1701 135.203 69.7396 137.635 62.6162 140.74C68.8185 135.857 76.3922 133.671 83.4133 130.401Z" fill="#272765"/>
</g>
<defs>
<clipPath id="clip0_139_586">
<rect width="211" height="238" fill="white"/>
</clipPath>
</defs>
</svg>
