<svg width="475" height="370" viewBox="0 0 475 370" fill="none" xmlns="http://www.w3.org/2000/svg">
<g clip-path="url(#clip0_331_408)">
<path d="M135.585 268.32C135.585 268.141 135.613 268.577 135.574 268.409C135.562 268.37 135.607 268.314 135.613 268.275C135.613 268.258 135.479 268.431 135.63 268.253C135.68 268.197 135.719 268.113 135.764 268.046C135.607 268.292 135.786 268.029 135.876 267.934C135.948 267.862 136.262 267.616 136.038 267.778C136.167 267.683 136.301 267.593 136.441 267.509C137.257 267.029 138.186 266.778 139.288 266.56C141.106 266.208 142.986 266.129 144.832 266.124C154.873 266.09 165.747 267.811 174.239 273.505C175.615 274.427 177.013 275.427 178.11 276.751C178.798 277.584 179.978 276.394 179.296 275.567C178.322 274.388 177.019 273.415 175.783 272.538C172.437 270.152 168.611 268.448 164.701 267.219C158.643 265.314 152.193 264.548 145.861 264.453C143.696 264.42 141.514 264.492 139.372 264.844C138.175 265.04 136.967 265.342 135.881 265.895C135.02 266.336 133.873 267.208 133.895 268.309C133.918 269.409 135.596 269.387 135.574 268.309L135.585 268.32Z" fill="#272765"/>
<path d="M75.9986 339.297C77.0671 337.509 78.2138 335.766 79.3773 334.039C81.9058 330.284 84.5909 326.619 87.5332 323.172C90.4756 319.724 93.5355 316.394 97.3953 314.192C98.7826 313.399 100.299 312.784 101.82 312.824C102.245 312.835 102.34 312.846 102.76 312.947C103.095 313.03 103.336 313.215 103.582 313.237C103.7 313.248 103.666 313.377 103.504 313.17C103.593 313.287 103.744 313.5 103.588 313.226C103.627 313.287 103.672 313.349 103.705 313.41C103.8 313.567 103.806 313.667 103.75 313.477C103.823 313.706 103.884 313.935 103.935 314.17C103.968 314.332 103.923 313.941 103.935 314.209C103.935 314.293 103.951 314.377 103.957 314.461C103.968 314.651 103.968 314.841 103.963 315.031C103.957 315.254 103.94 315.472 103.918 315.696C103.912 315.774 103.867 316.103 103.901 315.874C103.884 316.008 103.862 316.142 103.839 316.271C103.728 316.908 103.577 317.534 103.398 318.154C102.883 319.936 102.172 321.657 101.389 323.334C98.5588 329.424 94.8948 335.145 91.1245 340.688C89.7037 342.778 88.2213 344.828 86.7221 346.857C83.7853 350.829 80.7367 354.729 77.4531 358.423C75.8532 360.222 74.1918 361.982 72.4074 363.608C71.0536 364.837 69.6104 366.049 67.9602 366.865C67.5966 367.044 67.5183 367.083 67.1323 367.206C66.9813 367.256 66.8247 367.301 66.668 367.335C66.6009 367.351 66.5282 367.357 66.461 367.374C66.2765 367.435 66.517 367.374 66.3827 367.385L67.1099 367.798C67.6973 368.569 67.0764 368.586 67.2218 368.312C67.261 368.245 67.2722 368.145 67.2945 368.067C67.3896 367.759 67.4959 367.452 67.5966 367.15C67.8987 366.256 68.2008 365.368 68.5084 364.474C69.2916 362.194 70.0859 359.914 70.8746 357.635C71.9039 354.64 73.0674 351.69 74.0743 348.684C75.2155 345.281 75.9427 341.794 76.1776 338.213C76.3958 334.816 76.2056 331.346 75.484 328.016C74.8463 325.094 73.666 322.11 71.4732 319.998C68.5476 317.182 63.4683 315.83 60.7273 319.501C58.8813 321.97 58.4562 325.401 58.2212 328.379C57.9415 331.972 58.087 335.592 58.3891 339.174C58.6128 341.817 58.9317 344.454 59.34 347.069C59.5078 348.136 59.8211 349.12 60.1288 350.159C61.902 356.104 63.6753 362.049 65.4486 367.994C65.4933 368.139 65.5381 368.284 65.5772 368.435C65.8849 369.469 67.5071 369.028 67.1939 367.988C65.3479 361.803 63.5019 355.612 61.6559 349.427C61.2755 348.153 61.0014 347.002 60.8112 345.683C60.6042 344.286 60.4364 342.945 60.2798 341.448C60.0728 339.476 59.9106 337.498 59.8267 335.514C59.6533 331.592 59.6141 327.474 60.6602 323.652C61.035 322.283 61.5944 320.869 62.5509 319.92C62.9593 319.512 63.4627 319.193 63.9774 319.042C65.2751 318.657 66.7407 318.97 67.9378 319.54C71.1599 321.076 72.8437 324.356 73.6828 327.675C74.6505 331.514 74.7792 335.598 74.3932 339.526C73.996 343.56 72.8157 347.365 71.4228 351.153C70.3208 354.137 69.2804 357.132 68.2399 360.138C67.4456 362.434 66.6345 364.725 65.8737 367.033C65.6947 367.564 65.3199 368.312 65.801 368.798C66.3156 369.313 67.3729 368.899 67.9602 368.67C69.4929 368.072 70.8411 367.089 72.1109 366.061C73.6772 364.787 75.126 363.367 76.5189 361.909C82.096 356.065 86.9906 349.522 91.6224 342.917C94.0334 339.47 96.3213 335.933 98.4749 332.318C100.836 328.351 103.123 324.228 104.628 319.847C105.277 317.958 105.898 315.818 105.585 313.801C105.467 313.064 105.165 312.226 104.494 311.807C102.413 310.51 99.5881 311.248 97.5575 312.215C94.0501 313.891 91.1022 316.774 88.4898 319.584C83.4777 324.976 79.1648 331.067 75.2658 337.302C75.0309 337.676 74.796 338.056 74.5666 338.436C74.0128 339.364 75.4616 340.208 76.0154 339.28L75.9986 339.297Z" fill="#272765"/>
<path d="M89.273 122.778C86.7949 105.329 100.164 91.7066 100.299 91.5669L96.6569 87.9407C96.0304 88.5665 81.352 103.541 84.1826 123.494C85.7656 134.657 93.267 145.491 105.876 154.828C115.229 161.751 124.011 165.41 124.38 165.561L126.344 160.818C126.008 160.678 92.6517 146.609 89.273 122.773V122.778Z" fill="#6989B3"/>
<path d="M173.506 45.3645L170.631 49.6165C175.559 52.9411 177.953 57.3104 177.545 62.2497C176.845 70.8376 168.158 80.1686 155.415 86.0299C130.058 97.6853 105.674 81.247 105.428 81.0794L102.514 85.3091C103.314 85.8622 117.477 95.4 135.999 95.4C142.756 95.4 150.084 94.1316 157.563 90.6954C172.186 83.9737 181.807 73.2346 182.669 62.6688C183.222 55.8689 179.972 49.7283 173.506 45.3645Z" fill="#6989B3"/>
<path d="M169.434 36.1506C164.751 32.9881 161.496 36.9552 159.409 40.0451C157.323 43.1349 154.85 47.6272 159.532 50.7897C163.001 53.1308 169.159 55.4105 172.124 56.433C173.12 56.7794 174.155 56.4889 174.681 55.7122L177.17 52.0245L179.665 48.3368C180.185 47.5657 180.073 46.4985 179.379 45.6995C177.321 43.3361 172.902 38.4806 169.434 36.1394V36.1506Z" fill="#BADAE1"/>
<path d="M165.031 48.8342C159.42 46.0013 160.701 39.5311 161.205 37.6816C160.528 38.4415 159.929 39.2741 159.409 40.0451C157.323 43.135 154.85 47.6273 159.532 50.7898C163.001 53.1309 169.159 55.4106 172.124 56.4331C173.12 56.7795 174.155 56.4889 174.681 55.7123L176.918 52.4045C173.909 53.0136 169.937 51.3038 165.031 48.8286V48.8342Z" fill="#85B4C1"/>
<path d="M172.527 41.822C169.394 39.2294 166.351 37.732 165.736 38.4751C165.121 39.2182 167.157 41.9226 170.295 44.5151C173.428 47.1077 176.471 48.6051 177.086 47.862C177.701 47.1189 175.665 44.4146 172.527 41.822Z" fill="#6989B3"/>
<path d="M92.551 1.86068C83.0637 6.60442 76.6811 19.5282 75.8924 35.5864C74.3932 66.3118 100.343 83.8507 101.445 84.5827L102.905 82.3812L102.866 82.4427L104.287 80.3027L102.905 82.3812L104.287 80.3027C104.041 80.1407 79.6682 63.5963 81.022 35.8323C81.7044 21.8358 87.1305 10.3033 94.8445 6.44797C99.2804 4.22976 104.231 4.81644 109.159 8.14096L112.035 3.88892C105.568 -0.469276 98.6483 -1.19564 92.5454 1.86068H92.551Z" fill="#6989B3"/>
<path d="M102.866 82.4427L102.905 82.3868L104.287 80.3027L102.866 82.4427Z" fill="#6989B3"/>
<path d="M125.65 6.68819C122.182 4.34706 116.023 2.06738 113.058 1.04488C112.057 0.698463 111.028 0.98901 110.502 1.76566L108.007 5.45337L105.512 9.14108C104.992 9.91214 105.104 10.9793 105.797 11.7783C107.856 14.1418 112.275 18.9973 115.743 21.3384C120.425 24.5009 123.681 20.5339 125.768 17.444C127.854 14.3542 130.327 9.86186 125.644 6.69937L125.65 6.68819Z" fill="#BADAE1"/>
<path d="M115.514 15.4995C111.386 11.8788 108.315 8.83924 107.755 5.82202L105.518 9.12978C104.997 9.90085 105.109 10.968 105.803 11.7671C107.861 14.1305 112.281 18.986 115.749 21.3272C120.431 24.4896 123.687 20.5226 125.773 17.4327C126.299 16.6561 126.847 15.7956 127.3 14.8848C125.768 16.0414 120.241 19.6453 115.514 15.505V15.4995Z" fill="#85B4C1"/>
<path d="M119.228 5.93375C115.648 4.00049 112.376 3.11768 111.917 3.96697C111.458 4.81626 113.981 7.07358 117.561 9.01242C121.141 10.9513 124.414 11.8285 124.873 10.9792C125.331 10.1299 122.808 7.87259 119.228 5.93375Z" fill="#6989B3"/>
<path d="M121.667 85.0351C116.773 82.694 111.816 79.8332 106.888 76.5031C101.96 73.1786 97.4512 69.6529 93.446 65.9931C91.9692 64.641 89.6925 64.6912 88.2829 66.116L86.5208 67.8984C85.0496 69.3903 85.0887 71.8152 86.6382 73.2288C89.0828 75.4638 91.6951 77.6541 94.4529 79.7773C96.008 80.973 96.3716 83.1745 95.2696 84.8004L88.859 94.2823C87.7067 95.9809 88.1598 98.2941 89.8603 99.4395L91.9357 100.842C93.6362 101.993 95.9521 101.546 97.0988 99.8418L103.509 90.3599C104.611 88.734 106.787 88.2479 108.477 89.2424C111.481 91.0081 114.485 92.6117 117.477 94.042C119.368 94.9472 121.639 94.0812 122.473 92.1591L123.474 89.8626C124.274 88.0244 123.474 85.9012 121.662 85.0351H121.667Z" fill="#6989B3"/>
<path d="M98.5029 85.756C100.645 82.5935 101.574 80.7609 97.9827 78.3359C94.3914 75.911 87.1697 71.3516 92.4 66.1162C92.5846 65.9318 92.7524 65.753 92.909 65.5854C91.4546 64.6691 89.5303 64.8423 88.2829 66.1106L86.5208 67.893C85.0496 69.3849 85.0887 71.8098 86.6382 73.2234C89.0828 75.4584 91.6951 77.6487 94.4529 79.7719C96.008 80.9676 96.3716 83.1691 95.2752 84.795L88.8646 94.2769C87.7123 95.9755 88.1654 98.2887 89.8659 99.4341L91.9413 100.837C93.6418 101.988 95.9577 101.535 97.1044 99.8364L99.163 96.7968C97.1044 99.8364 91.091 96.7242 93.8711 92.6118C96.6513 88.4995 96.366 88.9185 98.5085 85.756H98.5029Z" fill="#BADAE1"/>
<path d="M108.583 79.9617C101.932 75.475 96.724 69.9602 95.8626 71.6867C95.0011 73.4132 98.984 75.9443 103.879 79.3974C108.773 82.8504 120.202 90.4493 121.147 88.4378C122.187 86.2196 118.188 86.4431 108.583 79.9617Z" fill="#BADAE1"/>
<path d="M299.676 253.083C313.359 237.393 322.303 217.474 324.284 195.543C324.412 194.096 324.513 192.638 324.58 191.174V191.157C324.658 189.548 324.698 187.928 324.698 186.296C324.698 130.12 279.107 84.5825 222.866 84.5825C175.738 84.5825 136.083 116.559 124.475 159.979C124.022 161.661 123.614 163.36 123.25 165.075C121.796 171.92 121.03 179.016 121.03 186.296C121.03 219.212 136.681 248.479 160.959 267.068" stroke="#272765" stroke-width="5" stroke-miterlimit="10"/>
<path d="M175.453 276.344C175.453 276.344 175.453 276.338 175.447 276.338" stroke="#272765" stroke-width="5" stroke-miterlimit="10"/>
<path d="M170.497 273.55L170.491 273.544" stroke="#272765" stroke-width="5" stroke-miterlimit="10"/>
<path d="M283.421 268.08H283.415" stroke="#272765" stroke-width="5" stroke-miterlimit="10"/>
<path d="M187.138 248.049C188.951 245.819 188.587 242.366 190.433 240.165C191.423 238.98 192.911 238.338 194.119 237.371C197.336 234.801 198.248 230.241 201.078 227.252C201.777 226.515 202.594 225.872 203.148 225.023C205.363 221.631 203.036 215.82 206.555 213.803C207.388 213.328 208.384 213.222 209.279 212.859C211.762 211.848 213.038 208.585 211.897 206.16C205.76 203.36 199.171 201.556 192.464 200.851C191.831 200.784 191.043 200.6 190.92 199.974C190.808 199.399 191.356 198.941 191.697 198.466C192.671 197.119 191.988 195.136 190.769 194.007C189.549 192.878 187.921 192.319 186.478 191.504C184.766 190.537 183.29 189.224 181.813 187.95C180.448 186.771 179.614 185.397 177.651 185.788C176.857 185.95 176.001 186.179 175.257 185.849C174.692 185.598 174.311 185.078 173.853 184.665C173.394 184.251 172.728 183.933 172.18 184.201C171.934 184.324 171.749 184.542 171.593 184.771C171.319 185.184 171.112 185.637 170.989 186.117C170.882 186.531 170.832 186.967 170.603 187.324C170.373 187.682 169.892 187.933 169.517 187.727C169.103 187.498 169.103 186.894 169.266 186.447C169.428 186 169.702 185.564 169.646 185.095C169.473 183.659 168.287 184.458 167.688 184.827C166.614 185.486 165.395 185.978 164.186 186.369C161.127 187.347 156.83 186.548 156.215 183.396C156.047 182.547 156.198 181.659 156.036 180.809C155.672 178.904 153.575 177.524 151.684 177.949C152.165 177.021 152.652 176.043 152.613 175.004C152.573 173.965 151.796 172.875 150.75 172.881C149.743 172.892 149.033 173.831 148.132 174.283C145.659 175.518 142.924 172.523 142.868 169.763C142.801 166.511 146.549 160.225 150.481 162.404C151.181 162.795 152.003 163.276 152.73 162.941C153.127 162.762 153.379 162.382 153.681 162.069C154.492 161.237 155.756 160.879 156.881 161.158C157.932 161.421 158.788 162.175 159.51 162.974C159.946 163.455 160.355 163.974 160.545 164.595C160.718 165.176 160.69 165.818 160.964 166.36C161.507 167.433 162.24 167.025 162.357 166.198C162.486 165.327 162.201 164.315 162.273 163.41C162.408 161.672 162.995 159.817 164.695 159.024C166.273 158.286 168.443 158.689 169.529 157.331C170.401 156.236 170.026 154.643 170.301 153.274C170.742 151.045 172.84 149.592 174.764 148.38C177.047 146.944 179.335 146.1 181.499 144.469C182.081 144.027 182.725 143.569 183.457 143.575C184.531 143.586 185.415 144.608 186.489 144.558C186.948 144.541 187.379 144.318 187.787 144.105C188.576 143.692 189.37 143.279 190.159 142.871C192.229 141.792 188.699 141.25 187.938 141.066C186.993 140.842 186.036 140.658 185.08 140.518C184.738 140.468 182.557 140.457 182.422 140.245C181.561 138.848 183.698 137.551 185.326 137.322C188.632 136.859 191.971 136.624 195.305 136.624C197.515 136.624 200.647 135.635 200.032 133.517C199.635 132.16 197.901 131.819 196.486 131.718C197.078 130.154 197.677 128.444 197.202 126.84C196.726 125.237 194.64 124.047 193.314 125.08C191.837 126.231 191.669 129.466 189.868 128.969C188.951 128.718 188.704 127.572 188.218 126.757C186.998 124.712 183.866 124.689 181.88 126.008C179.9 127.326 178.731 129.522 177.433 131.517C176.196 133.422 173.981 135.428 171.951 134.406C173.181 133.042 172.046 130.897 170.838 129.511C169.629 128.125 168.259 126.248 169.159 124.644C169.517 124.013 170.155 123.605 170.776 123.22C173.495 121.538 176.219 119.856 178.937 118.174C180.28 117.347 181.807 115.76 180.907 114.47C174.16 117.062 166.849 118.18 159.633 117.71C156.64 117.515 153.603 115.604 150.66 114.838C138.309 127.539 129.292 143.491 125.018 161.287C127.076 162.656 129.706 163.449 131.339 165.332C134.522 168.992 133.185 175.781 137.414 178.155C139.501 179.323 142.079 178.815 144.446 179.161C148.216 179.703 151.404 182.508 153.144 185.9C153.726 187.028 154.274 188.336 155.449 188.827C156.64 189.325 158.033 188.771 159.297 189.045C162.094 189.654 162.458 193.649 161.25 196.247C160.036 198.84 157.899 201.176 157.86 204.036C157.804 207.925 161.529 210.618 164.578 213.043C168.924 216.491 172.801 221.106 173.444 226.61C174.037 231.683 171.839 236.974 173.422 241.83C174.104 243.919 175.447 245.741 176.208 247.803C177.304 250.77 177.147 254.027 177.505 257.167C177.863 260.307 178.971 263.677 181.69 265.308C182.428 265.755 183.48 266.001 184.084 265.392C183.933 261.81 183.787 258.234 183.636 254.653C183.586 253.496 183.552 252.284 184.078 251.25C184.755 249.926 186.21 249.2 187.144 248.049H187.138Z" fill="url(#paint0_linear_331_408)"/>
<path d="M234.071 111.324C236.376 109.698 238.675 108.072 240.979 106.452C241.298 106.228 241.628 105.988 241.807 105.642C242.484 104.318 240.549 103.194 239.066 103.094C232.292 102.619 225.775 106.038 219.007 105.016C213.083 104.116 206.129 104.262 201.291 108.48C201.028 108.709 200.754 109 200.776 109.346C200.787 109.581 200.938 109.788 201.106 109.955C202.79 111.615 205.822 110.045 207.931 111.112C209.665 111.989 210.095 114.341 209.654 116.236C209.212 118.13 208.138 119.823 207.64 121.7C207.175 123.455 207.237 125.349 207.819 127.07C208.669 127.807 210.045 127.159 210.677 126.231C211.309 125.304 211.55 124.136 212.26 123.27C213.318 121.974 215.124 121.622 216.775 121.354C221.804 120.543 226.838 119.739 231.867 118.929C232.846 118.772 233.87 118.599 234.664 118.007C235.458 117.414 235.939 116.269 235.453 115.403C234.826 114.28 232.868 113.9 233.025 112.626C233.092 112.056 233.601 111.659 234.071 111.33V111.324Z" fill="#786CB1"/>
<path d="M190.651 108.648C190.31 108.899 190.041 109.374 190.271 109.726C191.322 110.006 192.436 109.559 193.336 108.944C194.237 108.335 195.02 107.553 195.977 107.033C197.369 106.284 199.025 106.15 200.424 105.413C207.187 101.859 196.256 99.9817 194.142 99.775C193.689 99.7303 193.224 99.7023 192.794 99.8476C192.301 100.021 191.91 100.412 191.613 100.842C190.662 102.217 190.506 104.094 191.205 105.608C191.541 106.335 192.066 107.178 191.636 107.86C191.412 108.218 190.987 108.385 190.651 108.637V108.648Z" fill="#786CB1"/>
<path d="M310.702 164.075C313.163 165.533 315.831 166.645 318.606 167.366C319.272 167.539 319.982 167.69 320.636 167.483C321.078 167.344 321.42 167.076 321.677 166.735C318.058 146.827 308.559 128.969 295.044 115.012C294.837 115.157 294.647 115.369 294.446 115.654C293.495 117.001 293.926 117.655 292.203 116.543C291.766 116.258 291.179 115.978 290.765 116.291C290.362 116.599 290.463 117.23 290.704 117.677C290.944 118.118 291.302 118.537 291.302 119.04C291.302 119.7 290.687 120.203 290.055 120.404C289.596 120.549 288.589 120.733 287.437 120.823C284.752 121.029 281.255 120.75 281.916 118.431C282.061 117.928 282.464 117.526 282.934 117.291C283.062 117.23 283.197 117.174 283.336 117.18C283.655 117.185 283.89 117.459 284.114 117.683C284.494 118.074 284.998 118.403 285.546 118.364C286.089 118.325 286.603 117.778 286.43 117.258C286.346 117.001 286.122 116.817 285.898 116.666C284.108 115.448 281.423 115.442 279.348 115.101C277.01 114.71 274.671 114.33 272.333 113.933C269.782 113.509 266.314 113.621 265.637 116.118C265.402 116.984 265.615 117.934 265.285 118.772C264.67 120.342 262.645 120.633 261.039 121.147C259.434 121.661 257.789 123.561 258.913 124.818C260.004 126.041 262.583 125.069 263.333 126.533C263.657 127.164 263.411 127.952 263.612 128.634C264.161 130.495 267.26 129.779 268.037 128.003C268.815 126.226 268.328 124.158 268.658 122.248C268.988 120.337 271.024 118.37 272.674 119.392C272.988 120.923 272.775 122.56 272.081 123.963C273.715 124.684 275.572 123.862 277.351 123.751C279.13 123.639 281.356 125.192 280.528 126.773C277.894 126.064 274.85 127.416 273.603 129.841C273.318 130.394 273.111 131.009 272.641 131.411C272.249 131.746 271.735 131.891 271.231 132.014C263.495 133.897 254.517 133.104 248.565 138.39C248.235 138.68 247.91 139.004 247.759 139.412C247.289 140.658 248.52 141.815 249.365 142.843C250.209 143.871 250.36 145.938 249.029 146.067C246.54 145.737 243.312 145.815 242.395 148.145C241.595 150.185 243.569 152.498 245.751 152.738C247.933 152.984 250.014 151.749 251.63 150.274C253.252 148.799 254.612 147.022 256.407 145.771C258.209 144.519 260.67 143.871 262.589 144.927C264.161 145.793 264.972 147.547 265.984 149.028C267.002 150.509 268.68 151.906 270.414 151.436C270.61 150.609 270.812 149.788 271.007 148.961C272.423 149.207 273.06 150.805 273.844 152.006C274.627 153.207 276.568 154.101 277.345 152.895C277.15 151.548 276.948 150.207 276.752 148.86C278.665 149.537 281.026 148.235 281.474 146.257C281.664 145.424 281.558 144.525 281.91 143.748C282.413 142.636 283.711 142.116 284.925 141.96C289.132 141.412 293.506 144.413 294.507 148.531C293.109 149.972 290.771 148.687 288.818 148.201C285.63 147.402 281.994 149.442 281.015 152.576C283.297 154.135 286.984 151.833 288.975 153.749C290.032 154.772 289.932 156.605 289.053 157.778C288.175 158.957 286.721 159.572 285.277 159.857C282.939 160.326 280.456 160.052 278.274 159.091C276.976 158.521 275.382 157.733 274.274 158.622C273.888 158.929 273.659 159.393 273.312 159.745C271.981 161.091 269.698 160.298 268.093 159.292C266.488 158.286 264.569 157.091 262.852 157.89C263.752 156.873 263.053 155.13 261.85 154.487C260.648 153.85 259.199 153.984 257.845 154.141C253.236 154.666 248.486 155.23 244.448 157.51C236.068 162.237 233.098 172.898 232.868 182.502C232.812 184.821 232.98 186.788 234.435 188.598C235.749 190.23 236.555 192.347 238.82 192.889C240.918 193.387 243.055 192.113 245.203 192.252C246.299 192.32 247.384 192.755 248.464 192.554C249.27 192.403 249.963 191.912 250.713 191.576C252.503 190.777 254.556 190.884 256.514 191.012C256.749 191.029 257.017 191.062 257.151 191.252C257.308 191.476 257.196 191.778 257.213 192.046C257.263 192.839 258.298 193.102 259.092 193.107C262.287 193.135 262.236 195.611 262.303 198.13C262.398 201.679 265.268 204.59 265.878 208.087C266.46 211.423 264.96 214.653 264.899 217.966C264.843 220.955 264.776 224.207 266.476 226.828C267.03 227.677 267.724 228.453 268.043 229.415C268.356 230.37 268.266 231.404 268.389 232.404C268.513 233.398 268.96 234.477 269.894 234.846C270.258 234.991 270.7 235.041 270.907 235.371C271.035 235.577 271.03 235.835 271.019 236.075C270.979 236.997 270.935 237.913 270.896 238.835C270.862 239.634 270.834 240.478 271.192 241.187C271.556 241.902 272.451 242.417 273.172 242.076C273.418 241.958 273.614 241.763 273.849 241.623C274.448 241.26 275.192 241.299 275.885 241.249C277.877 241.103 279.734 240.131 281.25 238.841C282.766 237.55 283.985 235.946 285.154 234.337C285.568 233.767 285.999 233.18 286.614 232.84C286.95 232.655 287.33 232.555 287.638 232.331C287.879 232.152 288.063 231.907 288.237 231.666C289.322 230.146 290.978 227.817 291.285 225.95C291.386 225.336 291.308 224.704 291.313 224.079C291.319 222.626 291.867 221.072 293.103 220.301C293.791 219.871 294.642 219.72 295.274 219.206C296.616 218.117 296.381 216.049 296.118 214.34C295.593 210.92 295.475 207.434 295.76 203.986C295.833 203.109 295.939 202.215 296.292 201.405C296.924 199.952 298.692 199.164 299.945 198.298C304.42 195.219 309.264 191.833 310.87 186.643C311.026 186.145 311.132 185.559 310.842 185.129C310.696 184.922 310.478 184.777 310.249 184.67C308.308 183.788 306.4 185.413 304.817 186.335C303.441 187.134 300.683 188.213 299.396 186.654C298.485 185.553 299.195 183.698 298.283 182.603C297.685 181.882 296.639 181.793 295.772 181.441C293.791 180.636 293.797 179.167 293.215 177.463C292.494 175.362 291.476 173.317 290.614 171.266C289.96 169.713 289.372 168.104 288.645 166.578C288.114 165.466 287.028 164.528 286.872 163.254C286.827 162.907 286.866 162.533 287.079 162.265C287.291 161.991 287.722 161.874 288.002 162.08C288.293 162.298 288.337 162.768 288.667 162.907C289.087 163.08 289.495 162.572 289.948 162.589C290.267 162.6 290.519 162.874 290.62 163.175C290.72 163.477 290.698 163.801 290.692 164.114C290.648 166.422 293.204 168.841 294.34 170.758C295.76 173.155 296.969 175.68 297.948 178.289C298.294 179.211 298.624 180.167 299.24 180.938C300.711 182.765 303.799 182.961 305.488 181.335C306.081 180.765 306.495 180.027 307.077 179.441C308.218 178.289 309.823 177.837 311.356 177.491C312.755 177.178 314.282 177.513 315.255 176.222C315.826 175.462 315.982 174.473 316.424 173.641C316.872 172.803 317.879 172.082 318.729 172.501C318.729 172.043 318.701 171.562 318.46 171.171C318.22 170.78 317.705 170.529 317.291 170.719C317.079 170.819 316.933 171.009 316.754 171.154C316.128 171.652 315.143 171.484 314.567 170.925C313.997 170.367 313.79 169.517 313.812 168.718C313.823 168.344 313.873 167.93 313.655 167.629C313.325 167.171 312.626 167.249 312.095 167.439C311.071 167.796 310.092 168.377 309.007 168.394C307.306 168.411 306.031 167.036 305.287 165.651C304.873 164.874 304.711 164.204 304.011 163.645C303.34 163.108 302.831 163.108 302.635 162.058C305.074 160.399 308.61 162.846 310.685 164.069L310.702 164.075Z" fill="url(#paint1_linear_331_408)"/>
<path d="M306.366 222.045C307.608 220.726 311.451 216.999 308.638 215.871C306.903 215.178 302.742 217.815 300.789 218.038C300.498 218.072 300.168 218.122 299.995 218.363C299.85 218.564 299.861 218.837 299.883 219.089C300.191 222.363 301.399 225.688 300.515 228.85C300.431 229.146 300.342 229.498 300.549 229.727C300.644 229.834 300.784 229.884 300.918 229.929C302.971 230.554 305.382 228.783 305.388 226.638C305.388 225.604 304.94 224.548 305.27 223.57C305.471 222.972 305.936 222.503 306.372 222.045H306.366Z" fill="#49B49E"/>
<path d="M244.89 131.21C243.933 131.836 243.217 132.903 243.223 134.048C243.223 134.3 243.267 134.568 243.435 134.758C243.664 135.009 244.056 135.032 244.397 135.037C245.667 135.054 247.01 135.048 248.095 134.383C249.18 133.719 249.795 132.143 249.012 131.148L247.72 130.886C247.865 130.69 248.017 130.495 248.162 130.299C247.015 130.344 245.852 130.578 244.895 131.21H244.89Z" fill="#786CB1"/>
<path d="M196.637 139.395C195.758 139.781 194.897 140.708 195.266 141.591C195.445 142.027 195.887 142.301 196.335 142.441C197.286 142.726 198.376 142.452 199.081 141.759C199.786 141.066 200.066 139.971 199.792 139.021L199.115 138.954C198.27 138.904 197.409 139.055 196.631 139.401L196.637 139.395Z" fill="#786CB1"/>
<path d="M190.181 121.901C190.556 122.996 192.111 123.041 193.191 122.622C195.837 121.588 197.744 118.895 197.839 116.062L196.743 115.04C194.735 114.134 192.581 113.559 190.394 113.335C189.941 114.123 190.081 115.207 190.713 115.861C191.127 116.286 191.72 116.554 191.977 117.085C192.754 118.716 189.605 120.186 190.192 121.895L190.181 121.901Z" fill="#786CB1"/>
<path d="M167.045 112.369L166.726 110.81C164.942 110.648 163.129 110.765 161.384 111.162C160.243 111.419 158.889 112.112 158.967 113.28C159.012 113.967 159.599 114.52 160.248 114.749C160.897 114.978 161.608 114.95 162.296 114.922C163.09 114.889 163.879 114.85 164.673 114.816C165.479 114.783 166.329 114.732 167.011 114.297C167.694 113.861 168.113 112.905 167.683 112.218C167.52 111.995 167.095 112.095 167.045 112.363V112.369Z" fill="#786CB1"/>
<path d="M12.9555 286.82C41.5627 278.796 69.7223 268.588 97.1995 257.346C110.362 251.965 123.379 246.227 136.189 240.047C137.487 239.422 136.351 237.494 135.059 238.12C98.2904 255.865 59.7988 270.309 20.7478 282.188C17.9564 283.037 15.1651 283.881 12.3569 284.669C10.9753 285.054 11.5626 287.216 12.9499 286.825L12.9555 286.82Z" fill="#272765"/>
<path d="M318.74 257.575C322.091 255.904 325.621 254.552 329.139 253.301C336.887 250.552 344.959 248.479 353.159 247.713C357.713 247.283 362.345 247.249 366.881 247.87C369.913 248.283 372.822 249.065 375.72 250.032C379.848 251.418 383.864 253.172 387.769 255.077C395.175 258.692 402.285 263.028 408.64 268.286C412.22 271.247 415.565 274.511 418.518 278.098C420.683 280.729 422.686 283.512 424.761 286.216C429.46 292.334 434.204 298.419 438.959 304.493C443.982 310.913 449.016 317.316 454.068 323.713C458.28 329.049 462.498 334.38 466.721 339.705C468.919 342.476 471.112 345.242 473.316 348.008C473.417 348.136 473.518 348.259 473.618 348.388C474.29 349.231 475.47 348.041 474.804 347.203C473.238 345.236 471.672 343.264 470.111 341.292C466.234 336.403 462.358 331.514 458.492 326.619C453.491 320.294 448.502 313.958 443.523 307.61C438.578 301.308 433.65 294.994 428.755 288.658C423.861 282.322 419.609 276.131 413.999 270.784C407.689 264.777 400.394 259.827 392.731 255.72C387.83 253.094 382.74 250.764 377.51 248.875C376.066 248.35 374.601 247.847 373.124 247.434C368.682 246.193 364.039 245.707 359.436 245.718C350.676 245.741 341.938 247.495 333.592 250.06C328.49 251.63 323.445 253.507 318.611 255.781C318.377 255.893 318.142 256.005 317.907 256.122C316.939 256.603 317.789 258.05 318.751 257.569L318.74 257.575Z" fill="#272765"/>
<path d="M126.808 272.125C126.78 272.08 126.763 272.036 126.741 271.991C126.959 272.354 126.679 271.628 126.741 271.974C126.724 271.896 126.724 271.795 126.741 271.717C126.691 272.013 126.741 271.712 126.769 271.65C126.786 271.605 126.858 271.438 126.763 271.645C126.786 271.589 126.814 271.533 126.847 271.483C126.993 271.27 126.864 271.41 127.043 271.231C127.653 270.628 128.598 270.27 129.471 270.013C130.959 269.572 132.508 269.331 134.046 269.208C139.54 268.773 145.156 269.382 150.593 270.13C151.953 270.315 153.306 270.516 154.654 270.756C155.712 270.941 156.165 269.326 155.102 269.141C151.03 268.421 146.896 267.923 142.773 267.627C139.713 267.404 136.608 267.286 133.549 267.577C131.882 267.733 130.198 268.002 128.604 268.527C127.625 268.851 126.584 269.287 125.851 270.047C125.119 270.806 124.738 272.036 125.359 272.974C125.98 273.913 127.407 273.03 126.808 272.131V272.125Z" fill="#272765"/>
<path d="M179.133 276.142C173.903 273.505 168.186 271.717 162.463 270.51C156.741 269.303 150.672 268.756 144.72 268.89C141.738 268.957 138.757 269.18 135.797 269.566C133.174 269.907 130.511 270.276 127.96 271.013C125.7 271.667 123.457 272.678 121.779 274.371C121.125 275.036 120.856 275.528 120.767 276.422C120.666 277.467 121.041 278.512 121.857 279.188C123.418 280.478 125.779 280.378 127.664 280.188C128.727 280.082 128.738 278.405 127.664 278.511C126.232 278.657 124.28 278.875 123.021 277.975C123.021 277.975 122.691 277.662 122.747 277.729C122.691 277.662 122.646 277.584 122.607 277.511C122.585 277.472 122.562 277.428 122.54 277.383C122.495 277.293 122.585 277.511 122.529 277.36C122.501 277.277 122.478 277.187 122.456 277.103C122.411 276.947 122.439 277.036 122.439 277.042C122.422 276.869 122.428 276.701 122.439 276.534C122.45 276.366 122.439 276.511 122.439 276.511C122.45 276.455 122.456 276.394 122.467 276.338C122.495 276.226 122.523 276.114 122.551 276.008C122.568 275.952 122.585 275.891 122.607 275.841C122.641 275.774 122.618 275.869 122.579 275.913C122.383 276.142 122.702 275.835 122.752 275.779C122.87 275.651 122.993 275.528 123.116 275.405C124.677 273.902 126.752 273.069 128.816 272.511C131.222 271.862 133.722 271.494 136.189 271.186C138.936 270.846 141.693 270.639 144.457 270.566C149.95 270.432 155.46 270.846 160.852 271.89C166.827 273.047 172.84 274.841 178.283 277.584C179.245 278.07 180.095 276.623 179.128 276.137L179.133 276.142Z" fill="#272765"/>
<path d="M23.2874 320.104C20.9715 318.629 18.7731 316.925 16.6698 315.165C12.3681 311.572 8.29018 307.51 5.29745 302.738C3.79828 300.341 2.57881 297.754 2.00264 294.972C1.72854 293.647 1.62226 292.301 1.70057 290.949C1.78448 289.507 2.39981 287.445 4.2402 287.635C6.08059 287.825 7.66366 289.669 8.87194 290.859C10.2984 292.267 11.613 293.787 12.7765 295.419C15.1651 298.766 16.8992 302.464 18.2977 306.314C19.5227 309.683 20.6191 313.114 21.3799 316.617C21.5869 317.556 21.7659 318.5 21.8945 319.45C21.8833 319.389 21.9169 319.618 21.9337 319.758C21.9505 319.897 21.9617 320.02 21.9728 320.154C21.9896 320.322 21.9952 320.49 22.012 320.657C22.012 320.713 22.012 320.769 22.0176 320.825C22.0288 321.903 23.707 321.903 23.6958 320.825C23.6846 319.746 23.4832 318.702 23.2986 317.668C22.7112 314.433 21.7715 311.259 20.7142 308.152C19.2822 303.934 17.632 299.782 15.2042 296.028C14.0687 294.273 12.7877 292.603 11.378 291.055C9.96835 289.507 8.46359 287.959 6.7183 286.853C4.973 285.747 2.89207 285.54 1.40969 287.099C0.207002 288.384 2.74365e-05 290.094 2.74365e-05 291.787C-0.00556646 294.787 0.844706 297.704 2.10893 300.403C4.6989 305.917 8.99501 310.6 13.4981 314.628C15.3385 316.271 17.2572 317.824 19.2318 319.299C20.2276 320.037 21.2289 320.814 22.2973 321.456C22.3476 321.484 22.3924 321.518 22.4427 321.551C23.3545 322.132 24.1992 320.685 23.2874 320.104Z" fill="#272765"/>
<path d="M120.705 244.819C119.413 244.165 118.171 243.4 117.03 242.506C116.443 242.048 115.878 241.556 115.341 241.042C114.859 240.584 114.39 240.098 114.093 239.494C113.869 239.036 113.769 238.466 113.964 237.98C114.02 237.841 114.171 237.556 114.339 237.516C114.541 237.466 114.837 237.74 114.977 237.852C116.006 238.707 116.56 240.053 117.17 241.21C118.031 242.841 118.893 244.473 119.754 246.11C120.258 247.065 121.706 246.216 121.203 245.266C120.302 243.556 119.402 241.847 118.495 240.137C117.735 238.695 116.98 237.092 115.536 236.203C113.713 235.08 112.068 236.924 112.191 238.74C112.314 240.556 113.601 241.78 114.848 242.88C116.364 244.216 118.042 245.356 119.844 246.272C120.806 246.758 121.656 245.316 120.688 244.825L120.705 244.819Z" fill="#272765"/>
<path d="M120.269 243.076C120.067 240.925 120.09 238.746 120.381 236.6C120.526 235.538 120.711 234.46 121.007 233.432C121.063 233.242 121.125 233.052 121.209 232.873C121.253 232.778 121.404 232.611 121.415 232.51C121.438 232.314 121.085 232.32 121.035 232.51C120.985 232.672 121.125 233.03 121.147 233.208C121.192 233.499 121.225 233.79 121.253 234.08C121.298 234.566 121.32 235.058 121.298 235.55C121.253 236.589 120.867 237.567 120.543 238.544C119.877 240.556 119.614 242.674 119.776 244.791C119.86 245.858 121.539 245.87 121.455 244.791C121.354 243.484 121.399 242.165 121.656 240.874C121.913 239.584 122.417 238.433 122.73 237.187C123.043 235.941 123.01 234.639 122.842 233.348C122.719 232.398 122.646 230.996 121.427 230.839C119.508 230.594 119.116 233.974 118.909 235.181C118.451 237.79 118.339 240.444 118.585 243.081C118.686 244.149 120.364 244.154 120.263 243.081L120.269 243.076Z" fill="#272765"/>
<path d="M121.544 243.394C121.527 243.551 121.645 243.171 121.589 243.282C121.634 243.182 121.695 243.087 121.751 242.997C121.874 242.802 122.008 242.612 122.137 242.422C122.204 242.327 122.338 242.165 122.467 242.014C122.607 241.852 122.752 241.696 122.903 241.539C123.054 241.383 123.211 241.237 123.373 241.098C123.468 241.014 123.564 240.941 123.653 240.857C123.759 240.768 123.653 240.852 123.776 240.763C123.95 240.634 124.123 240.511 124.308 240.394C124.408 240.332 124.509 240.26 124.61 240.209C124.537 240.237 124.542 240.232 124.638 240.204C124.537 240.209 124.442 240.204 124.341 240.187L124.039 239.885C124.151 240.031 124.039 239.751 124.067 239.964C124.056 240.07 124.061 240.086 124.073 240.019C124.067 240.064 124.056 240.114 124.045 240.159C123.983 240.399 123.933 240.505 123.821 240.723C123.597 241.154 123.351 241.578 123.11 241.997C122.601 242.88 122.064 243.746 121.511 244.601C121.264 244.981 121.432 245.529 121.813 245.747C122.221 245.987 122.713 245.825 122.959 245.445C123.485 244.635 123.994 243.813 124.481 242.975C124.968 242.137 125.594 241.237 125.728 240.26C125.807 239.684 125.672 239.008 125.135 238.69C124.598 238.371 124.011 238.595 123.541 238.896C122.792 239.366 122.098 239.936 121.499 240.584C120.778 241.36 120 242.305 119.866 243.389C119.81 243.824 120.291 244.243 120.705 244.227C121.203 244.204 121.488 243.858 121.544 243.389V243.394Z" fill="#272765"/>
<path d="M205.883 282.093C197.688 280.361 189.499 278.623 181.304 276.891C175.296 275.617 169.45 273.773 163.386 272.717C157.323 271.661 150.873 270.985 144.602 271.449C138.835 271.874 132.721 273.27 128.324 277.254C126.405 278.992 124.347 282.506 125.633 285.066C126.853 287.49 130.248 287.809 132.62 287.87C134.309 287.915 136.055 287.496 137.738 287.351C144.339 286.775 151.041 286.865 157.373 288.971C160.83 290.122 164.293 291.262 167.733 292.474C174.434 294.838 181.091 297.341 187.642 300.096C191.194 301.588 194.718 303.158 198.181 304.856C200.754 306.119 203.539 307.376 205.889 308.98C206.722 309.55 207.494 310.237 208.3 310.84C209.989 312.109 211.712 313.338 213.463 314.528C218.593 318.026 223.94 321.233 229.557 323.893C235.458 326.692 241.796 329.05 248.358 329.53C251.328 329.748 254.254 329.542 257.045 328.508C261.509 326.854 265.9 324.982 270.28 323.11C274.918 321.127 279.471 318.925 284.215 317.216C289.478 315.321 294.86 313.74 300.319 312.505C307.485 310.885 314.886 309.823 322.242 310.22C325.671 310.405 329.083 310.947 332.344 312.042C333.368 312.388 333.81 310.768 332.792 310.427C326.046 308.158 318.684 308.142 311.681 308.896C304.867 309.628 298.143 311.125 291.576 313.059C287.951 314.126 284.338 315.305 280.825 316.713C274.671 319.182 268.675 322.043 262.533 324.558C260.111 325.547 257.66 326.647 255.154 327.407C253.499 327.91 251.63 327.955 249.907 327.921C246.819 327.86 243.771 327.273 240.806 326.435C234.379 324.613 228.304 321.63 222.548 318.277C218.106 315.696 213.81 312.846 209.687 309.784C208.759 309.092 208.048 308.522 207.164 307.851C205.234 306.382 202.846 305.314 200.687 304.219C194.047 300.85 187.149 297.984 180.213 295.291C174.468 293.061 168.667 290.971 162.827 288.999C159.443 287.854 155.997 286.541 152.467 285.971C146.308 284.976 139.903 285.25 133.739 286.122C131.876 286.384 129.107 286.233 127.619 284.926C126.416 283.87 127.015 282.149 127.653 280.953C129.437 277.606 133.107 275.64 136.815 274.505C142.734 272.695 149.144 272.74 155.253 273.298C160.724 273.796 166.15 274.813 171.475 276.142C173.444 276.634 175.38 277.31 177.354 277.763C185.852 279.707 194.421 281.378 202.952 283.183C203.78 283.356 204.608 283.535 205.436 283.708C206.487 283.931 206.941 282.317 205.883 282.093Z" fill="#272765"/>
<path d="M279.829 290.832C278.727 290.927 277.597 290.882 276.489 290.882C273.631 290.882 270.772 290.826 267.914 290.742C261.33 290.541 254.746 290.418 248.162 290.619C243.687 290.753 239.217 291.016 234.765 291.413C232.432 291.619 230.082 291.787 227.772 292.189C225.462 292.592 223.252 293.469 221.043 294.329C217.972 295.525 214.783 296.911 211.483 297.302C208.182 297.693 204.932 296.648 203.713 293.396C202.527 290.228 204.093 286.691 205.827 284.048C207.864 280.953 210.638 278.528 213.939 276.846C214.873 276.371 215.829 275.958 216.808 275.595C217.787 275.231 217.379 273.6 216.361 273.98C212.568 275.382 209.055 277.494 206.381 280.562C204.043 283.244 202.046 286.557 201.677 290.161C201.308 293.765 203.165 297.039 206.437 298.402C209.71 299.766 213.262 298.866 216.383 297.827C220.321 296.52 224.103 294.519 228.214 293.804C230.636 293.379 233.12 293.223 235.576 293.016C238.031 292.809 240.431 292.642 242.859 292.513C250.327 292.117 257.806 292.122 265.279 292.34C267.981 292.418 270.683 292.508 273.385 292.536C275.471 292.558 277.586 292.653 279.672 292.519C279.723 292.519 279.773 292.519 279.829 292.508C280.897 292.418 280.909 290.742 279.829 290.832Z" fill="#272765"/>
<path d="M332.781 263.945C329.799 262.911 326.823 261.877 323.842 260.838L324.345 261.224C323.243 259.598 321.543 258.301 319.926 257.24C315.479 254.323 310.159 252.949 304.912 252.451C300.795 252.06 296.633 252.228 292.533 252.742C289.769 253.088 286.972 253.524 284.271 254.211C280.914 255.072 277.653 256.357 274.464 257.687C266.577 260.972 258.986 264.945 251.597 269.219C250.349 269.94 249.107 270.672 247.871 271.415L248.52 271.331C245.801 270.806 243.01 270.516 240.252 270.32C234.72 269.929 229.07 270.035 223.633 271.192C220.467 271.868 217.34 272.946 214.587 274.684C213.676 275.259 214.52 276.712 215.432 276.131C220.355 273.019 226.413 272.086 232.141 271.851C236.717 271.667 241.46 271.951 245.913 272.594C246.467 272.672 247.021 272.762 247.575 272.857C247.871 272.907 248.224 273.013 248.52 272.946C248.99 272.834 249.493 272.398 249.907 272.153C250.372 271.879 250.836 271.605 251.306 271.331C252.206 270.806 253.113 270.281 254.019 269.767C255.77 268.767 257.537 267.789 259.311 266.833C264.474 264.056 269.749 261.442 275.169 259.195C277.938 258.05 280.752 256.972 283.633 256.128C286.956 255.156 290.429 254.625 293.864 254.262C302.579 253.34 312.441 253.904 319.814 259.179C320.312 259.536 320.536 259.709 321.056 260.151C321.38 260.43 321.699 260.726 322.001 261.034C322.22 261.252 322.432 261.481 322.634 261.715C322.701 261.794 322.768 261.877 322.835 261.961C322.975 262.129 322.689 261.766 322.852 261.983C323.333 262.632 324.435 262.805 325.168 263.062L331.097 265.124C331.517 265.269 331.931 265.414 332.35 265.559C333.374 265.917 333.81 264.297 332.798 263.945H332.781Z" fill="#272765"/>
<path d="M359.615 329.189H336.758C336.758 329.189 332.73 329.754 332.73 324.92V263.023C332.73 263.023 332.496 258.978 336.109 258.978H359.609" fill="#272765"/>
<path d="M205.095 296.151C206.56 293.558 209.486 292.267 212.327 291.843C215.471 291.379 219.046 292.184 220.752 295.095C221.3 296.022 222.749 295.184 222.201 294.251C220.198 290.837 216.109 289.681 212.367 290.161C208.926 290.602 205.413 292.184 203.646 295.307C203.114 296.246 204.563 297.095 205.095 296.151Z" fill="#272765"/>
<path d="M158.223 318.506C157.737 317.897 157.261 317.272 156.903 316.573C156.545 315.875 156.4 315.065 156.321 314.271C156.232 313.411 156.176 312.55 156.142 311.684C156.126 311.22 156.114 310.751 156.114 310.282C156.114 310.103 156.109 309.924 156.114 309.745C156.114 309.706 156.176 309.41 156.17 309.388C156.17 309.365 156.182 309.349 156.198 309.326C156.003 309.343 155.963 309.371 156.092 309.404C156.092 309.444 156.215 309.634 156.237 309.701C156.366 310.086 156.377 310.511 156.405 310.907C156.467 311.807 156.517 312.701 156.568 313.601C156.679 315.439 156.791 317.277 156.903 319.115C156.97 320.188 158.648 320.194 158.581 319.115C158.469 317.277 158.358 315.439 158.246 313.601C158.19 312.701 158.145 311.807 158.083 310.907C158.028 310.108 157.983 309.203 157.513 308.516C157.071 307.873 156.243 307.516 155.493 307.823C154.744 308.13 154.498 308.874 154.442 309.6C154.313 311.248 154.475 313.003 154.677 314.645C154.794 315.618 155.001 316.534 155.449 317.411C155.868 318.238 156.456 318.965 157.032 319.685C157.311 320.037 157.921 319.981 158.218 319.685C158.57 319.333 158.503 318.853 158.218 318.501L158.223 318.506Z" fill="#272765"/>
<path d="M158.525 316.875C158.38 315.93 158.744 314.958 159.118 314.109C159.493 313.26 159.941 312.343 160.383 311.483C160.612 311.036 162.575 307.153 163.269 307.879C163.448 308.063 163.269 308.555 163.202 308.751C163.056 309.164 162.827 309.55 162.62 309.935C162.178 310.762 161.692 311.567 161.166 312.343C160.12 313.891 158.917 315.316 157.586 316.623C156.814 317.383 158 318.568 158.771 317.808C160.08 316.523 161.266 315.12 162.318 313.623C162.855 312.857 163.358 312.058 163.817 311.243C164.242 310.483 164.757 309.656 164.93 308.795C165.104 307.935 164.942 306.991 164.186 306.471C163.431 305.951 162.497 306.069 161.798 306.544C161.059 307.046 160.55 307.857 160.08 308.6C159.583 309.388 159.146 310.209 158.727 311.041C157.753 312.997 156.556 315.064 156.903 317.322C156.97 317.769 157.535 318.014 157.938 317.908C158.419 317.774 158.593 317.327 158.525 316.875Z" fill="#272765"/>
<path d="M3.27242 292.072C7.73634 296.67 9.72218 303.023 13.8784 307.873C14.5833 308.694 15.7636 307.504 15.0643 306.689C10.9081 301.839 8.93903 295.502 4.45832 290.887C3.70315 290.111 2.51724 291.295 3.27242 292.072Z" fill="#272765"/>
<path d="M81.4695 346.164C82.7449 341.722 84.9769 337.816 87.7235 334.128C90.6099 330.256 93.5915 326.446 96.5338 322.613C97.1883 321.758 95.7339 320.92 95.085 321.769C92.0923 325.675 89.0492 329.547 86.118 333.497C83.349 337.235 81.1394 341.236 79.8528 345.722C79.5564 346.762 81.173 347.203 81.4695 346.169V346.164Z" fill="#272765"/>
<path d="M376.894 368.351C375.977 368.106 375.188 367.351 374.444 366.787C373.627 366.167 372.822 365.519 372.072 364.82C370.651 363.496 369.393 361.915 368.822 360.032C368.699 359.618 368.587 359.182 368.548 358.747C368.548 358.713 368.587 358.316 368.576 358.294C368.587 358.311 368.727 357.808 368.47 358.35C368.291 358.417 368.302 358.484 368.492 358.546L368.626 358.646C369.281 359.138 369.857 359.736 370.377 360.361C371.451 361.652 372.268 363.144 373.096 364.597C374.064 366.29 375.065 367.972 376.374 369.424C377.096 370.229 378.282 369.039 377.56 368.24C374.864 365.239 373.655 361.183 370.78 358.311C370.109 357.64 369.074 356.534 368.028 356.763C366.982 356.992 366.792 358.154 366.904 359.043C367.2 361.367 368.436 363.435 370.008 365.127C370.948 366.139 372.011 367.016 373.102 367.854C374.12 368.642 375.177 369.625 376.447 369.966C377.493 370.24 377.94 368.625 376.894 368.351Z" fill="#272765"/>
<path d="M377.633 368.664C376.905 366.089 376.452 363.451 376.324 360.775C376.268 359.629 376.251 358.478 376.357 357.333C376.413 356.713 376.525 356.093 376.698 355.489C376.76 355.266 376.833 355.048 376.911 354.83C377.012 354.562 377.252 354.254 377.314 353.986C377.577 353.69 377.409 353.545 376.822 353.534C376.9 353.69 376.956 353.852 377.001 354.025C377.068 354.266 377.112 354.511 377.146 354.752C377.252 355.456 377.297 356.176 377.342 356.886C377.426 358.132 377.448 359.384 377.409 360.635C377.331 363.334 376.973 365.999 376.352 368.625C376.106 369.676 377.722 370.123 377.968 369.072C379.093 364.317 379.467 359.277 378.774 354.428C378.651 353.556 378.377 352.031 377.23 352.036C376.167 352.042 375.652 353.45 375.334 354.271C374.522 356.35 374.534 358.702 374.651 360.898C374.797 363.675 375.261 366.429 376.016 369.1C376.307 370.139 377.929 369.698 377.633 368.653V368.664Z" fill="#272765"/>
<path d="M377.918 368.838C377.979 368.307 378.382 367.815 378.69 367.402C379.081 366.876 379.484 366.362 379.926 365.882C380.76 364.971 381.783 364.15 383.036 363.937C383.434 363.87 383.976 363.798 384.183 364.222C384.39 364.647 384.267 365.172 384.049 365.563C383.484 366.603 382.309 367.01 381.224 367.29C379.641 367.698 378.019 367.983 376.396 368.195C375.949 368.251 375.557 368.541 375.557 369.033C375.557 369.441 375.943 369.927 376.396 369.871C378.237 369.637 380.088 369.34 381.878 368.854C383.417 368.435 384.955 367.653 385.632 366.128C386.309 364.602 385.828 362.479 383.926 362.256C382.208 362.054 380.53 362.982 379.316 364.111C378.6 364.776 378.002 365.552 377.414 366.323C376.827 367.094 376.357 367.854 376.24 368.838C376.184 369.29 376.665 369.676 377.079 369.676C377.577 369.676 377.862 369.29 377.918 368.838Z" fill="#272765"/>
<path d="M159.655 169.674C158.671 169.886 157.944 171.205 158.637 171.937C158.855 172.166 159.157 172.289 159.448 172.4C162.044 173.378 165.238 174.233 168.018 173.876C166.183 172.847 164.293 171.702 162.463 170.529C161.619 169.981 160.634 169.467 159.65 169.679L159.655 169.674Z" fill="#6989B3"/>
<path d="M66.8191 326.971C66.159 334.497 65.6835 342.035 65.3926 349.578C65.3535 350.656 67.0317 350.656 67.0708 349.578C67.3617 342.029 67.8428 334.492 68.4973 326.971C68.5923 325.898 66.9142 325.904 66.8191 326.971Z" fill="#272765"/>
<path d="M364.073 207.255C354.664 198.969 341.261 193.409 324.698 190.113L324.093 195.499C348.757 200.405 372.559 213.814 371.905 234.035C371.362 250.77 352.354 264.057 323.473 267.884C256.441 276.768 177.617 236.092 176.829 235.678L174.295 240.517C175.016 240.897 240.342 274.606 303.542 274.606C310.478 274.606 317.392 274.198 324.194 273.298C362.635 268.203 376.866 249.764 377.37 234.214C377.677 224.648 372.956 215.077 364.067 207.249L364.073 207.255Z" fill="#6989B3"/>
<path d="M171.531 216.005C160.058 218.357 152.669 229.549 155.024 241.009C157.379 252.468 168.583 259.849 180.056 257.497C191.529 255.145 198.919 243.953 196.564 232.493C194.209 221.033 183.004 213.652 171.531 216.005Z" fill="#BADAE1"/>
<path d="M171.056 216.67C159.56 219.028 152.148 230.247 154.509 241.729C156.87 253.212 168.102 260.615 179.598 258.257C191.093 255.899 198.505 244.679 196.144 233.197C193.784 221.715 182.551 214.312 171.056 216.67Z" fill="#BADAE1"/>
<path d="M171.375 216.603C160.053 218.922 152.758 229.973 155.085 241.282C157.407 252.591 168.471 259.877 179.793 257.553C191.115 255.234 198.41 244.182 196.083 232.873C193.761 221.564 182.697 214.278 171.375 216.603Z" fill="#BADAE1"/>
<g opacity="0.23">
<path d="M161.899 252.887C163.666 254.413 165.68 255.636 167.856 256.502L188.425 220.586C186.584 219.156 184.509 218.038 182.288 217.284L161.893 252.887H161.899Z" fill="#BADAE1"/>
<path d="M189.594 221.559L169.288 257.011C170.91 257.525 172.605 257.843 174.345 257.944L192.967 225.436C191.999 224 190.869 222.698 189.599 221.559H189.594Z" fill="#BADAE1"/>
<path d="M159.079 249.932C159.605 250.608 160.176 251.245 160.774 251.848L180.823 216.843C180 216.63 179.161 216.468 178.305 216.357L159.074 249.932H159.079Z" fill="#BADAE1"/>
</g>
<path d="M169.786 224.268C162.133 227.09 158.218 235.572 161.043 243.215C163.868 250.859 172.359 254.77 180.012 251.949C187.664 249.127 191.58 240.645 188.755 233.002C185.93 225.358 177.438 221.447 169.786 224.268Z" fill="#6989B3"/>
<path d="M161.031 268.879H158.525V267.331C159.42 267.527 160.315 267.722 161.21 267.918C161.149 268.236 161.087 268.555 161.026 268.873L161.031 268.879Z" fill="white"/>
<path d="M162.794 261.453C163.476 262.872 162.961 264.878 161.513 266.348C160.562 265.42 159.13 264.04 157.311 262.381C156.019 261.196 155.622 260.872 155.723 260.548C156.042 259.509 161.445 258.637 162.794 261.453Z" fill="white"/>
</g>
<defs>
<linearGradient id="paint0_linear_331_408" x1="168.668" y1="114.47" x2="168.668" y2="265.755" gradientUnits="userSpaceOnUse">
<stop stop-color="#786CB1"/>
<stop offset="1" stop-color="#49B49E"/>
</linearGradient>
<linearGradient id="paint1_linear_331_408" x1="277.268" y1="113.743" x2="277.268" y2="242.183" gradientUnits="userSpaceOnUse">
<stop stop-color="#786CB1"/>
<stop offset="1" stop-color="#49B49E"/>
</linearGradient>
<clipPath id="clip0_331_408">
<rect width="475" height="370" fill="white"/>
</clipPath>
</defs>
</svg>
