<svg width="203" height="413" viewBox="0 0 203 413" fill="none" xmlns="http://www.w3.org/2000/svg">
<g clip-path="url(#clip0_139_579)">
<path d="M128.566 161.287C123.702 158.498 122.641 156.089 123.898 151.189C125.767 143.772 128.339 141.189 134.088 141C135.885 136.275 137.831 131.547 139.478 126.748C142.108 119.053 144.413 117.605 152.857 119.381C153.417 117.644 153.984 115.809 154.596 113.989C155.813 110.446 158.627 109.037 162.189 110.16C165.159 111.118 168.129 112.076 171.324 113.106C173.472 108.294 175.606 103.602 177.694 98.8957C181.996 89.1744 186.298 79.4531 190.555 69.7173C193.625 62.7372 196.65 55.7425 199.705 48.7325C200.855 46.0897 201.862 43.351 203.208 40.796C206.192 35.0833 213.583 32.0367 220.082 33.6836C228.514 35.8045 233.732 41.3473 233.557 48.5139C233.49 50.9578 232.593 53.508 231.642 55.8415C225.451 70.8066 219.154 85.7128 212.851 100.642C209.234 109.164 205.534 117.635 201.703 126.512C204.008 127.529 206.254 128.652 208.581 129.526C212.73 131.063 214.11 133.949 212.653 138.236C212.034 140.079 211.453 141.959 210.907 143.651C212.615 144.824 214.329 145.75 215.731 147.024C217.843 148.951 218.582 151.356 217.554 154.237C215.431 160.128 213.369 166.063 211.313 171.976C211.066 172.743 210.529 173.715 210.788 174.297C213.2 179.608 209.774 183.684 207.824 187.961C206.086 191.81 203.37 192.528 197.145 191.343C195.426 195.521 193.684 199.766 192.221 203.379C196.96 208.867 201.969 213.67 205.767 219.303C213.127 230.219 216.499 242.564 215.759 255.799C215.632 258.199 214.15 260.561 213.161 262.857C208.336 274.278 203.451 285.654 198.626 297.075C194.116 307.75 189.719 318.461 185.194 329.107C180.669 339.752 176.008 350.354 171.453 361.015C167.997 369.116 164.458 377.166 161.339 385.375C159.418 390.41 156.518 394.78 151.787 396.741C146.021 399.141 139.735 400.302 133.562 401.575C132.233 401.844 130.537 400.326 128.983 399.675C115.868 394.202 102.725 388.818 89.6326 383.277C73.4549 376.442 57.3287 369.525 41.1655 362.645C36.0531 360.473 30.7277 358.731 25.8878 356.1C22.4907 354.233 18.9829 351.707 16.8157 348.567C9.8076 338.562 8.90914 327.712 13.8391 316.35C17.7433 307.323 21.1823 298.12 25.064 289.085C29.1652 279.524 33.5445 270.101 37.7132 260.561C41.9184 250.908 45.7555 241.087 50.2161 231.567C56.0267 219.169 59.5679 205.566 68.5796 194.872C80.8172 180.337 96.1119 171.421 115.605 172.749C121.464 173.144 124.945 172.672 126.197 166.476C126.54 164.718 127.655 163.11 128.513 161.22L128.566 161.287ZM130.394 161.627C129.084 164.841 128.171 167.212 127.122 169.539C126.081 171.843 125.313 174.534 123.585 176.119C122.695 176.953 119.947 175.693 118.037 175.451C103.521 173.71 90.9791 178.558 79.623 187.2C72.9683 192.278 67.6176 198.473 63.778 206.375C68.2141 208.179 72.394 209.776 76.4859 211.568C90.2786 217.634 104.02 223.858 117.827 229.879C129.96 235.16 142.204 240.253 154.403 245.407C156.257 246.204 157.201 247.206 156.203 249.375C154.877 252.334 153.768 255.389 152.531 258.377C148.03 269.18 143.558 279.967 139.019 290.733C134.289 301.935 129.455 313.079 124.71 324.251C122.388 329.679 120.195 335.174 117.79 340.55C117.013 342.267 116.053 344.399 113.41 343.273C106.624 340.362 99.8586 337.384 93.1089 334.436C83.2884 330.149 73.4526 325.832 63.6394 321.522C55.8308 318.083 48.0294 314.622 40.2063 311.227C33.9899 308.551 27.7445 305.964 21.2509 303.223C19.0004 309.048 16.9853 314.45 14.8352 319.809C11.119 328.947 12.7078 337.579 17.6045 345.658C19.2594 348.384 21.604 351.282 24.3684 352.646C32.827 356.843 41.6236 360.376 50.317 364.076C58.9277 367.724 67.5973 371.266 76.2226 374.869C85.1708 378.626 94.0819 382.42 103.023 386.2C111.221 389.665 119.971 392.187 127.453 396.791C136.455 402.308 153.931 395.639 157.562 387.769C159.021 384.628 160.203 381.348 161.573 378.178C165.344 369.332 169.131 360.515 172.872 351.684C176.342 343.463 179.768 335.228 183.231 327.029C188.019 315.722 192.8 304.436 197.611 293.136C201.119 284.952 204.785 276.819 208.165 268.569C210.126 263.796 212.893 258.91 213.095 253.969C213.938 234.714 206.25 218.96 191.444 206.715C190.578 206.012 189.785 205.234 189.521 204.974C191.604 199.668 193.491 194.897 195.618 189.53C173.944 180.251 152.405 171.015 130.386 161.575L130.394 161.627ZM44.2899 250.179C47.2931 251.496 50.2435 252.746 53.1567 254.034C62.4372 258.147 71.637 262.433 81.0127 266.327C86.5599 268.614 85.8649 267.842 84.2971 273.09C84.1226 273.631 83.9407 274.195 83.7661 274.737C83.001 276.956 81.7532 277.898 79.3429 276.822C73.7566 274.349 68.1042 272.003 62.496 269.598C55.0865 266.461 47.6545 263.318 39.8995 260.021L37.7318 266.744C41.2228 268.243 44.6086 269.683 48.0169 271.131C58.0088 275.349 68.0152 279.521 77.9853 283.807C78.571 284.07 79.0312 285.34 79.0009 286.127C78.9588 287.259 78.3628 288.337 78.0964 289.472C77.4763 292.011 75.7837 292.561 73.6441 291.647C67.9989 289.279 62.4344 286.738 56.782 284.393C49.0502 281.178 41.3045 278.083 33.4906 274.891C30.6261 281.464 27.8641 287.796 25.036 294.257C53.4857 306.866 81.8301 319.417 110.385 332.086C122.294 305.241 134.159 278.456 146.112 251.476C117.262 239.26 88.7951 227.243 59.8327 214.991C57.8327 219.577 55.8399 224.139 53.7737 228.853C58.0899 230.643 61.9032 232.221 65.7245 233.852C74.4404 237.559 83.1266 241.281 91.8498 244.965C97.8179 247.487 103.844 249.828 109.746 252.478C110.722 252.918 112.001 254.575 111.806 255.334C110.709 259.663 109.192 263.906 107.65 268.689C87.2323 260.288 67.2354 252.047 47.2537 243.837C46.2417 246.051 45.3911 247.919 44.3646 250.178L44.2899 250.179ZM199.397 127.885C202.631 120.012 205.667 112.522 208.793 105.062C212.424 96.4193 216.182 87.843 219.813 79.2006C223.313 70.8893 226.218 62.2621 230.334 54.2741C234.567 46.0749 228.267 36.6465 220.173 35.5562C211.465 34.3675 206.005 36.7416 202.372 46.778C199.68 54.2787 196.216 61.4804 193.014 68.7918C188.794 78.4147 184.528 88.0232 180.24 97.6244C177.895 102.896 175.37 108.109 173.114 113.409C172.302 115.314 171.279 115.482 169.619 114.773C167.179 113.712 164.747 112.629 162.226 111.741C158.865 110.533 157.57 111.236 156.537 114.515C156.021 116.117 155.497 117.741 154.959 119.411C172.723 127.181 190.608 135.039 208.545 142.889C209.383 141.366 210.069 140.317 210.59 139.165C212.393 135.189 211.67 132.888 207.772 131.034C205.293 129.861 202.616 129.073 199.405 127.863L199.397 127.885ZM135.218 141.888C160.052 152.46 184.496 162.856 209.833 173.64C212.015 166.872 213.964 160.826 215.921 154.757C217.143 150.966 215.948 147.817 212.291 146.214C205.031 143.002 197.675 140.007 190.363 136.878C184.867 134.508 179.422 131.98 173.882 129.671C166.346 126.544 158.801 123.364 151.112 120.711C148.539 119.832 144.791 118.897 143.156 122.43C140.295 128.606 137.975 135.031 135.218 141.888ZM209.011 181.196C210.19 178.463 210.564 175.993 207.179 174.553C197.524 170.444 187.855 166.38 178.208 162.249C169.935 158.71 161.706 155.11 153.448 151.526C146.991 148.747 140.585 145.81 133.997 143.362C132.602 142.837 129.803 143.504 128.946 144.622C127.297 146.731 126.163 149.479 125.581 152.13C124.97 154.872 124.824 157.639 128.71 158.992C134.246 160.926 139.505 163.568 144.91 165.909C152.186 169.077 159.476 172.274 166.781 175.426C173.455 178.3 180.151 181.107 186.803 183.974C191.233 185.875 195.618 187.912 200.07 189.82C202.428 190.829 204.545 190.117 205.805 188.058C207.117 185.915 207.977 183.478 209.018 181.174L209.011 181.196ZM148.809 250.428C146.915 255.072 145.22 259.482 143.329 263.804C138.266 275.347 133.076 286.824 128.013 298.367C123.133 309.496 118.343 320.654 113.486 331.79C112.614 333.801 111.189 334.985 108.824 333.923C104.198 331.859 99.5432 329.811 94.9179 327.746C85.7572 323.647 76.5892 319.571 67.4357 315.449C58.4928 311.445 49.5571 307.418 40.6141 303.414C35.2753 301.02 29.8849 298.709 24.4264 296.302C23.5519 298.012 22.8316 299.399 21.9572 301.11C52.8674 314.562 83.4996 327.876 114.455 341.343C115.428 339.017 116.307 336.909 117.207 334.808C121.741 324.29 126.298 313.779 130.809 303.254C134.134 295.484 137.369 287.685 140.738 279.93C144.98 270.164 149.304 260.45 153.583 250.722C154.352 248.952 154.245 247.822 152.173 246.93C137.713 240.624 123.318 234.189 108.872 227.838C96.3411 222.329 83.7801 216.834 71.2343 211.37C68.5315 210.199 65.7698 209.134 63.0075 207.995C62.0748 209.886 61.2891 211.476 60.4074 213.209C89.9323 225.642 119.06 237.922 148.802 250.45L148.809 250.428ZM48.0804 241.812C67.761 249.801 86.9611 257.585 106.251 265.399L109.575 255.088C90.5592 246.965 71.7084 238.944 52.7597 230.842C51.1486 234.607 49.7134 237.98 48.0804 241.812ZM82.9583 269.769C69.8784 263.958 56.866 258.169 43.5459 252.255C42.5848 254.311 41.6681 256.307 40.7369 258.348C54.497 264.129 67.702 269.707 81.1544 275.364L82.9583 269.769ZM36.0269 268.411C35.5059 270.335 35.137 271.711 34.7753 273.063C48.5189 278.665 61.8045 284.069 75.2853 289.561L76.5365 285.681C63.0384 279.934 49.7428 274.253 36.0269 268.411Z" fill="#272765"/>
</g>
<defs>
<clipPath id="clip0_139_579">
<rect width="174" height="377" fill="white" transform="translate(115.686) rotate(17.87)"/>
</clipPath>
</defs>
</svg>
