<svg width="1262" height="231" viewBox="0 0 1262 231" fill="none" xmlns="http://www.w3.org/2000/svg">
<path d="M73.2028 5.19367C74.4394 3.03789 77.1895 2.29277 79.3453 3.52939L97.9948 14.2273L87.2968 32.8768C86.0602 35.0326 83.3101 35.7777 81.1543 34.5411L62.5048 23.8432L73.2028 5.19367Z" stroke="#49B49E"/>
<path d="M12.0006 111.886C13.2372 109.73 15.9873 108.985 18.1431 110.222L36.7926 120.92L26.0947 139.569C24.8581 141.725 22.108 142.47 19.9522 141.234L1.30269 130.536L12.0006 111.886Z" stroke="#6989B3"/>
<path d="M107.746 117.813C104.164 124.056 96.4075 126.296 90.4345 122.869C84.4615 119.443 82.4789 111.617 86.0603 105.373C89.6417 99.1298 97.3985 96.8902 103.372 100.316C109.345 103.743 111.327 111.569 107.746 117.813Z" stroke="#786CB1"/>
<path d="M50.0266 218.398C46.4452 224.642 38.6884 226.881 32.7154 223.455C26.7424 220.029 24.7598 212.202 28.3412 205.959C31.9226 199.716 39.6794 197.476 45.6524 200.902C51.6254 204.329 53.608 212.155 50.0266 218.398Z" stroke="#49B49E"/>
<path d="M1219.58 225.806C1220.82 227.962 1223.57 228.707 1225.73 227.471L1244.37 216.773L1233.68 198.123C1232.44 195.967 1229.69 195.222 1227.53 196.459L1208.88 207.157L1219.58 225.806Z" stroke="#6989B3"/>
<path d="M1158.38 119.114C1159.62 121.27 1162.37 122.015 1164.52 120.778L1183.17 110.08L1172.47 91.4307C1171.24 89.2749 1168.49 88.5298 1166.33 89.7664L1147.68 100.464L1158.38 119.114Z" stroke="#49B49E"/>
<path d="M1254.13 113.187C1250.54 106.944 1242.79 104.704 1236.81 108.131C1230.84 111.557 1228.86 119.383 1232.44 125.627C1236.02 131.87 1243.78 134.11 1249.75 130.684C1255.72 127.257 1257.71 119.431 1254.13 113.187Z" stroke="#786CB1"/>
<path d="M1196.41 12.5667C1192.83 6.32336 1185.07 4.08373 1179.1 7.51003C1173.12 10.9363 1171.14 18.7628 1174.72 25.0062C1178.3 31.2496 1186.06 33.4892 1192.03 30.0629C1198.01 26.6366 1199.99 18.8101 1196.41 12.5667Z" stroke="#6989B3"/>
</svg>
