<svg width="1170" height="372" viewBox="0 0 1170 372" fill="none" xmlns="http://www.w3.org/2000/svg">
<path d="M1142.25 356.68C1139.82 356.163 1138.27 353.773 1138.78 351.342L1143.26 330.312L1164.29 334.785C1166.72 335.302 1168.27 337.692 1167.75 340.123L1163.28 361.152L1142.25 356.68Z" stroke="#786CB1"/>
<path d="M0.5 5C0.5 2.51472 2.51472 0.5 5 0.5H26.5V22C26.5 24.4853 24.4853 26.5 22 26.5H0.5V5Z" stroke="#786CB1"/>
<path d="M1091.44 285.552C1098.48 287.049 1102.98 293.748 1101.55 300.483C1100.12 307.218 1093.27 311.502 1086.23 310.005C1079.19 308.508 1074.69 301.809 1076.12 295.074C1077.55 288.339 1084.4 284.055 1091.44 285.552Z" stroke="#49B49E"/>
<path d="M268.5 358.5C268.5 365.698 262.886 371.5 256 371.5C249.114 371.5 243.5 365.698 243.5 358.5C243.5 351.302 249.114 345.5 256 345.5C262.886 345.5 268.5 351.302 268.5 358.5Z" stroke="#49B49E"/>
</svg>
