<svg width="1182" height="298" viewBox="0 0 1182 298" fill="none" xmlns="http://www.w3.org/2000/svg">
<path d="M0.5 276C0.5 273.515 2.51472 271.5 5 271.5H26.5V293C26.5 295.485 24.4853 297.5 22 297.5H0.5V276Z" stroke="#272765"/>
<path d="M1169.5 5C1169.5 2.51472 1167.49 0.5 1165 0.5H1141.5V22C1141.5 24.4853 1143.51 26.5 1146 26.5H1169.5V5Z" stroke="#786CB1"/>
<path d="M1154.5 278.5C1154.5 285.663 1160.53 291.5 1168 291.5C1175.47 291.5 1181.5 285.663 1181.5 278.5C1181.5 271.337 1175.47 265.5 1168 265.5C1160.53 265.5 1154.5 271.337 1154.5 278.5Z" stroke="#6989B3"/>
</svg>
