<svg width="170" height="244" viewBox="0 0 170 244" fill="none" xmlns="http://www.w3.org/2000/svg">
<g clip-path="url(#clip0_139_584)">
<path d="M105.794 78.0182C106.302 77.2512 106.761 76.5695 107.426 75.5835C106.943 75.2305 106.278 74.9749 106.036 74.5001C105.722 73.8914 105.444 72.9541 105.698 72.4185C105.963 71.8707 107.003 71.2255 107.511 71.3594C108.828 71.7124 109.094 70.7873 109.686 70.0934C112.128 67.2083 114.461 64.2016 117.156 61.5843C118.062 60.7078 119.948 60.9148 121.338 60.4644C122.015 60.2453 122.74 59.7827 123.163 59.2227C128.216 52.4301 133.207 45.5887 138.223 38.7717C146.285 27.7915 154.492 16.9208 162.325 5.78228C163.969 3.44502 166.168 2.20335 168.187 0.535622C168.55 0.231291 169.106 0.170425 169.565 0C169.71 0.158252 169.867 0.316504 170.012 0.474756C154.916 21.1084 139.819 41.7541 124.722 62.3756C127.369 66.0154 125.919 69.2169 123.55 72.4063C122.281 74.1106 120.842 75.6931 119.549 77.3973C119.259 77.7869 119.042 78.4686 119.174 78.9068C119.513 80.0146 119.61 80.9397 118.643 81.804C117.639 82.7048 116.697 82.364 115.718 81.8406C115.355 81.6458 114.992 81.4754 114.485 81.2197C114.098 81.7919 113.723 82.3518 113.421 82.7779C116.274 86.8681 118.896 90.9096 118.546 96.0345C118.437 97.5318 117.954 99.2239 117.083 100.429C95.2424 130.68 73.3409 160.881 51.4394 191.095C48.7923 194.747 46.1332 198.387 43.3895 202.161C45.3476 205.009 46.3387 208.101 44.2356 211.692C39.0865 207.919 34.1309 204.291 29.0786 200.578C21.5605 210.621 14.1029 220.579 6.50019 230.731C8.7121 232.375 10.8394 234.03 13.0271 235.576C14.405 236.55 15.8796 237.378 17.318 238.266C18.8288 239.192 19.3244 241.346 18.3333 242.77C17.3542 244.17 14.8523 244.414 13.3897 243.282C3.78063 235.88 -5.84056 228.479 -15.4497 221.078C-16.2837 220.433 -17.444 219.897 -17.8187 219.033C-18.3384 217.84 -17.8187 216.355 -16.5133 215.916C-15.5584 215.588 -14.0838 215.624 -13.2982 216.16C-9.66003 218.68 -6.16691 221.431 -2.43205 224.243C4.98932 214.115 12.3623 204.047 19.8079 193.871C15.6983 190.888 11.6492 187.93 7.6001 184.984C7.03201 184.57 6.43976 184.156 5.88376 183.73C4.43333 182.623 4.50585 181.734 6.12549 180.797C8.03523 179.689 11.057 179.372 13.5469 180.042C18.5871 173.261 23.6274 166.457 28.6797 159.64C42.8818 140.503 57.084 121.367 71.274 102.231C77.2087 94.2329 83.1796 86.2716 88.9934 78.1886C90.1296 76.6061 91.4954 76.3748 93.0546 76.3017C97.3697 76.107 101.636 76.4478 105.782 78.006L105.794 78.0182ZM42.6159 201.357C44.9366 198.131 47.1364 195.051 49.3604 191.984C71.685 161.234 94.0337 130.509 116.298 99.723C117.096 98.6274 117.422 97.0084 117.519 95.5963C117.785 91.6035 115.851 88.268 113.796 85.0908C112.817 83.5691 111.475 82.3275 113.53 80.6841C111.572 79.2233 109.843 77.9329 108.079 76.6304C107.861 76.9104 107.631 77.1173 107.523 77.3852C106.81 79.0894 105.77 79.0042 104.066 78.6755C100.271 77.9573 96.3786 77.726 92.5107 77.4217C91.3867 77.3365 90.4439 77.8477 89.7307 78.9311C88.5583 80.7084 87.1804 82.3518 85.9113 84.0682C67.7688 108.622 49.6263 133.163 31.4839 157.716C25.8272 165.373 20.1826 173.03 14.5501 180.675C23.8933 187.577 33.1639 194.418 42.5917 201.382L42.6159 201.357ZM20.7023 194.492C13.2568 204.583 5.8475 214.626 -1.65848 224.778C0.807249 226.568 3.17629 228.284 5.61785 230.049C13.2205 219.897 20.6781 209.927 28.1841 199.909C25.6942 198.095 23.2043 196.305 20.7023 194.479V194.492ZM5.90793 182.367C18.5629 191.619 31.1454 200.809 43.74 210.025C45.0937 207.164 43.7883 203.463 40.8875 201.333C32.2695 195.003 23.5911 188.746 15.094 182.257C12.7733 180.492 8.84505 180.371 5.90793 182.367ZM117.531 78.2373C118.365 77.2756 119.187 76.4843 119.815 75.5592C121.471 73.1489 123.369 70.8238 124.577 68.1944C125.798 65.5406 124.831 63.7755 122.631 62.266C120.25 60.6226 118.34 61.2678 116.527 63.2155C114.279 65.638 112.273 68.3039 110.266 70.9455C109.577 71.8585 109.034 72.6133 107.716 72.3211C107.378 72.2481 106.604 72.6133 106.58 72.8324C106.544 73.2584 106.797 73.8062 107.112 74.1349C107.934 74.987 108.792 75.8148 109.747 76.5087C111.947 78.0912 114.183 79.6372 116.467 81.0858C116.818 81.3049 117.639 81.1589 118.002 80.8789C118.268 80.6598 118.22 79.9294 118.147 79.4546C118.087 79.0772 117.772 78.7242 117.507 78.2616L117.531 78.2373ZM18.6596 240.506C18.0069 240.202 17.4872 240.056 17.0762 239.752C6.80236 232.192 -3.48361 224.632 -13.7091 216.988C-14.8574 216.123 -15.5826 216.209 -16.3924 217.158C-17.2144 218.144 -16.9364 218.814 -15.8969 219.605C-7.95577 225.582 -0.0750961 231.632 7.81767 237.658C9.88453 239.24 11.891 240.908 14.0666 242.332C14.7676 242.783 15.9401 242.746 16.8224 242.564C17.3422 242.454 17.7048 241.614 18.6475 240.506H18.6596ZM167.498 2.4103C167.329 2.27639 167.16 2.14249 167.002 1.99641C165.963 3.12852 164.815 4.17541 163.908 5.40491C152.172 21.2544 140.472 37.1161 128.772 52.9778C126.789 55.6681 124.807 58.3584 122.849 61.0243C123.949 62.193 124.348 61.3287 124.855 60.647C134.682 47.2321 144.521 33.8172 154.347 20.4023C158.735 14.4131 163.123 8.41169 167.51 2.4103H167.498Z" fill="#272765"/>
</g>
<defs>
<clipPath id="clip0_139_584">
<rect width="188" height="244" fill="white" transform="translate(-18)"/>
</clipPath>
</defs>
</svg>
