<svg width="226" height="171" viewBox="0 0 226 171" fill="none" xmlns="http://www.w3.org/2000/svg">
<g clip-path="url(#clip0_139_581)">
<path d="M60.5793 150.349C62.1074 152.691 60.5922 153.702 58.8192 154.722C51.7916 158.801 44.8439 162.988 37.8119 167.052C32.868 169.89 26.7086 168.209 24.6264 163.567C23.0719 160.124 24.8008 155.026 28.6958 152.672C36.2841 148.055 43.7789 143.172 51.7446 139.293C63.3951 133.626 73.5956 125.773 84.361 118.799C88.4503 116.161 91.2929 111.587 94.7241 107.917C101.488 100.688 107.9 93.0887 115.192 86.4397C119.494 82.5169 125.188 80.129 130.288 77.0989C165.686 56.0252 201.102 34.9621 236.504 13.9034C239.84 11.9237 243.152 9.91839 246.52 7.9945C257.021 1.96093 271.87 6.46174 276.861 17.4124C281.943 28.5646 275.416 39.2447 268.253 43.3631C254.166 51.4656 240.37 60.0697 226.464 68.4615C196.346 86.6162 166.223 104.756 136.09 122.915C135.699 123.142 135.344 123.49 134.928 123.627C127.02 126.023 119.085 128.215 110.889 129.505C104.077 130.571 96.9654 130.715 90.6167 133.766C84.7377 136.582 79.0454 139.817 73.3312 142.977C69.0901 145.317 64.9464 147.825 60.5837 150.364L60.5793 150.349ZM172.283 85.8518C172.607 85.6762 172.946 85.4963 173.27 85.3207C174.255 86.8596 175.25 88.3791 176.361 90.1259C179.864 88.0488 183.418 85.9242 186.977 83.8146C186.117 81.9785 185.321 80.3033 184.544 78.6388C184.853 78.4676 185.172 78.277 185.481 78.1058C186.208 79.1494 187.076 80.1192 187.631 81.2451C188.334 82.6542 188.986 82.7093 190.287 81.8587C192.813 80.1793 195.42 78.6071 198.109 77.2064C199.752 76.3543 199.641 75.5229 198.897 74.142C198.32 73.0548 198.057 71.8114 197.663 70.6224C197.954 70.505 198.246 70.3876 198.538 70.2702C199.13 71.3531 199.796 72.4141 200.307 73.5531C200.867 74.8081 201.319 75.41 202.815 74.3888C205.44 72.5993 208.212 70.979 211.027 69.509C212.428 68.7762 212.259 68.0268 211.747 66.9371C211.226 65.8175 210.76 64.6653 210.285 63.5325C210.589 63.3463 210.878 63.1644 211.183 62.9782C212.189 64.4783 213.206 65.959 214.273 67.5556C217.756 65.4678 221.24 63.38 224.657 61.3441C224.458 59.202 222.499 57.6202 223.062 55.5176C223.293 55.4177 223.529 55.3328 223.746 55.2372C224.634 56.8368 225.538 58.4319 226.403 60.0057C226.611 59.994 226.807 60.0512 226.914 59.9712C230.31 57.9741 233.686 55.9663 237.245 53.8567C236.639 52.387 236.009 51.0056 235.549 49.5912C235.431 49.1855 235.835 48.6119 235.998 48.1082C236.388 48.3858 236.95 48.5811 237.158 48.9606C237.8 50.1593 238.311 51.4123 238.954 52.8388C242.154 50.8984 245.115 48.8646 248.272 47.2791C250.46 46.1709 250.242 45.0283 249.273 43.3217C248.866 42.5927 248.767 41.6925 248.532 40.8811C248.808 40.7681 249.096 40.6357 249.372 40.5226C250.265 42.0233 251.153 43.5088 252.026 44.9988C254.712 43.4198 257.215 41.8286 259.825 40.4348C261.56 39.507 262.288 38.4805 261.434 36.4961C260.948 35.3827 260.899 34.0933 260.644 32.8799C260.93 32.797 261.215 32.714 261.49 32.6504C262.159 34.1671 262.832 35.6988 263.519 37.2756C267.202 33.2395 268.428 27.31 266.477 23.1187C262.607 14.7918 252.859 13.8276 247.335 17.0788C204.895 41.9588 162.539 67.0103 120.141 91.976C118.945 92.6821 119.184 93.3947 119.622 94.2289C120.535 95.968 121.624 97.6397 122.466 99.4157C123.125 100.788 123.89 100.729 125.001 100.064C128.651 97.8789 132.311 95.7237 135.966 93.5535C175.985 69.7677 215.99 45.9864 256.009 22.2007C258.149 20.9272 260.123 21.2171 261.496 22.9692C262.681 24.4663 262.565 26.5368 260.801 28.0923C259.35 29.3778 257.561 30.2886 255.883 31.2979C232.353 45.3216 208.823 59.3454 185.274 73.3586C168.712 83.2068 152.145 93.04 135.582 102.888C132.678 104.612 129.81 106.407 126.907 108.196C128.046 109.983 128.997 111.516 129.992 113.035C131.574 115.487 133.574 115.867 135.994 114.175C136.101 114.095 136.148 113.919 136.276 113.686C135.659 112.627 134.938 111.549 134.404 110.384C134.235 110.026 134.52 109.438 134.593 108.961C135.037 109.141 135.658 109.205 135.898 109.527C136.688 110.617 137.355 111.792 138.091 112.979C141.823 110.738 145.388 108.594 149.054 106.404C148.145 104.566 147.323 102.915 146.332 100.905C149.588 100.953 149.136 104.164 151.041 105.224C154.499 103.16 158.038 101.04 161.455 99.0037C160.515 96.9466 159.699 95.1469 158.887 93.3622C159.166 93.1997 159.46 93.0329 159.738 92.8704C160.842 94.5377 161.946 96.2051 163.143 98.0246C166.894 95.7937 170.646 93.5629 174.479 91.2758C173.696 89.3684 172.977 87.622 172.258 85.8755L172.283 85.8518ZM59.3141 148.631C59.3966 148.802 59.4834 148.989 59.5658 149.16C59.8964 149.064 60.2595 149.024 60.5576 148.872C67.8576 144.665 75.0883 140.331 82.4708 136.296C86.4633 134.109 90.6085 131.943 94.9362 130.686C99.5043 129.358 104.378 128.969 109.143 128.431C117.485 127.474 125.444 125.031 133.416 122.632C133.837 122.51 134.206 122.207 134.591 121.965C139.936 118.766 145.295 115.563 150.635 112.349C189.585 88.9229 228.53 65.5311 267.457 42.0791C274.333 37.9298 277.822 31.7666 277.047 23.7138C276.343 16.4711 272.106 11.4776 265.541 8.62681C259.853 6.15687 253.764 5.61252 248.264 8.61215C239.4 13.4368 230.9 18.9541 222.22 24.1325C190.486 43.0661 158.744 61.9697 127.034 80.9289C122.41 83.6903 117.369 86.0839 113.523 89.7274C107.22 95.6819 101.806 102.567 95.9111 108.974C92.5656 112.602 89.4563 116.65 85.4795 119.452C75.829 126.281 65.7566 132.5 55.8529 138.963C54.1812 140.052 54.1769 140.037 55.1118 141.46C77.437 128.226 99.7728 114.973 122.28 101.637C121.075 99.3961 119.965 97.2581 118.788 95.172C117.326 92.5497 117.382 92.126 119.845 90.6769C128.834 85.3273 137.846 80.0033 146.854 74.6643C178.003 56.2427 209.148 37.8062 240.31 19.4297C244.345 17.0515 248.175 14.3087 253.193 14.0238C259.427 13.6626 265.89 17.2275 267.837 22.5279C270.124 28.7726 267.763 37.134 262.632 40.4501C259.447 42.4999 256.098 44.3206 252.833 46.2634C224.386 63.2154 195.939 80.1674 167.506 97.1151C156.282 103.799 145.077 110.493 133.88 117.218C132.187 118.231 131.135 118.146 130.202 116.168C129.269 114.191 127.806 112.465 126.827 110.5C126.042 108.92 125.404 109.024 124.045 109.842C106.15 120.599 88.2219 131.3 70.2983 142.017C66.6175 144.211 62.9605 146.43 59.2884 148.654L59.3141 148.631ZM183.183 67.0571C140.597 92.3869 98.2047 117.596 55.7564 142.837C56.8001 144.521 57.6769 145.912 58.5668 147.349C101.163 121.999 143.551 96.7758 185.991 71.5046C184.936 69.8392 184.176 68.626 183.178 67.0421L183.183 67.0571ZM52.3014 140.256C51.5981 140.639 50.9912 140.962 50.4081 141.311C45.0639 144.51 39.7065 147.664 34.4141 150.929C31.9684 152.438 29.4538 153.935 27.3819 155.889C25.3313 157.805 24.5612 160.538 25.7277 163.263C26.8942 165.987 29.3824 167.204 32.2148 167.081C34.0351 167.009 35.9154 166.413 37.5842 165.651C39.6414 164.711 41.4967 163.357 43.4583 162.201C48.9034 158.956 54.3678 155.723 59.8023 152.498C57.2882 148.388 54.8716 144.446 52.3014 140.256ZM184.413 66.3573C184.976 67.2855 185.54 67.9364 185.827 68.7003C186.572 70.7003 187.537 70.7131 189.23 69.5856C192.245 67.5687 195.448 65.8068 198.572 63.9377C218.727 51.9862 238.902 40.0453 259.041 28.0336C260.415 27.2106 261.591 25.8748 260.589 23.9985C259.857 22.5982 257.964 22.366 256.326 23.3471C248.856 27.8645 241.394 32.412 233.895 36.8887C217.468 46.6977 201.012 56.4659 184.398 66.3616L184.413 66.3573Z" fill="#272765"/>
</g>
<defs>
<clipPath id="clip0_139_581">
<rect width="95.3607" height="283.265" fill="white" transform="translate(26.61 170.617) rotate(-106.203)"/>
</clipPath>
</defs>
</svg>
