<svg width="248" height="482" viewBox="0 0 248 482" fill="none" xmlns="http://www.w3.org/2000/svg">
<g clip-path="url(#clip0_139_577)">
<path d="M207.991 322.7C217.22 316.257 226.273 310.067 235.216 303.676C245.894 296.055 256.481 288.421 265.564 278.689C275.603 267.923 282.019 255.594 286.06 241.61C290.141 227.483 290.554 213.346 287.379 199.109C283.857 183.319 267.617 165.539 250.84 163.735C250.108 167.707 246.701 168.477 243.652 168.89C241.351 169.204 240.727 170.192 240.098 172.071C235.127 186.648 216.945 194.003 203.501 186.925C191.247 180.489 188.187 164.523 196.944 152.647C206.409 139.775 224.633 137.412 235.225 147.697C235.511 147.969 235.836 148.229 236.038 148.573C237.919 151.737 240.307 153.626 244.279 152.407C245 152.165 246.372 152.444 246.769 152.983C248.494 155.353 250.997 154.928 253.266 154.972C270.822 155.41 282.558 164.966 290.708 179.426C297.628 191.697 301.622 205.075 300.019 219.284C298.991 228.404 296.454 237.356 294.38 246.327C293.666 249.448 292.244 252.393 291.323 255.475C286.055 272.859 274.053 285.213 260.38 296.067C247.838 306.023 234.846 315.414 222.011 325.013C219.86 326.621 217.487 327.955 215.258 329.459C213.614 330.572 213.309 331.606 214.559 333.593C221.081 343.895 227.472 354.262 233.689 364.753C239.215 374.087 242.33 384.379 245.035 394.808C247.727 405.198 247.864 415.662 246.108 426.108C244.418 436.164 239.657 444.56 230.421 449.554C227.756 450.986 224.259 451.873 221.274 451.571C214.837 450.927 208.827 448.775 203.545 444.646C194.932 437.947 188.561 429.588 184.51 419.544C181.319 411.618 180.852 403.15 180.697 394.707C180.447 379.687 183.448 365.249 188.451 351.095C190.989 343.898 194.255 337.194 198.412 330.885C199.504 329.221 199.405 327.953 198.383 326.323C187.462 308.759 176.592 291.156 165.748 273.566C160.45 264.979 155.223 256.346 149.84 247.83C149.326 247.005 147.836 246.181 146.92 246.293C141.673 246.876 137.77 244.735 135.647 239.746C135.113 238.472 134.501 237.225 134.293 236.731C127.954 237.81 122.052 239.804 116.219 239.608C92.6292 238.89 73.8446 228.678 60.1518 209.374C58.7655 207.432 57.2037 205.289 58.7363 202.48C59.0091 201.999 58.0525 200.758 57.5448 199.953C48.6536 185.48 39.5674 171.138 30.8971 156.549C26.3928 148.975 22.1614 141.18 18.6711 133.137C15.2328 125.185 14.8891 116.567 18.5185 108.55C20.9208 103.218 24.7474 98.5151 27.8652 93.5076C28.2484 92.9028 28.4884 91.9991 28.3644 91.3038C27.2615 85.1499 30.8607 80.5449 33.9592 76.0638C34.7972 74.8736 38.6007 74.5125 40.2202 75.3364C44.6236 77.6135 48.7218 80.5993 52.716 83.5982C54.8628 85.221 54.858 87.8663 54.0533 90.2588C51.8469 96.8254 43.6313 101.5 36.7123 100.129C32.8921 104.851 29.2606 109.618 27.6196 115.801C25.8878 122.295 28.4855 127.538 31.1289 132.982C39.5213 150.308 49.7661 166.56 60.0109 182.811C62.9269 187.449 65.713 192.412 69.5776 196.191C77.1964 203.678 83.4249 212.972 94.0908 216.862C102.168 219.818 110.408 222.156 119.12 220.718C137.148 217.77 149.957 207.768 157.521 191.219C161.138 183.293 163.668 174.972 162.271 166.121C161.422 160.792 159.969 155.535 158.567 150.305C157.922 147.855 158.5 146.21 161.041 144.797C158.768 139.359 156.606 133.863 154.184 128.497C150.147 119.531 145.986 110.651 141.78 101.764C137.242 92.2072 133.185 82.3385 125.182 74.8718C120.797 70.7684 115.77 68.5049 109.723 68.5756C107.519 68.5972 105.301 68.7098 103.11 68.5104C99.2541 68.1307 96.2568 68.374 93.574 72.2827C91.1381 75.8272 86.464 77.2811 81.9904 76.8694C77.6077 76.4706 75.6351 72.6443 74.3844 69.1618C72.8537 64.8412 72.2004 60.2272 74.2066 55.6562C75.5246 52.6587 77.4741 50.967 80.8424 51.3148C84.4057 51.6623 88.0212 52.2308 91.4355 53.3C93.2955 53.8701 94.7661 55.6756 96.3989 56.9284C96.2431 57.2405 96.1002 57.5266 95.9444 57.8387C99.0978 57.6733 102.284 57.6702 105.418 57.3163C116.1 56.1297 124.678 60.1966 131.706 67.8592C139.982 76.8595 146.062 87.2657 150.887 98.4596C156.012 110.355 161.286 122.179 166.392 134.081C168.013 137.83 168.933 141.943 172.809 144.266C173.109 144.448 173.317 144.877 173.48 145.234C181.568 164.958 182.946 184.715 172.139 203.821C168.204 210.792 162.447 216.725 157.269 223.483C158.161 225.828 159.431 228.979 160.578 232.15C161.594 234.996 160.841 237.544 158.782 239.619C157.664 240.751 157.586 241.687 158.413 242.993C174.776 269.313 191.14 295.633 207.965 322.752L207.991 322.7ZM206.429 339.561C206.013 339.938 205.733 340.075 205.577 340.322C188.215 366.928 185.639 394.897 198.655 423.853C202.529 432.461 209.516 438.447 219.31 440.244C225.799 441.434 230.85 439.356 233.506 433.354C235.401 429.037 236.718 424.219 237.099 419.52C238.285 404.648 234.213 390.646 228.358 377.217C225.337 370.318 221.269 363.855 217.461 357.326C213.966 351.344 210.158 345.53 206.422 339.541L206.429 339.561ZM174.019 154.112C173.191 151.636 172.526 148.868 171.296 146.354C170.775 145.314 168.485 143.978 168.004 144.29C165.626 145.865 161.867 145.453 160.803 148.951C160.732 149.191 160.953 149.529 161.025 149.808C161.911 153.109 163.149 156.358 163.619 159.711C164.318 164.721 165.154 169.881 164.695 174.867C163.914 183.557 160.909 191.756 156.128 199.118C145.937 214.745 131.612 223.585 112.743 223.499C102.691 223.457 92.897 220.815 84.8368 214.472C80.0684 210.714 76.1445 205.914 71.7724 201.655C71.1673 201.077 70.0811 200.552 69.314 200.656C67.3375 200.905 65.3677 201.434 63.4305 201.994C59.855 203.038 59.2774 204.618 61.4381 207.709C69.8726 219.777 81.1981 228.17 94.9337 233.2C107.609 237.848 120.439 239.715 133.224 233.339C134.654 232.623 135.415 233.214 135.937 234.643C136.601 236.436 137.343 238.204 138.268 239.866C140.097 243.199 143.206 245.302 145.573 244.533C148.699 243.509 151.891 242.421 154.731 240.8C158.93 238.443 159.883 234.289 157.8 229.871C156.901 227.961 156.191 225.967 155.241 224.096C154.297 222.244 154.972 221.282 156.408 219.87C166.045 210.365 174.094 199.939 176.367 185.982C178.135 175.185 177.998 164.656 174.045 154.125L174.019 154.112ZM200.493 330.883C197.415 337.568 194.279 343.622 191.747 349.929C185.444 365.579 182.717 381.875 183.274 398.786C183.891 417.562 191.275 432.842 206.639 443.655C210.972 446.693 216.681 448.078 221.988 449.295C224.381 449.839 227.625 448.646 229.906 447.299C237.53 442.8 241.745 435.628 243.404 427.164C245.912 414.429 244.87 401.841 241.13 389.417C237.266 376.559 231.452 364.742 224.208 353.381C206.556 325.607 189.548 297.422 172.312 269.4C166.812 260.468 161.351 251.524 155.753 242.365C154.005 243.296 152.386 244.162 150.579 245.113C153.085 249.108 155.481 252.901 157.837 256.707C179.388 291.283 200.925 325.885 222.476 360.461C230.931 374.017 236.409 388.72 238.936 404.453C240.352 413.297 240.449 422.214 237.412 430.9C234.186 440.126 226.374 444.774 217.465 442.443C211 440.746 205.504 437.404 201.17 432.157C194.357 423.902 190.859 414.15 189.396 403.869C186.006 379.844 189.652 357.281 204.99 337.333C204.059 335.781 203.057 334.079 201.996 332.396C201.801 332.072 201.417 331.831 200.461 330.916L200.493 330.883ZM250.318 161.006C268.89 164.42 280.816 175.841 287.888 192.265C293.234 204.693 293.223 218.153 291.086 231.349C287.667 252.645 278.596 271.17 262.324 285.731C247.229 299.271 230.708 310.882 213.341 321.324C208.395 324.298 207.848 322.921 211.799 328.838C211.89 328.981 212.144 329.026 211.935 328.923C214.99 326.84 217.947 324.985 220.716 322.889C234.825 312.171 249.213 301.771 262.88 290.508C274.376 281.053 283.992 269.93 288.651 255.198C292.849 241.877 297.918 228.828 297.532 214.503C297.072 197.56 292.023 182.323 280.5 169.706C272.399 160.842 262.019 156.9 249.88 157.295C250.03 158.589 250.181 159.752 250.312 160.987L250.318 161.006ZM29.914 94.513C29.3811 95.0595 28.9912 95.3848 28.6924 95.7881C27.4061 97.4532 26.0417 99.0793 24.866 100.816C17.9089 111.007 16.2906 121.993 21.1875 133.336C24.2676 140.476 28.0563 147.336 31.9944 154.059C41.2245 169.804 50.7407 185.368 60.1203 200.977L68.1941 198.279C64.4844 192.953 60.684 187.939 57.332 182.645C47.0286 166.348 36.9333 149.959 28.1768 132.712C23.1703 122.857 23.932 114.368 29.7587 105.66C31.2657 103.422 32.9158 101.289 34.5918 98.9737C33.0889 97.5257 31.5925 96.0973 29.9335 94.5065L29.914 94.513ZM211.289 144.645C209.313 145.609 207.239 146.411 205.4 147.589C194.104 154.788 190.856 169.655 198.34 179.462C205.127 188.353 218.432 190.147 228.629 183.034C239.456 175.471 242.681 164.946 236.678 153.213C232.538 145.106 221.345 141.522 211.289 144.645ZM167.43 141.535C166.519 139.326 165.776 137.364 164.936 135.434C160.795 125.962 156.601 116.529 152.518 107.037C148.012 96.5386 143.363 86.1309 136.627 76.8107C124.984 60.7228 113.746 56.0279 96.2904 60.0417C96.3308 62.1085 96.3711 64.1753 96.4051 66.3525C99.7211 66.3494 102.914 66.5608 106.087 66.3238C119.032 65.356 128.028 71.9053 133.848 82.3768C141.165 95.5767 147.429 109.388 153.94 123.031C157.234 129.904 160.093 136.966 163.167 144.022C164.207 143.566 165.247 143.175 166.209 142.68C166.638 142.472 166.943 142.023 167.424 141.58L167.43 141.535ZM86.9689 73.7319C92.8649 71.7179 93.9628 70.2675 94.1278 63.9499C94.1786 62.156 94.379 60.2905 93.9422 58.5946C93.6098 57.3405 92.5619 55.6322 91.4888 55.3407C87.9511 54.3562 84.2835 53.7618 80.6161 53.2973C78.1256 52.9812 76.2798 54.1399 76.0735 56.8958C75.8348 59.7493 75.336 62.668 75.689 65.4754C76.5715 72.7214 80.9688 75.7589 86.9819 73.7059L86.9689 73.7319ZM44.4675 97.5798C46.1375 95.9599 48.8408 93.6045 51.1863 90.957C53.0965 88.8234 52.7372 86.1915 50.6425 84.5296C47.2857 81.8811 43.669 79.4277 39.9095 77.3905C36.9695 75.7945 35.1755 76.7191 33.6235 79.7948C32.8508 81.3099 32.2601 82.9158 31.4679 84.4374C29.6756 87.8968 29.7295 90.8475 31.9678 93.3282C34.9479 96.601 38.1423 99.4772 44.4675 97.5798ZM240.327 154.464C241.019 159.13 241.613 163.114 242.325 167.903C244.34 166.796 247.636 165.89 247.7 164.785C247.893 161.665 247.176 158.286 245.913 155.414C245.483 154.453 242.284 154.742 240.346 154.458L240.327 154.464Z" fill="#272765"/>
</g>
<defs>
<clipPath id="clip0_139_577">
<rect width="245" height="426" fill="white" transform="translate(0 77.6626) rotate(-18.481)"/>
</clipPath>
</defs>
</svg>
