<svg width="296" height="407" viewBox="0 0 296 407" fill="none" xmlns="http://www.w3.org/2000/svg">
<g clip-path="url(#clip0_468_165)">
<path d="M160.333 122.604L107.437 236.121C96.3656 257.96 81.5425 271.558 56.8145 263.363L-10.7218 238.645C-26.7131 230.18 -38.5247 219.377 -30.5213 197.505L24.1078 85.2964C35.364 61.4401 52.3024 53.1286 69.5277 58.1359L140.323 81.9457C162.364 90.0853 167.676 103.182 160.328 122.602L160.333 122.604Z" stroke="#272765" stroke-miterlimit="10"/>
<path d="M62.8002 56.863C70.644 55.4749 82.735 59.2512 93.7864 63.0647L146.912 80.9236C169.914 89.8551 188.654 107.373 178.201 135.483L127.304 245.987C113.936 274.199 94.92 289.23 64.688 278.052L-9.48364 249.69C-25.9452 242.686 -37.213 226.882 -33.0132 208.3" stroke="#272765" stroke-miterlimit="10"/>
<path d="M75.3875 281.02C72.0341 299.348 71.7828 317.541 78.0694 335.439C97.3414 323.923 113.086 306.918 126.034 285.57C132.669 271.775 138.507 257.334 144.301 243.946C149.875 231.062 155.491 219.194 157.544 208.013C159.301 198.452 157.45 192.594 156.636 182.3" stroke="#272765" stroke-miterlimit="10"/>
<path d="M87.8839 61.0812C107.746 45.1009 133.26 41.3814 166.004 53.3426L203.86 65.4098C245.851 75.2814 259.061 118.887 253.775 184.18C259.044 197.77 253.269 207.087 240.114 213.56C215.308 311.467 170.394 364.639 128.89 378.14C119.158 381.306 109.596 381.413 100.507 377.901L99.3347 377.402L24.8928 345.725C4.14253 336.895 -9.61833 292.468 -7.59476 250.494" stroke="#272765" stroke-miterlimit="10"/>
<path d="M78.0694 335.439C86.7935 363.401 101.295 373.327 125.559 379.104" stroke="#272765" stroke-miterlimit="10"/>
<path d="M206.17 196.327C209.456 196.37 212.176 192.149 212.244 186.9C212.313 181.651 209.705 177.361 206.419 177.318C203.134 177.275 200.414 181.495 200.345 186.744C200.276 191.993 202.884 196.284 206.17 196.327Z" stroke="#272765" stroke-miterlimit="10"/>
<path d="M212.346 160.313C215.328 158.41 215.702 153.663 213.18 149.711C210.659 145.758 206.197 144.097 203.214 146C200.231 147.903 199.857 152.65 202.379 156.602C204.901 160.554 209.363 162.216 212.346 160.313Z" stroke="#272765" stroke-miterlimit="10"/>
<path d="M211.818 131.459C213.789 128.802 212.274 124.339 208.434 121.49C204.594 118.642 199.883 118.486 197.912 121.143C195.941 123.799 197.456 128.263 201.296 131.111C205.136 133.96 209.847 134.116 211.818 131.459Z" stroke="#272765" stroke-miterlimit="10"/>
<path d="M195.966 110.845C200.451 112.754 204.945 112.285 206.003 109.798C207.061 107.311 204.283 103.747 199.798 101.839C195.313 99.93 190.819 100.399 189.761 102.886C188.702 105.373 191.48 108.936 195.966 110.845Z" stroke="#272765" stroke-miterlimit="10"/>
<path d="M95.7672 365.397C114.531 372.385 131.455 369.769 146.986 359.84C179.295 339.176 211.301 289.059 229.701 223.506" stroke="#272765" stroke-miterlimit="10"/>
<path d="M201.033 119.349C202.686 125.457 206.688 128.917 212.351 130.502" stroke="#272765" stroke-miterlimit="10"/>
<path d="M206.09 145.216C205.696 150.41 207.723 155.142 213.619 159.144" stroke="#272765" stroke-miterlimit="10"/>
<path d="M180.113 83.7679C201.991 87.301 216.443 95.078 225.726 105.807C241.262 124.801 239.076 166.474 235.892 206.665" stroke="#272765" stroke-miterlimit="10"/>
<path d="M168.071 93.2254C206.606 54.7506 256.382 90.5995 246.525 183.956C245.312 199.827 237.101 209.611 221.788 213.23L175.292 195.811C170.174 194.479 167.532 190.935 167.317 185.223C169.463 172.341 171.969 158.88 171.205 150.671" stroke="#272765" stroke-miterlimit="10"/>
<path d="M126.034 285.571C121.426 306.075 132.398 318.509 148.883 319.494C179.242 322.395 194.605 314.087 227.016 232.639" stroke="#272765" stroke-miterlimit="10"/>
<path d="M178.7 287.791C186.654 277.728 186.48 264.336 178.311 257.88C170.143 251.424 157.074 254.349 149.12 264.412C141.166 274.475 141.341 287.867 149.509 294.323C157.677 300.779 170.747 297.854 178.7 287.791Z" stroke="#272765" stroke-miterlimit="10"/>
<path d="M170.888 161.723C168.092 161.546 166.116 162.376 164.972 164.217" stroke="#272765" stroke-miterlimit="10"/>
<path d="M221.788 213.23C211.802 214.968 195.1 208.184 172.239 199.06C166.962 196.518 164.402 192.734 163.233 188.313C162.165 178.639 162.479 173.837 170.476 165.277" stroke="#272765" stroke-miterlimit="10"/>
<path d="M138.34 339.496C142.762 337.714 145.298 333.666 144.004 330.456C142.71 327.245 138.077 326.087 133.655 327.87C129.233 329.652 126.697 333.699 127.99 336.909C129.284 340.12 133.918 341.278 138.34 339.496Z" stroke="#272765" stroke-miterlimit="10"/>
<path d="M116.125 354.09C120.67 353.536 124.038 350.489 123.647 347.284C123.257 344.079 119.256 341.93 114.71 342.484C110.165 343.038 106.798 346.085 107.188 349.29C107.579 352.495 111.58 354.644 116.125 354.09Z" stroke="#272765" stroke-miterlimit="10"/>
<path d="M127.672 334.744C133.447 331.188 138.914 330.954 144.095 333.822" stroke="#272765" stroke-miterlimit="10"/>
<path d="M108.253 351.645C112.448 350.941 116.788 350.961 121.33 352.027" stroke="#272765" stroke-miterlimit="10"/>
</g>
<defs>
<clipPath id="clip0_468_165">
<rect width="263.782" height="329.476" fill="white" transform="translate(53.2477) rotate(23.0511)"/>
</clipPath>
</defs>
</svg>
