<svg width="60" height="60" viewBox="0 0 60 60" fill="none" xmlns="http://www.w3.org/2000/svg">
<path d="M47.2785 57.0167C46.881 56.7605 46.6681 56.4197 46.8327 55.9467C46.9974 55.4736 47.3736 55.3948 47.8152 55.3962C49.569 55.4018 51.3223 55.4018 53.0751 55.3962C54.5644 55.3962 55.2387 54.7204 55.2387 53.2351C55.2387 42.8166 55.2387 32.4019 55.2387 21.991C55.2387 21.2152 55.2387 21.2138 54.4494 21.2138H41.2746C41.1142 21.2138 40.9552 21.2138 40.7962 21.2138C40.1318 21.2011 39.7343 20.8787 39.7371 20.3592C39.7371 19.8805 40.1332 19.5271 40.7621 19.5046C41.5231 19.4793 42.2855 19.4933 43.0464 19.4933H54.5218C55.2316 19.4933 55.2316 19.4849 55.2316 18.7894C55.2316 16.4701 55.2316 14.1518 55.2316 11.8344C55.2316 10.5673 54.5076 9.85205 53.2242 9.83938C52.2148 9.83093 51.2054 9.85205 50.196 9.83093C49.7914 9.82107 49.6054 9.93371 49.6381 10.3645C49.6707 10.7953 49.6466 11.2093 49.6381 11.6316C49.6196 13.5084 48.1743 14.9852 46.3429 15.0007C45.8947 15.0108 45.4489 14.9323 45.0315 14.7698C44.6142 14.6072 44.2336 14.3638 43.9121 14.0539C43.5906 13.744 43.3345 13.3736 43.1588 12.9645C42.9831 12.5554 42.8914 12.1157 42.8888 11.6711C42.8775 11.1966 42.8775 10.7221 42.8888 10.2477C42.8888 9.9661 42.7753 9.83797 42.48 9.83797C39.7513 9.8436 37.0236 9.8436 34.2968 9.83797C33.9547 9.83797 33.8851 10.0196 33.8823 10.3054C33.8984 10.9021 33.8775 11.4992 33.8198 12.0934C33.7092 12.893 33.3104 13.6259 32.697 14.1564C32.0837 14.6869 31.2974 14.9792 30.4835 14.9792C29.6697 14.9792 28.8834 14.6869 28.27 14.1564C27.6567 13.6259 27.2579 12.893 27.1473 12.0934C27.0814 11.5328 27.0619 10.9677 27.0891 10.404C27.1018 9.98158 26.9712 9.81544 26.5212 9.81826C23.8824 9.83516 21.2437 9.83516 18.605 9.81826C18.2174 9.81826 18.074 9.93793 18.074 10.3307C18.074 10.9953 18.1422 11.664 17.9959 12.3257C17.8236 13.1524 17.3431 13.8843 16.6504 14.3749C15.9577 14.8656 15.1038 15.0791 14.2593 14.9726C12.6536 14.8008 11.3546 13.3394 11.3305 11.6753C11.3305 11.2008 11.3177 10.7264 11.3305 10.2533C11.3404 9.9337 11.2069 9.81826 10.8904 9.82108C9.79151 9.83234 8.69267 9.80559 7.59667 9.83375C6.4524 9.8619 5.75106 10.6095 5.74112 11.7612C5.74112 14.08 5.74112 16.3974 5.74112 18.7162C5.74112 19.4764 5.74112 19.4779 6.50208 19.4779C16.4731 19.4779 26.444 19.4779 36.415 19.4779C36.6973 19.469 36.9798 19.4879 37.2583 19.5342C37.7126 19.6271 37.9682 19.9242 37.9511 20.3958C37.9341 20.8675 37.6218 21.1181 37.1689 21.1828C36.9575 21.2023 36.7449 21.207 36.5329 21.1969H6.61708C5.73687 21.1969 5.73545 21.1969 5.73545 22.0937V27.6268C5.73545 27.7845 5.73545 27.9422 5.73545 28.0999C5.6957 28.7742 5.3791 29.1304 4.83678 29.1164C4.29445 29.1023 4.00342 28.7348 4.00342 28.052C4.00342 22.5724 4.00342 17.0929 4.00342 11.6133C4.00342 9.67465 5.52533 8.19073 7.48451 8.1668C8.60039 8.15272 9.71579 8.15272 10.8307 8.1668C11.1942 8.1668 11.3489 8.05416 11.3305 7.68247C11.3077 7.24461 11.3305 6.80394 11.3305 6.36468C11.3475 4.48513 12.7857 3.01951 14.6256 3.00402C15.0739 2.99182 15.5201 3.06866 15.938 3.23C16.3559 3.39135 16.7371 3.63395 17.0591 3.94354C17.381 4.25313 17.6373 4.62346 17.8128 5.03272C17.9884 5.44199 18.0796 5.88192 18.0811 6.32666C18.0925 6.78282 18.0967 7.24039 18.0811 7.69655C18.0697 8.03022 18.1933 8.1668 18.5425 8.16539C21.2342 8.15694 23.926 8.15694 26.6177 8.16539C26.9599 8.16539 27.0919 8.03444 27.0919 7.69936C27.0711 7.10267 27.0915 6.50527 27.1529 5.91134C27.2613 5.11141 27.6581 4.37745 28.2699 3.84524C28.8818 3.31303 29.6673 3.01858 30.4812 3.01634C31.295 3.01411 32.0822 3.30426 32.697 3.8331C33.3118 4.36195 33.7127 5.09371 33.8255 5.89303C33.8883 6.46897 33.9087 7.04868 33.8865 7.62756C33.8865 7.99502 33.9859 8.16961 34.3962 8.16821C37.0709 8.15507 39.7451 8.15507 42.4189 8.16821C42.8022 8.16821 42.8988 8.01192 42.9016 7.66276C42.9016 6.99823 42.8349 6.33089 42.9811 5.66777C43.3644 3.91916 44.8636 2.85196 46.7064 3.01669C48.3163 3.15748 49.6196 4.61607 49.648 6.2971C49.6686 6.70044 49.6686 7.10455 49.648 7.50789C49.604 8.00347 49.763 8.19354 50.2925 8.17383C51.3176 8.13581 52.3468 8.15694 53.3733 8.16539C55.5028 8.18369 56.9793 9.65072 56.9807 11.7569C56.9864 19.307 56.9864 26.8585 56.9807 34.4114C56.9807 40.5766 56.9495 46.7404 56.9977 52.9056C57.0134 54.9302 56.251 56.3198 54.3003 56.9998L47.2785 57.0167ZM28.8225 9.00731C28.8225 9.86754 28.8126 10.7278 28.8225 11.588C28.8367 12.589 29.5153 13.2775 30.4708 13.2775C31.4262 13.2775 32.1417 12.6087 32.1503 11.6218C32.1654 9.88348 32.1654 8.14707 32.1503 6.41254C32.1417 5.43827 31.4205 4.70194 30.502 4.68786C29.5835 4.67379 28.8353 5.43546 28.8211 6.43366C28.8154 7.29248 28.8154 8.15272 28.8154 9.01295L28.8225 9.00731ZM16.3406 9.03125C16.3406 8.15413 16.3505 7.277 16.3406 6.40128C16.3264 5.41575 15.6307 4.68647 14.7093 4.68224C13.788 4.67802 13.0767 5.40872 13.0682 6.39144C13.054 8.12691 13.054 9.86332 13.0682 11.6007C13.0767 12.6327 13.7212 13.2761 14.698 13.2775C15.6747 13.2789 16.3249 12.6383 16.3406 11.6105C16.3477 10.7559 16.3377 9.89569 16.3377 9.03687L16.3406 9.03125ZM44.6407 8.9524V11.5824C44.6634 12.62 45.2824 13.2718 46.2606 13.2718C47.2388 13.2718 47.906 12.6453 47.916 11.6204C47.933 9.86707 47.933 8.11375 47.916 6.36045C47.9074 5.38337 47.1593 4.65268 46.2507 4.67943C45.3421 4.70618 44.662 5.41717 44.6464 6.36891C44.6265 7.23899 44.6379 8.09922 44.6379 8.95804L44.6407 8.9524Z" fill="#786CB1"/>
<path d="M6.68384 57.0164C5.29254 56.5406 4.34844 55.655 4.05599 54.1824C4.01483 53.9581 3.99628 53.7303 4.00062 53.5023C4.00062 46.3549 4.00062 39.2065 4.00062 32.0572C4.00062 31.3997 4.22351 31.0435 4.67497 30.9534C4.88505 30.9008 5.10756 30.933 5.29382 31.0427C5.48007 31.1525 5.61488 31.331 5.66876 31.5391C5.7403 31.8295 5.76474 32.1294 5.74116 32.4275V53.1334C5.74116 54.7638 6.37718 55.3974 8.01267 55.3974H43.3957C43.5732 55.3974 43.7506 55.3974 43.9281 55.3974C44.3653 55.3791 44.7572 55.4649 44.9219 55.9225C45.0865 56.3801 44.9006 56.7419 44.5173 57.0164H6.68384Z" fill="#786CB1"/>
<path d="M23.0757 31.2166C22.0322 31.2166 20.9887 31.2293 19.9523 31.2166C18.5951 31.1955 17.5133 30.3719 17.1996 29.1527C16.7552 27.428 17.9648 25.761 19.8146 25.7286C23.1424 25.6709 26.473 25.6892 29.8007 25.7286C30.9947 25.7399 31.9204 26.3242 32.3676 27.4533C32.8148 28.5825 32.5422 29.5989 31.7159 30.4662C30.742 31.4855 29.761 32.4992 28.7573 33.4918C28.4151 33.8297 28.3867 33.9972 28.8098 34.3239C31.909 36.7173 33.1782 39.8766 32.3235 43.6737C31.4618 47.5004 28.9163 49.8558 25.0689 50.6583C21.9456 51.3116 19.18 50.3767 16.873 48.2015C16.6105 47.9555 16.3995 47.6607 16.2519 47.3338C16.1043 47.0069 16.023 46.6544 16.0128 46.2964C16.0026 45.9383 16.0636 45.5818 16.1923 45.2472C16.321 44.9126 16.5149 44.6063 16.763 44.346C17.011 44.0857 17.3084 43.8764 17.638 43.73C17.9676 43.5836 18.3231 43.5031 18.6841 43.4929C19.0451 43.4828 19.4046 43.5433 19.7421 43.6709C20.0795 43.7986 20.3883 43.9909 20.6508 44.2369C22.3857 45.8785 25.0519 45.5772 26.3154 43.8568C27.1573 42.7178 27.3092 41.4633 26.7129 40.1751C26.057 38.7672 24.8758 38.0632 23.3397 37.9999C22.0237 37.945 21.1804 37.2706 20.6977 36.1344C20.215 34.9982 20.5642 33.9592 21.4075 33.1004C21.9853 32.5147 22.6114 31.9741 23.2162 31.4109L23.0757 31.2166ZM24.8276 27.4308C23.1978 27.4308 21.5623 27.4224 19.9396 27.4308C19.1829 27.4308 18.7129 27.9813 18.8421 28.6557C18.9429 29.1752 19.3376 29.4779 19.9779 29.4807C21.6815 29.4891 23.3852 29.4807 25.0774 29.4807C25.7035 29.4807 26.0712 29.7468 26.1479 30.2156C26.2075 30.6084 25.9846 30.8773 25.722 31.1364C24.6686 32.2022 23.6052 33.2595 22.5717 34.3436C22.0137 34.9307 22.1188 35.6543 22.7747 36.1049C23.0359 36.2837 23.3426 36.302 23.6393 36.316C26.9046 36.4568 29.3351 39.5725 28.6437 42.7375C27.7507 46.8331 22.8698 48.3691 19.6301 45.5772C19.0239 45.0549 18.4276 45.0309 17.9889 45.511C17.5871 45.9503 17.6624 46.5895 18.199 47.0921C19.9523 48.7309 22.0577 49.3448 24.4116 49.0435C27.6073 48.6211 30.2323 46.0517 30.7519 42.9219C31.0265 41.3701 30.7937 39.7719 30.0875 38.3606C29.3813 36.9493 28.2387 35.7988 26.8265 35.0771C25.8852 34.5857 25.7986 34.0704 26.5269 33.3214C27.8189 31.9943 29.1079 30.6652 30.3942 29.3343C30.7349 28.9809 31.0075 28.5895 30.7718 28.0671C30.5362 27.5448 30.0932 27.4139 29.5523 27.4195C27.9793 27.4364 26.402 27.428 24.8276 27.428V27.4308Z" fill="#786CB1"/>
<path d="M39.4094 33.0202C38.9086 33.2759 38.3476 33.3931 37.7853 33.3594C36.6013 33.2524 35.6657 32.4598 35.3349 31.2687C35.1862 30.7391 35.2133 30.1761 35.4122 29.6629C35.6111 29.1497 35.9712 28.7136 36.4394 28.4191C37.754 27.5941 39.0843 26.7831 40.4571 26.0581C42.4987 24.9796 44.9576 26.5086 44.9661 28.8401C44.9817 33.3327 44.9661 37.8253 44.9661 42.3179C44.9661 44.2496 44.9661 46.1798 44.9661 48.11C44.9576 49.5292 43.9368 50.6823 42.581 50.8301C41.1315 50.9906 39.9148 50.1585 39.5499 48.7703C39.4888 48.4778 39.4664 48.1788 39.4832 47.8805C39.4832 43.1078 39.4832 38.3345 39.4832 33.5608C39.4818 33.3918 39.5315 33.213 39.4094 33.0202ZM43.2426 38.456C43.2426 35.2967 43.2426 32.1374 43.2426 28.9767C43.2426 27.6673 42.1608 27.0394 41.025 27.6828C39.858 28.3445 38.7067 29.0344 37.5553 29.7242C36.9874 30.0649 36.8369 30.6042 37.1294 31.1167C37.4474 31.6798 37.967 31.8206 38.5718 31.5024C39.0105 31.2729 39.4236 31.0068 39.8722 30.7886C40.5565 30.4493 41.1272 30.7886 41.1656 31.5404C41.1741 31.715 41.1656 31.891 41.1656 32.067C41.1656 37.2293 41.1656 42.3916 41.1656 47.5539C41.1477 47.8699 41.1847 48.1866 41.2749 48.4901C41.3181 48.6192 41.3878 48.738 41.4796 48.8391C41.5714 48.9401 41.6833 49.0213 41.8083 49.0773C41.9332 49.1334 42.0685 49.1632 42.2057 49.1649C42.3428 49.1666 42.4788 49.1401 42.6051 49.0871C43.1446 48.8787 43.2497 48.4535 43.2483 47.9397C43.236 44.7775 43.2317 41.6163 43.2355 38.456H43.2426Z" fill="#786CB1"/>
</svg>
