<svg width="60" height="60" viewBox="0 0 60 60" fill="none" xmlns="http://www.w3.org/2000/svg">
<g clip-path="url(#clip0_566_144)">
<path d="M37.1339 60.0117C35.2218 59.6198 33.4794 58.8912 31.9798 57.6029C30.88 56.6558 29.9593 55.5205 29.2613 54.2506C29.0255 53.8294 28.745 53.6992 28.2805 53.7003C21.3981 53.7121 14.5161 53.7121 7.63455 53.7003C4.87477 53.7003 2.64432 51.8969 2.10911 49.2698C2.06001 49.0213 2.03551 48.7686 2.036 48.5153C2.03128 43.89 2.02816 39.2651 2.02659 34.6406C2.02659 34.1583 2.14446 33.7512 2.56532 33.4754C2.74295 33.3504 2.95208 33.277 3.16924 33.2635C3.38641 33.25 3.60307 33.297 3.79493 33.3992C4.002 33.4935 4.17609 33.6472 4.29495 33.8405C4.41381 34.0338 4.47204 34.2581 4.46217 34.4845C4.46217 36.085 4.46217 37.6854 4.46217 39.2858C4.46217 42.1734 4.45392 45.0622 4.46217 47.9498C4.46924 49.6018 5.34752 50.7846 6.79638 51.1178C7.08419 51.1754 7.37765 51.2002 7.67111 51.1917C14.1802 51.1917 20.6896 51.1917 27.1994 51.1917C27.8808 51.1917 27.8632 51.1917 27.6804 50.5041C26.4721 45.961 26.5393 41.5011 28.7273 37.2372C30.0854 34.5901 32.1862 32.7785 35.1499 32.0815C35.5507 31.9876 35.5872 31.8574 35.3974 31.5007C34.8799 30.5268 34.597 29.4708 34.4367 28.3831C34.4062 28.2139 34.4121 28.0402 34.454 27.8734C34.4958 27.7067 34.5727 27.5506 34.6795 27.4155C34.7863 27.2804 34.9206 27.1693 35.0736 27.0896C35.2266 27.0098 35.3948 26.9632 35.5672 26.9528C37.7281 26.8144 39.7039 27.2755 41.2907 28.849C41.5642 29.12 41.6727 29.1259 41.8743 28.7786C42.1506 28.3089 42.2917 27.7727 42.2822 27.2286C42.2657 20.8479 42.2739 14.4661 42.2704 8.0855C42.2704 6.63407 41.5772 5.58511 40.3217 5.1099C39.8761 4.95637 39.4067 4.88326 38.9353 4.89401C37.464 4.88462 35.994 4.90457 34.5239 4.88227C34.0453 4.87406 33.8802 5.02894 33.8613 5.51353C33.8508 6.068 33.6195 6.59562 33.2183 6.98043C32.8171 7.36525 32.2788 7.57576 31.7217 7.56571C26.1526 7.57744 20.5843 7.57744 15.0168 7.56571C14.4586 7.57141 13.9207 7.35797 13.5195 6.97165C13.1183 6.58533 12.8863 6.05724 12.8736 5.5018C12.8488 5.00782 12.6814 4.87523 12.2098 4.88227C10.7598 4.90691 9.3086 4.88228 7.85738 4.89401C5.69176 4.91044 4.46217 6.13658 4.45981 8.28379C4.45981 13.7093 4.45981 19.1345 4.45981 24.5592C4.45981 24.7739 4.46805 24.9887 4.45155 25.2022C4.43971 25.508 4.30982 25.7975 4.0889 26.0104C3.86798 26.2233 3.57309 26.3432 3.2656 26.345C2.59599 26.3568 2.08669 25.8757 2.0301 25.1916C2.01831 25.0356 2.02423 24.8795 2.02423 24.7223C2.02423 19.1794 2.08433 13.6366 2.00063 8.09606C1.95229 4.81774 4.70266 2.315 7.67701 2.44994C9.16359 2.51799 10.6561 2.44994 12.1462 2.46988C12.6048 2.47575 12.8347 2.40652 12.8936 1.86209C13.0115 0.770885 13.9298 0.00704005 15.0415 0.00586671C20.591 -0.00195557 26.1396 -0.00195557 31.6875 0.00586671C32.8746 0.00586671 33.7647 0.800219 33.8602 1.95596C33.8955 2.37836 34.0688 2.47106 34.4496 2.46754C35.9822 2.45463 37.5147 2.52151 39.0379 2.44994C41.9214 2.31383 44.7885 4.53027 44.7885 8.16411C44.7885 13.5889 44.7885 19.014 44.7885 24.4395C44.7885 24.5956 44.7968 24.7516 44.7885 24.9089C44.7649 25.3102 44.8805 25.3888 45.253 25.1776C47.2465 24.0488 49.4133 23.7461 51.6661 23.8986C52.456 23.9514 52.9217 24.5041 52.8014 25.3594C52.4784 27.6498 51.7852 29.8064 50.3151 31.6532C49.7776 32.3303 49.7752 32.3267 50.5509 32.6975C53.1162 33.9201 54.8232 35.9547 55.751 38.5642C57.8825 44.5483 57.3378 50.2847 53.7316 55.5906C52.1059 57.9819 49.7811 59.4509 46.881 59.9378C46.8051 59.9556 46.7306 59.9791 46.6582 60.0082L37.1339 60.0117ZM41.6515 57.6299C42.9589 57.6299 44.0175 57.6381 45.0762 57.6299C47.764 57.604 50.0169 56.5738 51.5377 54.3844C55.039 49.339 55.4693 43.9334 52.9205 38.3636C51.9632 36.2703 50.2456 34.928 47.935 34.4481C46.2161 34.0961 44.5374 34.3496 42.8987 34.8811C42.2879 35.0923 41.6234 35.0923 41.0125 34.8811C39.3621 34.3461 37.6598 34.0821 35.9197 34.4493C33.2884 35.0043 31.6356 36.7056 30.5958 39.0582C29.49 41.5621 29.2165 44.1974 29.5077 46.9043C29.7895 49.5314 30.5534 51.9872 32.1331 54.1368C33.5607 56.0799 35.4222 57.3283 37.9026 57.5571C39.2383 57.6815 40.5692 57.5747 41.6515 57.6299ZM23.4871 2.43703C21.0385 2.43703 18.5888 2.45346 16.1391 2.4253C15.5614 2.41826 15.2962 2.55906 15.3622 3.17154C15.4026 3.56162 15.4026 3.9548 15.3622 4.34488C15.3021 4.94916 15.5626 5.10756 16.1415 5.10404C19.6887 5.08292 23.236 5.09348 26.7821 5.09348C28.1343 5.09348 29.4865 5.08057 30.8387 5.09934C31.2937 5.10638 31.4812 4.95033 31.4517 4.48803C31.4161 4.01936 31.4161 3.54869 31.4517 3.08002C31.4977 2.5485 31.276 2.42295 30.775 2.42764C28.3477 2.44876 25.918 2.43703 23.4871 2.43703ZM49.5406 26.4002C49.2129 26.4553 48.8828 26.4952 48.5586 26.5668C45.8059 27.1676 44.166 28.8912 43.4693 31.5688C43.3573 31.9994 43.4552 32.1554 43.9208 32.058C44.475 31.9326 45.0408 31.8654 45.609 31.8574C46.1606 31.8444 46.6934 31.6552 47.1286 31.3177C48.6612 30.2194 49.4274 28.653 49.9579 26.9212C50.0888 26.4917 50.0098 26.3181 49.5394 26.4002H49.5406ZM40.0022 32.0733C40.3405 32.1073 40.3983 32.0463 40.2604 31.7272C39.7652 30.5773 38.894 29.8674 37.6668 29.5776C37.3933 29.5119 37.2507 29.5142 37.365 29.8733C37.7788 31.1616 38.7007 31.9442 40.001 32.0733H40.0022Z" fill="#49B49E"/>
<path d="M23.9997 39.443C24.0036 40.9671 23.5533 42.4581 22.7058 43.7275C21.8583 44.9969 20.6515 45.9876 19.2382 46.5744C17.8249 47.1611 16.2685 47.3175 14.7659 47.0238C13.2633 46.73 11.882 45.9994 10.7966 44.9242C9.71122 43.8491 8.97058 42.4777 8.66837 40.9835C8.36616 39.4894 8.51596 37.9396 9.0988 36.5302C9.68163 35.1208 10.6713 33.9151 11.9427 33.0655C13.2141 32.216 14.71 31.7608 16.2414 31.7576C17.2594 31.7495 18.2689 31.9425 19.2114 32.3254C20.154 32.7083 21.0109 33.2735 21.7324 33.9883C22.454 34.7031 23.0259 35.5533 23.4151 36.4896C23.8043 37.4259 24.003 38.4297 23.9997 39.443V39.443ZM21.4945 39.4547C21.4945 36.5213 19.2275 34.2615 16.2838 34.258C13.3189 34.258 11.0283 36.5295 11.0318 39.477C11.0354 42.4244 13.3354 44.6796 16.3097 44.6725C19.2346 44.662 21.4945 42.388 21.4886 39.4512L21.4945 39.4547Z" fill="#49B49E"/>
<path d="M24.199 16.3562H11.3244C10.2186 16.3562 9.60081 15.9185 9.58195 15.1312C9.56309 14.3251 10.2044 13.8523 11.3326 13.8523H37.023C37.3366 13.8523 37.6514 13.8417 37.9508 13.9696C38.4766 14.1867 38.776 14.5903 38.7572 15.1429C38.7383 15.6956 38.4377 16.0898 37.8883 16.2752C37.6041 16.3507 37.3093 16.3789 37.0159 16.3585L24.199 16.3562Z" fill="#49B49E"/>
<path d="M21.5773 22.454H11.3469C11.1314 22.4623 10.9156 22.4564 10.7008 22.4364C10.4073 22.399 10.1358 22.2618 9.93237 22.0479C9.72891 21.8341 9.60597 21.5568 9.58443 21.2631C9.57663 20.9773 9.67055 20.698 9.8496 20.4745C10.0286 20.251 10.2813 20.0977 10.5629 20.0416C10.8306 19.9849 11.1039 19.9585 11.3775 19.963C18.1986 19.9583 25.0193 19.9583 31.8396 19.963C32.1135 19.9587 32.387 19.987 32.6542 20.0475C32.9329 20.1131 33.1798 20.2738 33.352 20.5016C33.5243 20.7294 33.611 21.01 33.5973 21.2947C33.5716 21.5791 33.4504 21.8466 33.2532 22.054C33.056 22.2614 32.7942 22.3965 32.5103 22.4376C32.2957 22.4595 32.0799 22.4662 31.8643 22.4575L21.5773 22.454Z" fill="#49B49E"/>
<path d="M19.9597 28.5497C16.9622 28.5497 13.9647 28.5497 10.9671 28.5497C10.4319 28.5497 10.0087 28.3784 9.74228 27.9021C9.64244 27.7176 9.59254 27.5104 9.59751 27.301C9.60247 27.0915 9.6621 26.8869 9.77057 26.7074C9.87904 26.5278 10.0326 26.3794 10.2161 26.2768C10.3997 26.1742 10.6069 26.1209 10.8174 26.1221C11.5247 26.1221 12.2321 26.1221 12.9394 26.1221C18.2287 26.1221 23.518 26.1221 28.8073 26.1221C29.662 26.1221 30.1642 26.5116 30.2291 27.198C30.3045 28.0006 29.7575 28.5439 28.8403 28.5462C26.0188 28.5525 23.1977 28.5525 20.3771 28.5462L19.9597 28.5497Z" fill="#49B49E"/>
<path d="M3.22763 28.5906C3.38895 28.5832 3.55008 28.6088 3.70103 28.6659C3.85199 28.7231 3.98953 28.8104 4.10515 28.9226C4.22078 29.0349 4.312 29.1695 4.37317 29.3183C4.43433 29.467 4.46415 29.6267 4.46075 29.7874C4.46768 29.9487 4.44208 30.1097 4.38546 30.261C4.32883 30.4123 4.24232 30.5507 4.13106 30.6682C4.01979 30.7856 3.88601 30.8797 3.73761 30.9448C3.58922 31.01 3.42923 31.0449 3.26706 31.0474C3.1049 31.05 2.94385 31.0203 2.79344 30.9599C2.64302 30.8995 2.50626 30.8097 2.39127 30.6959C2.27628 30.5821 2.18538 30.4464 2.12392 30.2971C2.06245 30.1477 2.03167 29.9876 2.0334 29.8261C2.02482 29.6656 2.04948 29.505 2.10584 29.3544C2.16221 29.2037 2.24907 29.0662 2.36105 28.9504C2.47303 28.8345 2.60773 28.7428 2.7568 28.6809C2.90587 28.619 3.06613 28.5883 3.22763 28.5906Z" fill="#49B49E"/>
<path d="M15.519 42.3683C14.7398 42.3683 12.8076 40.5966 12.7392 39.8715C12.6873 39.327 12.896 38.907 13.3758 38.657C13.8556 38.4071 14.3189 38.4834 14.7504 38.8131C15.4683 39.3657 15.4636 39.3611 16.0754 38.6688C16.5541 38.1283 17.0402 37.5936 17.5337 37.0648C18.1078 36.4535 18.8789 36.3737 19.407 36.8548C19.9351 37.3359 19.9729 38.0504 19.4153 38.6782C18.4439 39.7741 17.443 40.8453 16.4515 41.9236C16.1898 42.2076 15.875 42.3895 15.519 42.3683Z" fill="#49B49E"/>
</g>
<defs>
<clipPath id="clip0_566_144">
<rect width="60" height="60" fill="white"/>
</clipPath>
</defs>
</svg>
