<svg width="60" height="60" viewBox="0 0 60 60" fill="none" xmlns="http://www.w3.org/2000/svg">
<path d="M17.7765 8.00341C21.4229 8.04247 24.7713 9.48136 27.6354 12.0841C28.3304 12.7156 29.0205 13.3618 29.5706 14.1268C29.8852 14.5647 30.0927 14.5354 30.4271 14.1268C32.0856 12.0922 34.0702 10.4612 36.4781 9.33161C43.2654 6.14946 51.5992 8.85958 55.0793 15.4469C57.6354 20.2844 57.5975 25.1789 55.2308 30.0832C53.9379 32.764 52.1954 35.1437 50.2124 37.3541C45.4163 42.6995 39.7342 47.0015 33.6881 50.8494C31.272 52.3875 28.7208 52.3794 26.3013 50.8461C20.8778 47.4052 15.7606 43.5687 11.2791 38.9606C8.4018 36.0015 5.88849 32.7884 4.25796 28.9649C1.71006 22.9962 3.09354 16.1289 7.855 11.7162C10.5429 9.22256 13.8006 8.02457 17.7765 8.00341Z" fill="#786CB1"/>
</svg>
