<svg width="60" height="60" viewBox="0 0 60 60" fill="none" xmlns="http://www.w3.org/2000/svg">
<path d="M44.4929 1C45.8219 1.45864 46.7694 2.29659 47.0881 3.72587C47.2324 4.36768 47.1652 5.02679 47.1467 5.67725C47.1338 6.14166 47.301 6.27723 47.744 6.26569C48.6943 6.23973 49.6446 6.24694 50.5949 6.26281C52.4999 6.2931 53.9818 7.79016 53.9989 9.71702C54.0304 13.3674 53.2858 16.8043 51.1851 19.8503C49.7718 21.8998 47.8841 23.3305 45.539 24.1252C45.0946 24.2766 44.7973 24.4959 44.5887 24.9343C42.7166 28.8515 40.0229 32.085 36.4803 34.5585C35.1399 35.4945 34.5668 36.706 34.5997 38.3098C34.634 39.9973 34.6154 41.6876 34.5997 43.3751C34.5968 43.7515 34.7069 43.9534 35.0727 44.1048C36.779 44.813 37.775 46.1038 38.008 47.9571C38.0523 48.3076 38.1866 48.4129 38.5124 48.4071C39.1183 48.397 39.7228 48.3855 40.313 48.6033C41.6263 49.0893 42.5723 50.3455 42.5852 51.756C42.6052 54.0579 42.598 56.3612 42.5895 58.6645C42.5866 59.5572 42.1407 59.9957 41.239 59.9957C33.748 60 26.257 60 18.766 59.9957C17.8442 59.9957 17.4155 59.5515 17.4141 58.6068C17.4084 56.3612 17.3998 54.117 17.4169 51.8714C17.4312 49.9114 18.9174 48.4345 20.8652 48.4028C20.9224 48.4028 20.9795 48.4028 21.0367 48.4028C21.8713 48.397 21.867 48.3956 22.0485 47.5591C22.4029 45.9221 23.3446 44.7596 24.8765 44.1236C25.2838 43.9549 25.411 43.7414 25.4067 43.3159C25.3867 41.5694 25.3938 39.8242 25.3996 38.0776C25.4038 36.6585 24.9008 35.5306 23.7061 34.6984C20.0635 32.1586 17.2812 28.863 15.3606 24.8319C15.2248 24.5463 15.0633 24.3199 14.7361 24.2132C10.6562 22.8762 8.22536 19.9412 6.90493 15.9433C6.23185 13.9053 5.96033 11.804 6.00463 9.65789C6.04322 7.8017 7.51655 6.29887 9.35144 6.26425C10.3403 6.2455 11.3292 6.2455 12.3167 6.26425C12.7068 6.27146 12.8769 6.1431 12.8512 5.73638C12.8269 5.37293 12.8454 5.00804 12.8469 4.64315C12.8554 2.87494 13.6457 1.73844 15.3048 1.09952C15.3748 1.07211 15.442 1.03461 15.5106 1.00288C25.1709 1.00288 34.8312 1.00288 44.4915 1.00288L44.4929 1ZM30.0025 3.34367C25.591 3.34367 21.1782 3.34079 16.7667 3.34512C15.6264 3.34512 15.2176 3.76193 15.2119 4.91141C15.2034 6.50367 15.2048 8.09737 15.2119 9.68962C15.2205 11.9713 15.1448 14.2558 15.4149 16.5303C15.8979 20.6061 17.3898 24.2694 19.7949 27.5664C21.3668 29.7226 23.3246 31.4634 25.4681 33.0225C27.0001 34.1374 27.7589 35.7008 27.7603 37.619C27.7632 39.98 27.7646 42.341 27.7603 44.7005C27.7603 45.7029 27.4702 46.0447 26.4971 46.1904C25.5153 46.3375 24.7865 46.8019 24.4721 47.797C24.3435 48.2052 24.3978 48.4172 24.9237 48.4143C28.3091 48.3927 31.693 48.3927 35.0784 48.4143C35.5972 48.4172 35.6658 48.2182 35.5357 47.8014C35.2142 46.7759 34.4611 46.3331 33.455 46.1875C32.5562 46.0577 32.2475 45.6769 32.2461 44.7596C32.2418 42.3222 32.2461 39.8848 32.2461 37.4474C32.2461 36.7262 32.4219 36.0469 32.6805 35.3792C33.2235 33.9802 34.3553 33.1465 35.4914 32.2898C40.2373 28.713 43.1611 23.9651 44.35 18.1211C44.7888 15.9663 44.8016 13.7784 44.7959 11.5905C44.7916 9.34492 44.8016 7.09932 44.7902 4.85372C44.7845 3.77347 44.3658 3.36531 43.294 3.34367C43.1225 3.34079 42.951 3.34367 42.781 3.34367C38.521 3.34367 34.261 3.34367 30.0025 3.34367V3.34367ZM29.9439 57.6159C33.1564 57.6159 36.3689 57.6073 39.5813 57.626C40.0672 57.6289 40.253 57.5078 40.2416 56.9857C40.2101 55.4511 40.2358 53.9165 40.2287 52.382C40.223 51.2008 39.8186 50.7912 38.6425 50.7912C32.8834 50.7868 27.123 50.7868 21.3639 50.7912C20.1864 50.7912 19.7806 51.2008 19.7763 52.3805C19.7691 53.9151 19.7949 55.4511 19.7634 56.9842C19.7534 57.5049 19.9349 57.6289 20.4222 57.626C23.5961 57.6073 26.7714 57.6159 29.9453 57.6159H29.9439ZM13.78 21.17C13.9101 20.9984 13.8543 20.8902 13.8229 20.782C13.0727 18.2047 12.7811 15.5726 12.8426 12.8914C12.8712 11.6468 12.8469 10.3992 12.8483 9.15454C12.8483 8.89205 12.8497 8.6411 12.4825 8.64398C11.495 8.65264 10.5047 8.61225 9.5215 8.67283C8.76125 8.71898 8.33968 9.20791 8.40256 9.92327C8.47687 10.7814 8.45258 11.6424 8.58119 12.5006C8.97275 15.088 9.77015 17.4894 11.5679 19.4537C12.2095 20.1547 12.9326 20.7503 13.78 21.17ZM49.0687 8.6411C48.6729 8.6411 48.3685 8.6411 48.0655 8.6411C47.4606 8.6411 47.1581 8.95599 47.1581 9.58578C47.1581 10.9271 47.1438 12.2698 47.161 13.6111C47.1924 16.0038 46.8666 18.3446 46.2278 20.6465C46.1864 20.7979 46.022 20.9969 46.2107 21.1109C46.365 21.2032 46.5236 21.0229 46.6637 20.9335C48.2527 19.9239 49.396 18.5206 50.1948 16.8202C51.2237 14.6294 51.5481 12.2886 51.611 9.89731C51.6281 9.25406 51.3023 8.85888 50.6778 8.70744C50.1148 8.57187 49.5417 8.6786 49.0673 8.64254L49.0687 8.6411Z" fill="#6989B3"/>
<path d="M23.8313 24.2721C24.0657 22.902 24.2943 21.464 24.5644 20.0333C24.6602 19.5299 24.5673 19.1665 24.1815 18.8088C23.2311 17.9262 22.3208 16.9988 21.3905 16.093C20.9761 15.6892 20.6474 15.2522 20.8432 14.6263C21.0347 14.0133 21.5063 13.7941 22.1008 13.7148C23.3426 13.5489 24.5773 13.3268 25.822 13.1826C26.4236 13.1133 26.8152 12.9143 27.0738 12.3129C27.574 11.1533 28.1642 10.0341 28.7129 8.89472C28.9759 8.34954 29.3189 7.89235 29.9834 7.901C30.6221 7.90965 30.9437 8.35675 31.198 8.88462C31.7568 10.0399 32.3584 11.1749 32.88 12.346C33.123 12.8927 33.4702 13.109 34.0347 13.1768C35.3351 13.334 36.627 13.5532 37.9245 13.7335C38.4804 13.8114 38.8977 14.0566 39.082 14.6118C39.2735 15.1844 39.0106 15.6142 38.6205 15.995C37.6387 16.957 36.6641 17.9262 35.6695 18.8752C35.3623 19.1679 35.2565 19.4521 35.3408 19.8891C35.6066 21.2607 35.8238 22.6438 36.0568 24.0226C36.1497 24.5707 36.0453 25.0567 35.5795 25.4086C35.1222 25.7533 34.6592 25.6769 34.189 25.4274C32.9786 24.7841 31.7539 24.1654 30.5564 23.4991C30.1191 23.2553 29.769 23.2697 29.3403 23.5106C28.1599 24.1697 26.9624 24.7985 25.762 25.4216C24.7745 25.9336 23.7928 25.3754 23.8328 24.2735L23.8313 24.2721ZM29.9548 11.8614C29.5118 12.7629 29.1016 13.5388 28.7472 14.3393C28.4428 15.0258 27.9598 15.3647 27.2182 15.4354C26.375 15.5176 25.539 15.6733 24.7002 15.7974C24.7059 16.0209 24.8588 16.093 24.9603 16.1954C25.539 16.7781 26.1192 17.3579 26.7051 17.9334C27.0895 18.3112 27.2539 18.7468 27.1224 19.2876C27.0553 19.566 27.0024 19.8516 26.9738 20.1357C26.9095 20.7862 26.6766 21.4193 26.718 22.1635C27.5754 21.7092 28.3685 21.3025 29.1488 20.8698C29.699 20.5655 30.2191 20.5597 30.7693 20.8727C31.4153 21.2405 32.0769 21.578 32.7357 21.9183C32.8786 21.9919 33.0344 22.1693 33.1958 22.0496C33.3402 21.9443 33.2073 21.7626 33.1844 21.6183C33.0844 20.9938 33.0186 20.3607 32.86 19.7506C32.6314 18.8737 32.8357 18.1973 33.5217 17.5973C34.129 17.0666 34.6606 16.4464 35.2822 15.8075C34.3762 15.6705 33.5574 15.5161 32.7328 15.4325C31.9797 15.356 31.4653 15.0344 31.1537 14.3162C30.8065 13.5172 30.3906 12.747 29.9533 11.8586L29.9548 11.8614Z" fill="#6989B3"/>
<path d="M27.6711 55.3922C26.948 55.3922 26.2264 55.4052 25.5033 55.3893C24.7402 55.372 24.2543 54.8845 24.2643 54.1821C24.2743 53.5028 24.7516 53.0269 25.4876 53.0182C26.9709 53.0024 28.4528 53.0024 29.9362 53.0182C30.6993 53.0255 31.1851 53.5216 31.1751 54.2254C31.1651 54.9047 30.6878 55.3735 29.9519 55.3893C29.1916 55.4066 28.4314 55.3936 27.6711 55.3936V55.3922Z" fill="#6989B3"/>
<path d="M34.5807 53.0181C35.2524 53.0254 35.7611 53.5648 35.7397 54.2469C35.7182 54.9003 35.2038 55.395 34.5507 55.3878C33.8791 55.3806 33.3703 54.8412 33.3918 54.159C33.4132 53.5056 33.9277 53.0109 34.5807 53.0181Z" fill="#6989B3"/>
</svg>
