<svg width="60" height="60" viewBox="0 0 60 60" fill="none" xmlns="http://www.w3.org/2000/svg">
<path d="M32.0554 56.9998H27.8954C26.7466 56.8226 25.5877 56.7096 24.4501 56.461C21.7448 55.8672 19.1515 54.9657 16.7411 53.5617C16.4859 53.4125 16.2429 53.312 15.9308 53.4197C12.4469 54.6186 8.95884 55.8082 5.47286 56.9998H4.66058C3.99368 56.4972 3.8788 56.1387 4.15024 55.3066C5.26445 51.8914 6.37867 48.4771 7.50406 45.067C7.61894 44.7178 7.62809 44.4236 7.44205 44.0899C5.64569 40.8518 4.62297 37.3619 4.19091 33.6772C3.85136 30.778 3.95302 27.9026 4.59044 25.0551C5.90594 19.1768 8.83787 14.2705 13.3547 10.4076C19.4951 5.15409 26.5423 3.00504 34.5034 4.4298C44.0525 6.13847 52.3308 13.799 55.0198 23.2957C55.4986 24.9888 55.7965 26.712 56.0008 28.4569V32.5934C55.8798 33.4265 55.7802 34.2637 55.6348 35.0916C53.931 44.7904 46.4517 53.2426 37.168 55.9874C35.4916 56.4827 33.7846 56.7905 32.0554 56.9998ZM30.2184 6.16437C28.4098 6.22447 26.7446 6.35089 25.1058 6.73117C19.8875 7.93937 15.516 10.6117 12.0372 14.7378C7.99509 19.5312 5.95982 25.0841 6.19263 31.4494C6.34919 35.7123 7.4146 39.7079 9.53425 43.3936C9.88905 44.0101 9.93276 44.5862 9.70707 45.2598C8.77789 48.0295 7.88225 50.8106 6.97847 53.5897C6.92764 53.7451 6.78633 53.9275 6.92256 54.0715C7.06183 54.2186 7.24178 54.0715 7.39325 54.0207C10.071 53.1151 12.7559 52.2292 15.4184 51.279C16.2114 50.9961 16.859 51.0666 17.5696 51.5059C19.6099 52.7669 21.8282 53.5918 24.1461 54.144C27.7327 54.9989 31.3356 55.1409 34.9436 54.3171C40.2198 53.113 44.6391 50.4013 48.1118 46.1985C53.0597 40.2104 54.9506 33.3187 53.3789 25.6167C51.2135 15.0051 41.819 6.32602 30.2184 6.16541V6.16437Z" fill="#786CB1"/>
</svg>
