<svg width="60" height="60" viewBox="0 0 60 60" fill="none" xmlns="http://www.w3.org/2000/svg">
<path d="M30.2987 9C31.4309 9.27582 32.4074 9.80715 33.1121 10.764C33.8275 11.7347 34.1718 12.8177 34.0012 14.03C33.9575 14.3379 34.1046 14.4426 34.3541 14.5517C38.6611 16.444 41.3221 19.7142 42.4223 24.2824C42.6793 25.3515 42.7347 26.4451 42.7411 27.5377C42.7571 29.8982 42.7454 32.2587 42.7464 34.6193C42.7464 35.2778 42.8285 35.3623 43.4661 35.3933C45.9255 35.5098 47.9959 37.5656 48.0012 40.0084C48.0066 42.819 45.7816 44.6974 43.4874 44.7145C40.9607 44.7327 38.4341 44.7263 35.9074 44.7124C35.5609 44.7102 35.4223 44.8171 35.3541 45.1571C34.7837 48.0361 32.369 50.0085 29.4479 50.0021C26.6217 49.9957 24.2017 47.988 23.6516 45.1699C23.5801 44.8054 23.4255 44.7102 23.0684 44.7124C20.6217 44.7284 18.1739 44.7231 15.7272 44.7198C13.1025 44.7134 11.0226 42.726 11.0002 40.0993C10.9799 37.6362 12.8275 35.8401 14.9692 35.467C15.2038 35.4264 15.4437 35.4061 15.6814 35.389C16.1068 35.359 16.2475 35.2308 16.2518 34.7903C16.2603 33.7501 16.2475 32.7099 16.2571 31.6697C16.2742 29.8298 16.2113 27.9899 16.304 26.1511C16.4586 23.0946 17.5524 20.422 19.5471 18.1181C20.9597 16.4867 22.6782 15.2829 24.6878 14.5036C24.9191 14.4138 25.0321 14.294 24.997 14.03C24.6835 11.6748 26.3552 9.56233 28.4373 9.08446C28.5268 9.06414 28.6142 9.02886 28.7017 9C29.2336 9 29.7656 9 30.2976 9H30.2987ZM29.4938 42.0183C33.9213 42.0183 38.3498 42.0194 42.7774 42.0151C43.0951 42.0151 43.4159 41.9916 43.7294 41.9424C44.723 41.7852 45.4543 40.6905 45.24 39.7048C45.0407 38.7876 44.2912 38.1761 43.2784 38.1429C41.1185 38.0713 39.9479 36.3447 39.9927 34.7058C40.0567 32.3207 40.0055 29.9324 40.0119 27.5463C40.014 26.8514 39.965 26.1629 39.8648 25.4755C39.0833 20.0948 34.1558 15.8014 28.5545 16.3638C26.0449 16.615 23.8936 17.6007 22.1132 19.3743C20.0513 21.428 19.0343 23.9478 19.0023 26.8503C18.9724 29.5433 18.9991 32.2374 18.9938 34.9304C18.9906 36.3747 18.0716 37.5827 16.6889 37.989C16.3168 38.098 15.933 38.1247 15.5471 38.1504C14.7816 38.2017 14.0652 38.7544 13.8403 39.46C13.5812 40.2704 13.7944 40.9535 14.4127 41.5223C14.9042 41.9745 15.5162 42.014 16.1324 42.014C20.5865 42.0172 25.0407 42.0162 29.4959 42.0162L29.4938 42.0183ZM29.513 47.2856C30.8872 47.2717 32.1409 46.3684 32.5663 45.1058C32.6686 44.8011 32.61 44.7102 32.2816 44.7124C30.4202 44.7241 28.5577 44.7231 26.6953 44.7124C26.3797 44.7102 26.3392 44.8129 26.4298 45.0897C26.8424 46.3587 28.1516 47.2984 29.5119 47.2846L29.513 47.2856ZM29.4916 11.6876C28.6174 11.6951 27.8403 12.3612 27.7027 13.2218C27.6345 13.6462 27.7166 13.7221 28.1366 13.6761C29.0631 13.5756 29.9938 13.5639 30.9191 13.6793C31.272 13.7232 31.3403 13.5853 31.3072 13.2838C31.2113 12.4093 30.3872 11.6812 29.4916 11.6887V11.6876Z" fill="#49B49E"/>
<path d="M18.3418 15.1834C18.3333 15.7425 18.0646 16.0996 17.7384 16.4278C16.9569 17.2167 16.281 18.0891 15.7 19.0352C14.8141 20.4774 14.1808 22.0244 13.7991 23.6761C13.6339 24.3902 13.2352 24.7879 12.6296 24.8745C11.6659 25.0124 10.8951 24.2053 11.103 23.2516C11.7288 20.3855 12.9836 17.825 14.8428 15.5597C15.232 15.085 15.6392 14.6253 16.0955 14.2158C16.522 13.8331 17.023 13.7583 17.5422 14.0074C18.0539 14.2533 18.3119 14.683 18.3418 15.1823V15.1834Z" fill="#49B49E"/>
<path d="M40.6563 15.2521C40.6499 14.7143 40.9815 14.198 41.4815 13.9884C42.0455 13.7511 42.5529 13.8601 42.9847 14.2856C44.587 15.8657 45.8333 17.6949 46.747 19.7507C47.2512 20.8861 47.651 22.0578 47.893 23.2787C48.0348 23.9917 47.5988 24.6824 46.925 24.8513C46.2086 25.0309 45.5007 24.6535 45.2768 23.9458C45.0913 23.3621 44.9612 22.7602 44.7651 22.1807C44.0348 20.0127 42.8824 18.099 41.2896 16.4548C40.8163 15.9662 40.6595 15.6637 40.6553 15.2521H40.6563Z" fill="#49B49E"/>
</svg>
