<svg width="17" height="11" viewBox="0 0 17 11" fill="none" xmlns="http://www.w3.org/2000/svg">
<g clip-path="url(#clip0_338_525)">
<path d="M-0.000230687 1.06789C0.113693 0.690495 0.287873 0.366397 0.611754 0.170768C1.10935 -0.129339 1.64742 -0.0312576 2.08569 0.444222C2.24858 0.622261 2.40628 0.806167 2.56681 0.987936L8.31006 7.49114C8.49036 7.69529 8.49083 7.69529 8.66642 7.49593C10.7255 5.16437 12.7846 2.83246 14.8437 0.500195C15.1304 0.175035 15.4585 -0.0328536 15.8756 0.00765813C16.3464 0.0524343 16.6886 0.319487 16.884 0.80243C17.0723 1.27098 17.0285 1.72941 16.77 2.15478C16.709 2.25139 16.6403 2.34149 16.5648 2.42397C14.1853 5.12084 11.8054 7.81576 9.42528 10.5087C8.96111 11.0338 8.40279 11.1425 7.88826 10.8131C7.76493 10.7292 7.65231 10.6266 7.55355 10.5082C5.17402 7.81416 2.79403 5.11995 0.413561 2.42557C0.225319 2.21342 0.0834619 1.9544 -0.000701904 1.66917L-0.000230687 1.06789Z" fill="#272765"/>
</g>
<defs>
<clipPath id="clip0_338_525">
<rect width="17" height="11" fill="white"/>
</clipPath>
</defs>
</svg>
