<svg width="22" height="22" viewBox="0 0 22 22" fill="none" xmlns="http://www.w3.org/2000/svg">
<g clip-path="url(#clip0_539_154)">
<path d="M22 7.19098V21.1837C21.863 21.5902 21.5923 21.8632 21.1846 21.9991H0.837826C0.243154 21.7841 -0.00171137 21.362 8.99752e-06 20.7295C0.0103312 16.317 0.0074639 11.9045 0.000582452 7.49146C0.000582452 7.23227 0.088321 7.07114 0.298779 6.92491C1.22147 6.28555 2.13097 5.62668 3.05251 4.98559C3.22626 4.8646 3.29106 4.72985 3.28762 4.52227C3.27673 3.92877 3.28418 3.33528 3.28476 2.74178C3.28476 2.43443 3.36045 2.16033 3.62825 1.97282C3.81291 1.84323 4.02451 1.82029 4.24185 1.82029C5.25056 1.82029 6.25869 1.81914 7.2674 1.82144C7.42223 1.82144 7.55871 1.79506 7.68888 1.70044C8.21532 1.31797 8.75035 0.947538 9.27621 0.563917C10.2998 -0.182109 11.6968 -0.189563 12.729 0.551301C13.252 0.926321 13.7784 1.29618 14.2991 1.67521C14.439 1.77728 14.5824 1.82316 14.7556 1.82258C15.7499 1.818 16.7437 1.81972 17.7381 1.82086C18.4406 1.82201 18.7319 2.1093 18.7365 2.80887C18.7405 3.39549 18.7422 3.98153 18.7348 4.56814C18.7325 4.74303 18.7915 4.85887 18.9366 4.96093C19.8799 5.62152 20.8175 6.28956 21.7574 6.95473C21.8515 7.02125 21.9467 7.08433 21.9994 7.19213L22 7.19098ZM11.0298 2.61276C8.81285 2.61276 6.59645 2.61276 4.37948 2.61276C4.07498 2.61276 4.07211 2.61506 4.07211 2.90521C4.07211 5.15762 4.0744 7.41003 4.06924 9.66244C4.06924 9.83906 4.1306 9.95317 4.26307 10.0615C4.94319 10.6189 5.61699 11.1843 6.29367 11.7463C7.39356 12.6603 8.49115 13.5772 9.59447 14.4861C10.4483 15.1891 11.5517 15.1903 12.4147 14.4987C12.5432 14.3961 12.6642 14.2848 12.7909 14.1799C14.447 12.8054 16.1026 11.4303 17.7628 10.0604C17.9044 9.94342 17.9531 9.81612 17.9526 9.63606C17.948 7.39799 17.9497 5.15991 17.9491 2.92184C17.9491 2.61334 17.9486 2.61276 17.6372 2.61276C15.4345 2.61276 13.2325 2.61276 11.0298 2.61276V2.61276ZM1.48354 21.2341H20.4735C20.4391 21.1189 20.3496 21.0776 20.2814 21.0203C17.9331 19.0672 15.5825 17.1164 13.2376 15.1599C13.0845 15.0326 12.9887 15.0423 12.8368 15.1581C11.7249 16.0074 10.305 16.0131 9.19936 15.1667C9.02618 15.0343 8.92525 15.0435 8.76468 15.1776C7.20661 16.4816 5.64223 17.777 4.07956 19.0752C3.22741 19.7834 2.37583 20.4921 1.48354 21.2341V21.2341ZM21.2511 14.501C21.2511 12.4848 21.2511 10.4681 21.2499 8.45194C21.2499 8.38428 21.2872 8.28909 21.2132 8.25468C21.1393 8.22085 21.0922 8.31145 21.04 8.35446C18.647 10.3414 16.2551 12.3289 13.8633 14.3169C13.6574 14.4878 13.6568 14.4947 13.8604 14.6638C16.2471 16.6473 18.6338 18.6302 21.0205 20.6131C21.059 20.6452 21.0968 20.6779 21.137 20.7077C21.2046 20.7594 21.2431 20.737 21.2488 20.6567C21.2534 20.5925 21.2517 20.5283 21.2517 20.4635C21.2517 18.476 21.2517 16.4879 21.2517 14.5004L21.2511 14.501ZM0.771305 14.4654C0.771305 16.4678 0.771305 18.4697 0.771305 20.4721C0.771305 20.5294 0.769585 20.5868 0.773025 20.6435C0.777613 20.729 0.80858 20.7702 0.892304 20.7049C0.931872 20.6739 0.96972 20.6418 1.00814 20.6097C3.39486 18.6262 5.78215 16.6427 8.16887 14.6593C8.36613 14.4953 8.36556 14.4872 8.1551 14.3123C5.77412 12.3335 3.39314 10.354 1.01044 8.37682C0.949076 8.32579 0.893451 8.21569 0.805139 8.25985C0.733457 8.29597 0.773025 8.40435 0.773025 8.48004C0.771305 10.475 0.771879 12.4699 0.771879 14.4654H0.771305ZM18.7382 7.50637C18.7382 8.00639 18.7382 8.50699 18.7388 9.00702C18.7388 9.06207 18.7176 9.13489 18.772 9.16643C18.834 9.20198 18.8741 9.13088 18.9143 9.09762C19.5531 8.56949 20.189 8.03736 20.8284 7.50981C20.9489 7.4106 20.9523 7.34179 20.8204 7.2489C20.1885 6.80621 19.56 6.3578 18.9297 5.91225C18.885 5.88071 18.8397 5.81935 18.7806 5.85032C18.713 5.88644 18.7393 5.96557 18.7388 6.02636C18.7365 6.5195 18.7376 7.01265 18.7376 7.50579L18.7382 7.50637ZM3.28418 7.51841C3.28418 7.01093 3.28418 6.50402 3.28418 5.99654C3.28418 5.94723 3.29737 5.88529 3.25264 5.85605C3.19186 5.81591 3.14713 5.87555 3.10297 5.90651C2.47274 6.35149 1.84424 6.79876 1.21286 7.24259C1.09703 7.32402 1.05 7.38996 1.18534 7.50121C1.83048 8.0322 2.4716 8.56892 3.11501 9.10221C3.15171 9.1326 3.18956 9.18937 3.24003 9.17044C3.30769 9.14521 3.28246 9.07124 3.28246 9.01849C3.28476 8.51846 3.28361 8.01843 3.28361 7.51841H3.28418ZM8.94131 1.80309H13.0857C11.5362 0.441777 10.4759 0.449805 8.94131 1.80309V1.80309Z" fill="#272765"/>
<path d="M11.4427 12.487C10.7294 12.5036 10.032 12.3923 9.34677 12.2048C6.95088 11.5506 5.81601 9.04183 6.9589 6.83472C7.73823 5.33063 8.96083 4.34376 10.6663 4.06623C12.4509 3.77607 14.0107 4.48253 14.7774 6.04855C15.4145 7.35023 15.2155 8.88643 14.2756 9.94096C13.8214 10.4507 13.2434 10.6658 12.5587 10.5562C12.2702 10.5098 12.0271 10.3779 11.8625 10.1354C11.7696 9.99888 11.7054 10.0224 11.5924 10.1084C11.0734 10.5035 10.4908 10.6847 9.84109 10.5574C9.11681 10.4158 8.603 9.84405 8.51067 9.11121C8.36043 7.91161 9.07552 6.57381 10.1594 6.02676C10.8051 5.70106 11.5511 5.80829 12.1338 6.3152C12.2347 6.40293 12.3018 6.4792 12.3522 6.27104C12.4239 5.97688 12.6091 5.84843 12.8334 5.90348C13.0616 5.95967 13.1677 6.15923 13.1132 6.44938C12.9326 7.41159 12.7485 8.37264 12.5076 9.32223C12.4153 9.68464 12.5048 9.79818 12.8764 9.79474C13.2285 9.7913 13.5078 9.63934 13.7325 9.37442C15.0188 7.86 14.1982 5.35471 12.2639 4.89196C10.2167 4.40225 7.89421 5.81861 7.3867 7.86631C7.00535 9.40538 7.88503 10.9531 9.4087 11.4038C10.5298 11.7358 11.6664 11.8367 12.8156 11.5546C13.5422 11.3762 14.1707 11.0247 14.6656 10.453C14.7762 10.3252 14.8978 10.2122 15.0842 10.2386C15.2281 10.2586 15.3359 10.3406 15.3915 10.4771C15.4586 10.6411 15.4093 10.785 15.3004 10.9141C14.8835 11.4095 14.3783 11.7897 13.7842 12.0466C13.0375 12.3694 12.2548 12.5088 11.4427 12.4864V12.487ZM10.2213 9.80162C10.5172 9.8085 10.7913 9.72879 11.027 9.55447C11.3636 9.30503 11.6716 9.00456 11.8367 8.62495C12.069 8.09052 12.1722 7.54003 11.7232 7.02395C11.3785 6.62714 10.8641 6.50328 10.418 6.78196C9.7436 7.20343 9.37028 7.83018 9.27509 8.60775C9.1862 9.33428 9.57787 9.80391 10.2213 9.80219V9.80162Z" fill="#272765"/>
</g>
<defs>
<clipPath id="clip0_539_154">
<rect width="22" height="22" fill="white"/>
</clipPath>
</defs>
</svg>
