<svg width="22" height="22" viewBox="0 0 22 22" fill="none" xmlns="http://www.w3.org/2000/svg">
<path d="M22 17.7038C21.887 18.1528 21.6014 18.5 21.2367 18.8087C20.7183 19.2472 20.2125 19.6976 19.7021 20.1434C19.0621 20.7018 18.2845 20.9552 17.4123 20.9938C16.1581 21.0496 14.9957 20.7206 13.8659 20.2743C12.1077 19.5798 10.5329 18.6132 9.04536 17.5266C6.78705 15.8774 4.78278 14.003 3.06581 11.8799C2.04561 10.6181 1.14986 9.29066 0.542556 7.81668C0.243205 7.08934 0.0361836 6.34427 0.00349592 5.56062C-0.0412346 4.48342 0.342415 3.5762 1.20434 2.82852C1.63903 2.45208 2.04791 2.05113 2.45794 1.65174C2.78424 1.33473 3.15872 1.09959 3.62781 1H4.40027C5.1022 1.14234 5.50993 1.63245 5.95208 2.08345C6.73715 2.88431 7.51764 3.68882 8.3096 4.48394C9.09984 5.27698 9.13425 6.16126 8.39218 6.99914C8.0871 7.34378 7.78316 7.68842 7.48094 8.03462C7.05944 8.51743 7.04797 8.94706 7.40697 9.46845C8.7701 11.4482 10.5427 13.0525 12.7213 14.2892C13.2414 14.5844 13.7294 14.5776 14.2117 14.2361C14.6235 13.9446 15.0284 13.6448 15.4355 13.3476C16.3215 12.7016 17.309 12.7391 18.1526 13.4336C19.1757 14.2752 20.205 15.1115 21.2419 15.9395C21.6089 16.2325 21.8692 16.5755 22 17.0015V17.7038ZM8.17369 5.76083C8.19262 5.49909 8.08423 5.2629 7.88638 5.06112C6.90174 4.05588 5.91939 3.04907 4.92614 2.05061C4.3825 1.50366 3.65477 1.5021 3.08646 2.03079C2.57148 2.50995 2.05938 2.99172 1.54842 3.47401C1.3391 3.67161 1.15502 3.88591 1.02599 4.13722C0.666998 4.83484 0.680761 5.56062 0.829863 6.29474C1.05524 7.4027 1.56218 8.41211 2.16203 9.38555C3.28431 11.2078 4.70765 12.8247 6.29444 14.3257C8.141 16.0724 10.1487 17.6434 12.4592 18.8692C13.8504 19.6069 15.2939 20.2357 16.9403 20.328C17.7271 20.3718 18.476 20.2415 19.081 19.7472C19.6763 19.2607 20.244 18.7456 20.8187 18.2383C21.4667 17.6658 21.4627 17.0312 20.7974 16.4848C19.7359 15.6131 18.6653 14.7507 17.5981 13.8846C17.0722 13.4581 16.4787 13.4467 15.9264 13.8487C15.4739 14.1777 15.0306 14.5181 14.5627 14.8278C13.8883 15.2736 13.1588 15.3112 12.45 14.9175C11.3679 14.3164 10.358 13.6213 9.43934 12.8226C8.4048 11.9226 7.54632 10.8929 6.76927 9.80423C6.25716 9.08679 6.28641 8.34433 6.86504 7.66913C7.20338 7.27443 7.54976 6.88495 7.89556 6.49495C8.08251 6.28431 8.18803 6.0502 8.17369 5.7624V5.76083Z" fill="#272765"/>
</svg>
