<svg width="32" height="32" viewBox="0 0 32 32" fill="none" xmlns="http://www.w3.org/2000/svg">
<path d="M15.9825 31.9999C11.5872 31.9999 7.19185 32.0018 2.79652 31.999C1.41665 31.9981 0.326558 31.108 0.045985 29.7619C0.00918861 29.5844 0.00182933 29.3978 0.00182933 29.2157C-1.04876e-05 24.8334 -1.04875e-05 20.4512 0.000909423 16.0698C0.000909423 15.0501 0.703721 14.331 1.68435 14.3329C2.66037 14.3347 3.35214 15.0574 3.35214 16.0863C3.35398 20.1128 3.35214 24.1383 3.35306 28.1647C3.35306 28.4866 3.51742 28.6475 3.84613 28.6475C11.9478 28.6475 20.0504 28.6475 28.152 28.6475C28.4801 28.6475 28.6445 28.4866 28.6451 28.1647C28.6451 24.1153 28.6423 20.0668 28.6469 16.0174C28.6488 14.7678 29.8732 13.9669 31.0129 14.4754C31.6605 14.7641 31.9936 15.2892 31.9954 16.0008C32.0009 18.203 31.9981 20.4052 31.9981 22.6083C31.9981 24.7875 32 26.9676 31.9981 29.1467C31.9954 30.8257 30.8188 31.999 29.1336 31.9999C24.7502 32.0018 20.3659 31.9999 15.9825 31.9999Z" fill="#E9F0F9"/>
<path d="M17.7736 5.73958C17.6411 5.98509 17.6779 6.12485 17.6779 6.25634C17.6752 12.0473 17.6761 17.8382 17.6752 23.63C17.6752 24.4282 17.298 25.0111 16.6182 25.2815C15.4849 25.7311 14.3239 24.9164 14.3239 23.6613C14.3212 17.8704 14.323 12.0794 14.3221 6.2876C14.3221 6.15059 14.3221 6.01359 14.3221 5.8536C14.162 5.87015 14.0986 5.98693 14.0176 6.06784C13.0094 7.071 12.0122 8.08612 10.9948 9.07916C10.0859 9.96647 8.66924 9.70074 8.20653 8.56609C7.91399 7.84705 8.09154 7.21352 8.62509 6.67654C9.69126 5.60166 10.7648 4.53414 11.8356 3.46385C12.7849 2.51494 13.7324 1.56511 14.6836 0.618039C15.5115 -0.205821 16.4912 -0.205821 17.3192 0.620798C19.3328 2.62988 21.3438 4.64172 23.3547 6.65355C23.857 7.15559 24.0667 7.74774 23.8386 8.44196C23.6215 9.10123 23.1459 9.4865 22.4661 9.59591C21.8764 9.69062 21.387 9.46627 20.974 9.05526C19.9832 8.06681 18.9925 7.07836 18.0063 6.08531C17.9208 5.99888 17.8665 5.88119 17.7736 5.7405V5.73958Z" fill="#E9F0F9"/>
</svg>
