<svg width="22" height="22" viewBox="0 0 22 22" fill="none" xmlns="http://www.w3.org/2000/svg">
<path d="M10.0855 1C10.5216 1.08358 10.96 1.15323 11.3761 1.31853C13.3409 2.10046 14.5711 3.5176 14.9101 5.60709C15.2597 7.76112 14.4986 9.52233 12.8008 10.8842C12.7599 10.9172 12.6824 10.9348 12.694 10.9975C12.7051 11.056 12.7827 11.0542 12.8324 11.0737C15.5347 12.1398 17.4094 14.0287 18.4375 16.7441C18.8049 17.7145 18.9841 18.7281 18.9999 19.7696C19.0027 19.9512 18.9442 20.0041 18.7677 19.9986C18.4162 19.9869 18.0632 19.9851 17.7117 19.9995C17.5301 20.0069 17.4716 19.9345 17.4698 19.7692C17.4632 19.2301 17.3936 18.6994 17.2705 18.1742C16.8939 16.5616 16.0817 15.2043 14.8645 14.0876C13.7886 13.1005 12.537 12.442 11.1021 12.1648C8.81638 11.7233 6.7062 12.1514 4.81429 13.5262C3.24745 14.6653 2.21791 16.1799 1.74098 18.0618C1.60585 18.5958 1.52737 19.1381 1.51761 19.6907C1.51204 19.9958 1.50275 19.9972 1.20369 19.9953C0.80246 19.9925 0.40123 19.9869 0 19.9828C0 19.7232 0 19.4636 0 19.2041C0.00835896 19.1618 0.0208974 19.1205 0.0246125 19.0778C0.0947348 18.2615 0.267487 17.4652 0.561908 16.7023C1.60306 14.0013 3.47593 12.1216 6.17448 11.0667C6.21813 11.0495 6.27386 11.0481 6.29754 10.9952C6.29244 10.9831 6.29011 10.9687 6.28175 10.9613C6.25389 10.9371 6.22371 10.9153 6.19491 10.8921C4.48922 9.53022 3.72345 7.76623 4.07453 5.60477C4.4126 3.52364 5.63765 2.10975 7.59086 1.3241C8.01159 1.15509 8.45694 1.08358 8.89857 1H10.0851H10.0855ZM13.4802 6.48607C13.4407 4.28468 11.748 2.5165 9.50042 2.50861C7.29319 2.50072 5.51412 4.23685 5.5132 6.48792C5.5118 8.68885 7.23653 10.4575 9.48416 10.4654C11.6914 10.4733 13.4393 8.73714 13.4802 6.48607V6.48607Z" fill="#272765"/>
</svg>
