<svg width="100" height="100" viewBox="0 0 100 100" fill="none" xmlns="http://www.w3.org/2000/svg">
<circle cx="50" cy="50" r="50" fill="#6989B3"/>
<g clip-path="url(#clip0_549_151)">
<path d="M73.6174 51.9042C73.6174 59.3194 73.6199 66.7333 73.6174 74.1485C73.6161 78.5122 70.595 81.5472 66.2352 81.5498C55.2778 81.5561 44.3218 81.5561 33.3644 81.5498C29.0438 81.546 26.0037 78.4995 26.0025 74.1891C25.9999 59.2725 25.9974 44.3546 26.0037 29.4381C26.005 25.9048 28.3301 23.1119 31.7949 22.4222C32.3401 22.3132 32.8903 22.3398 33.4392 22.3385C36.4311 22.3322 39.4244 22.3259 42.4163 22.3461C42.9145 22.35 43.1998 22.2067 43.4584 21.7566C46.3426 16.7388 53.2963 16.7515 56.1741 21.7795C56.4188 22.2067 56.6901 22.3474 57.1617 22.3449C60.3958 22.3309 63.6299 22.317 66.864 22.35C70.4961 22.3867 73.592 25.4864 73.6047 29.1325C73.6301 36.7227 73.6123 44.3141 73.6123 51.9042H73.6149H73.6174ZM70.2844 51.8966C70.2844 47.3859 70.2844 42.8752 70.2844 38.3644C70.2844 35.3497 70.3022 32.3349 70.273 29.3214C70.254 27.3969 69.075 26.0214 67.1847 25.6981C65.8345 25.4674 64.4628 25.6309 63.1012 25.6069C61.7853 25.584 61.784 25.6018 61.6598 26.8708C61.6382 27.0901 61.6154 27.3082 61.6053 27.5275C61.4519 30.7705 58.536 33.7269 55.2943 33.9171C51.9525 34.1136 48.6081 34.002 45.265 33.9894C42.5114 33.9792 40.3498 32.8078 38.902 30.4168C38.1439 29.1668 37.955 27.7785 37.9499 26.3586C37.9474 25.7983 37.7889 25.5726 37.1969 25.5891C35.8771 25.6259 34.5561 25.5891 33.2364 25.6031C30.8986 25.6259 29.3468 27.1624 29.3456 29.504C29.338 44.4447 29.338 59.3853 29.3456 74.3247C29.3456 76.7031 30.8656 78.194 33.2364 78.199C35.9874 78.2041 38.7372 78.2003 41.4883 78.2003C49.8061 78.2003 58.1227 78.1978 66.4405 78.2041C67.5308 78.2041 68.4639 77.8644 69.2398 77.0923C70.0626 76.2733 70.2946 75.2667 70.2933 74.1396C70.2794 66.7245 70.2857 59.3093 70.287 51.8941L70.2844 51.8966ZM49.815 30.6653C51.2438 30.6653 52.6726 30.6653 54.1013 30.6653C56.9437 30.6627 58.5525 28.9284 58.3547 26.1051C58.3293 25.7412 58.2026 25.5942 57.8387 25.5992C57.0692 25.6119 56.3009 25.6043 55.5314 25.6005C54.4132 25.5942 53.9581 25.2557 53.6107 24.1781C53.0288 22.374 51.6292 21.3433 49.7732 21.3522C47.9514 21.3611 46.567 22.4248 45.9977 24.2554C45.7074 25.1872 45.1813 25.5891 44.2127 25.6005C43.4216 25.6094 42.6305 25.6031 41.8395 25.6043C41.5682 25.6043 41.3121 25.5967 41.2728 25.9821C40.9761 28.9588 42.9031 30.6944 45.199 30.6703C46.7369 30.6539 48.2759 30.6678 49.815 30.6678V30.6653Z" fill="white"/>
<path d="M39.2153 53.5648C39.2279 52.221 40.5971 51.4337 41.6785 52.0701C41.9587 52.2349 42.2009 52.4707 42.4367 52.6989C43.8743 54.0909 45.3246 55.4715 46.7281 56.8978C47.1718 57.3478 47.419 57.2781 47.831 56.8699C50.8952 53.8386 53.981 50.8277 57.0642 47.8155C57.3304 47.5556 57.6068 47.2919 57.9174 47.0941C58.5868 46.6681 59.4438 46.8038 59.9598 47.373C60.5125 47.9841 60.5518 48.8373 60.0435 49.4902C59.8951 49.6803 59.7176 49.8477 59.5452 50.0163C55.9967 53.4963 52.4482 56.9764 48.8947 60.4526C47.6294 61.6912 46.8992 61.6861 45.653 60.4665C43.7349 58.5902 41.8167 56.7139 39.8922 54.844C39.498 54.4611 39.2191 54.0351 39.214 53.5623L39.2153 53.5648Z" fill="white"/>
</g>
<defs>
<clipPath id="clip0_549_151">
<rect width="47.62" height="63.5546" fill="white" transform="translate(26 18)"/>
</clipPath>
</defs>
</svg>
