<svg width="100" height="100" viewBox="0 0 100 100" fill="none" xmlns="http://www.w3.org/2000/svg">
<circle cx="50" cy="50" r="50" fill="#6989B3"/>
<g clip-path="url(#clip0_549_149)">
<path d="M52.9719 80.0998C51.2857 79.725 49.7041 79.1246 48.3539 78.0029C47.6759 77.4399 47.0441 76.8305 46.5871 76.0808C46.2974 75.6058 45.9449 75.4789 45.4147 75.4804C39.3734 75.4968 33.3306 75.4445 27.2908 75.5087C23.8915 75.5431 21.012 72.913 21.0075 69.2703C20.9971 61.7579 20.9986 54.2455 21.0075 46.7331C21.009 45.1589 21.484 43.7385 22.4533 42.4705C24.2515 40.1182 26.0093 37.7346 27.7956 35.3733C28.0495 35.0388 28.1779 34.7012 28.1645 34.2801C28.1406 33.5258 28.1525 32.7701 28.16 32.0144C28.163 31.7142 28.0958 31.4931 27.7971 31.3363C26.5246 30.6672 25.8421 29.568 25.8062 28.1626C25.754 26.1598 25.6569 24.148 25.8675 22.1482C26.0541 20.3709 27.5522 19.0148 29.3474 19.0103C36.5611 18.9954 43.7763 18.9954 50.99 19.0103C52.9107 19.0133 54.4848 20.5456 54.5356 22.4872C54.5864 24.4139 54.5864 26.3435 54.5341 28.2701C54.4983 29.5695 53.871 30.6 52.7195 31.2288C52.2804 31.4678 52.2057 31.7545 52.1505 32.2085C51.9324 34.0336 52.4701 35.5182 53.6843 36.9266C55.1987 38.6845 56.4966 40.6275 57.9005 42.481C58.8594 43.746 59.3373 45.1529 59.3283 46.7465C59.3104 49.8067 59.3224 52.8669 59.3239 55.9287C59.3239 56.6067 59.3463 56.6157 59.9183 56.2901C61.4715 55.4044 62.9949 54.4605 64.584 53.6451C70.5925 50.5624 77.9018 54.6577 78.4051 61.4009C78.7038 65.4081 77.0385 68.4996 73.6228 70.5338C68.7749 73.4208 63.8522 76.1823 58.9654 79.0021C57.9872 79.5667 56.9073 79.8265 55.832 80.1013H52.9704L52.9719 80.0998ZM40.1814 48.4222C34.8973 48.4222 29.6132 48.4222 24.3291 48.4222C23.8114 48.4222 23.5515 48.6871 23.5495 49.2168C23.5495 54.5203 23.557 59.8238 23.5391 65.1288C23.5376 65.6888 23.6794 65.88 24.2679 65.8785C31.3203 65.8591 38.3712 65.8621 45.4236 65.8755C45.8822 65.8755 46.148 65.7187 46.3825 65.3408C47.0815 64.2103 47.985 63.2559 49.1276 62.5734C51.4455 61.1889 53.7799 59.8298 56.1232 58.4886C56.5907 58.2212 56.7953 57.924 56.7893 57.3669C56.761 54.6457 56.7774 51.9245 56.7759 49.2033C56.7759 48.4267 56.7729 48.4252 55.9724 48.4252C50.7077 48.4252 45.4446 48.4252 40.1799 48.4252L40.1814 48.4222ZM40.1425 45.9534C45.3878 45.9534 50.633 45.9534 55.8783 45.9534C56.0366 45.9534 56.1964 45.9475 56.3547 45.9534C56.6908 45.9624 56.761 45.8101 56.6773 45.5009C56.5399 44.9916 56.2965 44.5435 55.9843 44.1269C54.1981 41.7417 52.4014 39.364 50.6271 36.9684C50.3582 36.6055 50.064 36.486 49.6249 36.489C47.062 36.5069 44.4992 36.4979 41.9363 36.4979C40.9625 36.4979 39.9887 36.5144 39.0164 36.489C38.1233 36.4651 37.5752 35.7288 37.8037 34.9073C37.959 34.3503 38.4489 34.0321 39.2001 34.0321C42.1215 34.0277 45.0413 34.0306 47.9626 34.0291C49.6772 34.0291 49.6667 34.0291 49.6309 32.3191C49.6219 31.8949 49.501 31.7037 49.0484 31.7217C48.3734 31.75 47.6983 31.7291 47.0217 31.7291C41.8153 31.7291 36.6104 31.7366 31.4054 31.7172C30.8543 31.7157 30.6661 31.8755 30.6975 32.4251C30.7378 33.1375 30.6706 33.8574 30.7169 34.5698C30.7692 35.3554 30.5019 35.9812 30.0329 36.5965C28.1884 39.013 26.3767 41.4534 24.5517 43.8834C24.241 44.2971 23.9438 44.7168 23.7735 45.2141C23.5376 45.9071 23.5644 45.9519 24.2888 45.9519C29.5744 45.9519 34.8585 45.9519 40.144 45.9519L40.1425 45.9534ZM40.159 29.2573C43.5941 29.2573 47.0292 29.2618 50.4643 29.2544C51.6068 29.2529 52.0011 28.8496 52.0056 27.716C52.0101 26.1672 52.0086 24.6185 52.0056 23.0697C52.0026 21.8599 51.6218 21.4761 50.403 21.4731C48.4167 21.4671 46.4318 21.4716 44.4454 21.4716C39.6004 21.4716 34.7554 21.4701 29.9104 21.4731C28.7365 21.4731 28.3228 21.8883 28.3198 23.0428C28.3153 24.5513 28.3183 26.0612 28.3198 27.5697C28.3198 28.884 28.6977 29.2558 30.0314 29.2573C33.4068 29.2588 36.7821 29.2573 40.159 29.2573ZM54.34 77.6609C55.6677 77.5892 56.7864 77.3562 57.8094 76.7678C59.8585 75.5894 61.9032 74.4035 63.9598 73.2401C64.3197 73.037 64.3077 72.8563 64.1225 72.5381C61.9286 68.7595 59.742 64.9764 57.566 61.1874C57.3614 60.8304 57.1672 60.7707 56.8088 60.9813C54.7716 62.1791 52.7001 63.3186 50.6853 64.5538C47.9044 66.2594 46.714 69.5018 47.6415 72.6322C48.5212 75.6058 51.3484 77.6744 54.34 77.6594V77.6609ZM75.9512 62.542C75.9497 56.7725 70.0996 53.4031 65.3472 56.0661C63.546 57.0757 61.7732 58.1346 59.975 59.1472C59.5553 59.3832 59.5329 59.6042 59.76 59.9955C61.9539 63.7712 64.1375 67.5542 66.315 71.3388C66.4733 71.6151 66.6018 71.7077 66.9124 71.5255C68.8466 70.389 70.824 69.3241 72.7207 68.1293C74.8864 66.7657 75.8736 64.6927 75.9527 62.542H75.9512ZM35.8397 73.019C38.6998 73.019 41.5584 73.0101 44.4185 73.0265C44.9368 73.0295 45.1384 72.925 45.001 72.347C44.7471 71.2746 44.7575 70.1828 44.9353 69.0941C45.0592 68.3339 45.0547 68.3324 44.2497 68.3324C37.6379 68.3324 31.0246 68.3324 24.4128 68.3324C24.2545 68.3324 24.0946 68.3369 23.9363 68.3354C23.6989 68.3354 23.5689 68.4384 23.5555 68.6878C23.5017 69.7423 23.6182 70.7444 24.2963 71.6196C25.1147 72.6755 26.2393 73.0101 27.5014 73.0146C30.2808 73.0235 33.0618 73.0176 35.8412 73.0176L35.8397 73.019Z" fill="white"/>
<path d="M43.4447 58.7964C42.9488 58.7964 42.4515 58.8128 41.9556 58.7919C41.5658 58.7755 41.4269 58.9338 41.4344 59.3161C41.4493 60.2287 41.4359 61.1427 41.4389 62.0568C41.4389 62.4018 41.3911 62.7318 41.1909 63.0216C40.8893 63.4577 40.4621 63.6354 39.9483 63.5339C39.439 63.4323 39.0851 63.1231 38.9835 62.5989C38.7894 61.5953 38.8954 60.5782 38.9059 59.5686C38.9118 58.9831 38.764 58.7456 38.1397 58.783C37.2884 58.8337 36.4326 58.8024 35.5783 58.7919C34.721 58.7815 34.1893 58.311 34.1789 57.5777C34.1684 56.822 34.7106 56.3366 35.6007 56.3261C36.4938 56.3157 37.3884 56.3022 38.2816 56.3306C38.758 56.3455 38.9118 56.1633 38.8969 55.7048C38.8715 54.9506 38.8894 54.1964 38.8924 53.4406C38.8924 53.242 38.8909 53.0419 38.9163 52.8462C39.0253 52.0009 39.5391 51.52 40.268 51.5648C40.9609 51.6066 41.4165 52.1383 41.4329 52.9672C41.4508 53.8409 41.4687 54.7161 41.4269 55.5883C41.4 56.1559 41.5748 56.3635 42.1602 56.3336C43.0519 56.2888 43.9465 56.3127 44.8411 56.3276C45.6342 56.3396 46.1793 56.8429 46.1913 57.5403C46.2032 58.2557 45.6402 58.7725 44.8157 58.7889C44.3587 58.7979 43.9017 58.7904 43.4462 58.7904L43.4447 58.7964Z" fill="white"/>
<path d="M35.4573 35.2391C35.4723 35.8918 34.9271 36.4653 34.2685 36.4877C33.568 36.5116 32.999 35.9769 32.9856 35.2839C32.9736 34.6133 33.4919 34.0652 34.1639 34.0368C34.8525 34.0069 35.4424 34.5566 35.4573 35.2391Z" fill="white"/>
</g>
<defs>
<clipPath id="clip0_549_149">
<rect width="57.4409" height="61.1" fill="white" transform="translate(21 19)"/>
</clipPath>
</defs>
</svg>
