<svg width="100" height="100" viewBox="0 0 100 100" fill="none" xmlns="http://www.w3.org/2000/svg">
<circle cx="50" cy="50" r="50" fill="#6989B3"/>
<g clip-path="url(#clip0_549_150)">
<path d="M66.8415 26.9919C66.8415 25.6139 66.8253 24.2358 66.8496 22.8591C66.859 22.3468 66.7147 22.1081 66.1592 22.1256C65.1695 22.1566 64.1784 22.1553 63.1887 22.1256C62.6413 22.1094 62.4835 22.3346 62.4916 22.8537C62.5145 24.3383 62.4471 25.8269 62.5145 27.3088C62.5806 28.7839 61.3523 29.6805 59.927 28.9376C56.9498 27.3883 53.8971 25.9847 50.8875 24.4961C50.3967 24.2534 49.999 24.2399 49.4987 24.4866C41.2723 28.5344 33.0351 32.5634 24.8006 36.5936C24.5121 36.7352 24.2168 36.8782 23.9093 36.9671C23.1974 37.1721 22.4747 36.8431 22.1672 36.2067C21.845 35.5379 21.9947 34.8044 22.5771 34.3486C22.8118 34.1652 23.0801 34.0169 23.3498 33.8848C31.564 29.8585 39.7905 25.8606 47.9845 21.7939C49.492 21.0456 50.8215 20.9795 52.3182 21.7845C54.4216 22.9144 56.6006 23.9014 58.7499 24.9437C59.416 25.2673 59.4551 25.2377 59.4564 24.4934C59.4591 23.5252 59.451 22.5558 59.4605 21.5876C59.474 20.0775 60.3625 19.0877 61.8781 19.0433C63.7497 18.9866 65.6252 18.988 67.4954 19.0433C68.9126 19.0864 69.758 19.917 69.9009 21.3355C70.0627 22.9441 69.9427 24.5621 69.9629 26.1748C69.9778 27.3802 69.9845 28.587 69.9576 29.7911C69.9468 30.2684 70.1221 30.53 70.5495 30.7363C72.8943 31.869 75.2297 33.0218 77.5624 34.1787C78.486 34.6372 78.8447 35.2318 78.7004 35.9842C78.5022 37.0076 77.503 37.5267 76.5268 37.0696C75.1434 36.4211 73.7761 35.7374 72.4049 35.0632C70.9567 34.35 69.5247 33.603 68.0604 32.9234C67.1799 32.5148 66.8199 31.8717 66.8361 30.9305C66.859 29.6172 66.8415 28.3039 66.8415 26.9905V26.9919Z" fill="white"/>
<path d="M50.4587 81.2084C47.9197 81.2084 45.3794 81.2125 42.8404 81.2084C40.9217 81.2044 39.8457 80.1257 39.8403 78.2043C39.8349 76.3961 39.8308 74.5893 39.8403 72.7811C39.8645 68.5594 43.0278 65.4001 47.2469 65.3839C49.4636 65.3759 51.6803 65.3732 53.897 65.3839C57.9192 65.4055 61.0501 68.5297 61.0852 72.5573C61.1014 74.472 61.096 76.388 61.0865 78.3027C61.0784 80.1594 60.0159 81.203 58.1403 81.2071C55.5798 81.2125 53.0179 81.2071 50.4573 81.2071L50.4587 81.2084ZM50.603 78.3C51.8947 78.3 53.1864 78.2865 54.4782 78.3067C54.9541 78.3148 55.1281 78.1355 55.1227 77.6649C55.1065 76.2653 55.1119 74.867 55.1227 73.4674C55.1254 73.1249 55.147 72.7771 55.2117 72.4413C55.3223 71.8723 55.8185 71.4745 56.3484 71.4786C56.881 71.4826 57.365 71.8831 57.4729 72.4562C57.5363 72.7919 57.5565 73.1398 57.5592 73.4823C57.5686 74.9034 57.5619 76.3233 57.5673 77.7445C57.5673 77.9764 57.5457 78.273 57.8882 78.269C58.2401 78.2649 58.1848 77.9562 58.1848 77.7323C58.1848 75.9026 58.2145 74.0715 58.1646 72.2431C58.1093 70.2165 56.316 68.3612 54.3191 68.314C51.8232 68.256 49.3247 68.2573 46.8289 68.3113C44.8481 68.3544 43.1505 69.8848 42.8673 71.8413C42.5882 73.7654 42.8094 75.7098 42.7473 77.6433C42.7352 78.0263 42.7703 78.304 43.2813 78.3108C43.8301 78.3175 43.853 78.0128 43.8503 77.6069C43.8422 76.121 43.8476 74.6365 43.8476 73.1506C43.8476 72.8701 43.8584 72.5937 43.9474 72.3213C44.1227 71.786 44.5016 71.4853 45.0463 71.4853C45.6234 71.4853 46.0185 71.8143 46.1736 72.3739C46.2356 72.5977 46.2329 72.8418 46.2342 73.0777C46.2396 74.5852 46.2545 76.0914 46.2275 77.5988C46.2181 78.1247 46.3772 78.3243 46.9219 78.3094C48.1476 78.2771 49.3759 78.2986 50.603 78.2986V78.3Z" fill="white"/>
<path d="M39.3859 48.323C41.0214 48.323 42.6584 48.3203 44.2939 48.3243C46.0455 48.3297 47.6338 48.8799 49.0995 49.8089C49.9045 50.3186 50.1256 51.1182 49.6955 51.8584C49.291 52.5555 48.4766 52.7753 47.6716 52.2764C46.2963 51.4256 44.8171 51.1802 43.2287 51.2058C40.3014 51.253 37.3727 51.1991 34.4454 51.2287C31.2997 51.2611 28.6528 53.5088 28.0757 56.5993C27.9975 57.0186 27.9921 57.4555 27.9908 57.8856C27.9827 60.3828 28.0016 62.88 27.9746 65.3772C27.9679 65.9947 28.1688 66.1997 28.789 66.1943C30.5338 66.1795 30.5338 66.2024 30.5338 64.4616C30.5338 62.4162 30.5338 60.372 30.5338 58.3266C30.5338 58.0474 30.5338 57.7697 30.6201 57.496C30.7913 56.9512 31.1864 56.6654 31.7204 56.6559C32.2907 56.6465 32.7047 56.9593 32.8543 57.5297C32.9191 57.7751 32.9218 58.0407 32.9231 58.2969C32.9285 60.6215 32.9258 62.9461 32.9258 65.272C32.9258 65.8779 33.2386 66.1813 33.8643 66.1822C35.1776 66.1822 36.4909 66.1822 37.8042 66.1822C37.9768 66.1822 38.1494 66.1795 38.3206 66.1849C39.4708 66.2253 40.1571 66.7808 40.1544 67.6694C40.1517 68.5513 39.4587 69.0771 38.291 69.0785C34.9753 69.0798 31.661 69.0825 28.3454 69.0785C26.308 69.0758 25.0958 67.869 25.0904 65.8248C25.0823 63.0486 25.0689 60.2709 25.0999 57.4946C25.1538 52.5488 29.3378 48.381 34.2823 48.327C35.9826 48.3095 37.6829 48.3243 39.3845 48.3243L39.3859 48.323Z" fill="white"/>
<path d="M63.7038 56.3296C65.1884 56.3296 66.6743 56.3175 68.1588 56.3323C72.6543 56.3741 76.4257 60.1293 76.4661 64.6208C76.4891 67.1395 76.4756 69.6569 76.4729 72.1757C76.4702 74.1146 75.3875 75.3174 73.4296 75.3538C70.2448 75.4131 67.0586 75.3781 63.8737 75.3619C63.1712 75.3578 62.5537 75.1273 62.2665 74.3964C61.9037 73.4688 62.5739 72.502 63.631 72.4872C65.396 72.4629 67.161 72.4561 68.9261 72.4899C69.522 72.502 69.7081 72.3159 69.6987 71.7213C69.6677 69.7203 69.6865 67.718 69.6879 65.7156C69.6879 65.5215 69.6811 65.3273 69.6973 65.1345C69.7647 64.3538 70.234 63.8481 70.8825 63.8468C71.5581 63.8441 72.0637 64.3861 72.0691 65.1884C72.0839 67.3836 72.0947 69.5801 72.0637 71.7752C72.0556 72.3685 72.2768 72.4966 72.8188 72.4939C73.3514 72.4899 73.5955 72.3752 73.5874 71.7779C73.5564 69.4749 73.6036 67.1719 73.5604 64.8689C73.5092 62.1033 71.8547 60.0565 69.1809 59.3459C68.6308 59.2003 68.0698 59.2327 67.5116 59.23C64.6706 59.2219 61.8296 59.2273 58.9886 59.2273C58.313 59.2273 57.6874 59.0992 57.3301 58.4466C56.7948 57.469 57.4851 56.3593 58.669 56.3404C60.3477 56.3121 62.0264 56.3337 63.7052 56.3337V56.331L63.7038 56.3296Z" fill="white"/>
<path d="M32.2072 39.7973C32.2004 35.825 35.423 32.5767 39.3711 32.574C43.3029 32.5727 46.5943 35.8546 46.5902 39.773C46.5862 43.6914 43.2894 46.9719 39.363 46.9665C35.4446 46.9612 32.2126 43.7237 32.2072 39.7973ZM35.1129 39.7959C35.121 42.1542 37.0411 44.0716 39.3818 44.0581C41.728 44.0446 43.6413 42.1245 43.6494 39.7757C43.6562 37.4093 41.6983 35.4636 39.3306 35.4838C36.9777 35.504 35.1048 37.4201 35.1129 39.7946V39.7959Z" fill="white"/>
<path d="M70.2757 48.4767C70.2771 52.1065 67.2931 55.1094 63.6889 55.1067C60.1157 55.104 57.0846 52.0796 57.0469 48.4781C57.0091 44.9319 60.0874 41.8657 63.6862 41.8657C67.3255 41.8657 70.273 44.8226 70.2744 48.4767H70.2757ZM67.3727 48.5293C67.3916 46.4474 65.8126 44.8038 63.7685 44.7768C61.661 44.7498 59.9539 46.4151 59.9634 48.4889C59.9715 50.5114 61.6381 52.178 63.6674 52.1969C65.6966 52.2144 67.3551 50.5748 67.3727 48.5293Z" fill="white"/>
<path d="M50.626 64.4563C47.5665 64.4846 45.0127 61.955 45.014 58.8969C45.014 55.8887 47.4991 53.3834 50.5073 53.3578C53.6463 53.3309 56.1691 55.8011 56.1759 58.9064C56.1826 61.9308 53.6854 64.4279 50.626 64.4563ZM50.5923 61.5438C52.1159 61.5451 53.2647 60.4125 53.2688 58.9077C53.2715 57.4205 52.1051 56.2595 50.603 56.2582C49.1117 56.2555 47.9319 57.4164 47.9198 58.8983C47.909 60.3653 49.0983 61.5424 50.5923 61.5451V61.5438Z" fill="white"/>
</g>
<defs>
<clipPath id="clip0_549_150">
<rect width="56.73" height="62.2098" fill="white" transform="translate(22 19)"/>
</clipPath>
</defs>
</svg>
