<svg width="100" height="100" viewBox="0 0 100 100" fill="none" xmlns="http://www.w3.org/2000/svg">
<circle cx="50" cy="50" r="50" fill="#6989B3"/>
<g clip-path="url(#clip0_549_147)">
<path d="M51.1502 20C52.1307 20.3216 52.8999 20.9474 53.6077 21.6741C54.2524 22.3361 54.9271 22.9683 55.5876 23.6146C56.1582 24.1742 56.8045 24.3822 57.6258 24.2609C58.9641 24.0622 60.2977 23.7785 61.6549 23.7391C63.7152 23.6776 65.2916 24.9576 65.6793 26.9769C65.9016 28.1339 66.1097 29.2941 66.2831 30.4591C66.4108 31.326 66.8143 31.9455 67.6119 32.3381C68.5987 32.8251 69.5666 33.3516 70.5345 33.875C72.8107 35.1014 73.4886 37.1727 72.3741 39.501C71.8901 40.5114 71.392 41.5155 70.8876 42.5165C70.525 43.2353 70.5187 43.9447 70.8797 44.6651C71.3558 45.614 71.8239 46.5677 72.289 47.5214C73.5295 50.0593 72.8533 52.1039 70.3406 53.428C69.4705 53.8867 68.6145 54.3722 67.7286 54.7963C67.2415 55.0296 67.2967 55.1998 67.634 55.534C71.5638 59.4465 75.4811 63.37 79.403 67.2919C79.6111 67.5 79.8255 67.7034 80.0272 67.9193C80.7681 68.7075 80.5332 69.5698 79.4929 69.8172C77.4483 70.3043 75.4007 70.7835 73.3498 71.2407C71.6174 71.6269 71.6285 71.6143 71.2328 73.3766C70.7851 75.3707 70.3043 77.3553 69.8503 79.3478C69.74 79.8302 69.5966 80.2716 69.0606 80.4182C68.5341 80.5616 68.1637 80.2826 67.8137 79.9327C63.2423 75.355 58.6662 70.782 54.0916 66.2074C53.7165 65.8322 53.3345 65.816 52.9456 66.1586C51.2227 67.6703 49.1183 67.6671 47.419 66.0923C46.9886 65.6935 46.7648 65.7471 46.3817 66.1318C41.8749 70.6622 37.3524 75.1768 32.833 79.6962C32.7085 79.8207 32.5855 79.95 32.4547 80.0698C31.7107 80.7492 30.8673 80.5191 30.6135 79.5496C30.3944 78.7141 30.2147 77.8676 30.0193 77.0259C29.6488 75.418 29.2673 73.8117 28.919 72.1991C28.8275 71.7735 28.6195 71.5859 28.2001 71.4913C25.8041 70.9554 23.4144 70.3879 21.0199 69.8425C20.5974 69.7463 20.2459 69.5682 20 69.2056C20 68.9298 20 68.6555 20 68.3796C20.2223 68.1321 20.4351 67.872 20.6699 67.6372C24.6975 63.6049 28.7251 59.571 32.7652 55.5513C33.1325 55.1872 33.153 55.0169 32.6549 54.7773C31.6996 54.317 30.768 53.8079 29.8364 53.3003C27.6011 52.0849 26.9312 50.012 28.0299 47.7137C28.5217 46.686 29.0325 45.6676 29.5416 44.6462C29.89 43.9463 29.8884 43.2527 29.5416 42.5528C29.0262 41.514 28.4997 40.4815 28.0141 39.4285C26.9375 37.0923 27.6169 35.0967 29.8916 33.8718C30.8421 33.3595 31.7926 32.8409 32.7605 32.3633C33.5518 31.9739 33.9901 31.3796 34.1193 30.5048C34.288 29.3603 34.5087 28.2222 34.7136 27.0825C35.0935 24.9608 36.6635 23.6366 38.8216 23.7549C40.1504 23.8274 41.4746 24.0417 42.7892 24.2624C43.6089 24.3996 44.2552 24.1726 44.8243 23.6161C45.4138 23.0392 46.0129 22.4701 46.5945 21.8837C47.3732 21.0971 48.1677 20.3405 49.2617 20.0032H51.1502V20ZM70.8513 37.6031C70.8844 36.7156 70.4762 36.1386 69.7573 35.754C68.7012 35.1881 67.6466 34.6159 66.5826 34.0626C65.3026 33.3989 64.5586 32.3649 64.3268 30.943C64.1408 29.8001 63.9312 28.6589 63.7326 27.5176C63.5087 26.2297 62.6165 25.5897 61.3302 25.7805C60.1842 25.9507 59.0382 26.1162 57.889 26.2675C56.4356 26.4583 55.1762 26.091 54.1358 25.0033C53.3618 24.1947 52.5279 23.4427 51.7192 22.6656C50.7309 21.7166 49.6857 21.7151 48.7084 22.6561C47.8588 23.4743 46.9996 24.2845 46.1595 25.1121C45.2988 25.9602 44.2836 26.4142 43.0714 26.2896C41.763 26.1556 40.461 25.968 39.1573 25.7931C37.7197 25.5992 36.9268 26.1777 36.6746 27.6201C36.4744 28.7613 36.2789 29.9042 36.0724 31.0439C35.8344 32.3601 35.1597 33.369 33.9601 34.0027C32.9166 34.5528 31.8793 35.114 30.8358 35.6641C29.5668 36.3325 29.2295 37.3272 29.8506 38.6072C30.3739 39.6854 30.902 40.762 31.4238 41.8418C31.9913 43.0146 31.9897 44.1922 31.4238 45.365C30.8941 46.4621 30.3566 47.5561 29.8254 48.6532C29.2484 49.8481 29.5731 50.8633 30.7333 51.4844C31.7737 52.0408 32.8157 52.5941 33.8561 53.1474C35.125 53.8221 35.8565 54.8751 36.0898 56.2906C36.2789 57.4335 36.4807 58.5748 36.6856 59.716C36.911 60.9708 37.8143 61.6124 39.058 61.4248C40.204 61.253 41.35 61.089 42.4992 60.9345C43.9273 60.7438 45.179 61.0748 46.2162 62.1373C47.0264 62.9664 47.884 63.7499 48.7194 64.5538C49.6873 65.4855 50.7104 65.4918 51.6814 64.5649C52.5342 63.7499 53.3933 62.9397 54.2288 62.1089C55.1352 61.2072 56.2102 60.7674 57.4839 60.9093C58.7513 61.0512 60.0155 61.2356 61.2798 61.4106C62.637 61.5998 63.4788 61.0071 63.7247 59.664C63.9359 58.5054 64.1298 57.342 64.3363 56.1819C64.5728 54.8404 65.26 53.8236 66.4833 53.1837C67.5111 52.6477 68.5294 52.0912 69.5556 51.549C70.8592 50.8585 71.1871 49.8765 70.5471 48.5618C70.0301 47.5009 69.5162 46.44 68.9991 45.3792C68.4175 44.1859 68.4206 42.9957 69.0039 41.804C69.5398 40.71 70.0679 39.6113 70.607 38.5173C70.7583 38.2115 70.8608 37.8994 70.8498 37.6015L70.8513 37.6031ZM57.156 62.8797C56.3821 62.8876 55.8619 63.3148 55.3495 63.8003C55.0327 64.1014 55.0154 64.2764 55.3354 64.5948C59.5016 68.7406 63.6569 72.8959 67.8043 77.059C68.1794 77.4357 68.263 77.3002 68.3576 76.873C68.8052 74.8805 69.2892 72.8959 69.7274 70.9018C69.8724 70.2444 70.205 69.8819 70.8718 69.7369C72.8092 69.3128 74.7386 68.8557 76.6696 68.4001C76.8872 68.3481 77.2166 68.4048 77.2828 68.1526C77.338 67.9461 77.0527 67.8153 76.9061 67.6671C73.5453 64.3 70.1814 60.9377 66.8175 57.5738C66.7339 57.4902 66.6504 57.4067 66.5668 57.3247C66.3335 57.0961 66.2169 57.1371 66.1617 57.4697C66.0293 58.2831 65.8811 59.0949 65.7282 59.9052C65.2222 62.5724 63.4189 63.8193 60.7438 63.3889C59.5426 63.195 58.3351 63.0468 57.1545 62.8813L57.156 62.8797ZM34.0815 57.1828C33.9113 57.2081 33.823 57.3515 33.7142 57.4587C30.2652 60.9046 26.8193 64.3505 23.375 67.7995C23.2693 67.9051 23.0707 67.9934 23.1227 68.1652C23.1716 68.3276 23.3765 68.3134 23.5263 68.3497C25.5345 68.8147 27.5412 69.2939 29.5527 69.74C30.1895 69.8819 30.5316 70.2208 30.6734 70.8576C31.1117 72.8328 31.5798 74.8001 32.0401 76.7689C32.0827 76.9549 32.048 77.2261 32.2466 77.2876C32.4516 77.3506 32.5635 77.0937 32.6959 76.9628C36.7991 72.8659 40.8992 68.7658 44.9977 64.6658C45.0954 64.568 45.19 64.4687 45.2846 64.3694C45.3807 64.2701 45.3697 64.1739 45.3019 64.0526C44.8889 63.3227 43.7713 62.7978 42.9232 62.9255C41.7394 63.1036 40.5555 63.2864 39.3686 63.4346C36.9142 63.7436 35.1424 62.4336 34.7026 60.0108C34.5512 59.1801 34.4031 58.3493 34.2517 57.5186C34.2281 57.3925 34.2707 57.2301 34.0815 57.1828Z" fill="white"/>
<path d="M38.0539 43.4056C38.0523 49.8071 42.5685 54.9854 48.8108 55.6806C55.8508 56.464 61.2813 51.519 62.2161 45.603C62.7867 41.9947 61.9497 38.7396 59.6529 35.8785C59.6277 35.8486 59.6041 35.817 59.5804 35.7855C59.0602 35.1187 59.0461 34.6001 59.5394 34.1761C60.0455 33.741 60.5814 33.8482 61.152 34.5244C62.0206 35.5538 62.7111 36.6951 63.2454 37.9293C67.0129 46.6371 61.4153 56.4782 52.0077 57.6904C44.2552 58.6898 37.1695 53.2561 36.1165 45.5053C35.0572 37.7102 40.4672 30.5883 48.3017 29.5132C51.8075 29.0324 55.0626 29.7796 58.0293 31.7248C58.5921 32.0937 58.7276 32.6502 58.4265 33.1451C58.1318 33.6291 57.5485 33.7426 56.9732 33.4241C56.836 33.3485 56.7052 33.2602 56.5712 33.1767C54.6859 32.0086 52.613 31.3702 50.4171 31.3907C45.6597 31.4364 41.9884 33.4998 39.5766 37.6456C38.5173 39.4647 38.0034 41.4509 38.0523 43.404L38.0539 43.4056Z" fill="white"/>
<path d="M48.2844 49.2979C47.9203 49.3121 47.6491 49.1387 47.4174 48.8739C46.0838 47.3511 44.7424 45.8347 43.4135 44.3072C42.9075 43.7256 42.9091 43.1596 43.3835 42.7466C43.8391 42.3494 44.4429 42.4314 44.9331 42.9847C45.923 44.1023 46.9161 45.2199 47.8777 46.3628C48.2024 46.749 48.4074 46.7427 48.7494 46.3785C50.9279 44.0566 53.1269 41.7535 55.3196 39.4442C55.4552 39.3023 55.5876 39.1526 55.7405 39.0328C56.133 38.7254 56.6879 38.7522 57.0379 39.0801C57.3831 39.4032 57.4524 39.9723 57.1608 40.3727C56.9653 40.6422 56.732 40.885 56.5019 41.1277C54.0932 43.6657 51.683 46.2004 49.2712 48.7368C48.9985 49.0237 48.7242 49.3105 48.2797 49.2995L48.2844 49.2979Z" fill="white"/>
</g>
<defs>
<clipPath id="clip0_549_147">
<rect width="60.4592" height="60.456" fill="white" transform="translate(20 20)"/>
</clipPath>
</defs>
</svg>
