<svg width="100" height="100" viewBox="0 0 100 100" fill="none" xmlns="http://www.w3.org/2000/svg">
<circle cx="50" cy="50" r="50" fill="#6989B3"/>
<g clip-path="url(#clip0_548_146)">
<path d="M45.6145 17.994C46.8779 18.4608 47.3981 19.4181 47.3981 20.7183C47.407 21.6786 47.416 21.6786 48.3895 21.6786C49.5355 21.6786 50.683 21.6637 51.8305 21.6786C53.4432 21.7084 54.3157 22.4778 54.5268 24.0867C54.5907 24.5669 54.8806 24.5341 55.1986 24.5341C57.2558 24.5341 59.3129 24.5251 61.3701 24.5341C62.2411 24.5341 63.1077 24.6071 63.8969 25.0411C65.2748 25.7866 66.0611 26.9497 66.1488 28.5139C66.1949 29.3459 66.9187 29.671 67.2591 30.2749C67.3736 30.4791 67.5177 30.2122 67.5965 30.1019C68.747 28.5228 70.2928 27.6684 72.2266 27.4179C74.7876 27.0839 77.8065 28.8538 78.7042 31.2948C78.9094 31.854 78.7533 32.3386 78.2925 32.5712C77.7797 32.8291 77.2729 32.6592 76.9726 32.0493C76.2918 30.6655 75.2603 29.744 73.7308 29.4249C72.8655 29.2352 71.9632 29.311 71.1414 29.6426C70.3196 29.9743 69.6164 30.5463 69.123 31.2844C68.7083 31.8987 68.2401 32.4012 67.436 32.44C66.5694 32.4802 66.0581 31.9747 65.6107 31.3216C64.6743 29.9543 63.3544 29.3086 61.7149 29.3429C60.6657 29.3719 59.6622 29.7802 58.8893 30.4925C58.1163 31.2049 57.626 32.1735 57.5085 33.2198C57.1963 36.0917 58.2977 38.5028 60.0353 40.6754C61.9334 43.0612 64.3458 44.7983 67.0302 46.1836C67.1314 46.2451 67.247 46.2786 67.3653 46.2807C67.4836 46.2828 67.6003 46.2534 67.7035 46.1955C71.2441 44.2854 74.3833 41.9428 76.2725 38.2434C76.5962 37.6067 76.8456 36.9348 77.0157 36.2408C77.058 36.0471 77.1126 35.8564 77.1792 35.6697C77.3829 35.1523 77.8317 34.8958 78.2985 35.0136C78.5327 35.0712 78.7356 35.2174 78.8647 35.4217C78.9938 35.626 79.0391 35.8725 78.9911 36.1096C78.8526 36.9518 78.6026 37.7717 78.2479 38.5476C77.3085 40.7171 75.8697 42.5214 74.1321 44.0871C72.447 45.594 70.5805 46.8834 68.5761 47.9252C67.928 48.2652 67.2725 48.4023 66.5843 48.0982C66.2246 47.9401 66.1711 48.0982 66.1874 48.3964C66.1874 48.5544 66.1874 48.714 66.1874 48.8735C66.1874 57.4445 66.1874 66.0164 66.1874 74.5893C66.1874 76.7469 64.9983 78.326 63.0215 78.8718C62.6753 78.9566 62.3193 78.9938 61.9632 78.9821H45.934C45.8155 78.9854 45.6969 78.9819 45.5788 78.9717C45.3518 78.9501 45.1409 78.8451 44.9865 78.6769C44.8321 78.5086 44.7453 78.289 44.7427 78.0603C44.7401 77.8316 44.822 77.6101 44.9725 77.4384C45.123 77.2666 45.3316 77.1568 45.558 77.1301C45.775 77.1125 45.9929 77.1075 46.2105 77.1152C51.2533 77.1152 56.2966 77.1152 61.3404 77.1152C61.7559 77.1225 62.1709 77.0815 62.577 76.993C63.0227 76.8866 63.4231 76.6404 63.7198 76.2902C64.0165 75.94 64.1941 75.504 64.2269 75.0456C64.2477 74.7474 64.2462 74.4491 64.2462 74.1509C64.2462 65.3603 64.2462 56.5702 64.2462 47.7806C64.2533 47.36 64.1239 46.9486 63.8775 46.6084C63.6311 46.2681 63.2811 46.0175 62.8802 45.8943C62.69 45.8332 62.6216 45.8943 62.6186 46.0777C62.6157 46.2611 62.6186 46.4341 62.6186 46.613C62.6186 52.1883 62.6082 57.7636 62.6305 63.3403C62.6465 63.6836 62.5883 64.0262 62.4601 64.3448C62.3318 64.6634 62.1364 64.9505 61.8873 65.1863C58.7105 68.3415 55.5494 71.5121 52.4042 74.6982C52.1842 74.9354 51.9157 75.1223 51.6172 75.2461C51.3186 75.3699 50.9969 75.4276 50.6741 75.4154C42.6833 75.3945 34.6925 75.4034 26.7018 75.402C25.1188 75.402 24.5777 74.8532 24.5777 73.2488V32.9052C24.5777 31.3485 25.1203 30.8072 26.6854 30.8072C29.3163 30.8072 31.9472 30.8072 34.5781 30.8072C34.8754 30.8072 35.2574 30.925 35.2678 30.4076C35.2901 29.3936 35.2678 29.3787 34.7178 29.2848C33.4261 29.0611 32.7617 28.2902 32.6592 26.9735C32.6309 26.6216 32.5105 26.4845 32.1612 26.4859C29.8276 26.4964 27.4925 26.4681 25.1589 26.5038C23.8583 26.5232 22.9977 27.4358 22.8862 28.7912C22.8729 28.9493 22.8773 29.1088 22.8773 29.2669C22.8773 44.2884 22.8773 59.3094 22.8773 74.3299C22.8773 74.9934 22.9457 75.6346 23.3663 76.1908C23.9237 76.9274 24.7041 77.1257 25.5706 77.1272C28.0826 77.1272 30.5946 77.1272 33.1066 77.1272H40.9993C41.1761 77.1272 41.356 77.1272 41.5329 77.1361C42.0665 77.1809 42.4381 77.5566 42.447 78.0457C42.4559 78.5586 42.0709 78.9404 41.5046 78.9911C41.4065 78.9985 41.3069 78.9911 41.2073 78.9911C35.8861 78.9911 30.5654 78.9911 25.2451 78.9911C23.188 78.9911 21.657 77.7862 21.116 75.8075C21.0282 75.4204 20.9932 75.0231 21.0119 74.6266C21.0119 59.4073 21.0119 44.188 21.0119 28.9686C21.0119 26.2563 22.7658 24.5863 25.6509 24.5505C27.7318 24.5236 29.8128 24.5311 31.8818 24.5505C32.411 24.5505 32.6503 24.4491 32.6785 23.8437C32.7093 23.3218 32.9224 22.8276 33.2804 22.4477C33.6384 22.0678 34.1184 21.8267 34.6361 21.7666C36.0719 21.5668 37.5196 21.7144 38.9614 21.6801C39.7775 21.6622 39.8087 21.6801 39.7745 20.851C39.7165 19.509 40.2382 18.5487 41.4675 17.9926L45.6145 17.994ZM26.4402 53.0591C26.4402 59.626 26.4372 66.1923 26.4312 72.7582C26.4312 73.2935 26.5799 73.4859 27.1313 73.4844C34.6266 73.4695 42.1215 73.4695 49.6158 73.4844C50.1464 73.4844 50.3411 73.3353 50.3352 72.7776C50.307 70.1995 50.3218 67.6198 50.3233 65.0402C50.3233 63.6982 50.9297 63.0854 52.2838 63.0824C54.8345 63.0824 57.3866 63.0675 59.9372 63.0928C60.4991 63.0928 60.6804 62.9437 60.6804 62.3592C60.6626 56.4872 60.6626 50.6152 60.6804 44.7432C60.6898 44.5466 60.6546 44.3505 60.5773 44.1697C60.5001 43.9889 60.3829 43.828 60.2345 43.6994C59.3697 42.9123 58.5972 42.0288 57.9321 41.0661C56.3268 38.6967 55.3086 36.1454 55.5539 33.2094C55.5866 32.8321 55.4632 32.6621 55.0634 32.6711C54.1715 32.689 53.2797 32.683 52.3879 32.6711C52.0668 32.6711 51.9048 32.7904 51.9152 33.1184C51.9152 33.2959 51.9152 33.4748 51.9152 33.6537C51.8914 35.2567 51.0888 36.0678 49.4909 36.0857C48.4624 36.0962 47.4338 36.0857 46.4052 36.0857C43.4993 36.0857 40.592 36.0857 37.6846 36.0857C36.4777 36.0857 35.6869 35.5743 35.3897 34.6587C35.2616 34.2396 35.2211 33.7985 35.2707 33.363C35.3228 32.8083 35.1058 32.6517 34.5632 32.6577C32.1315 32.6845 29.6983 32.6696 27.2666 32.6696C26.4402 32.6696 26.4402 32.6696 26.4387 33.53L26.4402 53.0591ZM43.5484 23.626C40.8194 23.626 38.0904 23.6334 35.3614 23.626C34.804 23.626 34.5603 23.8392 34.5707 24.3954C34.584 25.1484 34.587 25.9029 34.5707 26.6574C34.5588 27.1957 34.7996 27.3925 35.3243 27.3911C40.8417 27.3821 46.3596 27.3821 51.8781 27.3911C52.4191 27.3911 52.6213 27.148 52.6079 26.6291C52.5915 25.9148 52.6079 25.2006 52.6079 24.4864C52.6079 23.7274 52.5083 23.6349 51.7413 23.6334L43.5484 23.626ZM52.1917 71.877L58.9993 65.0342C56.8991 65.0342 54.7141 65.0342 52.5276 65.0342C52.2794 65.0342 52.1917 65.2027 52.1917 65.4324V71.877ZM63.9727 27.7504C63.5075 26.8557 62.8401 26.5232 62.0672 26.5098C59.6979 26.4695 57.3286 26.4904 54.9593 26.4845C54.6962 26.4845 54.5625 26.5888 54.5461 26.8662C54.4629 28.2738 53.7033 29.073 52.3344 29.3176C51.6328 29.4428 51.9881 30.0005 51.9301 30.3718C51.8721 30.7431 52.156 30.8087 52.4667 30.8057C53.5725 30.8057 54.6784 30.7923 55.7828 30.8057C56.1499 30.8057 56.3491 30.6566 56.5408 30.3584C56.998 29.6369 57.5955 29.0154 58.2975 28.5309C58.9996 28.0464 59.7918 27.709 60.6269 27.5387C61.7015 27.3165 62.7717 27.397 63.9698 27.7564L63.9727 27.7504ZM43.6153 30.8176C45.5134 30.8176 47.4115 30.7938 49.3081 30.8311C49.9027 30.843 49.9918 30.5925 49.9844 30.0855C49.977 29.5785 49.9368 29.322 49.323 29.3265C45.5079 29.3534 41.6929 29.3534 37.8779 29.3265C37.2833 29.3265 37.1911 29.5681 37.1971 30.0721C37.203 30.5761 37.2536 30.84 37.8645 30.8281C39.7804 30.7863 41.6979 30.8176 43.6153 30.8176ZM43.5365 34.1652C45.4688 34.1652 47.4115 34.1413 49.3482 34.1786C49.9963 34.1905 49.9666 33.8401 49.9814 33.3913C49.9993 32.9126 49.9056 32.677 49.3408 32.68C45.506 32.7019 41.6706 32.7019 37.8348 32.68C37.2625 32.68 37.1897 32.932 37.1986 33.4002C37.2075 33.8685 37.2075 34.1905 37.8437 34.1786C39.7403 34.1339 41.6384 34.1577 43.5365 34.1577V34.1652ZM43.6064 21.689H45.0288C45.3261 21.689 45.4747 21.5548 45.4599 21.2536C45.4599 21.015 45.4599 20.778 45.4599 20.5394C45.4599 20.0622 45.1938 19.8505 44.7568 19.843C43.9676 19.8296 43.1753 19.8311 42.3786 19.843C41.9609 19.843 41.7097 20.0563 41.7157 20.5066C41.7157 20.7437 41.7157 20.9822 41.7157 21.2193C41.7053 21.5444 41.8554 21.6935 42.1779 21.689C42.6566 21.6771 43.1322 21.6816 43.6064 21.6816V21.689Z" fill="white"/>
<path d="M37.2298 48.3904C36.9028 49.4699 36.5728 50.5465 36.2502 51.6261C35.953 52.646 35.7493 52.8026 34.7089 52.8041C33.5198 52.8041 32.3307 52.8041 31.1505 52.8041C30.4073 52.8041 29.9614 52.4238 29.9792 51.8393C29.9971 51.2548 30.4073 50.9447 31.1431 50.9342C32.0126 50.9253 32.8836 50.9029 33.7516 50.9417C34.2719 50.9655 34.5216 50.803 34.6702 50.2811C35.1652 48.5261 35.7107 46.7874 36.2428 45.0428C36.3171 44.7968 36.3915 44.5493 36.4806 44.3077C36.5391 44.1157 36.6593 43.9486 36.8226 43.8325C36.9859 43.7165 37.1829 43.6581 37.3829 43.6665C37.5838 43.6555 37.7823 43.7145 37.9449 43.8336C38.1074 43.9526 38.2239 44.1243 38.2747 44.3196C38.4991 45.0652 38.6909 45.8107 38.8856 46.5563C39.6437 49.4699 40.4002 52.3846 41.1553 55.3002C41.1895 55.4314 41.24 55.5567 41.3322 55.8251L42.7205 52.0496C43.101 51.0162 43.315 50.8656 44.4179 50.8567C44.9515 50.8567 45.4866 50.8701 46.0187 50.8567C46.8898 50.8284 47.679 50.9178 47.847 52.069C48.1443 51.8408 48.1145 51.5814 48.168 51.3756C48.6169 49.6707 49.0554 47.9629 49.4835 46.2521C49.6187 45.7168 49.8328 45.2561 50.4704 45.2441C51.1081 45.2322 51.3415 45.678 51.5109 46.2029C51.942 47.5449 52.4027 48.8705 52.8189 50.2155C52.9676 50.6882 53.1846 50.9014 53.6974 50.8701C54.3662 50.8298 55.0351 50.8522 55.7129 50.8701C55.9694 50.8714 56.2248 50.9029 56.4739 50.964C56.96 51.0938 57.1918 51.4397 57.1562 51.9407C57.1205 52.4417 56.8217 52.7593 56.3729 52.7728C54.9905 52.8145 53.6067 52.8086 52.2244 52.7728C51.7606 52.7608 51.5228 52.3866 51.386 51.9571C51.1684 51.23 50.8909 50.5223 50.5566 49.8412C50.3471 50.636 50.133 51.4293 49.9294 52.227C49.6737 53.2261 49.43 54.2266 49.1728 55.2242C49.0331 55.7729 48.883 56.341 48.1725 56.3738C47.462 56.4066 47.2495 55.8907 47.0562 55.3405C46.8139 54.6486 46.5375 53.9686 46.3026 53.2738C46.1912 52.9457 46.0187 52.7653 45.659 52.81C45.5798 52.8145 45.5004 52.8145 45.4212 52.81C44.4714 52.81 44.4759 52.81 44.1429 53.7226C43.4859 55.5283 42.8186 57.3296 42.1646 59.1383C41.9832 59.6393 41.7186 60.0613 41.1345 60.0434C40.5147 60.0226 40.2813 59.5603 40.1431 59.025C39.2721 55.67 38.3986 52.3145 37.5226 48.9585C37.4735 48.7721 37.4156 48.5872 37.3606 48.4008L37.2298 48.3904Z" fill="white"/>
</g>
<defs>
<clipPath id="clip0_548_146">
<rect width="58" height="61" fill="white" transform="translate(21 18)"/>
</clipPath>
</defs>
</svg>
