<svg width="100" height="100" viewBox="0 0 100 100" fill="none" xmlns="http://www.w3.org/2000/svg">
<circle cx="50" cy="50" r="50" fill="#6989B3"/>
<g clip-path="url(#clip0_549_148)">
<path d="M58.3949 17C61.7143 18.928 65.0354 20.856 68.3548 22.784C69.1149 23.226 69.8854 23.6508 70.6353 24.11C71.4815 24.6277 71.6741 25.3191 71.1943 26.1893C70.5923 27.278 69.956 28.3478 69.3282 29.421C68.924 30.1106 68.3083 30.5079 67.5344 30.6662C67.3452 30.7057 67.1354 30.7006 67.0253 30.8915C66.5833 31.6516 66.143 32.4118 65.7147 33.1789C65.5875 33.4059 65.7629 33.5848 65.8713 33.7671C66.683 35.1172 66.7105 36.4914 65.94 37.857C65.7061 38.2732 65.7061 38.5466 66.045 38.9216C67.4002 40.4248 67.9385 42.2031 67.6857 44.2119C67.6444 44.5404 67.6823 44.8362 67.7889 45.1527C70.0746 51.8619 68.8054 57.8196 63.9501 62.9861C63.5443 63.4178 63.5099 63.6603 63.8796 64.1419C65.1919 65.86 65.897 67.8104 65.9074 69.9912C65.9108 70.6568 65.9297 71.3224 65.9022 71.9863C65.8833 72.442 66.0673 72.5831 66.5059 72.5762C67.7064 72.5555 68.9086 72.5624 70.1108 72.571C72.3363 72.5865 74.0028 74.2582 74.0166 76.4923C74.0252 78.0798 74.02 79.6672 74.0183 81.2564C74.0166 82.5325 73.5952 82.9574 72.3242 82.9574C58.3984 82.9574 44.4742 82.9574 30.5484 82.9574C29.2189 82.9574 27.8877 82.9625 26.5583 82.9556C25.4919 82.9505 25.0155 82.4844 25.0104 81.4335C25.0035 79.7378 24.9949 78.0437 25.0138 76.3479C25.0362 74.2789 26.7251 72.5934 28.801 72.5727C30.5381 72.5555 32.2769 72.5521 34.0139 72.5762C34.5179 72.5831 34.695 72.4197 34.6812 71.9123C34.652 70.7978 34.6468 69.6799 34.6812 68.5654C34.6984 68.0099 34.4783 67.8671 33.9641 67.8843C33.0852 67.9153 32.2046 67.905 31.3258 67.8878C29.255 67.8499 27.585 66.1094 27.5833 63.9974C27.5799 61.8802 29.2413 60.1174 31.3 60.0847C32.8238 60.0606 34.3476 60.0709 35.8697 60.0813C36.7812 60.0864 37.335 60.6196 37.3213 61.4365C37.3075 62.2225 36.7606 62.7299 35.88 62.7385C34.4852 62.7505 33.0904 62.723 31.6955 62.7522C30.6516 62.7746 30.0548 63.5468 30.3695 64.393C30.4985 64.7352 30.729 64.9692 31.0712 65.0999C31.3567 65.2099 31.6543 65.2289 31.957 65.2289C38.5011 65.2289 45.0452 65.2289 51.5894 65.2289C51.8921 65.2289 52.1879 65.2151 52.4768 65.1102C53.0048 64.9176 53.2852 64.5134 53.2835 63.9837C53.2835 63.4539 53.0014 63.0515 52.4734 62.8606C52.1845 62.7557 51.8869 62.7436 51.5859 62.7436C50.2977 62.7436 49.0113 62.7505 47.7231 62.7402C46.8029 62.7333 46.2492 62.2191 46.2526 61.4021C46.256 60.5869 46.8081 60.1019 47.7386 60.0778C49.5393 60.0314 51.3383 60.1552 53.139 59.9781C57.1239 59.5859 60.6119 56.0843 60.9524 52.1113C61.004 51.5111 61.0453 50.9212 60.9679 50.3192C60.918 49.9374 60.7649 49.8222 60.3883 49.7104C59.5421 49.4593 59.0743 49.6829 58.603 50.4551C57.9375 51.5455 56.8161 52.0494 55.5382 52.0374C54.9552 52.0322 54.6301 52.2352 54.3807 52.7339C54.1038 53.2894 53.7753 53.8209 53.4486 54.3506C52.6557 55.6388 51.1852 56.1015 49.8798 55.3705C47.2209 53.8845 44.5826 52.3624 41.9649 50.8042C40.6905 50.0458 40.35 48.5839 41.0448 47.263C41.3836 46.618 41.7534 45.9886 42.1335 45.366C42.3347 45.0357 42.3381 44.7726 42.1266 44.4269C41.3217 43.1112 41.2667 41.7405 42.0372 40.3972C44.3934 36.2833 46.7531 32.1711 49.1523 28.0829C49.9555 26.7139 51.2385 26.0844 52.8311 26.1618C53.1166 26.1756 53.2697 26.0844 53.3987 25.8574C53.7581 25.2227 54.1193 24.5898 54.4908 23.9621C54.6473 23.6972 54.6439 23.4427 54.5424 23.1623C54.2294 22.2886 54.4117 21.4803 54.8743 20.7029C55.4247 19.781 55.9579 18.8523 56.4859 17.9184C56.7026 17.5349 56.976 17.2184 57.363 17.0017C57.707 17.0017 58.0492 17.0017 58.3932 17.0017L58.3949 17ZM49.4464 80.295C52.4906 80.295 55.5365 80.295 58.5807 80.295C62.6121 80.295 66.6435 80.295 70.6749 80.295C71.0326 80.295 71.368 80.3259 71.3577 79.7911C71.3353 78.7402 71.3731 77.6894 71.3405 76.6385C71.3147 75.7665 70.8331 75.3039 69.9697 75.242C69.7135 75.2231 69.4555 75.2351 69.1975 75.2351C56.2451 75.2351 43.2944 75.2351 30.342 75.2351C29.9567 75.2351 29.5698 75.2265 29.1845 75.2385C28.1801 75.2695 27.6951 75.7528 27.6762 76.7641C27.659 77.6429 27.671 78.5218 27.671 79.4024C27.671 79.9963 27.96 80.2938 28.5378 80.295C35.5068 80.295 42.4757 80.295 49.4447 80.295H49.4464ZM54.7471 43.3021C54.7385 42.2513 54.981 41.2606 55.4625 40.3302C56.8333 37.685 59.6504 36.3504 62.6551 36.9506C63.0764 37.0349 63.3344 37.0005 63.546 36.598C63.9587 35.8086 63.7782 35.1791 62.9079 34.6735C59.7726 32.8556 56.6338 31.0445 53.4916 29.2369C52.4287 28.6264 51.8835 28.7709 51.2746 29.8234C49.0285 33.7017 46.7875 37.5835 44.5482 41.4653C44.0185 42.382 44.1853 43.0132 45.1158 43.5532C48.2872 45.3935 51.4655 47.2217 54.6387 49.062C54.9913 49.2667 55.3525 49.3526 55.7463 49.2787C56.6063 49.1153 56.9296 48.2502 56.3758 47.5984C55.3215 46.3601 54.7557 44.9377 54.7454 43.3038L54.7471 43.3021ZM66.2032 50.9573C66.1275 50.2659 66.0364 49.3922 65.9349 48.5202C65.8833 48.0748 65.7285 47.9664 65.357 48.3173C64.9993 48.6561 64.5745 48.9244 64.117 49.1136C63.7489 49.2667 63.6285 49.4662 63.6698 49.8944C63.7592 50.8094 63.7919 51.7398 63.6423 52.6531C62.8993 57.1781 60.3797 60.2962 56.1436 62.0264C55.7738 62.1778 55.6105 62.3154 55.7893 62.7213C55.9647 63.1168 56.0301 63.5485 55.9888 63.9802C55.9321 64.577 56.1849 64.6114 56.6699 64.4411C61.8123 62.6335 66.0811 57.7783 66.2032 50.9539V50.9573ZM61.2482 39.539C59.1276 39.539 57.5058 41.1488 57.4972 43.266C57.4886 45.3832 59.1689 47.091 61.2551 47.0824C63.3103 47.0738 65.0354 45.3642 65.0457 43.3245C65.0577 41.2245 63.3688 39.539 61.2482 39.5373V39.539ZM41.8566 72.5693C43.1224 72.5693 44.3882 72.5573 45.6524 72.5762C46.0875 72.5831 46.2715 72.4472 46.2629 71.9897C46.2423 70.8099 46.244 69.63 46.2629 68.4519C46.2681 68.0323 46.1047 67.8912 45.6919 67.8929C43.1396 67.905 40.5873 67.9084 38.035 67.8895C37.5414 67.8861 37.4073 68.089 37.4141 68.5413C37.4331 69.6782 37.4348 70.815 37.4141 71.9519C37.4055 72.4334 37.5947 72.5865 38.0608 72.5779C39.3266 72.5555 40.5908 72.571 41.8566 72.5693ZM53.5483 72.5693C54.8554 72.5693 56.1643 72.5693 57.4714 72.5693C57.492 72.5693 57.5144 72.5676 57.535 72.5693C57.9529 72.614 58.1146 72.4265 58.0957 72.0103C58.0733 71.4961 58.1008 70.9818 58.0871 70.4676C58.0458 68.8595 57.1119 67.9205 55.4935 67.9033C53.5432 67.8843 51.5911 67.9084 49.6408 67.8895C49.1695 67.8843 48.9889 68.0443 48.9975 68.519C49.0182 69.6541 49.0233 70.7927 48.9975 71.9278C48.9855 72.4506 49.2022 72.5865 49.6872 72.5779C50.9737 72.5538 52.2601 72.5693 53.5466 72.5693H53.5483ZM58.4723 20.2334C58.2539 20.2385 58.2006 20.395 58.1266 20.5189C57.8979 20.9058 57.6949 21.3117 57.4404 21.6815C57.1566 22.0943 57.2203 22.3161 57.6726 22.5724C60.3023 24.0653 62.9131 25.5942 65.5342 27.1026C67.0958 28.0003 67.0889 27.9866 67.9575 26.4009C68.1879 25.9812 68.1157 25.7679 67.7081 25.5358C64.7482 23.8417 61.7986 22.1304 58.8455 20.4243C58.7166 20.3503 58.5807 20.2884 58.4723 20.2317V20.2334ZM57.0637 25.3724C56.8023 25.3242 56.7387 25.5065 56.6544 25.6493C56.4343 26.0156 56.2416 26.4009 55.9974 26.7517C55.6999 27.18 55.7566 27.4259 56.2382 27.6942C58.0871 28.7261 59.9119 29.8045 61.747 30.8639C63.4256 31.834 63.4118 31.8271 64.3302 30.1003C64.528 29.7288 64.4231 29.5844 64.1084 29.4055C61.8794 28.1311 59.6573 26.8411 57.4335 25.5581C57.3045 25.4842 57.1669 25.4222 57.0637 25.3707V25.3724ZM51.0511 52.9076C51.1164 52.8543 51.199 52.8148 51.2368 52.7494C51.5533 52.2162 51.8646 51.6796 52.1707 51.1396C52.3186 50.8782 52.1432 50.7492 51.9437 50.634C49.6631 49.3182 47.3808 48.006 45.1054 46.6834C44.7683 46.4873 44.5585 46.5544 44.3814 46.8881C44.1715 47.2854 43.9548 47.6809 43.7072 48.0541C43.4767 48.3998 43.5214 48.5942 43.8981 48.8074C46.1494 50.087 48.387 51.3907 50.6314 52.6841C50.7604 52.758 50.8945 52.8234 51.0528 52.9059L51.0511 52.9076ZM63.2398 71.1332C63.2398 70.8976 63.245 70.6619 63.2398 70.428C63.19 68.6961 62.7411 67.0984 61.6679 65.7018C61.3789 65.3252 61.1106 65.2409 60.7013 65.5229C60.3504 65.7637 59.9669 65.9667 59.5765 66.1387C59.1568 66.3227 59.0691 66.4723 59.4286 66.849C60.335 67.8035 60.789 68.9541 60.758 70.2853C60.7443 70.8838 60.7666 71.484 60.7546 72.0826C60.746 72.442 60.9008 72.5934 61.2534 72.5727C61.446 72.5607 61.6386 72.5727 61.8313 72.5727C62.7715 72.5727 63.241 72.094 63.2398 71.1366V71.1332Z" fill="white"/>
<path d="M41.7327 62.7419C40.9743 62.7178 40.4273 62.1176 40.46 61.3454C40.4927 60.5886 41.0981 60.0486 41.872 60.0899C42.603 60.1277 43.131 60.7073 43.1138 61.452C43.0966 62.2139 42.5032 62.7677 41.7327 62.7419Z" fill="white"/>
</g>
<defs>
<clipPath id="clip0_549_148">
<rect width="49.02" height="65.9608" fill="white" transform="translate(25 17)"/>
</clipPath>
</defs>
</svg>
