<svg width="100" height="100" viewBox="0 0 100 100" fill="none" xmlns="http://www.w3.org/2000/svg">
<circle cx="50" cy="50" r="50" fill="#6989B3"/>
<path d="M82.2397 49.8822C80.3652 53.1244 78.4942 56.3665 76.6265 59.6087C76.0873 60.5379 75.543 60.7925 74.9255 60.415C74.3438 60.0597 74.3217 59.4959 74.8575 58.565C76.4377 55.8165 77.9992 53.0577 79.6202 50.3298C79.9604 49.7524 79.5981 49.6584 79.263 49.4381C78.8871 49.1921 78.6473 49.1443 78.37 49.6277C74.6006 56.2236 70.8182 62.8116 67.0228 69.3916C66.4955 70.3106 66.3764 70.3806 65.3048 70.162C64.9527 70.0902 64.8608 70.3328 64.7281 70.5361C62.3876 74.1666 60.0499 77.7982 57.715 81.431C57.4033 81.9381 56.996 82.3791 56.5158 82.7292C54.7145 84.0086 52.9267 85.3069 51.1339 86.5983C50.7257 86.8921 50.314 87.1517 49.7901 86.8801C49.2407 86.5931 49.1914 86.0943 49.2424 85.5614C49.4692 83.2314 49.696 80.9026 49.9228 78.5748C49.9811 78.1539 50.1191 77.748 50.3293 77.3791C52.2855 73.5505 54.2388 69.7207 56.1892 65.8897C56.4137 65.4524 56.606 65.1125 56.0633 64.694C55.5888 64.3336 55.7231 63.7921 56.0072 63.3035C57.3918 60.912 58.7724 58.5149 60.1491 56.112C62.823 51.4634 65.4953 46.8148 68.1658 42.1663C69.2783 40.224 70.9027 39.1034 73.1259 38.7908C76.3901 38.3296 79.8464 41.1823 79.9893 44.5031C80.0233 45.2923 80.0404 46.0849 79.7631 46.8416C79.6304 47.202 79.7937 47.3694 80.0812 47.5539C80.8092 48.0203 81.6665 48.2936 82.2465 48.9854L82.2397 49.8822ZM73.3317 40.8287C72.0679 40.8732 70.8142 41.6453 69.974 43.1143C68.7697 45.2188 67.5625 47.3216 66.3526 49.4227C63.7552 53.9426 61.1663 58.4659 58.5468 62.9721C58.2338 63.5085 58.3086 63.7443 58.8376 64.0415C60.8788 65.1803 62.899 66.351 64.8982 67.5535C65.3779 67.8388 65.5786 67.7807 65.8678 67.2854C68.307 62.9944 70.7785 58.7238 73.2347 54.4431C74.6551 51.9713 76.1264 49.5286 77.4651 47.0107C78.9687 44.1853 76.9225 40.8475 73.3317 40.839V40.8287ZM55.9817 80.0337C56.2215 80.008 56.2794 79.8287 56.3678 79.692C58.5746 76.2756 60.7796 72.8632 62.9829 69.4548C63.2364 69.0653 63.153 68.8825 62.7652 68.669C61.5405 67.9857 60.3379 67.2683 59.1268 66.5628C58.3767 66.1272 58.3648 66.1204 57.9684 66.9044C56.1722 70.4302 54.3879 73.9644 52.5797 77.485C52.3875 77.8625 52.4437 78.0333 52.8026 78.2298C53.75 78.7422 54.6736 79.3077 55.6177 79.8492C55.7368 79.9278 55.8694 79.9892 55.9732 80.0439L55.9817 80.0337ZM51.5183 83.3629C51.5064 83.4637 51.4622 83.6004 51.5864 83.6345C51.6864 83.6362 51.7835 83.6002 51.8585 83.5338C52.6325 82.9837 53.3996 82.4217 54.1736 81.87C54.4678 81.6599 54.3913 81.5283 54.1225 81.3677C53.4966 81.0141 52.874 80.6571 52.2514 80.2882C51.9572 80.1174 51.8415 80.1925 51.8075 80.5188C51.719 81.4668 51.6136 82.4132 51.5183 83.3629Z" fill="white"/>
<path d="M28.385 51.6126V72.9651C28.385 73.9217 28.385 73.9251 29.3325 73.9251C35.4866 73.9251 41.6408 73.9251 47.7949 73.9251C48.1338 73.9152 48.4727 73.9432 48.8053 74.0088C49.3326 74.1301 49.5741 74.5212 49.5469 75.0491C49.5197 75.5769 49.2067 75.8639 48.7305 75.9766C48.5207 76.0095 48.3079 76.0193 48.096 76.0057H27.8543C26.6092 76.0057 26.3064 75.7068 26.3064 74.4683V40.7809C26.3064 39.8038 26.3064 39.8038 25.3335 39.8038C23.0627 39.8038 20.7919 39.8038 18.5211 39.8038C17.3304 39.8038 17.0038 39.4775 17.0038 38.2972C17.0038 35.5265 16.9953 32.7558 17.0038 29.9868C17.014 26.7924 19.4736 24.2848 22.6391 24.2814C35.4532 24.2711 48.2701 24.2711 61.0898 24.2814C61.8345 24.2759 62.5729 24.4193 63.2619 24.7033C63.9509 24.9872 64.5767 25.406 65.103 25.9353C65.6292 26.4645 66.0453 27.0936 66.327 27.786C66.6087 28.4783 66.7504 29.2201 66.7438 29.968C66.7574 33.4852 66.7438 37.0006 66.7438 40.5178C66.7544 40.6889 66.7475 40.8606 66.7234 41.0303C66.6129 41.553 66.2829 41.8605 65.7471 41.8622C65.2113 41.8639 64.8762 41.5547 64.769 41.032C64.7397 40.8209 64.7317 40.6075 64.7452 40.3948C64.7452 37.028 64.7452 33.6611 64.7452 30.2942C64.7452 28.4887 63.8777 27.1665 62.3638 26.5704C61.7923 26.3466 61.1986 26.3654 60.6067 26.3654H30.9365C29.8768 26.3654 28.8154 26.3773 27.754 26.3654C27.2318 26.3654 27.1586 26.4935 27.4512 26.9342C28.1605 27.9967 28.385 29.201 28.385 30.4616V51.6126ZM26.3047 33.4664C26.3047 32.3799 26.3047 31.2935 26.3047 30.2071C26.3047 28.0018 24.8487 26.4183 22.8041 26.3671C20.6592 26.3141 19.062 27.8242 19.016 30.0551C18.9667 32.4192 19.016 34.7834 18.9973 37.1475C18.9973 37.5609 19.1419 37.7147 19.5535 37.7129C21.6117 37.7016 23.6694 37.7016 25.7264 37.7129C26.1738 37.7129 26.3183 37.5421 26.3115 37.1065C26.2945 35.8937 26.3064 34.6792 26.3081 33.4664H26.3047Z" fill="white"/>
<path d="M44.5256 40.1318C45.3999 41.2746 46.2266 42.332 47.021 43.4047C47.2761 43.7464 47.436 43.6422 47.6452 43.3671C48.4277 42.332 49.2203 41.3071 50.0113 40.2787C50.1109 40.1407 50.2183 40.0083 50.3328 39.8824C50.741 39.4519 51.2785 39.37 51.7055 39.6774C51.9225 39.8376 52.0677 40.0773 52.1094 40.3445C52.1511 40.6117 52.086 40.8846 51.9283 41.1038C51.435 41.8212 50.889 42.5028 50.3617 43.1963C49.9364 43.7549 49.5452 44.3459 49.0706 44.8584C48.6403 45.323 48.7168 45.651 49.0876 46.1071C49.9602 47.1781 50.7784 48.2919 51.6187 49.3903C51.7259 49.5223 51.8263 49.6597 51.9198 49.8019C52.2396 50.3144 52.1579 50.9054 51.731 51.2368C51.304 51.5682 50.7104 51.5341 50.3192 51.0404C49.4534 49.9625 48.6182 48.8556 47.7813 47.7623C47.3203 47.1628 47.322 47.1645 46.8543 47.7726C46.0786 48.7839 45.3018 49.7957 44.5239 50.8081C43.9966 51.4914 43.42 51.6348 42.9012 51.23C42.3824 50.8252 42.3705 50.2563 42.9012 49.5457C43.8248 48.3243 44.7501 47.1047 45.6993 45.9038C45.9595 45.5724 45.9459 45.3435 45.6993 45.0207C44.5698 43.5807 43.4676 42.1167 42.3518 40.6733C42.0116 40.236 41.2495 40.0225 40.7613 40.2155C40.4297 40.3453 40.5215 40.634 40.5215 40.8715C40.513 42.853 40.5215 44.8328 40.5215 46.8143C40.5333 47.0271 40.5236 47.2406 40.4926 47.4515C40.3837 47.9366 40.0861 48.2441 39.569 48.2628C39.0519 48.2816 38.6572 48.0459 38.5382 47.5112C38.4752 47.1987 38.4461 46.8803 38.4514 46.5615C38.4514 41.6202 38.4514 36.6784 38.4514 31.736C38.4535 31.4594 38.4734 31.1833 38.511 30.9092C38.5807 30.3763 38.8886 30.0381 39.4227 30.009C41.1798 29.9099 42.9522 29.7887 44.6872 30.1098C46.8696 30.5129 48.5569 32.5013 48.6675 34.6075C48.7985 37.0946 47.4768 39.1188 45.2094 39.9029C45.0053 39.9746 44.8063 40.0379 44.5256 40.1318ZM40.5181 35.0072C40.5181 35.8613 40.5283 36.7154 40.5181 37.5593C40.5181 37.9419 40.6644 38.0939 41.0437 38.0888C41.8942 38.0751 42.7447 38.0888 43.585 38.0888C45.3132 38.0632 46.6297 36.7632 46.6467 35.0772C46.6473 34.2796 46.3358 33.5137 45.7793 32.9446C45.2227 32.3755 44.4659 32.0488 43.6717 32.0349C42.8042 32.0042 41.935 32.0349 41.0675 32.0213C40.6474 32.011 40.5079 32.1921 40.5164 32.5901C40.53 33.3981 40.5181 34.2061 40.5181 35.0209V35.0072Z" fill="white"/>
<path d="M45.0647 55.6422H55.8796C56.0917 55.6339 56.3042 55.6385 56.5157 55.6559C56.7597 55.6863 56.9846 55.8041 57.1489 55.9877C57.3133 56.1713 57.4062 56.4083 57.4105 56.6552C57.4015 56.9022 57.304 57.1377 57.1358 57.3182C56.9676 57.4986 56.7402 57.612 56.4953 57.6374C56.3052 57.6517 56.1144 57.6556 55.9238 57.6493H34.0373C33.8461 57.6568 33.6547 57.6522 33.4641 57.6357C33.2201 57.6049 32.9954 57.4866 32.8314 57.3027C32.6673 57.1188 32.5749 56.8816 32.571 56.6347C32.5801 56.3874 32.6778 56.1518 32.8464 55.9712C33.0149 55.7907 33.2427 55.6775 33.4879 55.6525C33.6996 55.6374 33.9119 55.6334 34.124 55.6405L45.0647 55.6422Z" fill="white"/>
<path d="M43.4557 62.8867H52.6835C52.9163 62.8741 53.1499 62.8838 53.3809 62.9158C53.9014 63.0217 54.216 63.3667 54.2195 63.8946C54.2318 64.1224 54.1608 64.3469 54.0198 64.5259C53.8788 64.7049 53.6776 64.826 53.454 64.8665C53.1215 64.9343 52.7828 64.9663 52.4436 64.9622C46.4188 64.9622 40.3945 64.9622 34.3707 64.9622C34.0532 64.9652 33.736 64.9388 33.4233 64.8836C32.8653 64.7794 32.5592 64.3985 32.5864 63.8467C32.6136 63.295 32.9708 62.9636 33.5304 62.8987C33.7415 62.8827 33.9534 62.8787 34.1649 62.8867H43.4557Z" fill="white"/>
<path d="M66.7524 73.8755C66.7524 74.171 66.7524 74.4683 66.7524 74.7655C66.757 74.8927 66.7513 75.0201 66.7354 75.1464C66.6419 75.7101 66.2353 76.0296 65.5209 76.0005C64.7691 75.9681 63.8199 76.3268 63.4916 75.2233C63.3215 74.6698 63.6107 74.1745 64.2214 74.0173C64.6704 73.9011 64.7657 73.6654 64.7623 73.2469C64.7623 72.222 65.1025 71.7095 65.7829 71.7403C66.4633 71.771 66.7524 72.2527 66.7541 73.2401L66.7524 73.8755Z" fill="white"/>
</svg>
