<svg width="29" height="19" viewBox="0 0 29 19" fill="none" xmlns="http://www.w3.org/2000/svg">
<g clip-path="url(#clip0_98_686)">
<path d="M-0.000416862 1.8443C0.193923 1.19243 0.491054 0.632623 1.04356 0.294718C1.89239 -0.223648 2.81028 -0.0542345 3.55792 0.767049C3.83578 1.07457 4.10481 1.39223 4.37866 1.70619L14.176 12.939C14.4835 13.2916 14.4843 13.2916 14.7839 12.9473C18.2964 8.92004 21.809 4.89219 25.3216 0.863729C25.8106 0.302089 26.3704 -0.0569913 27.0819 0.0129835C27.8849 0.0903241 28.4688 0.551597 28.802 1.38577C29.1233 2.19508 29.0486 2.98692 28.6077 3.72165C28.5036 3.88852 28.3864 4.04414 28.2576 4.18661C24.1984 8.84484 20.1387 13.4997 16.0784 18.1512C15.2866 19.0581 14.3342 19.2459 13.4564 18.6769C13.246 18.532 13.0539 18.3549 12.8854 18.1503C8.82625 13.4969 4.76626 8.84331 0.705464 4.18937C0.384344 3.82294 0.142353 3.37554 -0.0012207 2.88286L-0.000416862 1.8443Z" fill="#272765"/>
</g>
<defs>
<clipPath id="clip0_98_686">
<rect width="29" height="19" fill="white"/>
</clipPath>
</defs>
</svg>
