<svg width="79" height="93" viewBox="0 0 79 93" fill="none" xmlns="http://www.w3.org/2000/svg">
<g clip-path="url(#clip0_4_8)">
<path d="M28.5967 26.9395C28.3454 27.4783 28.2731 28.062 27.9721 28.468C27.6424 28.9113 27.3414 29.4203 26.81 29.7188C25.9219 30.2188 25.3078 31.001 24.811 31.8667C24.5085 32.3936 24.1593 32.9101 24.2059 33.5728C24.2195 33.7624 24.0975 33.9639 24.0343 34.158C23.7604 34.9924 23.5903 35.8476 23.5361 36.7238C23.524 36.9179 23.4714 37.1746 23.7303 37.2507C24.0163 37.3343 24.3324 37.3642 24.6048 37.2119C24.7674 37.1224 24.7313 36.9149 24.7343 36.7492C24.7463 35.9581 24.945 35.2058 25.1889 34.4595C25.2656 34.2266 25.3574 34.0102 25.5697 33.8579C25.806 33.6878 25.9144 33.4236 26.0423 33.1758C26.3705 32.5429 26.7633 31.9578 27.3022 31.4786C28.1888 30.689 28.9279 30.6637 29.8566 31.4085C30.406 31.8488 30.7809 32.428 31.1105 33.0385C31.252 33.3012 31.3784 33.5713 31.6163 33.7684C31.7668 33.8923 31.836 34.0654 31.9008 34.2415C32.1883 35.0327 32.387 35.8417 32.4261 36.685C32.4351 36.8806 32.3644 37.1358 32.5977 37.2328C32.8777 37.3493 33.1908 37.3448 33.4752 37.2313C33.6634 37.1567 33.6318 36.9507 33.6303 36.788C33.6198 36.1522 33.4873 35.5327 33.3443 34.9177C33.269 34.5923 33.1622 34.2729 33.0598 33.955C32.9725 33.6893 32.8822 33.431 32.9319 33.14C32.977 32.8713 32.8566 32.6265 32.7317 32.3981C32.1025 31.2383 31.3604 30.1785 30.1456 29.5367C29.7498 29.3277 29.6188 28.874 29.3087 28.5799C29.2304 28.5068 29.2892 28.3665 29.3268 28.259C29.6053 27.4634 30.099 26.8141 30.7477 26.2872C31.0337 26.0543 31.41 26.0484 31.7668 26.0364C31.9354 26.0304 32.0453 26.12 32.107 26.2767C32.6654 27.7112 33.7462 28.7545 34.833 29.7785C36.1501 31.0219 37.553 32.1697 38.992 33.2743C39.4872 33.6549 39.5203 33.6669 40.005 33.2952C41.8008 31.919 43.5469 30.4845 45.1274 28.8635C45.6091 28.3679 46.0591 27.844 46.4385 27.2649C46.6025 27.0141 46.7425 26.7529 46.8569 26.4767C47.0451 26.0185 47.0872 26.0304 47.5553 26.0454C48.5383 26.0767 49.1479 26.5797 49.5197 27.4425C49.6597 27.7664 49.8328 28.0769 49.9005 28.4291C49.9457 28.659 49.8448 28.7769 49.6386 28.8486C49.3541 28.9486 49.0922 29.0949 48.8484 29.271C47.9317 29.9352 47.5403 31.1712 47.9001 32.2593C48.2568 33.337 49.3978 34.1833 50.5056 34.1371C51.9898 34.0744 52.8523 33.1713 53.1338 32.0862C53.4409 30.9025 52.9035 29.6248 51.7896 29.0576C51.3591 28.8381 51.1183 28.5739 51.0505 28.1097C51.0189 27.8918 50.9226 27.6828 50.8594 27.4694C50.8248 27.35 50.7284 27.2111 50.8624 27.1111C50.9828 27.0216 51.1138 27.1141 51.2312 27.1649C51.3516 27.2171 51.4675 27.2768 51.5834 27.3395C54.3109 28.8068 56.2632 30.9592 57.3906 33.8311C57.7459 34.7341 57.9927 35.6685 58.0921 36.6373C58.1553 37.2627 58.1734 37.2791 58.7981 37.4552C60.4508 37.9224 61.4834 39.5121 61.1944 41.1929C60.4854 45.3156 59.7539 49.4338 59.0479 53.555C58.7529 55.2776 58.4172 56.9926 58.1749 58.7226C57.931 60.466 56.5251 61.6393 54.6842 61.6408C47.6893 61.6452 40.6944 61.6437 33.698 61.6437C30.5475 61.6437 27.3971 61.6497 24.2466 61.6408C22.94 61.6378 21.9465 61.0571 21.2707 59.9496C21.0238 59.5451 20.9004 59.0958 20.8327 58.6331C20.497 56.315 20.0529 54.0148 19.6556 51.7056C19.0489 48.1695 18.4213 44.6364 17.8116 41.1018C17.5377 39.5062 18.6064 37.8836 20.2592 37.4567C20.8884 37.294 20.8718 37.1478 20.9365 36.6313C21.218 34.3431 22.1076 32.3011 23.5647 30.5039C24.7975 28.9844 26.3133 27.8291 28.1075 27.0305C28.1933 26.9932 28.2806 26.9589 28.3694 26.9305C28.4026 26.9201 28.4417 26.932 28.5982 26.9395H28.5967ZM39.4947 38.315C33.418 38.315 27.3429 38.3344 21.2662 38.3031C19.9054 38.2956 18.5296 39.4763 18.8352 41.157C19.4298 44.4304 19.9912 47.7113 20.5542 50.9907C20.9907 53.5371 21.4799 56.0746 21.8547 58.6316C22.0323 59.8466 23.2034 60.6899 24.1487 60.6287C24.3354 60.6168 24.5235 60.6287 24.7117 60.6287C34.5952 60.6287 44.4771 60.6287 54.3606 60.6287C54.5849 60.6287 54.8106 60.6332 55.0349 60.6198C56.1007 60.5586 56.9857 59.7585 57.1513 58.7107C57.1799 58.5271 57.195 58.342 57.2266 58.1584C58.1237 52.9938 59.0253 47.8292 59.918 42.6646C60.0294 42.0243 60.1769 41.3884 60.213 40.7361C60.2491 40.0913 60.0564 39.539 59.5898 39.0673C59.0389 38.5091 58.3841 38.3075 57.6104 38.309C51.5714 38.318 45.5338 38.315 39.4947 38.315Z" fill="url(#paint0_linear_4_8)"/>
<path d="M52.4625 14.331C52.4625 14.6654 52.455 15.0012 52.464 15.3356C52.5031 16.6715 51.8137 17.5581 50.6547 18.1C50.2001 18.3119 49.8223 18.5522 49.5062 18.9433C49.0952 19.4523 48.5804 19.8673 48.0205 20.2121C47.7029 20.4076 47.5087 20.6688 47.3537 21.0062C46.5213 22.8287 45.3908 24.4318 43.7606 25.6468C42.4782 26.6021 41.0286 27.1559 39.4225 27.1231C37.8028 27.0887 36.3533 26.5051 35.0723 25.5065C33.4196 24.2169 32.3237 22.5287 31.5064 20.6405C31.2701 20.0941 31.0518 19.5404 30.8907 18.9642C30.7583 18.4866 30.7011 18.4507 30.1712 18.4522C29.7182 18.4522 29.2741 18.4149 28.8361 18.2955C27.391 17.8999 26.4668 16.6028 26.5346 15.2923C26.5692 14.6251 26.5466 13.9534 26.5391 13.2846C26.5225 11.9532 27.1442 11.0039 28.3318 10.4367C28.6976 10.262 28.803 10.0426 28.824 9.66645C28.9716 7.07221 29.9259 4.81382 31.8345 3.01367C33.8576 1.10307 36.2765 0.0955283 39.0853 0.00596887C41.5103 -0.0716493 43.7411 0.513472 45.728 1.88672C48.1529 3.56297 49.6552 5.83778 50.0496 8.77682C50.0887 9.07088 50.1037 9.3709 50.0902 9.66645C50.0736 10.0336 50.2121 10.2396 50.5644 10.3829C51.2794 10.674 51.8363 11.1591 52.178 11.8636C52.3676 12.2562 52.4715 12.6637 52.4625 13.1025C52.4549 13.5115 52.461 13.9205 52.4625 14.3295V14.331ZM45.6843 21.4465C45.4525 21.4077 45.2869 21.5092 45.1138 21.5614C44.1595 21.842 43.1901 22.057 42.1967 22.1316C41.8535 22.157 41.5298 22.2018 41.2303 22.3824C40.9849 22.5302 40.711 22.5854 40.422 22.5839C39.859 22.5794 39.2961 22.5958 38.7346 22.5794C37.8676 22.554 37.2309 21.9316 37.2474 21.1509C37.264 20.3852 37.8841 19.8016 38.7256 19.7747C39.1561 19.7613 39.5881 19.7762 40.0186 19.7687C40.4717 19.7613 40.9202 19.7643 41.3251 20.0106C41.4395 20.0807 41.5735 20.0897 41.7075 20.0762C43.3075 19.9165 44.8399 19.5314 46.2834 18.8105C46.8464 18.5298 47.2046 18.1388 47.2739 17.5014C47.304 17.2253 47.3898 16.9566 47.4425 16.6819C47.4876 16.4446 47.5283 16.2058 47.5584 15.967C47.6156 15.4983 47.5057 15.4132 47.0797 15.5893C46.9412 15.6475 46.8118 15.7222 46.6733 15.7789C46.4912 15.8535 46.3798 15.7923 46.3737 15.5908C46.3707 15.4983 46.3843 15.4057 46.3948 15.3132C46.5273 14.1862 46.592 13.0563 46.4535 11.9263C46.3707 11.2591 46.2428 10.6038 45.7581 10.0784C45.5263 9.82765 45.296 9.75899 44.9618 9.89333C44.3898 10.1232 43.8043 10.3292 43.2142 10.5098C41.6593 10.9845 40.0698 11.2367 38.4441 11.0561C36.9268 10.8874 35.4652 10.4889 34.0563 9.8993C33.6619 9.73511 33.555 9.76048 33.269 10.0695C32.9138 10.4531 32.7422 10.9233 32.6549 11.4248C32.4427 12.6428 32.4863 13.8668 32.6007 15.0908C32.6218 15.3236 32.7512 15.6087 32.5345 15.7699C32.3554 15.9028 32.1612 15.6729 31.973 15.6087C31.955 15.6027 31.9384 15.5938 31.9218 15.5863C31.4959 15.4102 31.4296 15.4594 31.4808 15.9147C31.6599 17.5178 32.0919 19.0538 32.7889 20.5076C33.5144 22.0212 34.4702 23.369 35.8611 24.3587C37.7622 25.711 39.8048 26.0051 41.9724 25.0632C43.1691 24.5438 44.0843 23.6646 44.8956 22.6735C45.1981 22.3033 45.4902 21.9212 45.6828 21.4495L45.6843 21.4465ZM47.5268 8.24693C47.1474 5.39894 43.857 2.07628 39.3773 2.12853C34.9655 2.17928 31.669 5.53477 31.3514 8.50814C33.2013 5.50492 35.8069 3.71671 39.3232 3.65253C42.85 3.58835 45.5609 5.23773 47.5268 8.24842V8.24693Z" fill="url(#paint1_linear_4_8)"/>
<path d="M67.0529 80.6677C67.0529 78.9944 67.0529 77.3211 67.0529 75.6494C67.0529 75.5001 67.0574 75.3523 67.0589 75.2031C67.0589 74.9254 67.2109 74.8 67.4803 74.7956C67.6113 74.7941 67.7423 74.7896 67.8747 74.7896C71.3248 74.7896 74.7748 74.7896 78.2248 74.7896C78.3001 74.7896 78.3753 74.7881 78.4491 74.7911C78.9248 74.812 78.991 74.8702 78.9985 75.3583C79.0316 77.4017 78.2775 79.0884 76.6684 80.3841C76.6097 80.4303 76.5495 80.4751 76.4878 80.5154C76.2635 80.6587 76.283 80.7901 76.4923 80.9378C77.1094 81.3737 77.6212 81.9096 78.0336 82.5439C78.7381 83.6276 79.0121 84.8262 78.9985 86.098C78.994 86.5562 78.9248 86.6159 78.4777 86.6323C78.1962 86.6428 77.9147 86.6458 77.6348 86.6293C77.2795 86.6084 77.2118 86.5428 77.1922 86.192C77.1726 85.8576 77.1651 85.5263 77.1124 85.1934C76.7813 83.147 75.1902 81.6991 73.119 81.6289C71.8832 81.5871 70.6444 81.614 69.4071 81.6215C68.948 81.6245 68.8847 81.6857 68.8817 82.1424C68.8727 83.3142 68.8772 84.4844 68.8772 85.6561C68.8772 85.8233 68.8832 85.992 68.8727 86.1577C68.8456 86.5473 68.7884 86.6129 68.4046 86.6308C68.087 86.6443 67.7679 86.6323 67.4487 86.6279C67.1989 86.6234 67.0724 86.492 67.0664 86.2457C67.0619 86.0786 67.0589 85.9114 67.0589 85.7442C67.0589 84.053 67.0589 82.3603 67.0589 80.6692L67.0529 80.6677ZM72.9866 76.5957C71.826 76.5957 70.6655 76.5927 69.5049 76.5972C68.9299 76.6002 68.8817 76.6435 68.8757 77.1853C68.8682 77.8719 68.8667 78.5586 68.8757 79.2452C68.8817 79.7378 68.9419 79.8049 69.4206 79.8064C70.7121 79.8139 72.0051 79.8363 73.2951 79.796C74.8847 79.7467 76.4005 78.5944 76.9047 77.1196C77.0537 76.6838 76.9995 76.5987 76.5224 76.5957C75.3438 76.5897 74.1637 76.5942 72.985 76.5942L72.9866 76.5957Z" fill="url(#paint2_linear_4_8)"/>
<path d="M7.54837e-07 80.6557C7.54837e-07 79.0392 7.54837e-07 77.4226 7.54837e-07 75.8061C7.54837e-07 75.6568 -0.00451499 75.5091 0.00301125 75.3598C0.0270952 74.8821 0.097842 74.7926 0.562964 74.7911C2.47463 74.7836 4.38931 74.7374 6.29796 74.803C9.21815 74.9045 11.6055 77.1823 11.9442 80.0647C12.3671 83.6739 9.40781 86.6577 6.05562 86.6368C4.31254 86.6264 2.56946 86.6368 0.826382 86.6353C0.00903221 86.6353 7.54837e-07 86.6279 7.54837e-07 85.8397C-0.00150449 84.1112 7.54837e-07 82.3828 7.54837e-07 80.6543V80.6557ZM4.37275 84.8262C4.97184 84.8262 5.57243 84.8486 6.17152 84.8203C7.743 84.7471 8.95473 84.0097 9.66671 82.6455C11.0515 79.9915 9.35663 76.7569 6.11733 76.6077C4.9026 76.5509 3.68184 76.5912 2.46409 76.5987C1.96887 76.6017 1.90414 76.6599 1.90264 77.1435C1.89661 79.5213 1.89661 81.8991 1.90264 84.2754C1.90264 84.7561 1.97338 84.8158 2.46259 84.8232C3.09931 84.8322 3.73603 84.8262 4.37275 84.8262Z" fill="url(#paint3_linear_4_8)"/>
<path d="M25.1121 80.7468C25.1738 83.8261 22.5396 86.6562 19.1287 86.6413C16.061 86.6278 13.1634 84.1769 13.1799 80.7468C13.198 77.1599 16.0429 74.7911 19.1859 74.7955C22.5065 74.8 25.2009 77.5495 25.1121 80.7468ZM23.2877 80.699C23.2832 78.4182 21.4423 76.5793 19.1392 76.6017C16.9641 76.6226 14.9893 78.2869 15.0148 80.7363C15.0404 83.2455 17.0319 84.8322 19.1769 84.8262C21.4769 84.8187 23.2907 83.0007 23.2862 80.699H23.2877Z" fill="url(#paint4_linear_4_8)"/>
<path d="M65.3986 80.7497C65.394 84.0411 62.7433 86.6353 59.4016 86.6368C56.2165 86.6383 53.486 84.059 53.4559 80.7274C53.4273 77.4958 56.1714 74.7821 59.4468 74.794C62.7388 74.8075 65.4603 77.5241 65.3986 80.7483V80.7497ZM59.4829 84.8292C61.7544 84.8217 63.5787 82.9992 63.5772 80.7378C63.5772 78.4317 61.7077 76.5808 59.3956 76.5972C57.1513 76.6136 55.2411 78.5227 55.2818 80.7677C55.3239 83.0678 57.201 84.868 59.4829 84.8292Z" fill="url(#paint5_linear_4_8)"/>
<path d="M34.7983 86.6353C33.9358 86.6353 33.0733 86.6413 32.2108 86.6353C29.8656 86.6174 27.6875 85.1561 26.7949 83.0067C25.8677 80.7722 26.3494 78.3003 28.0262 76.6032C29.2199 75.3956 30.674 74.809 32.3629 74.7926C34.0879 74.7762 35.8144 74.7881 37.5394 74.7896C37.6523 74.7896 37.7637 74.7941 37.8766 74.797C38.1234 74.806 38.2604 74.9284 38.2619 75.1777C38.2649 75.9957 38.2634 76.8136 38.2619 77.6316C38.2619 77.8809 38.128 78.0122 37.8811 78.0167C37.5439 78.0242 37.2067 78.0227 36.8681 78.0212C36.5956 78.0212 36.4511 77.8854 36.4511 77.6092C36.4511 77.442 36.4511 77.2749 36.4451 77.1077C36.4255 76.6554 36.3804 76.6017 35.9077 76.5987C34.6508 76.5912 33.3939 76.5658 32.1386 76.6061C29.9153 76.6793 28.109 78.5899 28.1451 80.7796C28.1813 83.0141 29.9891 84.8008 32.2545 84.8247C33.4542 84.8382 34.6553 84.8322 35.855 84.8247C36.3909 84.8217 36.427 84.777 36.4451 84.253C36.4481 84.1605 36.4436 84.0665 36.4496 83.9739C36.4767 83.5545 36.5324 83.4903 36.9493 83.4754C37.267 83.4634 37.5861 83.4754 37.9052 83.4813C38.1295 83.4873 38.2544 83.6127 38.2559 83.8321C38.2604 84.6501 38.2604 85.4681 38.2559 86.286C38.2544 86.5114 38.1099 86.6159 37.8916 86.6234C37.7411 86.6293 37.5921 86.6323 37.4416 86.6323C36.5595 86.6323 35.6789 86.6323 34.7968 86.6323L34.7983 86.6353Z" fill="url(#paint6_linear_4_8)"/>
<path d="M39.5037 63.5499C34.1797 63.5499 28.8556 63.5499 23.5315 63.5499C23.3253 63.5499 23.1191 63.5573 22.9129 63.5424C22.4568 63.5111 22.1738 63.2514 22.1663 62.8692C22.1572 62.4677 22.4523 62.1946 22.9385 62.1617C23.0499 62.1543 23.1628 62.1572 23.2756 62.1572C34.0924 62.1572 44.9091 62.1572 55.7273 62.1602C55.8959 62.1602 56.0675 62.1543 56.2316 62.1796C56.6079 62.2378 56.8427 62.514 56.8367 62.8662C56.8307 63.217 56.5898 63.4812 56.206 63.5305C56.0028 63.5559 55.7951 63.5469 55.5888 63.5469C50.2271 63.5469 44.8654 63.5469 39.5037 63.5469V63.5499Z" fill="url(#paint7_linear_4_8)"/>
<path d="M45.9101 74.7881C47.5794 74.7881 49.2472 74.7881 50.9165 74.7881C51.0671 74.7881 51.2176 74.7836 51.3666 74.7941C51.7655 74.8224 51.8588 74.8985 51.8664 75.3075C51.8965 76.833 51.9311 76.5793 50.6983 76.5927C49.6672 76.6046 48.6361 76.5927 47.605 76.5957C46.8162 76.5957 46.8117 76.6002 46.8102 77.3614C46.8087 80.1497 46.8102 82.938 46.8102 85.7263C46.8102 86.3343 46.4976 86.6378 45.8724 86.6368C45.2834 86.6368 44.9889 86.3348 44.9889 85.7307C44.9889 82.9977 44.9889 80.2661 44.9889 77.5331C44.9889 77.3838 44.9934 77.236 44.9859 77.0868C44.9648 76.6644 44.9166 76.6017 44.4876 76.5987C43.2684 76.5897 42.0506 76.5957 40.8314 76.5942C40.2263 76.5942 39.9237 76.2996 39.9237 75.7105C39.9237 75.0956 40.2318 74.7876 40.8479 74.7866C42.5353 74.7866 44.2227 74.7866 45.9101 74.7866V74.7881Z" fill="url(#paint8_linear_4_8)"/>
<path d="M36.6242 92.9911C36.2494 92.9911 35.8761 92.994 35.5013 92.9911C35.2966 92.9881 35.128 92.9254 35.1159 92.6821C35.1024 92.4074 35.28 92.3268 35.5103 92.3238C36.147 92.3164 36.7822 92.3209 37.419 92.3134C37.6056 92.3119 37.7938 92.3029 37.9759 92.2671C38.137 92.2358 38.2273 92.1119 38.2348 91.9447C38.2438 91.7536 38.152 91.6163 37.9654 91.573C37.8209 91.5402 37.6688 91.5327 37.5198 91.5312C37.145 91.5253 36.7717 91.5268 36.3969 91.5282C36.1124 91.5282 35.8369 91.4835 35.5765 91.3715C35.2093 91.2148 35.0377 90.9207 35.0226 90.5386C35.0091 90.1759 35.2665 89.8102 35.6202 89.6759C35.8671 89.5818 36.1275 89.54 36.3894 89.537C36.9689 89.5311 37.5499 89.5311 38.1294 89.537C38.2574 89.537 38.3914 89.5609 38.5133 89.5997C38.6578 89.646 38.6969 89.7759 38.6894 89.9147C38.6819 90.0595 38.6096 90.1669 38.4576 90.1864C38.3101 90.2058 38.1595 90.2102 38.0105 90.2102C37.5243 90.2132 37.0366 90.2102 36.5504 90.2132C36.4014 90.2132 36.2494 90.2192 36.1034 90.2461C35.9468 90.2744 35.8219 90.364 35.8234 90.5431C35.8249 90.7237 35.9528 90.8058 36.1139 90.8237C36.281 90.8431 36.4496 90.8416 36.6182 90.8446C37.0487 90.8521 37.4837 90.8192 37.9082 90.87C38.7737 90.976 39.1861 91.8447 38.715 92.5209C38.4952 92.8358 38.1686 92.9702 37.7998 92.9851C37.4069 93.0015 37.014 92.9896 36.6212 92.9896L36.6242 92.9911Z" fill="url(#paint9_linear_4_8)"/>
<path d="M29.8491 91.6626C29.9575 91.2043 29.8883 90.7774 29.9093 90.3565C29.9184 90.1714 29.9154 89.9848 29.9334 89.7997C29.9485 89.649 30.0553 89.5729 30.2013 89.5624C30.3654 89.549 30.5054 89.6042 30.5506 89.7759C30.5822 89.8998 30.5927 90.0326 30.5942 90.161C30.5972 90.867 30.5957 91.5745 30.5942 92.2805C30.5942 92.3179 30.5942 92.3552 30.5912 92.3925C30.5656 92.6104 30.5912 92.8701 30.3248 92.9567C30.0945 93.0299 29.9424 92.8478 29.7979 92.7045C29.3057 92.2208 28.818 91.7312 28.3243 91.2461C28.1949 91.1193 28.0835 90.967 27.8727 90.8834C27.7538 91.1297 27.811 91.3715 27.802 91.6029C27.7884 91.9745 27.7945 92.3462 27.7749 92.7164C27.7659 92.8881 27.6439 92.9731 27.4678 92.9761C27.2947 92.9791 27.1803 92.9075 27.1397 92.7373C27.1261 92.6836 27.1186 92.6268 27.1186 92.5716C27.1186 91.7342 27.1156 90.8983 27.1201 90.061C27.1201 89.8908 27.1502 89.7132 27.3323 89.637C27.5416 89.5505 27.6921 89.6863 27.8261 89.8177C28.3198 90.3013 28.806 90.7924 29.3027 91.273C29.4457 91.4118 29.5571 91.5984 29.8491 91.6611V91.6626Z" fill="url(#paint10_linear_4_8)"/>
<path d="M60.0263 91.7313C60.1527 91.1491 60.0835 90.7043 60.1076 90.2655C60.1166 90.0998 60.1196 89.9296 60.1573 89.7684C60.1979 89.5968 60.3454 89.549 60.5095 89.5654C60.657 89.5803 60.7518 89.6624 60.7699 89.8117C60.7834 89.9222 60.7895 90.0341 60.7895 90.1446C60.791 90.8879 60.7895 91.6327 60.7895 92.3761C60.7895 92.4507 60.791 92.5254 60.7819 92.5985C60.7338 92.9791 60.5411 93.0672 60.2039 92.8582C60.0263 92.7478 59.8999 92.5851 59.7584 92.4358C59.2917 91.9522 58.8176 91.476 58.3449 90.9984C58.2938 90.9461 58.2366 90.8939 58.0695 90.9476C58.0695 91.3372 58.0725 91.7566 58.0695 92.1761C58.068 92.3612 58.0665 92.5492 58.0394 92.7313C58.0153 92.903 57.8889 92.9776 57.7157 92.9717C57.5411 92.9672 57.4328 92.8821 57.4087 92.7104C57.3936 92.6 57.3876 92.488 57.3876 92.3776C57.3861 91.6716 57.3861 90.964 57.3876 90.258C57.3876 90.1461 57.3861 90.0326 57.4087 89.9251C57.4764 89.6132 57.6796 89.5221 57.9415 89.6983C58.0951 89.8013 58.223 89.9416 58.357 90.0729C58.8868 90.5939 59.4137 91.1193 60.0293 91.7283L60.0263 91.7313Z" fill="url(#paint11_linear_4_8)"/>
<path d="M51.8919 31.4518C51.8844 32.1951 51.2191 32.8474 50.4845 32.8325C49.6973 32.8161 49.0425 32.1518 49.0651 31.3936C49.0877 30.6353 49.7214 30.0308 50.4891 30.0338C51.3199 30.0382 51.8995 30.6249 51.8904 31.4503L51.8919 31.4518Z" fill="url(#paint12_linear_4_8)"/>
<path d="M4.17855 92.994C3.80676 93.0015 3.74353 92.903 3.94223 92.5701C4.45552 91.7074 4.97031 90.8446 5.50468 89.9938C5.84938 89.4445 6.24977 89.434 6.57792 89.9654C7.09422 90.8043 7.58644 91.6581 8.08919 92.5074C8.12682 92.5716 8.16144 92.6388 8.18854 92.7074C8.26681 92.906 8.16897 92.9791 7.98081 92.9925C7.7204 93.0105 7.49763 92.9552 7.35613 92.7134C7.30044 92.6179 7.23571 92.5253 7.18152 92.4283C7.05057 92.1925 6.85037 92.0895 6.58243 92.0925C6.32052 92.0954 6.05861 92.0925 5.79669 92.0835C5.68681 92.0805 5.56037 92.0835 5.50016 91.9701C5.4249 91.8313 5.52575 91.7238 5.59349 91.6163C5.70638 91.4327 5.89153 91.4163 6.0842 91.4058C6.20763 91.3999 6.4003 91.4357 6.40783 91.2715C6.41686 91.0655 6.28891 90.8655 6.1128 90.7625C5.92916 90.655 5.85841 90.8625 5.78616 90.9775C5.45049 91.5133 5.12836 92.0581 4.7942 92.594C4.57443 92.9463 4.49616 92.9896 4.18156 92.997L4.17855 92.994Z" fill="url(#paint13_linear_4_8)"/>
<path d="M52.6702 92.991C52.4143 93.0179 52.2306 92.8567 52.1283 92.6253C51.9206 92.1581 51.5578 92.0327 51.0821 92.085C50.897 92.1059 50.7073 92.0969 50.5222 92.076C50.2663 92.0462 50.2211 91.9178 50.3536 91.6924C50.4981 91.4476 50.7284 91.4118 50.9798 91.4028C51.0897 91.3984 51.2297 91.3879 51.2191 91.2342C51.2056 91.0401 51.0927 90.8819 50.9391 90.77C50.8142 90.6789 50.7269 90.7923 50.6697 90.8834C50.3024 91.4655 49.9382 92.0492 49.5799 92.6373C49.4565 92.8388 49.318 92.988 49.0546 92.9925C48.6963 92.9985 48.6 92.8791 48.7716 92.5656C48.9944 92.1581 49.2427 91.7641 49.4866 91.3685C49.7696 90.9088 50.042 90.4431 50.3476 89.9983C50.7329 89.44 51.0596 89.4355 51.4103 89.9983C51.9416 90.8506 52.4489 91.7178 52.9517 92.5865C53.1187 92.8746 53.0329 92.994 52.6687 92.991H52.6702Z" fill="url(#paint14_linear_4_8)"/>
<path d="M72.3408 91.2476C72.3408 90.8207 72.3423 90.3938 72.3408 89.9669C72.3393 89.6953 72.4717 89.546 72.7457 89.543C73.4562 89.5386 74.1681 89.5371 74.8786 89.5475C75.1044 89.5505 75.288 89.643 75.2745 89.9117C75.2625 90.1595 75.0788 90.2028 74.8786 90.2058C74.3924 90.2117 73.9047 90.2028 73.4185 90.2162C73.0211 90.2282 72.9654 90.2834 72.9519 90.676C72.9384 91.0655 72.9384 91.4551 72.9519 91.8447C72.967 92.2328 73.0287 92.2955 73.4185 92.3119C73.7738 92.3268 74.1305 92.3164 74.4857 92.3179C74.6167 92.3179 74.7477 92.3179 74.8786 92.3253C75.1059 92.3358 75.2896 92.403 75.2775 92.6791C75.267 92.9224 75.0999 92.9836 74.8952 92.9896C74.7266 92.9955 74.558 92.997 74.3894 92.997C73.8656 92.997 73.3403 93.006 72.8164 92.9896C72.4236 92.9776 72.3573 92.9105 72.3423 92.5268C72.3257 92.0999 72.3393 91.673 72.3393 91.2461L72.3408 91.2476Z" fill="url(#paint15_linear_4_8)"/>
<path d="M44.5704 89.5326C44.9076 89.5326 45.2448 89.5311 45.5805 89.5326C45.6919 89.5326 45.8047 89.5385 45.9161 89.5549C46.1088 89.5818 46.2202 89.6923 46.2172 89.8908C46.2157 90.0953 46.0953 90.1923 45.8996 90.2013C45.7129 90.2102 45.5248 90.2013 45.3381 90.2162C44.9829 90.2416 44.9197 90.2953 44.9091 90.658C44.8926 91.1581 44.9031 91.6596 44.9016 92.1611C44.9016 92.3089 44.9016 92.4582 44.8926 92.6059C44.8805 92.8089 44.8143 92.9716 44.5689 92.9761C44.3296 92.9806 44.2363 92.8403 44.2257 92.6268C44.2182 92.4597 44.2167 92.2925 44.2167 92.1268C44.2137 91.6253 44.2122 91.1252 44.2137 90.6237C44.2137 90.349 44.0858 90.2117 43.8058 90.2147C43.6191 90.2147 43.431 90.2102 43.2443 90.2043C43.0562 90.1983 42.9117 90.1311 42.8966 89.9206C42.8801 89.6923 43.011 89.5609 43.2263 89.5535C43.6748 89.5385 44.1234 89.549 44.5719 89.549C44.5719 89.543 44.5719 89.537 44.5719 89.5311L44.5704 89.5326Z" fill="url(#paint16_linear_4_8)"/>
<path d="M66.7397 89.5341C67.095 89.5341 67.4502 89.5296 67.8055 89.5355C67.9349 89.5385 68.0674 89.552 68.1923 89.5833C68.3639 89.6281 68.4196 89.7624 68.4061 89.9266C68.394 90.0744 68.3127 90.1729 68.1637 90.1863C67.9786 90.2043 67.7904 90.2028 67.6038 90.2117C67.1462 90.2326 67.0995 90.2729 67.0905 90.7401C67.0799 91.2402 67.0875 91.7402 67.0875 92.2417C67.0875 92.3716 67.0844 92.5015 67.0784 92.6313C67.0664 92.8463 66.9685 92.9806 66.7307 92.9746C66.517 92.9701 66.4342 92.8343 66.4206 92.6522C66.4056 92.4492 66.4071 92.2447 66.4056 92.0417C66.4026 91.579 66.4146 91.1148 66.3965 90.6521C66.383 90.2998 66.3122 90.2416 65.957 90.2162C65.7899 90.2043 65.6213 90.2087 65.4527 90.2057C65.239 90.2013 65.087 90.1236 65.087 89.8833C65.087 89.649 65.2405 89.552 65.4497 89.5475C65.8787 89.5385 66.3092 89.5445 66.7382 89.5445C66.7382 89.5415 66.7382 89.537 66.7382 89.5341H66.7397Z" fill="url(#paint17_linear_4_8)"/>
<path d="M12.1474 91.2834C12.1474 90.8565 12.1444 90.4297 12.1474 90.0013C12.1504 89.7848 12.1925 89.5833 12.4695 89.5654C12.7028 89.5505 12.8022 89.6788 12.8263 90.0221C12.8338 90.1326 12.8308 90.2446 12.8308 90.3565C12.8308 90.7282 12.8308 91.0999 12.8308 91.4715C12.8308 91.5641 12.8293 91.6581 12.8308 91.7506C12.8473 92.2432 12.8955 92.297 13.3787 92.3104C13.7535 92.3208 14.1283 92.3104 14.5031 92.3164C14.6521 92.3193 14.8042 92.3283 14.9472 92.3656C15.1188 92.4104 15.1669 92.5552 15.1519 92.7164C15.1383 92.8642 15.054 92.9567 14.9035 92.9746C14.7741 92.9896 14.6416 92.994 14.5106 92.9955C13.9492 92.997 13.3862 93 12.8248 92.9955C12.185 92.991 12.1474 92.9537 12.1384 92.3417C12.1338 91.9895 12.1384 91.6357 12.1384 91.2834H12.1429H12.1474Z" fill="url(#paint18_linear_4_8)"/>
<path d="M23.1944 91.2715C23.1944 91.6984 23.1974 92.1238 23.1944 92.5507C23.1914 92.7671 23.1522 92.9672 22.8692 92.9761C22.5878 92.9851 22.5215 92.794 22.5215 92.5746C22.517 91.7029 22.517 90.8327 22.523 89.961C22.5245 89.7356 22.6118 89.5535 22.8813 89.5609C23.1658 89.5684 23.1944 89.7774 23.1959 89.9923C23.1989 90.4192 23.1959 90.8446 23.1959 91.2715H23.1944Z" fill="url(#paint19_linear_4_8)"/>
<path d="M74.1501 91.6402C73.9273 91.6298 73.7045 91.6312 73.4832 91.6074C73.268 91.585 73.1461 91.4611 73.1671 91.2342C73.1867 91.0222 73.3402 90.9655 73.5209 90.9625C73.9484 90.9581 74.3744 90.9596 74.8018 90.9625C74.99 90.964 75.1315 91.0402 75.145 91.2461C75.1601 91.4715 75.0306 91.5939 74.8169 91.6104C74.5956 91.6268 74.3713 91.6133 74.1501 91.6133C74.1501 91.6223 74.1501 91.6298 74.1501 91.6387V91.6402Z" fill="url(#paint20_linear_4_8)"/>
<path d="M40.9759 49.4965C40.9789 50.31 40.3346 50.9399 39.5083 50.9325C38.6789 50.9235 38.0376 50.3011 38.0271 49.4935C38.0166 48.6756 38.6924 48.0113 39.5339 48.0128C40.3301 48.0143 40.9729 48.6771 40.9759 49.4965Z" fill="url(#paint21_linear_4_8)"/>
</g>
<defs>
<linearGradient id="paint0_linear_4_8" x1="39.5023" y1="26.0349" x2="39.5023" y2="61.6452" gradientUnits="userSpaceOnUse">
<stop stop-color="#272765"/>
</linearGradient>
<linearGradient id="paint1_linear_4_8" x1="39.4993" y1="-1.76126e-06" x2="39.4993" y2="27.1231" gradientUnits="userSpaceOnUse">
<stop stop-color="#272765"/>
</linearGradient>
<linearGradient id="paint2_linear_4_8" x1="73.0257" y1="74.7896" x2="73.0257" y2="86.6398" gradientUnits="userSpaceOnUse">
<stop stop-color="#272765"/>
</linearGradient>
<linearGradient id="paint3_linear_4_8" x1="5.9939" y1="74.7687" x2="5.9939" y2="86.6383" gradientUnits="userSpaceOnUse">
<stop stop-color="#272765"/>
</linearGradient>
<linearGradient id="paint4_linear_4_8" x1="19.1467" y1="74.7955" x2="19.1467" y2="86.6413" gradientUnits="userSpaceOnUse">
<stop stop-color="#272765"/>
</linearGradient>
<linearGradient id="paint5_linear_4_8" x1="59.4272" y1="74.794" x2="59.4272" y2="86.6368" gradientUnits="userSpaceOnUse">
<stop stop-color="#272765"/>
</linearGradient>
<linearGradient id="paint6_linear_4_8" x1="32.2981" y1="74.7836" x2="32.2981" y2="86.6368" gradientUnits="userSpaceOnUse">
<stop stop-color="#272765"/>
</linearGradient>
<linearGradient id="paint7_linear_4_8" x1="39.5007" y1="62.1572" x2="39.5007" y2="63.5514" gradientUnits="userSpaceOnUse">
<stop stop-color="#272765"/>
</linearGradient>
<linearGradient id="paint8_linear_4_8" x1="45.8995" y1="74.7881" x2="45.8995" y2="86.6368" gradientUnits="userSpaceOnUse">
<stop stop-color="#272765"/>
</linearGradient>
<linearGradient id="paint9_linear_4_8" x1="36.9689" y1="89.5326" x2="36.9689" y2="92.9955" gradientUnits="userSpaceOnUse">
<stop stop-color="#272765"/>
</linearGradient>
<linearGradient id="paint10_linear_4_8" x1="28.8572" y1="89.5609" x2="28.8572" y2="92.9776" gradientUnits="userSpaceOnUse">
<stop stop-color="#272765"/>
</linearGradient>
<linearGradient id="paint11_linear_4_8" x1="59.087" y1="89.5624" x2="59.087" y2="92.9761" gradientUnits="userSpaceOnUse">
<stop stop-color="#272765"/>
</linearGradient>
<linearGradient id="paint12_linear_4_8" x1="50.4785" y1="30.0338" x2="50.4785" y2="32.8325" gradientUnits="userSpaceOnUse">
<stop stop-color="#272765"/>
</linearGradient>
<linearGradient id="paint13_linear_4_8" x1="6.02248" y1="89.5743" x2="6.02248" y2="92.994" gradientUnits="userSpaceOnUse">
<stop stop-color="#272765"/>
</linearGradient>
<linearGradient id="paint14_linear_4_8" x1="50.8624" y1="89.5773" x2="50.8624" y2="92.994" gradientUnits="userSpaceOnUse">
<stop stop-color="#272765"/>
</linearGradient>
<linearGradient id="paint15_linear_4_8" x1="73.8069" y1="89.54" x2="73.8069" y2="92.9985" gradientUnits="userSpaceOnUse">
<stop stop-color="#272765"/>
</linearGradient>
<linearGradient id="paint16_linear_4_8" x1="44.5554" y1="89.5311" x2="44.5554" y2="92.9761" gradientUnits="userSpaceOnUse">
<stop stop-color="#272765"/>
</linearGradient>
<linearGradient id="paint17_linear_4_8" x1="66.7473" y1="89.5326" x2="66.7473" y2="92.9761" gradientUnits="userSpaceOnUse">
<stop stop-color="#272765"/>
</linearGradient>
<linearGradient id="paint18_linear_4_8" x1="13.6496" y1="89.5654" x2="13.6496" y2="93" gradientUnits="userSpaceOnUse">
<stop stop-color="#272765"/>
</linearGradient>
<linearGradient id="paint19_linear_4_8" x1="22.8557" y1="89.5609" x2="22.8557" y2="92.9776" gradientUnits="userSpaceOnUse">
<stop stop-color="#272765"/>
</linearGradient>
<linearGradient id="paint20_linear_4_8" x1="74.1561" y1="90.9611" x2="74.1561" y2="91.6402" gradientUnits="userSpaceOnUse">
<stop stop-color="#272765"/>
</linearGradient>
<linearGradient id="paint21_linear_4_8" x1="39.5022" y1="48.0128" x2="39.5022" y2="50.9325" gradientUnits="userSpaceOnUse">
<stop stop-color="#272765"/>
</linearGradient>
<clipPath id="clip0_4_8">
<rect width="79" height="93" fill="white"/>
</clipPath>
</defs>
</svg>
