<svg width="145" height="33" viewBox="0 0 145 33" fill="none" xmlns="http://www.w3.org/2000/svg">
<g clip-path="url(#clip0_111_271)">
<path d="M123.072 10.4467C123.072 7.38667 123.072 4.32662 123.072 1.26931C123.072 0.996333 123.08 0.72609 123.083 0.453116C123.083 -0.0546175 123.362 -0.283919 123.856 -0.292109C124.097 -0.294838 124.337 -0.30303 124.58 -0.30303C130.912 -0.30303 137.245 -0.30303 143.577 -0.30303C143.715 -0.30303 143.853 -0.305757 143.989 -0.300297C144.862 -0.262081 144.983 -0.155624 144.997 0.737003C145.058 4.47403 143.674 7.55865 140.72 9.92808C140.613 10.0127 140.502 10.0946 140.389 10.1683C139.977 10.4303 140.013 10.6706 140.397 10.9408C141.53 11.7379 142.469 12.7179 143.226 13.878C144.519 15.8598 145.022 18.0518 144.997 20.3775C144.989 21.2156 144.862 21.3248 144.041 21.3548C143.525 21.3739 143.008 21.3794 142.494 21.3493C141.842 21.3111 141.718 21.191 141.682 20.5495C141.646 19.9381 141.632 19.332 141.535 18.7233C140.928 14.9808 138.007 12.333 134.206 12.2047C131.937 12.1282 129.664 12.1774 127.393 12.191C126.55 12.1965 126.434 12.3084 126.428 13.1437C126.412 15.2866 126.42 17.4267 126.42 19.5695C126.42 19.8753 126.431 20.1837 126.412 20.4867C126.362 21.1992 126.257 21.3193 125.553 21.3521C124.97 21.3766 124.384 21.3548 123.798 21.3466C123.34 21.3384 123.108 21.0982 123.096 20.6478C123.088 20.3421 123.083 20.0363 123.083 19.7306C123.083 16.6378 123.083 13.5423 123.083 10.4494L123.072 10.4467ZM133.963 2.99997C131.832 2.99997 129.702 2.9945 127.572 3.00269C126.517 3.00815 126.428 3.08731 126.417 4.07821C126.404 5.3339 126.401 6.58959 126.417 7.84528C126.428 8.74609 126.539 8.86892 127.418 8.87165C129.788 8.8853 132.161 8.92626 134.529 8.85255C137.446 8.76247 140.229 6.65509 141.154 3.9581C141.428 3.16102 141.328 3.00543 140.452 2.99997C138.289 2.98906 136.123 2.99724 133.96 2.99724L133.963 2.99997Z" fill="url(#paint0_linear_111_271)"/>
<path d="M-3.64718e-05 10.4246C-3.64718e-05 7.46824 -3.64718e-05 4.51192 -3.64718e-05 1.55561C-3.64718e-05 1.28263 -0.00832487 1.01239 0.00548913 0.739413C0.0496939 -0.134106 0.179546 -0.29789 1.03325 -0.30062C4.54201 -0.314269 8.05629 -0.398886 11.5595 -0.278777C16.9193 -0.0931543 21.3011 4.07244 21.9228 9.34358C22.6991 15.9441 17.2675 21.4009 11.1147 21.3627C7.91538 21.3435 4.71606 21.3627 1.51674 21.3599C0.0165403 21.3599 -3.64718e-05 21.3463 -3.64718e-05 19.905C-0.00279927 16.7439 -3.64718e-05 13.5829 -3.64718e-05 10.4218V10.4246ZM8.0259 18.0515C9.12549 18.0515 10.2278 18.0924 11.3274 18.0406C14.2118 17.9068 16.4359 16.5583 17.7427 14.0633C20.2844 9.20982 17.1735 3.29445 11.228 3.02148C8.9984 2.91775 6.75777 2.99145 4.52267 3.0051C3.61371 3.01056 3.4949 3.11703 3.49214 4.00147C3.48109 8.34995 3.48109 12.6984 3.49214 17.0442C3.49214 17.9232 3.62199 18.0324 4.5199 18.046C5.68857 18.0624 6.85723 18.0515 8.0259 18.0515Z" fill="url(#paint1_linear_111_271)"/>
<path d="M46.0918 10.5915C46.205 16.223 41.3701 21.3986 35.1096 21.3713C29.479 21.3467 24.1607 16.8645 24.191 10.5915C24.2242 4.03195 29.4459 -0.30017 35.2146 -0.291981C41.3094 -0.283791 46.2548 4.74441 46.0918 10.5915ZM42.7432 10.5042C42.735 6.33312 39.3561 2.97007 35.129 3.01102C31.1367 3.04923 27.5119 6.0929 27.5589 10.5724C27.6059 15.1611 31.2611 18.0628 35.198 18.0519C39.4196 18.0383 42.7488 14.7134 42.7405 10.5042H42.7432Z" fill="url(#paint2_linear_111_271)"/>
<path d="M120.035 10.5968C120.027 16.6159 115.162 21.3602 109.028 21.363C103.182 21.3657 98.1705 16.6487 98.1152 10.5559C98.0627 4.646 103.099 -0.316688 109.111 -0.29485C115.153 -0.270282 120.149 4.69785 120.035 10.5941V10.5968ZM109.177 18.0572C113.347 18.0436 116.695 14.7106 116.692 10.575C116.692 6.35756 113.261 2.97265 109.017 3.00268C104.898 3.03271 101.392 6.52406 101.466 10.6296C101.544 14.8361 104.989 18.1282 109.177 18.0572Z" fill="url(#paint3_linear_111_271)"/>
<path d="M63.8704 21.3605C62.2873 21.3605 60.7043 21.3714 59.1212 21.3605C54.8167 21.3277 50.819 18.6553 49.1806 14.7245C47.4787 10.6381 48.3628 6.1176 51.4406 3.01388C53.6315 0.805513 56.3003 -0.267279 59.4002 -0.297306C62.5664 -0.327334 65.7353 -0.305501 68.9015 -0.302771C69.1087 -0.302771 69.3131 -0.294577 69.5203 -0.289117C69.9734 -0.272739 70.2249 -0.048903 70.2276 0.406965C70.2331 1.90287 70.2304 3.39878 70.2276 4.89468C70.2276 5.35055 69.9817 5.59075 69.5286 5.59894C68.9098 5.61259 68.2909 5.60987 67.6693 5.60714C67.1692 5.60714 66.904 5.35873 66.904 4.85373C66.904 4.54799 66.904 4.24227 66.8929 3.93653C66.857 3.10942 66.7741 3.01114 65.9066 3.00568C63.5997 2.99203 61.2927 2.94562 58.9885 3.01933C54.9079 3.15308 51.5925 6.64717 51.6588 10.6517C51.7252 14.7381 55.0433 18.0057 59.2013 18.0493C61.4032 18.0739 63.608 18.063 65.8099 18.0493C66.7935 18.0439 66.8598 17.962 66.8929 17.0038C66.8984 16.8346 66.8902 16.6626 66.9012 16.4934C66.9509 15.7263 67.0532 15.6089 67.8185 15.5816C68.4014 15.5598 68.9871 15.5816 69.5728 15.5926C69.9845 15.6035 70.2138 15.8328 70.2166 16.234C70.2249 17.7299 70.2249 19.2258 70.2166 20.7218C70.2138 21.1339 69.9486 21.325 69.548 21.3387C69.2717 21.3496 68.9982 21.3551 68.7219 21.3551C67.1029 21.3551 65.4867 21.3551 63.8677 21.3551L63.8704 21.3605Z" fill="url(#paint4_linear_111_271)"/>
<path d="M84.2654 -0.305861C87.3293 -0.305861 90.3905 -0.305861 93.4544 -0.305861C93.7307 -0.305861 94.007 -0.314057 94.2805 -0.294948C95.0127 -0.243083 95.1839 -0.103865 95.1978 0.644085C95.253 3.43389 95.3166 2.96983 93.0538 2.9944C91.1613 3.01624 89.2688 2.99441 87.3763 2.99987C85.9286 2.99987 85.9203 3.00806 85.9175 4.40023C85.9148 9.4994 85.9175 14.5986 85.9175 19.6977C85.9175 20.8096 85.3438 21.3647 84.1963 21.3629C83.1151 21.3629 82.5745 20.8105 82.5745 19.7059C82.5745 14.7077 82.5745 9.71231 82.5745 4.71414C82.5745 4.44117 82.5828 4.17092 82.569 3.89795C82.5303 3.12543 82.4419 3.01078 81.6545 3.00532C79.4166 2.98894 77.1815 2.99986 74.9437 2.99713C73.833 2.99713 73.2777 2.45846 73.2777 1.38112C73.2777 0.256465 73.8432 -0.306774 74.9741 -0.308594C78.0712 -0.308594 81.1683 -0.308594 84.2654 -0.308594V-0.305861Z" fill="url(#paint5_linear_111_271)"/>
<path d="M67.2216 32.9835C66.5337 32.9835 65.8485 32.989 65.1606 32.9835C64.7848 32.9781 64.4754 32.8634 64.4533 32.4185C64.4284 31.9162 64.7544 31.7688 65.1772 31.7633C66.3458 31.7497 67.5117 31.7579 68.6804 31.7442C69.023 31.7415 69.3683 31.7251 69.7026 31.6596C69.9982 31.6023 70.164 31.3757 70.1778 31.07C70.1944 30.7206 70.0259 30.4694 69.6833 30.3903C69.418 30.3302 69.139 30.3166 68.8655 30.3138C68.1776 30.3029 67.4924 30.3056 66.8044 30.3084C66.2823 30.3084 65.7767 30.2265 65.2987 30.0218C64.6246 29.7351 64.3096 29.1974 64.282 28.4985C64.2571 27.8352 64.7296 27.1664 65.3788 26.9208C65.8319 26.7488 66.3099 26.6723 66.7906 26.6669C67.8543 26.656 68.9207 26.656 69.9844 26.6669C70.2193 26.6669 70.4651 26.7106 70.6889 26.7815C70.9542 26.8662 71.026 27.1036 71.0122 27.3575C70.9984 27.6223 70.8658 27.8188 70.5867 27.8543C70.316 27.8898 70.0397 27.898 69.7662 27.898C68.8738 27.9035 67.9786 27.898 67.0862 27.9035C66.8127 27.9035 66.5337 27.9144 66.2657 27.9635C65.9784 28.0154 65.7491 28.1792 65.7518 28.5067C65.7546 28.837 65.9894 28.9872 66.285 29.0199C66.5917 29.0554 66.9011 29.0527 67.2106 29.0581C68.0007 29.0718 68.7992 29.0117 69.5783 29.1046C71.1669 29.2984 71.9239 30.8871 71.0592 32.1237C70.6558 32.6996 70.0563 32.9453 69.3794 32.9726C68.6583 33.0026 67.9372 32.9808 67.2161 32.9808L67.2216 32.9835Z" fill="url(#paint6_linear_111_271)"/>
<path d="M54.7863 30.5538C54.9852 29.7157 54.8581 28.935 54.8968 28.1652C54.9134 27.8267 54.9079 27.4855 54.941 27.147C54.9686 26.8713 55.1648 26.7321 55.4328 26.713C55.7339 26.6884 55.9909 26.7894 56.0738 27.1034C56.1318 27.3299 56.1511 27.5729 56.1539 27.8076C56.1594 29.0988 56.1566 30.3927 56.1539 31.6839C56.1539 31.7521 56.1539 31.8203 56.1483 31.8886C56.1014 32.2871 56.1484 32.7621 55.6593 32.9204C55.2366 33.0542 54.9576 32.7212 54.6924 32.4591C53.7889 31.5747 52.8938 30.6793 51.9876 29.7921C51.75 29.5601 51.5455 29.2817 51.1587 29.1288C50.9405 29.5792 51.0455 30.0214 51.0289 30.4446C51.004 31.1243 51.0151 31.804 50.9792 32.481C50.9626 32.7949 50.7388 32.9505 50.4155 32.9559C50.0978 32.9614 49.8878 32.8304 49.8133 32.5192C49.7884 32.4209 49.7746 32.3172 49.7746 32.2162C49.7746 30.6848 49.769 29.1561 49.7773 27.6247C49.7773 27.3135 49.8326 26.9887 50.1669 26.8495C50.5509 26.6912 50.8272 26.9396 51.0731 27.1798C51.9793 28.0642 52.8717 28.9623 53.7834 29.8413C54.0459 30.0951 54.2503 30.4364 54.7863 30.551V30.5538Z" fill="url(#paint7_linear_111_271)"/>
<path d="M110.175 30.6798C110.407 29.6152 110.28 28.8017 110.324 27.9992C110.341 27.6962 110.346 27.385 110.415 27.0902C110.49 26.7763 110.761 26.6889 111.062 26.7189C111.333 26.7462 111.507 26.8964 111.54 27.1693C111.565 27.3713 111.576 27.5761 111.576 27.7781C111.578 29.1375 111.576 30.4996 111.576 31.859C111.576 31.9955 111.578 32.132 111.562 32.2658C111.473 32.9619 111.12 33.1229 110.501 32.7408C110.175 32.5388 109.943 32.2412 109.683 31.9682C108.827 31.0838 107.956 30.213 107.089 29.3395C106.995 29.244 106.89 29.1484 106.583 29.2467C106.583 29.9591 106.589 30.7262 106.583 31.4933C106.581 31.8318 106.578 32.1757 106.528 32.5087C106.484 32.8227 106.252 32.9591 105.934 32.9482C105.614 32.94 105.415 32.7844 105.37 32.4705C105.343 32.2685 105.332 32.0638 105.332 31.8618C105.329 30.5706 105.329 29.2767 105.332 27.9855C105.332 27.7808 105.329 27.5733 105.37 27.3768C105.495 26.8063 105.868 26.6398 106.348 26.9619C106.63 27.1502 106.865 27.4068 107.111 27.6471C108.084 28.5997 109.05 29.5606 110.18 30.6743L110.175 30.6798Z" fill="url(#paint8_linear_111_271)"/>
<path d="M7.66952 32.989C6.98711 33.0026 6.87107 32.8224 7.23576 32.2137C8.17787 30.6359 9.12275 29.0581 10.1035 27.5022C10.7362 26.4976 11.4711 26.4785 12.0734 27.4503C13.0211 28.9844 13.9245 30.5458 14.8473 32.0991C14.9163 32.2164 14.9799 32.3393 15.0296 32.4649C15.1733 32.8279 14.9937 32.9617 14.6483 32.9862C14.1704 33.019 13.7615 32.918 13.5018 32.4758C13.3996 32.3011 13.2808 32.1318 13.1813 31.9544C12.9409 31.5231 12.5735 31.3347 12.0817 31.3402C11.601 31.3456 11.1203 31.3402 10.6395 31.3238C10.4378 31.3183 10.2058 31.3238 10.0953 31.1164C9.95712 30.8625 10.1422 30.666 10.2665 30.4694C10.4738 30.1337 10.8136 30.1036 11.1672 30.0845C11.3938 30.0736 11.7474 30.1391 11.7612 29.8388C11.7778 29.4621 11.543 29.0963 11.2197 28.908C10.8827 28.7114 10.7528 29.0909 10.6202 29.3011C10.0041 30.2811 9.41284 31.2774 8.7995 32.2574C8.39613 32.9016 8.25247 32.9808 7.67504 32.9944L7.66952 32.989Z" fill="url(#paint9_linear_111_271)"/>
<path d="M96.6731 32.9836C96.2034 33.0327 95.8663 32.7379 95.6785 32.3148C95.2972 31.4604 94.6314 31.2311 93.7583 31.3266C93.4185 31.3649 93.0704 31.3485 92.7306 31.3103C92.2609 31.2557 92.178 31.0209 92.4211 30.6087C92.6864 30.161 93.1091 30.0955 93.5705 30.0792C93.7721 30.071 94.0291 30.0519 94.0097 29.7707C93.9849 29.4158 93.7777 29.1265 93.4959 28.9217C93.2666 28.7552 93.1063 28.9627 93.0013 29.1292C92.3272 30.1938 91.6586 31.2611 91.0011 32.3367C90.7745 32.7052 90.5203 32.9782 90.0368 32.9863C89.3793 32.9973 89.2025 32.7789 89.5174 32.2056C89.9263 31.4604 90.3822 30.7398 90.8298 30.0164C91.3492 29.1756 91.8492 28.3239 92.4101 27.5105C93.1174 26.4895 93.7169 26.4814 94.3606 27.5105C95.3359 29.0692 96.2669 30.6551 97.1897 32.2439C97.4964 32.7707 97.3389 32.9891 96.6703 32.9836H96.6731Z" fill="url(#paint10_linear_111_271)"/>
<path d="M132.777 29.7955C132.777 29.0148 132.78 28.2341 132.777 27.4534C132.775 26.9566 133.018 26.6836 133.52 26.6781C134.825 26.6699 136.131 26.6672 137.435 26.6863C137.85 26.6918 138.187 26.861 138.162 27.3524C138.14 27.8055 137.803 27.8847 137.435 27.8901C136.543 27.9011 135.648 27.8847 134.755 27.9092C134.026 27.9311 133.924 28.0321 133.899 28.75C133.874 29.4625 133.874 30.1749 133.899 30.8874C133.927 31.5971 134.04 31.7118 134.755 31.7418C135.407 31.7691 136.062 31.75 136.714 31.7527C136.955 31.7527 137.195 31.7527 137.435 31.7664C137.853 31.7855 138.19 31.9083 138.168 32.4133C138.148 32.8583 137.842 32.9702 137.466 32.9811C137.156 32.992 136.847 32.9948 136.537 32.9948C135.576 32.9948 134.612 33.0111 133.65 32.9811C132.929 32.9593 132.808 32.8364 132.78 32.1349C132.75 31.3542 132.775 30.5735 132.775 29.7928L132.777 29.7955Z" fill="url(#paint11_linear_111_271)"/>
<path d="M81.8065 26.659C82.4254 26.659 83.0442 26.6563 83.6603 26.659C83.8648 26.659 84.072 26.6699 84.2764 26.6999C84.6301 26.7491 84.8345 26.9511 84.829 27.3141C84.8262 27.6881 84.6052 27.8655 84.246 27.8819C83.9035 27.8983 83.5581 27.8819 83.2155 27.9092C82.5635 27.9556 82.4475 28.0539 82.4281 28.7172C82.3977 29.6317 82.4171 30.5489 82.4143 31.4661C82.4143 31.7363 82.4143 32.0093 82.3977 32.2795C82.3756 32.6508 82.2541 32.9483 81.8037 32.9565C81.3644 32.9647 81.1932 32.7081 81.1738 32.3177C81.16 32.012 81.1572 31.7063 81.1572 31.4033C81.1517 30.4861 81.149 29.5716 81.1517 28.6544C81.1517 28.1522 80.9169 27.901 80.403 27.9065C80.0604 27.9065 79.7151 27.8983 79.3725 27.8874C79.0271 27.8764 78.7619 27.7536 78.7343 27.3687C78.7039 26.9511 78.9442 26.7109 79.3393 26.6972C80.1626 26.6699 80.9859 26.689 81.8093 26.689C81.8093 26.6781 81.8093 26.6672 81.8093 26.6562L81.8065 26.659Z" fill="url(#paint12_linear_111_271)"/>
<path d="M122.497 26.6616C123.149 26.6616 123.801 26.6535 124.453 26.6644C124.691 26.6698 124.934 26.6944 125.163 26.7517C125.478 26.8336 125.58 27.0793 125.555 27.3796C125.533 27.6498 125.384 27.83 125.111 27.8545C124.771 27.8873 124.425 27.8846 124.083 27.9009C123.243 27.9392 123.157 28.0129 123.141 28.8673C123.121 29.7817 123.135 30.6962 123.135 31.6134C123.135 31.8509 123.13 32.0884 123.119 32.3259C123.097 32.7189 122.917 32.9646 122.48 32.9537C122.088 32.9455 121.936 32.6971 121.911 32.3641C121.884 31.9928 121.886 31.6189 121.884 31.2476C121.878 30.4014 121.9 29.5524 121.867 28.7062C121.842 28.062 121.712 27.9555 121.06 27.9091C120.754 27.8873 120.444 27.8955 120.135 27.89C119.742 27.8818 119.463 27.7399 119.463 27.3004C119.463 26.8718 119.745 26.6944 120.129 26.6862C120.917 26.6698 121.707 26.6807 122.494 26.6807C122.494 26.6753 122.494 26.6671 122.494 26.6616H122.497Z" fill="url(#paint13_linear_111_271)"/>
<path d="M22.2958 29.8604C22.2958 29.0797 22.2902 28.299 22.2958 27.5155C22.3013 27.1197 22.3787 26.7512 22.887 26.7184C23.3152 26.6911 23.4976 26.9259 23.5418 27.5537C23.5556 27.7557 23.5501 27.9605 23.5501 28.1652C23.5501 28.8449 23.5501 29.5246 23.5501 30.2043C23.5501 30.3736 23.5473 30.5455 23.5501 30.7148C23.5805 31.6156 23.6689 31.7139 24.5557 31.7384C25.2437 31.7575 25.9316 31.7384 26.6196 31.7493C26.8931 31.7548 27.1721 31.7712 27.4346 31.8394C27.7495 31.9213 27.8379 32.1861 27.8103 32.4809C27.7855 32.7512 27.6307 32.9204 27.3545 32.9532C27.1169 32.9805 26.8737 32.9887 26.6334 32.9914C25.6028 32.9941 24.5696 32.9996 23.539 32.9914C22.3648 32.9832 22.2958 32.915 22.2792 31.7958C22.2709 31.1515 22.2792 30.5046 22.2792 29.8604H22.2875H22.2958Z" fill="url(#paint14_linear_111_271)"/>
<path d="M42.5719 29.8391C42.5719 30.6198 42.5775 31.3978 42.5719 32.1785C42.5664 32.5743 42.4946 32.9401 41.9752 32.9565C41.4585 32.9729 41.337 32.6235 41.337 32.2222C41.3287 30.628 41.3287 29.0366 41.3397 27.4424C41.3425 27.0302 41.5027 26.6972 41.9973 26.7109C42.5194 26.7245 42.5719 27.1067 42.5747 27.4998C42.5802 28.2805 42.5747 29.0584 42.5747 29.8391H42.5719Z" fill="url(#paint15_linear_111_271)"/>
<path d="M136.098 30.513C135.689 30.4939 135.28 30.4966 134.874 30.453C134.479 30.412 134.255 30.1854 134.294 29.7705C134.33 29.3829 134.612 29.2792 134.943 29.2737C135.728 29.2655 136.51 29.2683 137.295 29.2737C137.64 29.2765 137.9 29.4157 137.924 29.7924C137.952 30.2046 137.714 30.4284 137.322 30.4584C136.916 30.4885 136.504 30.4639 136.098 30.4639C136.098 30.4803 136.098 30.4939 136.098 30.5103V30.513Z" fill="url(#paint16_linear_111_271)"/>
</g>
<defs>
<linearGradient id="paint0_linear_111_271" x1="134.034" y1="-0.303029" x2="134.034" y2="21.3684" gradientUnits="userSpaceOnUse">
<stop stop-color="#E9F0F9"/>
</linearGradient>
<linearGradient id="paint1_linear_111_271" x1="11.0014" y1="-0.341563" x2="11.0014" y2="21.3654" gradientUnits="userSpaceOnUse">
<stop stop-color="#E9F0F9"/>
</linearGradient>
<linearGradient id="paint2_linear_111_271" x1="35.1428" y1="-0.291981" x2="35.1428" y2="21.3713" gradientUnits="userSpaceOnUse">
<stop stop-color="#E9F0F9"/>
</linearGradient>
<linearGradient id="paint3_linear_111_271" x1="109.075" y1="-0.29485" x2="109.075" y2="21.363" gradientUnits="userSpaceOnUse">
<stop stop-color="#E9F0F9"/>
</linearGradient>
<linearGradient id="paint4_linear_111_271" x1="59.2814" y1="-0.313687" x2="59.2814" y2="21.3632" gradientUnits="userSpaceOnUse">
<stop stop-color="#E9F0F9"/>
</linearGradient>
<linearGradient id="paint5_linear_111_271" x1="84.246" y1="-0.305864" x2="84.246" y2="21.3629" gradientUnits="userSpaceOnUse">
<stop stop-color="#E9F0F9"/>
</linearGradient>
<linearGradient id="paint6_linear_111_271" x1="67.8543" y1="26.6587" x2="67.8543" y2="32.9917" gradientUnits="userSpaceOnUse">
<stop stop-color="#E9F0F9"/>
</linearGradient>
<linearGradient id="paint7_linear_111_271" x1="52.9656" y1="26.7103" x2="52.9656" y2="32.9587" gradientUnits="userSpaceOnUse">
<stop stop-color="#E9F0F9"/>
</linearGradient>
<linearGradient id="paint8_linear_111_271" x1="108.451" y1="26.7135" x2="108.451" y2="32.9564" gradientUnits="userSpaceOnUse">
<stop stop-color="#E9F0F9"/>
</linearGradient>
<linearGradient id="paint9_linear_111_271" x1="11.0539" y1="26.7351" x2="11.0539" y2="32.989" gradientUnits="userSpaceOnUse">
<stop stop-color="#E9F0F9"/>
</linearGradient>
<linearGradient id="paint10_linear_111_271" x1="93.355" y1="26.7407" x2="93.355" y2="32.9891" gradientUnits="userSpaceOnUse">
<stop stop-color="#E9F0F9"/>
</linearGradient>
<linearGradient id="paint11_linear_111_271" x1="135.468" y1="26.6727" x2="135.468" y2="32.9975" gradientUnits="userSpaceOnUse">
<stop stop-color="#E9F0F9"/>
</linearGradient>
<linearGradient id="paint12_linear_111_271" x1="81.7789" y1="26.6562" x2="81.7789" y2="32.9565" gradientUnits="userSpaceOnUse">
<stop stop-color="#E9F0F9"/>
</linearGradient>
<linearGradient id="paint13_linear_111_271" x1="122.511" y1="26.6589" x2="122.511" y2="32.9564" gradientUnits="userSpaceOnUse">
<stop stop-color="#E9F0F9"/>
</linearGradient>
<linearGradient id="paint14_linear_111_271" x1="25.053" y1="26.7184" x2="25.053" y2="32.9996" gradientUnits="userSpaceOnUse">
<stop stop-color="#E9F0F9"/>
</linearGradient>
<linearGradient id="paint15_linear_111_271" x1="41.9503" y1="26.7109" x2="41.9503" y2="32.9592" gradientUnits="userSpaceOnUse">
<stop stop-color="#F6F8FB"/>
</linearGradient>
<linearGradient id="paint16_linear_111_271" x1="136.109" y1="29.271" x2="136.109" y2="30.513" gradientUnits="userSpaceOnUse">
<stop stop-color="#E9F0F9"/>
</linearGradient>
<clipPath id="clip0_111_271">
<rect width="145" height="33" fill="white"/>
</clipPath>
</defs>
</svg>
