<svg width="1182" height="965" viewBox="0 0 1182 965" fill="none" xmlns="http://www.w3.org/2000/svg">
<path d="M321.5 861C321.5 858.515 319.485 856.5 317 856.5H293.5V878C293.5 880.485 295.515 882.5 298 882.5H321.5V861Z" stroke="#786CB1"/>
<path d="M386.876 19.7747C388.201 17.6723 387.571 14.8935 385.469 13.5683L365.589 1.03699L354.124 19.2251C352.799 21.3276 353.429 24.1063 355.531 25.4316L375.411 37.9628L386.876 19.7747Z" stroke="#786CB1"/>
<path d="M1178.84 817.427C1180.17 815.325 1179.54 812.546 1177.43 811.221L1157.55 798.689L1146.09 816.877C1144.76 818.98 1145.39 821.759 1147.5 823.084L1167.38 835.615L1178.84 817.427Z" stroke="#786CB1"/>
<path d="M415.5 155.5C415.5 162.663 421.527 168.5 429 168.5C436.473 168.5 442.5 162.663 442.5 155.5C442.5 148.337 436.473 142.5 429 142.5C421.527 142.5 415.5 148.337 415.5 155.5Z" stroke="#6989B3"/>
<path d="M0.5 951.5C0.5 958.663 6.52686 964.5 14 964.5C21.4731 964.5 27.5 958.663 27.5 951.5C27.5 944.337 21.4731 938.5 14 938.5C6.52686 938.5 0.5 944.337 0.5 951.5Z" stroke="#6989B3"/>
</svg>
