<svg width="75" height="85" viewBox="0 0 75 85" fill="none" xmlns="http://www.w3.org/2000/svg">
<g clip-path="url(#clip0_494_330)">
<path d="M20.3549 84.8529C16.3721 80.6436 13.5835 75.7831 12.3871 70.0812C11.9431 67.9634 11.9541 65.8173 12.0591 63.6536C12.1947 60.8781 12.3456 58.1047 12.6212 55.3401C13.0302 51.2182 13.1636 47.0811 13.4348 42.9527C13.7147 38.6976 17.1726 37.1459 20.5605 37.6005C21.2101 37.6879 21.8444 37.8518 22.4349 38.1534C22.8155 38.3479 23.0036 38.2823 23.0954 37.8081C23.9025 33.5376 27.6688 31.4767 31.7106 33.0765C32.3186 33.3169 32.6759 33.1239 32.7823 32.4973C33.4078 28.8629 36.951 26.8544 40.7982 27.9537C41.7868 28.2364 42.2811 27.8495 42.2811 26.7932C42.2811 23.2221 42.2811 19.6511 42.2811 16.08C42.2811 15.6713 42.2658 15.2604 42.397 14.8648C42.6048 14.242 43.0335 13.9338 43.6918 13.9579C44.3567 13.9841 44.757 14.36 44.9057 14.9763C44.9801 15.2888 44.956 15.6254 44.956 15.9532C44.956 25.2219 44.956 34.4905 44.956 43.7592C44.956 44.5678 45.3446 44.8585 46.1218 44.6312C47.1957 44.3208 48.2652 43.9996 49.3434 43.7133C50.1483 43.4991 50.9619 43.5319 51.7734 43.7133C52.0511 43.7745 52.3464 43.9121 52.2939 43.3417C51.6574 36.3504 52.0555 29.3415 51.9636 22.3414C51.9068 17.8437 51.9418 13.3459 51.9046 8.84819C51.8937 7.60902 51.5853 6.4223 51.0035 5.31645C50.4676 4.29583 49.6409 3.64892 48.4773 3.64236C47.3444 3.63581 46.5373 4.27397 45.9862 5.24214C45.2491 6.53595 45.0916 7.96963 44.9604 9.41205C44.9473 9.54755 44.956 9.68524 44.9538 9.82074C44.9319 11.0031 44.477 11.6128 43.6218 11.6041C42.7382 11.5932 42.2155 10.8654 42.2942 9.72239C42.4364 7.67677 42.6442 5.64427 43.7334 3.82813C45.9708 0.0931337 50.8504 0.0450529 53.1556 3.74727C54.2886 5.56778 54.6035 7.61558 54.6079 9.70709C54.6254 19.3844 54.621 29.0618 54.6188 38.7413C54.6188 42.3342 55.17 45.7764 57.0138 48.9562C58.0636 50.768 58.9166 52.6956 59.8483 54.5773C60.3207 55.5302 60.1589 56.2339 59.4175 56.612C58.6826 56.9835 57.9739 56.6841 57.5081 55.7597C56.2898 53.3513 55.0913 50.9319 53.8774 48.5213C52.8735 46.526 51.2463 45.8179 49.1269 46.4735C44.617 47.8701 40.0677 49.0874 35.385 49.7671C33.9503 49.9747 33.0448 50.768 32.8501 51.8586C32.6139 53.1939 33.1782 54.3085 34.4555 55.0625C35.2494 55.5302 36.1265 55.7422 37.0232 55.8274C40.4352 56.1531 43.8296 56.0154 47.1913 55.3095C48.1143 55.1149 48.7966 55.4843 48.9826 56.2601C49.1532 56.9726 48.7004 57.5933 47.819 57.8643C47.5937 57.932 47.2613 57.8752 47.2044 58.1681C47.1432 58.4784 47.4559 58.6314 47.6571 58.7953C48.4555 59.4444 49.3391 59.9033 50.3933 59.9645C50.5835 59.9755 50.7738 60.0083 50.9597 60.0498C51.7537 60.229 52.2152 60.795 52.1321 61.4747C52.0468 62.1675 51.4956 62.6483 50.6863 62.6396C48.8382 62.6177 47.2219 61.9577 45.8549 60.7229C45.4525 60.3601 45.061 59.958 44.7745 59.5034C44.3852 58.8871 44.0133 58.8128 43.3725 59.1712C39.5013 61.3327 37.021 64.5737 35.7809 68.7961C35.4025 70.0855 35.2385 71.4056 35.2472 72.7496C35.2472 73.0491 35.2451 73.3528 35.1926 73.6457C35.0591 74.3888 34.5145 74.8586 33.8518 74.8346C33.1541 74.8084 32.6314 74.2707 32.592 73.4774C32.4717 71.1302 32.8807 68.8617 33.6966 66.6674C34.8579 63.54 36.7039 60.8803 39.4181 58.6248C38.3924 58.5134 37.5088 58.544 36.6383 58.4391C35.5688 58.3101 34.543 58.0807 33.5784 57.6108C33.2766 57.4643 33.036 57.4403 32.7714 57.6982C30.2737 60.1328 26.2296 59.3657 24.5411 56.4809C24.5018 56.4131 24.4405 56.3563 24.3312 56.223C23.2879 57.8468 21.9187 58.9286 19.9831 59.1122C18.0606 59.2958 16.5449 58.5068 15.2326 57.0513C14.8433 58.1484 14.9745 59.2455 14.8717 60.3033C14.7186 61.9009 14.7493 63.5138 14.664 65.1179C14.4321 69.4343 15.7444 73.3419 17.8156 77.0441C18.9355 79.0482 20.2324 80.9299 21.8181 82.6084C22.5814 83.417 22.4655 84.1142 21.4988 84.8507H20.3527L20.3549 84.8529ZM42.2811 39.2024H42.2658C42.2658 37.2945 42.2877 35.3887 42.2593 33.4808C42.2396 32.1061 41.6753 30.9872 40.2974 30.5872C38.8779 30.1764 37.4081 30.1108 36.2227 31.2451C35.4681 31.9663 35.3019 32.9497 35.3019 33.9573C35.2975 37.0366 35.3019 40.1138 35.2954 43.1931C35.2954 43.5188 35.3085 43.8575 35.2254 44.1657C35.0613 44.7754 34.6545 45.1535 33.9853 45.1469C33.3357 45.1404 32.8895 44.8213 32.7342 44.1853C32.6511 43.8466 32.6314 43.486 32.627 43.1341C32.6074 41.4994 32.6445 39.8624 32.5833 38.2299C32.5264 36.7263 31.6844 35.7013 30.313 35.3997C29.5103 35.2226 28.6836 35.2226 27.8809 35.4325C26.4593 35.8018 25.6566 36.9645 25.6478 38.7457C25.6303 42.6686 25.6325 46.5916 25.6522 50.5167C25.6566 51.4411 25.7944 52.3656 26.0284 53.2617C26.2799 54.2167 26.6342 55.1302 27.3954 55.8209C28.3096 56.647 29.6722 56.7366 30.6433 56.0591C31.0173 55.7968 31.131 55.5477 30.8751 55.1149C29.0357 52.0159 30.6499 47.8416 34.9629 47.1773C37.1435 46.8407 39.3066 46.4102 41.4566 45.9075C42.0865 45.7611 42.3008 45.4748 42.2899 44.8453C42.2593 42.9658 42.2789 41.0863 42.2789 39.2046L42.2811 39.2024ZM22.9401 47.3936C22.9401 45.9774 22.9642 44.5634 22.9314 43.1494C22.9095 42.1769 22.553 41.307 21.7088 40.7782C20.4096 39.963 18.9858 39.9739 17.6385 40.5749C16.3699 41.1388 16.0091 42.3473 15.9937 43.6346C15.9653 45.9468 15.9391 48.2634 16.0047 50.5735C16.0484 52.1252 16.2628 53.6747 17.0983 55.0428C18.3143 57.0316 20.7639 56.9945 21.9362 54.9816C22.3649 54.2429 22.6121 53.4431 22.7674 52.606C23.0911 50.8773 22.903 49.1311 22.938 47.3936H22.9401Z" fill="#786CB1"/>
<path d="M45.5684 84.8527C44.5229 83.7753 44.6104 83.0628 45.8877 82.2564C51.2309 78.8798 54.925 74.0477 57.9258 68.6102C58.7416 67.1306 59.4327 65.5877 59.9927 63.9901C60.3776 62.8952 60.4257 61.8221 60.0058 60.7184C59.6755 59.8551 59.962 59.1645 60.686 58.8848C61.4034 58.6072 62.0639 58.9285 62.4466 59.7743C63.0678 61.1446 63.1684 62.563 62.7397 64.001C61.7533 67.323 60.1326 70.3455 58.2473 73.2281C55.1984 77.8854 51.5481 81.957 46.7145 84.8527H45.5684V84.8527Z" fill="#786CB1"/>
</g>
<defs>
<clipPath id="clip0_494_330">
<rect width="51" height="83.8528" fill="white" transform="translate(12 1)"/>
</clipPath>
</defs>
</svg>
