<svg width="75" height="85" viewBox="0 0 75 85" fill="none" xmlns="http://www.w3.org/2000/svg">
<g clip-path="url(#clip0_494_331)">
<path d="M2.99999 58.0297C3.27853 57.7136 3.5428 57.3797 3.8392 57.0815C8.49774 52.4159 13.1563 47.7502 17.8309 43.1023C18.238 42.697 18.3148 42.4453 17.8452 42.0524C17.3863 41.6685 16.981 41.2168 16.5649 40.7829C14.2776 38.3992 14.8133 34.9119 17.7238 33.3424C18.1005 33.1389 18.1827 32.9568 18.0309 32.5657C16.9453 29.7927 18.7969 26.8341 21.5788 26.4073C22.0538 26.3341 22.2484 26.1109 22.3341 25.6484C22.7019 23.6575 24.0357 22.2844 26.0124 21.9005C26.5587 21.7934 26.7766 21.5488 26.8837 21.0149C27.2462 19.2275 28.3175 18.0223 30.0602 17.4777C31.7887 16.9367 33.3171 17.3813 34.6241 18.5919C35.3419 19.2579 36.0383 19.9525 36.7025 20.6703C37.0722 21.072 37.3168 21.1006 37.7132 20.6881C38.9809 19.374 40.304 18.1134 41.5753 16.801C42.9556 15.3761 44.5947 14.8226 46.4946 15.4171C48.3676 16.0046 49.4265 17.3581 49.6854 19.3115C49.7247 19.6114 49.8604 19.7132 50.1478 19.7632C52.5102 20.1757 53.8208 21.4738 54.2189 23.8093C54.2743 24.1289 54.3904 24.2557 54.7135 24.3093C56.9687 24.6789 58.3668 26.0323 58.7471 28.2429C58.8186 28.6589 59.0043 28.791 59.3846 28.8535C61.1844 29.1535 62.4468 30.1552 63.0521 31.8765C63.6789 33.6567 63.261 35.2619 61.9987 36.6368C61.3666 37.326 60.6916 37.976 60.0185 38.6259C59.7542 38.8813 59.7149 39.1152 59.8649 39.4526C60.6684 41.2596 61.1773 43.1416 61.1773 45.1343C61.1773 45.5236 61.413 45.7396 61.6487 45.9753C64.6413 48.9679 67.6339 51.9605 70.6247 54.9531C70.7979 55.1263 70.98 55.2924 71.1336 55.4817C71.6086 56.0638 71.5871 56.8566 71.0961 57.369C70.5819 57.9065 69.7551 57.9636 69.1677 57.4386C68.5695 56.9065 68.0214 56.3191 67.4536 55.7531C66.6179 54.9192 65.7733 54.0943 64.9555 53.2426C64.6609 52.9355 64.4484 52.8801 64.152 53.2283C63.8931 53.5318 63.6021 53.8139 63.2985 54.0729C62.6932 54.5925 61.8951 54.5728 61.3648 54.0479C60.8398 53.5283 60.8184 52.7176 61.3201 52.1105C61.3916 52.0248 61.4719 51.948 61.5487 51.8677C62.2129 51.1832 62.1992 50.4958 61.5076 49.8054C61.0666 49.3643 60.6006 48.9465 60.1934 48.4751C59.8417 48.0698 59.6042 48.1019 59.2364 48.4751C56.9991 50.7428 54.7403 52.9872 52.4869 55.2388C51.4156 56.3102 50.3585 57.394 49.2676 58.4439C48.8926 58.8064 48.8694 59.0528 49.2622 59.4135C49.9175 60.0152 50.5478 60.6473 51.1513 61.3026C51.4977 61.6776 51.7566 61.7526 52.1048 61.3205C52.3405 61.0276 52.6244 60.7687 52.9101 60.5223C53.5047 60.0116 54.2457 60.0241 54.785 60.533C55.3278 61.0437 55.3956 61.7829 54.9332 62.4061C54.7493 62.6543 54.5171 62.8686 54.2975 63.09C53.8523 63.5399 53.8458 63.981 54.2779 64.4131C57.4115 67.5467 60.5452 70.6822 63.6807 73.8159C63.9646 74.0998 64.2663 74.3765 64.352 74.7908C64.5109 75.5532 64.1645 76.0782 63.5432 76.4656H62.4736C62.1879 76.2192 61.8862 75.9889 61.6183 75.7228C58.4989 72.6106 55.3849 69.493 52.2691 66.3772C49.689 63.797 47.107 61.2169 44.5269 58.6332C44.2716 58.3761 44.0376 58.1493 43.6091 58.2261C42.3592 58.4493 41.1307 58.2582 39.9076 57.985C38.0756 57.5761 36.6061 56.4744 35.0741 55.4888C33.929 54.7532 32.8713 54.8698 31.9012 55.8388C25.3071 62.4329 18.713 69.0252 12.1207 75.6211C11.7885 75.9532 11.4618 76.2853 11.0136 76.4621H10.3458C9.85656 76.2085 9.43695 75.896 9.32267 75.3104C9.18876 74.6247 9.58515 74.1783 10.019 73.7444C14.8204 68.9448 19.6165 64.1381 24.4321 59.351C24.8517 58.9332 24.8464 58.7064 24.4286 58.2939C21.5931 55.4942 18.7755 52.6765 15.9775 49.8393C15.5614 49.4179 15.3543 49.5 14.9847 49.8732C11.8653 53.0194 8.72987 56.1477 5.59441 59.2778C4.60878 60.2616 3.73742 60.1456 2.99463 58.9546C2.99463 58.6421 2.99463 58.3314 2.99463 58.019L2.99999 58.0297ZM40.8433 26.643C40.8361 28.8517 39.2952 30.7694 37.1561 31.1855C36.5276 31.3069 36.2865 31.5765 36.1669 32.189C35.808 34.0299 34.367 35.428 32.5225 35.7369C31.9565 35.8315 31.7583 36.094 31.6512 36.6207C31.2476 38.6081 29.8799 39.9419 27.8943 40.2919C27.4176 40.3758 27.2355 40.5901 27.1551 41.0579C26.9105 42.4738 26.1623 43.5844 24.8964 44.2808C24.3857 44.5611 24.525 44.7433 24.8339 45.0504C27.0605 47.2645 29.2835 49.484 31.494 51.7159C31.819 52.0445 32.0833 52.1409 32.535 51.9141C33.5617 51.3963 34.6741 51.1927 35.8294 51.1767C40.87 51.1088 45.2304 49.3536 48.8247 45.8093C52.5048 42.181 56.142 38.5099 59.7935 34.8512C60.6184 34.0245 60.6988 32.8943 60.0077 32.1729C59.2542 31.3855 58.1775 31.4283 57.2919 32.3015C56.1491 33.4281 55.0224 34.5691 53.8868 35.7012C53.5565 36.0315 53.2387 36.3797 52.878 36.6743C52.2762 37.1653 51.5299 37.1278 50.996 36.6207C50.4603 36.1118 50.4103 35.3869 50.8853 34.7477C51.0567 34.5173 51.2638 34.3102 51.4674 34.1049C52.7566 32.8103 54.0565 31.5265 55.3367 30.2248C56.1045 29.4463 56.1331 28.2821 55.4313 27.5947C54.6832 26.8608 53.644 26.9001 52.8083 27.7072C52.2316 28.2643 51.6727 28.8392 51.1049 29.4053C50.2211 30.2855 49.3479 31.1765 48.4498 32.0425C48.0445 32.4336 47.5552 32.6175 46.9785 32.4068C46.4464 32.2122 46.1464 31.8229 46.0428 31.2837C45.9339 30.7159 46.2285 30.3034 46.6053 29.9284C47.9623 28.575 49.314 27.2197 50.6692 25.8645C51.1424 25.3913 51.5013 24.861 51.4085 24.1557C51.3138 23.4397 50.9424 22.9165 50.2425 22.6576C49.5068 22.3844 48.8694 22.604 48.3391 23.1111C47.4213 23.9879 46.5392 24.9021 45.6357 25.7949C44.9036 26.518 44.0573 26.5912 43.4573 25.9966C42.8592 25.402 42.927 24.5467 43.6448 23.8182C44.5055 22.9469 45.3786 22.088 46.2392 21.2149C46.6964 20.7524 46.9945 20.2114 46.8749 19.5364C46.7535 18.849 46.3678 18.3598 45.6911 18.1276C44.9286 17.8652 44.2805 18.0991 43.7377 18.6347C42.3414 20.0096 40.9665 21.4077 39.5684 22.7808C39.2702 23.0737 39.3023 23.2647 39.5737 23.5486C40.4094 24.4271 40.7843 25.502 40.8415 26.643H40.8433ZM37.9881 53.9229C39.2595 55.0835 41.5504 55.787 43.4609 55.3942C44.7001 55.1388 45.5447 55.471 46.2517 56.4012C46.641 56.9155 46.9249 56.8137 47.3409 56.3941C50.821 52.8837 54.3171 49.3875 57.8276 45.9075C58.2293 45.5093 58.3829 45.1272 58.3311 44.5594C58.2472 43.6434 58.065 42.7559 57.7919 41.8846C57.5669 41.1668 57.5026 41.1543 56.9544 41.7025C54.9689 43.6844 52.9923 45.6771 50.9996 47.652C48.2212 50.4053 44.9536 52.3176 41.1611 53.3176C40.1523 53.5836 39.1184 53.7318 37.9864 53.9247L37.9881 53.9229ZM29.6478 53.9425C29.5746 53.8479 29.4906 53.7157 29.3853 53.6086C26.4909 50.7106 23.5911 47.818 20.7039 44.9147C20.4075 44.6165 20.2182 44.6504 19.945 44.9361C19.2522 45.6593 18.5416 46.3646 17.822 47.0627C17.5881 47.2895 17.5256 47.4484 17.7916 47.7127C20.7271 50.6321 23.6536 53.5604 26.5748 56.4941C26.8373 56.7566 27.0248 56.7744 27.289 56.5012C27.9854 55.7816 28.7014 55.0817 29.4085 54.371C29.5156 54.2621 29.6442 54.1621 29.6478 53.9425ZM33.4457 31.2373C33.4528 30.7444 33.2939 30.3105 32.9511 29.9641C31.3548 28.3554 29.7513 26.7537 28.1461 25.1556C27.8551 24.8646 27.4926 24.6985 27.0801 24.6557C26.2945 24.5735 25.5981 24.9503 25.2678 25.6324C24.9196 26.3484 25.0428 27.1144 25.6838 27.7715C26.9569 29.0749 28.2532 30.3552 29.5442 31.6408C29.8906 31.9854 30.2263 32.3479 30.612 32.6425C31.1905 33.0853 31.8458 33.1317 32.4957 32.8014C33.1243 32.4818 33.4296 31.9408 33.4475 31.2373H33.4457ZM37.981 26.7216C38.0114 26.0895 37.6935 25.6199 37.2703 25.1967C35.8205 23.7486 34.3742 22.2969 32.9207 20.8524C32.7475 20.681 32.5636 20.5096 32.3583 20.3846C31.7083 19.9882 31.0405 19.9882 30.4066 20.4078C29.7656 20.8328 29.546 21.4649 29.6567 22.2112C29.7245 22.6701 29.9977 23.0254 30.3191 23.3451C31.7994 24.8253 33.2778 26.3091 34.7652 27.7822C34.9527 27.9679 35.167 28.1429 35.3991 28.2643C36.574 28.8767 37.9631 28.0393 37.981 26.7198V26.7216ZM28.9103 35.6405C28.9371 35.2226 28.7032 34.7816 28.3264 34.4049C26.7873 32.8639 25.2553 31.3176 23.7054 29.7874C22.9037 28.9964 21.8109 28.966 21.0824 29.6731C20.3468 30.3873 20.37 31.4605 21.161 32.2854C21.777 32.9264 22.4144 33.546 23.043 34.1745C24.0018 35.1316 24.9499 36.1011 25.9284 37.0403C26.4945 37.5832 27.1783 37.7081 27.8979 37.3671C28.5568 37.0546 28.9032 36.5172 28.9103 35.6422V35.6405ZM19.8147 35.7137C19.0219 35.6744 18.4719 36.0369 18.1594 36.7279C17.8345 37.4492 17.9666 38.1349 18.5094 38.6974C19.4343 39.6562 20.3735 40.6043 21.336 41.5257C22.1073 42.2649 23.1501 42.2613 23.85 41.5721C24.5571 40.8757 24.575 39.7705 23.8358 38.9973C22.9144 38.0349 21.9556 37.1064 21.0128 36.1654C20.6789 35.8315 20.27 35.6922 19.8147 35.7101V35.7137Z" fill="#786CB1"/>
<path d="M3 23.8129C3.37318 23.1648 3.93207 22.9362 4.67307 22.9541C6.04975 22.988 7.4282 22.9577 8.80666 22.9666C9.73158 22.9719 10.3619 23.5415 10.3619 24.345C10.3619 25.1503 9.73337 25.7199 8.80844 25.7271C7.42999 25.736 6.05153 25.7056 4.67486 25.7396C3.93385 25.7574 3.37497 25.5271 3 24.8807V23.8112L3 23.8129Z" fill="#786CB1"/>
<path d="M14.3865 18.0457C14.3401 18.5992 14.0651 19.0313 13.542 19.2866C13.0241 19.5402 12.5313 19.4366 12.1046 19.0938C11.776 18.8313 11.4903 18.5153 11.1904 18.2153C9.39588 16.4226 7.59424 14.6352 5.81225 12.8282C4.93197 11.9355 5.23373 10.6695 6.3747 10.3642C6.99251 10.1999 7.44604 10.4945 7.85851 10.907C9.82441 12.8747 11.7939 14.8406 13.7598 16.81C13.8848 16.935 14.008 17.0654 14.1151 17.2082C14.2919 17.4457 14.383 17.7189 14.3883 18.0439L14.3865 18.0457Z" fill="#786CB1"/>
<path d="M69.164 11.6782C69.139 12.1121 68.9855 12.4728 68.6891 12.7692C66.6267 14.8315 64.5733 16.901 62.4985 18.9508C61.8557 19.5865 61.0576 19.5775 60.4772 18.9972C59.8934 18.4133 59.8844 17.6223 60.5201 16.9795C62.5699 14.9065 64.6376 12.8495 66.7035 10.7926C67.1499 10.3479 67.6767 10.1783 68.2873 10.4479C68.8319 10.6872 69.0819 11.1336 69.1622 11.6818L69.164 11.6782Z" fill="#786CB1"/>
<path d="M20.6879 11.7104C20.6879 12.4675 20.7021 13.2246 20.6843 13.9817C20.6629 14.8048 20.0629 15.4048 19.3023 15.403C18.5416 15.3994 17.9399 14.7977 17.9309 13.9727C17.9131 12.4586 17.9149 10.9444 17.9309 9.42847C17.9381 8.56783 18.4827 8.01431 19.2773 8.00002C20.1058 7.98574 20.6664 8.54641 20.6843 9.43919C20.7004 10.1963 20.6879 10.9533 20.6879 11.7104V11.7104Z" fill="#786CB1"/>
<path d="M56.5081 11.7354C56.5081 12.4711 56.5206 13.2049 56.5046 13.9406C56.4867 14.8012 55.8743 15.4226 55.0957 15.403C54.3351 15.3833 53.7566 14.7816 53.7494 13.9477C53.7351 12.4336 53.7334 10.9194 53.7494 9.40345C53.7601 8.55353 54.3244 8.00179 55.1225 8C55.9207 8 56.4813 8.54817 56.5028 9.39631C56.5224 10.1748 56.5063 10.9551 56.5081 11.7354Z" fill="#786CB1"/>
<path d="M67.7518 25.7307C67.0161 25.7307 66.2823 25.7414 65.5466 25.7271C64.6806 25.7111 64.0592 25.1129 64.07 24.3326C64.0789 23.5737 64.6824 22.9792 65.5109 22.972C67.0251 22.9559 68.5392 22.9559 70.0534 22.972C70.9105 22.9809 71.464 23.5345 71.4729 24.329C71.4818 25.1522 70.9176 25.6986 70.023 25.7307C69.9784 25.7307 69.9338 25.7307 69.8891 25.7307C69.1767 25.7307 68.4642 25.7307 67.7518 25.7307V25.7307Z" fill="#786CB1"/>
<path d="M59.4649 57.3066C59.4649 58.0851 58.8525 58.71 58.0882 58.7154C57.3419 58.7189 56.7009 58.0726 56.6973 57.3101C56.6937 56.5602 57.349 55.8978 58.09 55.9031C58.8685 55.9085 59.4685 56.5191 59.4667 57.3066H59.4649Z" fill="#786CB1"/>
</g>
<defs>
<clipPath id="clip0_494_331">
<rect width="68.48" height="68.4729" fill="white" transform="translate(3 8)"/>
</clipPath>
</defs>
</svg>
