<svg width="75" height="85" viewBox="0 0 75 85" fill="none" xmlns="http://www.w3.org/2000/svg">
<g clip-path="url(#clip0_494_333)">
<path d="M74.6828 42.2973C74.1917 42.9326 73.5363 43.1061 72.753 43.0824C69.4867 42.9856 66.2423 43.1791 63.0911 44.1157C56.6863 46.0218 52.4779 50.2503 50.1939 56.4652C48.9907 59.7388 48.5836 63.1511 48.4923 66.6146C48.4813 67.051 48.5051 67.4891 48.4813 67.9255C48.4375 68.7088 47.9573 69.22 47.2289 69.2912C46.4931 69.3642 45.8559 68.9005 45.7208 68.1209C45.6423 67.6717 45.6569 67.2025 45.6587 66.7424C45.6824 62.5614 44.9686 58.5283 43.2542 54.696C42.7868 53.6535 42.2226 52.6621 41.6 51.7018C40.9555 50.7086 40.9975 50.0294 41.6749 49.6058C42.334 49.1932 42.9328 49.4762 43.5901 50.4876C45.0726 52.7662 46.1644 55.2164 46.8619 57.8436C46.9112 58.028 46.9167 58.2289 47.1284 58.4206C49.3522 49.9618 54.3621 44.1431 63.1002 41.6528C54.3384 39.1917 49.3924 33.32 47.1029 24.6933C44.8225 33.2999 39.8656 39.1606 31.1676 41.6583C32.1481 41.996 32.9733 42.2589 33.7803 42.5657C35.816 43.3416 37.671 44.4407 39.3726 45.7973C39.7688 46.1131 40.0609 46.4965 39.9349 47.0497C39.8199 47.55 39.4858 47.8439 38.9983 47.9626C38.5474 48.0703 38.1932 47.8458 37.8663 47.5847C34.9853 45.2769 31.6734 43.9825 28.0565 43.4238C25.8674 43.086 23.6601 43.0385 21.4473 43.0732C20.1364 43.0933 19.4572 42.5985 19.4517 41.6838C19.4444 40.7271 20.1218 40.2232 21.4765 40.2323C24.0271 40.2506 26.574 40.2506 29.0899 39.7193C37.3004 37.983 42.3303 32.9056 44.5998 24.9452C45.383 22.1975 45.7244 19.384 45.655 16.523C45.6441 16.0885 45.6477 15.643 45.7263 15.2194C45.8687 14.4562 46.5332 13.9542 47.227 14.0144C47.9391 14.0765 48.4558 14.6644 48.4886 15.4641C48.5397 16.7494 48.5361 18.0402 48.6365 19.3219C49.009 24.1364 50.3363 28.6388 53.2703 32.5422C56.1897 36.4238 60.168 38.6403 64.8785 39.6371C67.535 40.1995 70.2243 40.267 72.921 40.2214C73.6914 40.2086 74.3031 40.4332 74.6828 41.1361V42.3028V42.2973Z" fill="#786CB1"/>
<path d="M25.0969 57.8107C24.31 59.4064 23.3332 60.7429 21.9766 61.7854C21.4837 62.1633 20.8648 62.3605 20.4649 62.8626C20.9633 63.2004 21.4727 63.5199 21.9547 63.8777C23.3314 64.8965 24.3118 66.2384 25.0476 67.7629C25.378 67.7447 25.3799 67.4708 25.4675 67.2992C26.3585 65.5373 27.6383 64.1425 29.3692 63.1894C29.8274 62.9374 29.8986 62.7932 29.4203 62.4792C28.8817 62.125 28.7539 61.601 29.0569 61.0149C29.3363 60.4745 29.9479 60.2098 30.5486 60.5037C32.3251 61.3746 34.2056 61.5645 36.1464 61.5499C37.1688 61.5407 37.7823 62.209 37.6362 63.0105C37.5084 63.7134 37.0501 64.0329 36.2139 64.0822C34.62 64.1753 33.017 64.1717 31.487 64.7815C28.5257 65.9627 27.1728 68.3289 26.6378 71.2903C26.4662 72.2415 26.4516 73.2201 26.3402 74.1841C26.2562 74.9181 25.8308 75.3325 25.1882 75.3636C24.5364 75.3946 24.0142 74.9619 23.8846 74.2426C23.7075 73.2621 23.8316 72.258 23.6363 71.272C23.1926 69.0355 22.34 67.0491 20.4229 65.6724C19.1887 64.7869 17.7938 64.3287 16.2894 64.2064C15.4678 64.1388 14.6407 64.1205 13.8173 64.0676C13.1327 64.0238 12.6653 63.5746 12.6123 62.9301C12.5594 62.3076 12.9629 61.7306 13.6256 61.6192C14.1715 61.5261 14.7375 61.5261 15.2944 61.5207C20.5818 61.4695 23.377 58.1101 23.7732 53.3011C23.8207 52.7205 23.8554 52.1381 23.9046 51.5575C23.9667 50.8217 24.4286 50.3415 25.0877 50.3196C25.7304 50.2977 26.2654 50.7487 26.384 51.4607C26.5337 52.3718 26.3877 53.3011 26.5721 54.2158C26.7656 55.1725 27.0358 56.0981 27.4065 57.0001C27.7935 57.9385 27.6511 58.6049 27.0139 58.9007C26.3877 59.191 25.8199 58.9135 25.3233 58.0791C25.2867 58.0188 25.2302 57.9696 25.0969 57.8144V57.8107Z" fill="#786CB1"/>
<path d="M17.2735 23.4609C15.0607 22.3709 13.5544 20.6784 12.4973 18.356C11.484 20.6766 9.91018 22.3471 7.64624 23.5193C9.92296 24.6768 11.4749 26.351 12.4809 28.6278C12.6726 28.3064 12.7912 28.0691 12.9464 27.8591C13.2951 27.3899 13.7753 27.2548 14.303 27.4775C14.8616 27.7131 15.0935 28.1768 14.9767 28.7793C14.9365 28.9911 14.8543 29.1992 14.7649 29.3964C14.0802 30.9045 13.8228 32.5002 13.7899 34.1416C13.7863 34.3351 13.7936 34.5305 13.7753 34.724C13.7078 35.489 13.1436 36.0531 12.4717 36.0367C11.7998 36.0203 11.243 35.4397 11.2339 34.671C11.2174 33.1319 11.0476 31.6257 10.5419 30.1614C9.45009 26.9992 6.68041 24.9434 3.33926 24.8411C2.68382 24.8211 2.02654 24.8375 1.37292 24.7973C0.458213 24.7389 -0.0383945 24.2259 0.00177223 23.4353C0.0401132 22.6831 0.538546 22.3052 1.46238 22.265C3.28084 22.1883 5.09747 22.1481 6.78265 21.2827C9.16162 20.0613 10.3776 18.031 10.9162 15.517C11.1188 14.5694 11.2339 13.6036 11.2339 12.6268C11.232 11.5971 11.7049 11.0055 12.4918 11C13.2805 10.9946 13.7717 11.5971 13.779 12.6085C13.7936 14.5018 14.0985 16.3276 14.9639 18.0347C16.2584 20.5835 18.4292 21.8122 21.1843 22.1317C21.9785 22.223 22.7818 22.2413 23.5815 22.2723C24.4451 22.307 24.9435 22.6959 25.0019 23.417C25.0604 24.1419 24.5528 24.706 23.7093 24.7937C22.769 24.8923 21.8178 24.7699 20.8757 24.9251C19.9592 25.0767 19.081 25.3323 18.2338 25.7175C17.3301 26.1283 16.7422 26.006 16.3953 25.3761C16.0466 24.7425 16.2529 24.2441 17.1055 23.6544C17.1438 23.6288 17.1694 23.5832 17.2717 23.4609H17.2735Z" fill="#786CB1"/>
</g>
<defs>
<clipPath id="clip0_494_333">
<rect width="74.6828" height="64.3581" fill="white" transform="translate(0 11)"/>
</clipPath>
</defs>
</svg>
