<svg width="75" height="85" viewBox="0 0 75 85" fill="none" xmlns="http://www.w3.org/2000/svg">
<g clip-path="url(#clip0_494_332)">
<path d="M3.00006 49.9538C3.37698 49.3203 3.93439 49.0991 4.66699 49.1044C7.9991 49.1274 11.333 49.092 14.6651 49.1256C15.7516 49.1362 16.7585 48.938 17.7406 48.4886C18.8643 47.9754 19.9826 47.4481 21.1523 47.0446C24.4649 45.905 27.6183 46.2855 30.6425 48.0108C32.6174 49.1362 34.6064 50.2369 36.5812 51.3606C37.0749 51.6419 37.581 51.7729 38.1543 51.7694C40.8034 51.7517 43.4524 51.7534 46.0997 51.7641C49.1982 51.7764 51.4898 54.0627 51.5217 57.1542C51.5264 57.6414 51.7576 57.8001 52.2153 57.6302C55.9828 56.2393 59.7484 54.8466 63.5158 53.4575C66.3489 52.4135 69.3094 53.654 70.4614 56.3649C71.5886 59.0175 70.4136 62.0576 67.7327 63.3317C65.7207 64.2891 63.691 65.2128 61.6595 66.1277C60.8367 66.4975 60.0209 66.2002 59.6953 65.4711C59.3662 64.7315 59.6989 63.9794 60.5323 63.5795C60.612 63.5405 60.6951 63.5105 60.7748 63.4751C61.4383 63.1742 62.0949 62.861 62.7655 62.5761C63.123 62.4239 63.2061 62.2505 63.038 61.8701C62.6275 60.9375 62.8593 60.189 63.6078 59.8404C64.3564 59.4918 65.0589 59.7767 65.5384 60.6986C65.749 61.1038 65.9472 61.1038 66.3135 60.9269C67.577 60.3181 68.26 59.2405 68.0583 58.1062C67.7433 56.3366 66.1773 55.4642 64.3953 56.1137C60.9747 57.3594 57.5665 58.6371 54.1513 59.8988C52.164 60.6331 50.1768 61.3657 48.1878 62.093C47.6906 62.2753 47.188 62.4469 46.6483 62.4469C42.0138 62.4487 37.3775 62.4558 32.743 62.4487C31.9237 62.4487 31.3751 61.9249 31.322 61.1746C31.276 60.5093 31.775 59.8528 32.4439 59.7395C32.7023 59.6953 32.9713 59.7094 33.2367 59.7094C37.4518 59.7094 41.6687 59.7059 45.8838 59.7094C46.6642 59.7094 47.372 59.5289 47.9401 58.9644C48.6762 58.2301 48.9275 57.347 48.616 56.3579C48.3064 55.374 47.6268 54.7529 46.5793 54.606C46.1652 54.5476 45.7458 54.514 45.3282 54.5122C42.8561 54.5033 40.384 54.4892 37.9119 54.5175C36.928 54.5281 36.0521 54.2821 35.2045 53.7991C33.0757 52.5869 30.9398 51.3889 28.7898 50.2157C26.4716 48.9522 24.0703 48.892 21.6372 49.8565C20.2428 50.4086 18.8678 51.0102 17.4769 51.5712C17.1796 51.6915 17.0788 51.872 17.0788 52.171C17.0823 56.2765 17.0841 60.3819 17.0788 64.4873C17.0788 64.8376 17.192 65.0093 17.5672 65.0305C21.5045 65.2411 25.1692 66.4886 28.7721 67.9768C31.1221 68.9466 33.534 69.6916 36.0645 70.0703C39.3506 70.564 42.5252 70.1145 45.6644 69.1802C46.8482 68.828 48.0197 68.4369 49.2 68.0689C50.1538 67.7716 50.9023 68.0653 51.1784 68.8369C51.465 69.6385 51.0421 70.3976 50.0989 70.7197C47.4039 71.6416 44.6858 72.4999 41.8545 72.8821C38.6003 73.321 35.3867 72.9847 32.221 72.1353C29.4215 71.3833 26.8043 70.1251 24.0721 69.1837C22.0619 68.49 20.0003 68.0388 17.8786 67.8618C17.2929 67.814 17.0504 67.9645 17.0664 68.6121C17.1 69.9871 16.6629 70.3994 15.3127 70.3994C11.7594 70.4012 8.20437 70.3888 4.65107 70.41C3.91847 70.4135 3.35751 70.2065 2.99475 69.5535V49.9502L3.00006 49.9538ZM14.3448 59.7714C14.3448 57.3877 14.3306 55.0041 14.3554 52.6205C14.3607 52.0613 14.228 51.8401 13.6228 51.8472C11.2179 51.8791 8.81133 51.8738 6.40648 51.8508C5.86322 51.8454 5.68273 52.0118 5.68627 52.5657C5.70396 57.3541 5.70573 62.1443 5.6845 66.9328C5.68096 67.5345 5.88977 67.676 6.45249 67.6689C8.8361 67.6424 11.2197 67.6406 13.6033 67.6689C14.1802 67.676 14.366 67.5079 14.3589 66.9204C14.3288 64.5368 14.3465 62.1532 14.3465 59.7696L14.3448 59.7714Z" fill="#786CB1"/>
<path d="M37.7862 12C41.7748 12.0301 44.6061 13.3891 46.9526 15.801C47.4091 16.27 47.6445 16.2434 48.0904 15.7904C50.7235 13.1184 53.8982 11.7293 57.6833 12.046C62.3266 12.4353 66.9788 16.1178 67.4283 21.6088C67.6902 24.8011 66.7098 27.6554 65.1756 30.3699C63.376 33.5551 60.9446 36.229 58.2778 38.6957C55.3067 41.4439 52.0702 43.8523 48.7027 46.0908C47.7241 46.7402 47.3331 46.7402 46.3562 46.0908C42.1942 43.3249 38.2162 40.3237 34.7426 36.7103C31.9077 33.7622 29.4232 30.5557 28.2022 26.5706C27.0609 22.8404 27.3068 19.2605 29.8355 16.1125C32.005 13.4086 34.8912 12.0779 37.7862 12ZM30.3859 22.667C30.4354 23.1925 30.446 23.7269 30.5398 24.2437C31.1521 27.6395 32.9659 30.4159 35.1478 32.9783C38.5666 36.997 42.6826 40.2105 47.0145 43.171C47.4109 43.4417 47.6994 43.4099 48.0816 43.1497C51.3482 40.9165 54.4839 38.5152 57.3205 35.7494C59.8457 33.2879 62.1125 30.6141 63.5529 27.3439C64.466 25.27 64.9969 23.12 64.482 20.8443C63.4963 16.4947 58.7999 13.835 54.3954 15.1162C52.0242 15.8063 50.2422 17.2928 48.8248 19.2659C48.2603 20.0533 47.5259 20.2816 46.8376 19.8994C46.5137 19.7206 46.3421 19.4074 46.1315 19.1261C43.9036 16.1585 41.0705 14.4155 37.2288 14.8862C33.8684 15.2985 30.2408 18.3174 30.3894 22.6634L30.3859 22.667Z" fill="#786CB1"/>
<path d="M56.8197 67.1646C56.8268 67.9591 56.2482 68.5431 55.4536 68.5431C54.6856 68.5431 54.1105 67.9892 54.0893 67.2301C54.0663 66.4391 54.6414 65.8286 55.4218 65.8109C56.2075 65.7949 56.8127 66.3807 56.8197 67.1646V67.1646Z" fill="#786CB1"/>
<path d="M48.8779 25.6592C48.8779 26.2095 48.8991 26.7634 48.8708 27.312C48.8478 27.7721 49.023 27.9384 49.4831 27.9278C50.5183 27.9048 51.5552 27.9154 52.5922 27.9225C53.5902 27.9296 54.1724 28.4463 54.1706 29.3028C54.1689 30.1592 53.5938 30.6582 52.5816 30.6653C51.5888 30.6724 50.5961 30.6989 49.6052 30.6547C49.0053 30.6282 48.8442 30.8547 48.8672 31.4209C48.9062 32.4119 48.8832 33.4046 48.8761 34.3973C48.869 35.3972 48.3541 35.9687 47.487 35.9581C46.65 35.9493 46.1456 35.3848 46.1386 34.4239C46.1297 33.3869 46.1173 32.3517 46.1439 31.3148C46.1563 30.8317 45.9988 30.6459 45.5015 30.6582C44.4433 30.6848 43.3851 30.6742 42.3269 30.6618C41.4156 30.6512 40.8582 30.138 40.8422 29.3293C40.8263 28.4888 41.3961 27.9366 42.3269 27.9243C43.3851 27.9101 44.4433 27.8995 45.5015 27.9278C45.9988 27.9402 46.1563 27.7561 46.1439 27.2731C46.1173 26.2149 46.1262 25.1567 46.1403 24.0984C46.151 23.203 46.6871 22.6368 47.4941 22.6297C48.3028 22.6226 48.8531 23.1889 48.8743 24.0719C48.8867 24.601 48.8761 25.1301 48.8761 25.6592H48.8779V25.6592Z" fill="#786CB1"/>
</g>
<defs>
<clipPath id="clip0_494_332">
<rect width="67.8931" height="61.0803" fill="white" transform="translate(3 12)"/>
</clipPath>
</defs>
</svg>
