<svg width="75" height="85" viewBox="0 0 75 85" fill="none" xmlns="http://www.w3.org/2000/svg">
<g clip-path="url(#clip0_494_334)">
<path d="M51.8858 72.7618C50.0632 72.4137 48.4031 71.7279 46.9555 70.5292C43.9647 68.0513 42.6866 63.8688 43.8631 60.1513C44.0325 59.6173 43.9378 59.3673 43.4717 59.0811C38.4912 56.0178 33.5213 52.9359 28.5596 49.8434C28.1799 49.6062 27.9778 49.6787 27.674 49.9614C24.8841 52.5573 21.614 53.4114 17.9771 52.2921C14.3437 51.1741 12.0679 48.6447 11.2314 44.9319C9.99886 39.4654 13.8589 33.9569 19.3966 33.194C22.5849 32.7547 25.3503 33.6555 27.6787 35.8694C27.9848 36.1603 28.1916 36.2129 28.5654 35.9792C33.512 32.8973 38.4655 29.827 43.4285 26.7707C43.8911 26.4857 44.0406 26.2473 43.8689 25.6667C42.113 19.7516 45.9847 13.7956 52.1311 13.0713C57.8814 12.3937 62.4238 16.6288 63.0056 21.5812C63.7183 27.6469 59.0462 32.826 52.9559 32.6624C50.4756 32.5958 48.2956 31.6869 46.5081 29.938C46.1564 29.5933 45.9146 29.5396 45.4777 29.813C40.5498 32.8891 35.6126 35.9465 30.6648 38.9899C30.2092 39.2703 30.0608 39.5168 30.2384 40.0566C30.8681 41.9773 30.8471 43.919 30.222 45.8396C30.0725 46.2988 30.1753 46.5289 30.5807 46.779C35.5763 49.8551 40.5626 52.9464 45.5431 56.047C45.9064 56.2725 46.1202 56.2503 46.4357 55.9547C49.2559 53.3179 52.5622 52.4615 56.2353 53.6403C59.9225 54.825 62.1749 57.4432 62.939 61.2448C63.987 66.4554 60.3909 71.6379 55.0775 72.6649C54.9455 72.6906 54.8158 72.7291 54.685 72.7618H51.8869H51.8858ZM14.7188 42.8979C14.7153 46.2719 17.4549 49.0431 20.8079 49.056C24.1936 49.0688 26.987 46.3058 27.0057 42.9247C27.0244 39.5904 24.2322 36.7783 20.8932 36.7678C17.4888 36.7573 14.7223 39.5028 14.7188 42.8979V42.8979ZM53.2784 69.1179C56.6454 69.1156 59.3827 66.39 59.4213 63.0031C59.4586 59.6746 56.5881 56.8006 53.2538 56.831C49.874 56.8613 47.1378 59.6068 47.1343 62.9704C47.1308 66.3853 49.8646 69.1203 53.2784 69.1179ZM53.2749 16.7047C49.8856 16.7024 47.146 19.421 47.1355 22.7962C47.1249 26.1983 49.8588 28.9648 53.2573 28.9917C56.5624 29.0185 59.3921 26.2099 59.4224 22.8721C59.454 19.5039 56.6652 16.707 53.276 16.7047H53.2749Z" fill="#786CB1"/>
</g>
<defs>
<clipPath id="clip0_494_334">
<rect width="52.12" height="59.7618" fill="white" transform="translate(11 13)"/>
</clipPath>
</defs>
</svg>
