<svg width="24" height="24" viewBox="0 0 24 24" fill="none" xmlns="http://www.w3.org/2000/svg">
<path fill-rule="evenodd" clip-rule="evenodd" d="M12 24C18.6274 24 24 18.6274 24 12C24 5.37258 18.6274 0 12 0C5.37258 0 0 5.37258 0 12C0 18.6274 5.37258 24 12 24Z" fill="#49B49E"/>
<path d="M15.0698 4.80287L13.1084 4.7998C10.9047 4.7998 9.48061 6.22168 9.48061 8.42242V10.0927H7.50844C7.33802 10.0927 7.20001 10.2271 7.20001 10.393V12.813C7.20001 12.9789 7.33817 13.1132 7.50844 13.1132H9.48061V19.2197C9.48061 19.3855 9.61862 19.5198 9.78904 19.5198H12.3622C12.5326 19.5198 12.6706 19.3853 12.6706 19.2197V13.1132H14.9765C15.1469 13.1132 15.2849 12.9789 15.2849 12.813L15.2859 10.393C15.2859 10.3134 15.2533 10.2371 15.1956 10.1807C15.1378 10.1244 15.0591 10.0927 14.9773 10.0927H12.6706V8.67678C12.6706 7.99624 12.8372 7.65076 13.7482 7.65076L15.0695 7.6503C15.2398 7.6503 15.3778 7.51584 15.3778 7.35015V5.10302C15.3778 4.93747 15.2399 4.80317 15.0698 4.80287Z" fill="white"/>
</svg>
