<svg width="25" height="24" viewBox="0 0 25 24" fill="none" xmlns="http://www.w3.org/2000/svg">
<path fill-rule="evenodd" clip-rule="evenodd" d="M12.5 24C19.1274 24 24.5 18.6274 24.5 12C24.5 5.37258 19.1274 0 12.5 0C5.87258 0 0.5 5.37258 0.5 12C0.5 18.6274 5.87258 24 12.5 24Z" fill="#49B49E"/>
<path fill-rule="evenodd" clip-rule="evenodd" d="M9.25186 4.7998H15.6685C17.8477 4.7998 19.6206 6.5727 19.6205 8.75176V15.1684C19.6205 17.3475 17.8477 19.1204 15.6685 19.1204H9.25186C7.0728 19.1204 5.29999 17.3475 5.29999 15.1684V8.75176C5.29999 6.5727 7.0728 4.7998 9.25186 4.7998ZM15.6686 17.8498C17.1471 17.8498 18.35 16.6469 18.35 15.1684H18.3499V8.75176C18.3499 7.2733 17.147 6.07039 15.6685 6.07039H9.25186C7.7734 6.07039 6.57058 7.2733 6.57058 8.75176V15.1684C6.57058 16.6469 7.7734 17.8498 9.25186 17.8498H15.6686Z" fill="white"/>
<path fill-rule="evenodd" clip-rule="evenodd" d="M8.7702 11.9601C8.7702 9.92534 10.4255 8.27002 12.4602 8.27002C14.495 8.27002 16.1503 9.92534 16.1503 11.9601C16.1503 13.9947 14.495 15.6499 12.4602 15.6499C10.4255 15.6499 8.7702 13.9947 8.7702 11.9601ZM10.0408 11.96C10.0408 13.294 11.1262 14.3793 12.4602 14.3793C13.7943 14.3793 14.8797 13.294 14.8797 11.96C14.8797 10.6259 13.7944 9.54052 12.4602 9.54052C11.1261 9.54052 10.0408 10.6259 10.0408 11.96Z" fill="white"/>
<path d="M16.3051 7.19287C16.0603 7.19287 15.8198 7.29198 15.6469 7.46562C15.4732 7.63842 15.3733 7.87899 15.3733 8.12464C15.3733 8.36952 15.4732 8.61 15.6469 8.78365C15.8197 8.95645 16.0603 9.0564 16.3051 9.0564C16.5507 9.0564 16.7904 8.95645 16.9641 8.78365C17.1377 8.61 17.2368 8.36944 17.2368 8.12464C17.2368 7.87899 17.1377 7.63842 16.9641 7.46562C16.7913 7.29198 16.5507 7.19287 16.3051 7.19287Z" fill="white"/>
</svg>
