<svg width="24" height="24" viewBox="0 0 24 24" fill="none" xmlns="http://www.w3.org/2000/svg">
<g clip-path="url(#clip0_696_770)">
<path d="M10.9682 0C11.6557 0 12.3433 0 13.0304 0C13.076 0.00984991 13.1211 0.0239212 13.1671 0.0286116C15.009 0.207317 16.7425 0.74531 18.2891 1.7561C22.3656 4.42026 24.2827 8.19606 23.9662 13.0643C23.845 14.9264 23.2448 16.652 22.2656 18.2369C19.621 22.5155 14.7944 24.7397 9.84619 23.7781C5.00881 22.8382 1.8847 19.8837 0.409534 15.1932C0.18692 14.485 0.096278 13.7477 0 13.0136C0 12.3269 0 11.6402 0 10.954C0.0558882 10.5769 0.103323 10.1979 0.169543 9.8227C0.965129 5.32458 4.41047 1.5788 8.83175 0.393527C9.53434 0.204972 10.2501 0.0966229 10.9687 0H10.9682ZM10.174 13.7359C10.174 13.7359 10.1698 13.7359 10.1679 13.7359C10.1679 15.0699 10.1679 16.4038 10.1679 17.7378C10.1679 18.0882 10.1768 18.098 10.5164 18.098C11.2349 18.098 11.9535 18.098 12.6725 18.098C12.9027 18.098 13.0179 17.9792 13.0182 17.7416C13.0182 16.228 13.0201 14.7148 13.0177 13.2012C13.0168 12.7575 13.1211 12.3504 13.4075 12.0038C13.8175 11.508 14.3473 11.3232 14.9757 11.4395C15.5891 11.553 15.9033 11.9695 16.0526 12.5417C16.108 12.7538 16.1423 12.9681 16.1423 13.1886C16.1423 14.7097 16.1442 16.2312 16.1456 17.7523C16.1456 17.9828 16.2641 18.0982 16.5011 18.0985C17.2352 18.0985 17.9697 18.099 18.7038 18.0985C19.0095 18.0985 19.0161 18.0915 19.0161 17.7796C19.0166 16.2036 19.0142 14.6276 19.0175 13.0521C19.0184 12.6764 18.9865 12.3044 18.9189 11.9357C18.5272 9.81004 16.951 8.94841 15.1011 9.20591C14.3187 9.31473 13.7053 9.72092 13.2394 10.3551C13.1929 10.4184 13.1629 10.5469 13.0642 10.5089C12.9773 10.4756 13.0215 10.3555 13.0191 10.2739C13.014 10.0713 13.006 9.86773 13.0201 9.66557C13.036 9.43902 12.9454 9.36539 12.7219 9.3682C11.9723 9.37805 11.2223 9.37101 10.4722 9.37242C10.1933 9.37289 10.1731 9.39869 10.1731 9.68715C10.1731 11.0366 10.1731 12.3865 10.1731 13.7359H10.174ZM8.47529 13.7631C8.47529 12.3977 8.47153 11.0324 8.47904 9.66745C8.48045 9.44465 8.40578 9.36492 8.18081 9.3682C7.42327 9.37805 6.66526 9.37617 5.90771 9.36961C5.71093 9.36773 5.62593 9.43199 5.62639 9.63837C5.63015 12.3691 5.63015 15.0994 5.62639 17.8302C5.62639 18.0319 5.69919 18.1046 5.90208 18.1023C6.65962 18.0943 7.41764 18.0994 8.17518 18.0985C8.4612 18.0985 8.47529 18.0849 8.47529 17.7889C8.47622 16.447 8.47529 15.1051 8.47529 13.7631ZM7.03675 8.09662C8.24469 8.09991 8.98579 7.10694 8.55794 6.04737C8.30527 5.42214 7.7896 5.16182 7.15275 5.13415C6.38816 5.10084 5.69731 5.46717 5.49912 6.22889C5.23659 7.24015 5.94247 8.09381 7.03675 8.09709V8.09662Z" fill="#49B49E"/>
<g clip-path="url(#clip1_696_770)">
<path d="M21.7208 11.8845C21.7208 6.65413 17.4753 2.41406 12.2381 2.41406C7.00097 2.41406 2.75543 6.65413 2.75543 11.8845C2.75543 17.1149 7.00097 21.355 12.2381 21.355C17.4753 21.355 21.7208 17.1149 21.7208 11.8845Z" fill="white"/>
<path d="M10.9682 0C11.6557 0 12.3433 0 13.0304 0C13.076 0.00984991 13.1211 0.0239212 13.1671 0.0286116C15.009 0.207317 16.7425 0.74531 18.2891 1.7561C22.3656 4.42026 24.2827 8.19606 23.9662 13.0643C23.845 14.9264 23.2448 16.652 22.2656 18.2369C19.621 22.5155 14.7944 24.7397 9.84619 23.7781C5.00881 22.8382 1.8847 19.8837 0.409534 15.1932C0.18692 14.485 0.096278 13.7477 0 13.0136C0 12.3269 0 11.6402 0 10.954C0.0558882 10.5769 0.103323 10.1979 0.169543 9.8227C0.965129 5.32458 4.41047 1.5788 8.83175 0.393527C9.53434 0.204972 10.2501 0.0966229 10.9687 0H10.9682ZM10.174 13.7359C10.174 13.7359 10.1698 13.7359 10.1679 13.7359C10.1679 15.0699 10.1679 16.4038 10.1679 17.7378C10.1679 18.0882 10.1768 18.098 10.5164 18.098C11.2349 18.098 11.9535 18.098 12.6725 18.098C12.9027 18.098 13.0179 17.9792 13.0182 17.7416C13.0182 16.228 13.0201 14.7148 13.0177 13.2012C13.0168 12.7575 13.1211 12.3504 13.4075 12.0038C13.8175 11.508 14.3473 11.3232 14.9757 11.4395C15.5891 11.553 15.9033 11.9695 16.0526 12.5417C16.108 12.7538 16.1423 12.9681 16.1423 13.1886C16.1423 14.7097 16.1442 16.2312 16.1456 17.7523C16.1456 17.9828 16.2641 18.0982 16.5011 18.0985C17.2352 18.0985 17.9697 18.099 18.7038 18.0985C19.0095 18.0985 19.0161 18.0915 19.0161 17.7795C19.0166 16.2036 19.0142 14.6276 19.0175 13.0521C19.0184 12.6764 18.9865 12.3044 18.9189 11.9357C18.5272 9.81004 16.951 8.94841 15.1011 9.20591C14.3187 9.31473 13.7053 9.72092 13.2394 10.3551C13.1929 10.4184 13.1629 10.5469 13.0642 10.5089C12.9773 10.4756 13.0215 10.3555 13.0191 10.2739C13.014 10.0713 13.006 9.86773 13.0201 9.66557C13.036 9.43902 12.9454 9.36538 12.7219 9.3682C11.9723 9.37805 11.2223 9.37101 10.4722 9.37242C10.1933 9.37289 10.1731 9.39869 10.1731 9.68715C10.1731 11.0366 10.1731 12.3865 10.1731 13.7359H10.174ZM8.47529 13.7631C8.47529 12.3977 8.47153 11.0324 8.47904 9.66745C8.48045 9.44465 8.40578 9.36491 8.18081 9.3682C7.42327 9.37805 6.66526 9.37617 5.90771 9.36961C5.71093 9.36773 5.62593 9.43199 5.62639 9.63837C5.63015 12.3691 5.63015 15.0994 5.62639 17.8302C5.62639 18.0319 5.69919 18.1046 5.90208 18.1023C6.65962 18.0943 7.41764 18.0994 8.17518 18.0985C8.4612 18.0985 8.47529 18.0849 8.47529 17.7889C8.47622 16.447 8.47529 15.1051 8.47529 13.7631ZM7.03675 8.09662C8.24469 8.09991 8.98579 7.10694 8.55794 6.04737C8.30527 5.42214 7.7896 5.16182 7.15275 5.13415C6.38816 5.10084 5.69731 5.46717 5.49912 6.22889C5.23659 7.24015 5.94247 8.09381 7.03675 8.09709V8.09662Z" fill="#49B49E"/>
</g>
</g>
<defs>
<clipPath id="clip0_696_770">
<rect width="24" height="24" fill="white"/>
</clipPath>
<clipPath id="clip1_696_770">
<rect width="24" height="24" fill="white"/>
</clipPath>
</defs>
</svg>
