<svg width="24" height="24" viewBox="0 0 24 24" fill="none" xmlns="http://www.w3.org/2000/svg">
<path fill-rule="evenodd" clip-rule="evenodd" d="M12 24C18.6274 24 24 18.6274 24 12C24 5.37258 18.6274 0 12 0C5.37258 0 0 5.37258 0 12C0 18.6274 5.37258 24 12 24Z" fill="#49B49E"/>
<path d="M19.2 7.71883C18.6994 7.94265 18.1624 8.09444 17.598 8.1622C18.1742 7.81402 18.6153 7.26176 18.8244 6.60571C18.2839 6.92815 17.6873 7.16228 17.0516 7.2892C16.5425 6.74122 15.8185 6.3999 15.0154 6.3999C13.4746 6.3999 12.2253 7.66053 12.2253 9.21444C12.2253 9.43483 12.25 9.65008 12.2976 9.85591C9.97921 9.73841 7.92345 8.61758 6.54756 6.91443C6.30705 7.3295 6.17023 7.81315 6.17023 8.32942C6.17023 9.3062 6.66314 10.1681 7.41101 10.6723C6.95379 10.6569 6.52376 10.5299 6.1473 10.319V10.3541C6.1473 11.7177 7.10932 12.8557 8.38492 13.1147C8.15121 13.1781 7.90477 13.2133 7.64981 13.2133C7.46965 13.2133 7.29543 13.1953 7.12461 13.161C7.47983 14.2801 8.50986 15.0939 9.73024 15.1162C8.77586 15.8709 7.57248 16.3194 6.26543 16.3194C6.04023 16.3194 5.81841 16.3057 5.60001 16.2808C6.83483 17.0809 8.30081 17.5474 9.87641 17.5474C15.0086 17.5474 17.8139 13.2579 17.8139 9.53776L17.8046 9.17329C18.3527 8.77878 18.8269 8.28312 19.2 7.71883Z" fill="white"/>
</svg>
