<svg width="81" height="40" viewBox="0 0 81 40" fill="none" xmlns="http://www.w3.org/2000/svg">
<g clip-path="url(#clip0_104_788)">
<path d="M0 20.6165C0.550334 21.7052 1.52035 21.9012 2.64873 21.9012C26.1686 21.8896 49.6884 21.8934 73.2082 21.8973C73.5368 21.8973 73.8833 21.8139 74.2119 21.9788C74.1367 22.2952 73.8694 22.4407 73.6734 22.6329C69.0035 27.2207 64.3296 31.8047 59.6577 36.3886C59.1866 36.8505 58.7511 37.3182 58.7293 38.0343C58.7075 38.7776 59.0084 39.3346 59.6439 39.7189C60.3209 40.1284 61.0039 40.0799 61.6473 39.6548C61.9501 39.4549 62.2233 39.2027 62.4827 38.9484C68.3344 33.2194 74.1822 27.4866 80.03 21.7518C81.3266 20.4806 81.3227 19.5141 80.0181 18.2352C74.1169 12.4461 68.2097 6.65887 62.3104 0.869724C61.8116 0.380665 61.2771 -0.048233 60.5308 0.00804901C59.8062 0.0623894 59.2163 0.396191 58.9055 1.0735C58.6026 1.73334 58.6363 2.38542 59.0975 2.97152C59.337 3.27621 59.6122 3.55955 59.8894 3.83319C64.486 8.34534 69.0886 12.8536 73.6853 17.3677C73.8793 17.5579 74.1565 17.6976 74.2099 18.0217C73.8734 18.1692 73.5289 18.0935 73.1963 18.0935C49.6508 18.0974 26.1032 18.0994 2.55767 18.0897C1.44908 18.0897 0.520639 18.3167 0 19.3802V20.6203L0 20.6165Z" fill="#272765"/>
</g>
<defs>
<clipPath id="clip0_104_788">
<rect width="81" height="40" fill="white" transform="matrix(1 0 0 -1 0 40)"/>
</clipPath>
</defs>
</svg>
