<svg width="27" height="27" viewBox="0 0 27 27" fill="none" xmlns="http://www.w3.org/2000/svg">
<path d="M24.4185 27H23.3646C22.5681 26.8403 21.9448 26.4048 21.3786 25.8358C18.8565 23.2956 16.3208 20.7699 13.789 18.2393C13.6045 18.0548 13.4193 18.0548 13.2335 18.2393C10.7027 20.7699 8.16607 23.2956 5.64395 25.8358C5.07875 26.4048 4.45548 26.8413 3.65897 27H2.60502C2.49566 26.97 2.38533 26.94 2.27597 26.909C0.941354 26.5316 0.0141905 25.3055 0.00257674 23.9207C-0.00613356 22.955 0.390669 22.1798 1.06136 21.5111C3.62993 18.9515 6.19173 16.3842 8.75643 13.8208C8.96032 13.6169 8.96064 13.413 8.7574 13.2092C6.19367 10.6438 3.63284 8.07646 1.06233 5.51784C0.345182 4.80464 -0.0322645 3.97531 0.00160893 2.95051C0.0529029 1.42928 1.42623 0.0560987 2.94763 0.00481025C3.97254 -0.0300272 4.80195 0.348346 5.51523 1.06542C8.07993 3.64145 10.6543 6.20781 13.2248 8.77804C13.4158 8.96901 13.6071 8.96868 13.7987 8.77708C16.345 6.23201 18.8904 3.68597 21.4367 1.1409C21.5732 1.00445 21.7125 0.869941 21.8587 0.744139C22.84 -0.102605 24.3053 -0.241955 25.4279 0.404473C26.2874 0.898972 26.7829 1.65475 26.9987 2.60891V3.66274C26.84 4.45917 26.4035 5.08237 25.8344 5.64751C23.2949 8.16936 20.7689 10.7057 18.2381 13.2363C18.0535 13.4208 18.0535 13.6059 18.2381 13.7917C20.7689 16.3223 23.2949 18.8587 25.8344 21.3805C26.4035 21.9456 26.84 22.5688 26.9987 23.3662V24.4201C26.9039 24.7655 26.809 25.1091 26.628 25.4236C26.1306 26.2858 25.3767 26.788 24.4176 27.0019L24.4185 27Z" fill="#272765"/>
</svg>
