<svg width="253" height="187" viewBox="0 0 253 187" fill="none" xmlns="http://www.w3.org/2000/svg">
<g clip-path="url(#clip0_139_625)">
<path d="M224.462 99.0301C232.47 96.0602 240.186 92.9347 248.065 90.345C259.272 86.6614 270.511 87.3095 281.56 91.276C292.248 95.1022 296.718 107.447 293.199 117.437C290.258 125.79 285.637 132.812 278.713 138.233C272.488 143.103 265.148 145.911 257.933 148.948C245.955 153.989 233.346 156.231 220.554 157.618C215.329 158.185 210.039 158.225 204.783 158.652C200.385 159.015 195.986 160.037 191.596 159.973C183.725 159.842 175.76 159.753 168.019 158.516C144.301 154.73 122.138 146.336 101.311 134.399C88.315 126.956 76.7535 117.679 65.6859 107.619C55.9441 98.7829 47.1699 89.1838 39.5304 78.5499C30.2406 65.6199 24.0965 51.4017 22.5388 35.35C21.6319 25.9636 24.453 17.9601 30.3781 10.8032C35.4012 4.73964 46.6503 4.10303 51.9967 5.67846C61.1142 8.40021 67.5647 14.3127 73.2603 21.6524C79.4673 29.6489 84.5635 38.1251 87.2981 47.9216C87.6727 49.2534 88.3561 49.0952 89.3731 49.0539C96.8181 48.6489 104.268 47.8983 111.704 48.0522C122.832 48.2926 133.833 49.9534 144.729 52.3632C157.281 55.1402 169.374 59.1546 180.964 64.6433C195.49 71.5139 208.753 80.1954 219.383 92.4558C221.312 94.6903 223.009 97.1301 224.466 99.0146L224.462 99.0301ZM86.8601 50.3197C87.0771 50.5723 86.922 50.4673 86.8911 50.3275C83.6805 36.7149 76.0105 25.6774 66.6273 15.7436C60.9223 9.68857 53.7042 5.90981 45.1417 6.03389C40.2394 6.10478 35.3668 7.17322 31.6161 10.933C27.0958 15.4564 24.3981 21.1971 23.6911 27.224C22.6937 35.653 24.4599 43.9849 27.1773 52.1434C30.6987 62.7483 35.9836 72.3116 42.7019 81.0966C51.7564 92.9279 62.2838 103.43 73.6975 112.967C101.58 136.282 133.488 151.071 169.34 157.198C177.757 158.638 186.248 159.256 194.773 158.495C198.251 158.181 201.66 157.224 205.119 156.988C209.94 156.649 214.822 157.051 219.609 156.522C231.903 155.142 244.097 153.175 255.62 148.301C264.265 144.633 273.243 141.412 280.138 134.796C287.359 127.866 292.99 119.843 292.834 109.177C292.746 102.571 289.361 97.462 284.052 94.0973C276.281 89.1728 267.319 88.652 258.491 89.6335C247.304 90.8796 236.904 94.964 226.921 100.078C223.985 101.583 224.238 101.432 222.079 98.9259C217.871 94.0063 213.837 88.7842 208.929 84.6127C188.072 66.8267 163.325 57.2871 136.733 52.3328C127.544 50.6163 118.106 49.959 108.741 49.5347C101.642 49.2183 94.4913 50.0274 86.8678 50.3546L86.8601 50.3197Z" fill="#272765"/>
<path d="M290.132 112.441C288.442 122.445 282.613 129.808 274.866 135.748C261.83 145.72 246.802 150.885 230.703 152.959C224.018 153.819 217.229 153.845 210.487 154.212C209.8 154.254 209.086 154.008 208.391 153.949C206.676 153.815 206.537 152.856 207.044 151.498C210.889 141.326 214.734 131.155 218.594 120.987C220.464 116.045 222.303 111.094 224.262 106.191C224.659 105.202 225.371 104.077 226.241 103.57C235.972 97.8815 245.993 92.7447 257.448 91.8134C264.505 91.2448 271.717 90.9791 278.459 93.7636C282.928 95.6134 287.412 97.995 289.155 102.938C290.207 105.909 290.319 109.205 290.846 112.357C290.606 112.395 290.381 112.438 290.144 112.461L290.132 112.441ZM208.249 152.676C218.01 153.233 227.49 152.481 236.893 150.588C250.33 147.878 263.075 143.393 273.963 134.745C280.976 129.165 286.761 122.567 288.532 113.359C289.56 107.958 289.664 102.687 284.67 98.9227C282.701 97.4373 280.568 96.0759 278.326 95.0831C271.514 92.0501 264.263 92.6029 257.147 93.1404C246.636 93.9294 237.465 98.7685 228.391 103.616C227.02 104.343 225.695 105.875 225.145 107.337C219.47 122.296 213.961 137.313 208.265 152.68L208.249 152.676Z" fill="#272765"/>
<path d="M64.6379 102.009C61.3165 98.4177 57.7114 95.0359 54.7203 91.1815C48.3893 83.0219 42.2682 74.684 36.2636 66.2764C34.6676 64.0269 33.5612 61.3394 32.6566 58.7027C29.8768 50.7265 26.4564 42.9358 25.5211 34.3838C24.5362 25.1758 27.0893 17.3195 34.1115 11.115C39.2451 6.58084 45.137 6.5773 51.2747 8.54972C59.259 11.1185 64.5021 17.2389 69.6794 23.2273C76.1627 30.7156 81.4572 38.9941 84.2889 48.6666C84.7487 50.2508 84.7546 51.6054 84.178 53.1106C78.2573 68.3874 72.3676 83.672 66.4741 98.9721C66.1274 99.8915 65.8583 100.83 65.5426 101.758C65.2397 101.846 64.9563 101.924 64.6534 102.013L64.6379 102.009ZM64.4504 100.064C64.9173 99.1912 65.279 98.6715 65.4855 98.1129C71.3481 82.739 77.2147 67.3496 82.9997 51.9562C83.3386 51.0678 83.3092 49.8723 83.0349 48.9288C80.0956 38.4372 74.1381 29.6455 66.8907 21.7834C62.3911 16.9061 57.6313 12.1449 50.9934 9.86512C44.7978 7.7296 37.2195 9.05826 33.1962 13.4426C28.0418 19.0441 26.0454 25.6708 26.625 33.2092C27.2961 41.9588 30.8444 49.8972 33.7094 57.9939C34.9427 61.4888 36.5953 64.9572 38.7415 67.9721C44.4129 75.9328 50.3795 83.7038 56.4123 91.4089C58.799 94.4513 61.6792 97.1063 64.4504 100.064Z" fill="#272765"/>
<path d="M81.4775 92.0023C99.5284 107.168 120.548 117.421 141.497 127.689C150.03 131.881 159.163 134.672 168.542 136.552C173.443 137.537 178.261 138.914 183.147 139.961C185.355 140.433 187.648 140.433 189.884 140.731C192.914 141.146 195.926 141.64 198.956 142.649C197.077 142.639 195.202 142.745 193.347 142.575C168.766 140.321 145.665 133.357 124.218 121.001C115.182 115.791 105.939 110.942 97.0155 105.546C92.16 102.609 87.7752 98.9159 83.2504 95.4514C82.254 94.6893 81.6152 93.4891 80.8131 92.4788C81.0191 92.3161 81.2405 92.1572 81.4426 92.01L81.4775 92.0023Z" fill="#272765"/>
<path d="M86.74 61.494C87.5516 61.2196 88.34 60.8403 89.1903 60.6746C96.7299 59.2372 104.314 58.9992 111.936 59.8597C117.377 60.4688 122.881 60.8296 128.228 61.9431C136.147 63.5881 143.992 65.7258 151.826 67.7782C161.623 70.3573 171.034 73.945 179.982 78.7198C192.409 85.343 203.428 93.8234 212.881 104.27C213.772 105.253 214.492 106.391 215.279 107.463C215.5 107.766 215.627 108.112 215.444 108.842C214.913 108.46 214.276 108.168 213.858 107.667C199.966 91.1871 182.651 79.655 162.474 72.4195C155.677 69.9843 148.697 67.9486 141.667 66.3126C133.452 64.3956 125.137 62.882 116.805 61.5625C107.139 60.0394 97.4349 60.3055 87.7756 62.035C87.5155 62.0851 87.2437 62.1158 86.9836 62.1659C86.9102 61.9329 86.8367 61.6999 86.7478 61.463L86.74 61.494Z" fill="#272765"/>
</g>
<defs>
<clipPath id="clip0_139_625">
<rect width="284.54" height="120.617" fill="white" transform="translate(29.4148) rotate(14.115)"/>
</clipPath>
</defs>
</svg>
