<svg width="992" height="638" viewBox="0 0 992 638" fill="none" xmlns="http://www.w3.org/2000/svg">
<path d="M1.26592 583.813C0.882233 586.269 2.56176 588.57 5.01725 588.954L26.2595 592.273L29.5787 571.031C29.9624 568.576 28.2829 566.274 25.8274 565.89L4.58513 562.571L1.26592 583.813Z" stroke="#6989B3"/>
<path d="M962.266 21.8134C961.882 24.2689 963.562 26.5705 966.017 26.9542L987.259 30.2734L990.579 9.03118C990.962 6.57569 989.283 4.27409 986.827 3.89041L965.585 0.571193L962.266 21.8134Z" stroke="#786CB1"/>
<path d="M169.836 444.959C166.255 438.716 158.498 436.476 152.525 439.902C146.552 443.329 144.57 451.155 148.151 457.398C151.732 463.642 159.489 465.881 165.462 462.455C171.435 459.029 173.418 451.202 169.836 444.959Z" stroke="#786CB1"/>
<path d="M757.836 612.959C754.255 606.716 746.498 604.476 740.525 607.902C734.552 611.329 732.57 619.155 736.151 625.398C739.732 631.642 747.489 633.881 753.462 630.455C759.435 627.029 761.418 619.202 757.836 612.959Z" stroke="black"/>
</svg>
