<svg width="1349" height="610" viewBox="0 0 1349 610" fill="none" xmlns="http://www.w3.org/2000/svg">
<path d="M105.266 230.813C104.882 233.269 106.562 235.57 109.017 235.954L130.259 239.273L133.579 218.031C133.962 215.576 132.283 213.274 129.827 212.89L108.585 209.571L105.266 230.813Z" stroke="#6989B3"/>
<path d="M28.8364 443.959C25.255 437.716 17.4982 435.476 11.5252 438.902C5.55219 442.329 3.56957 450.155 7.15097 456.398C10.7324 462.642 18.4892 464.881 24.4622 461.455C30.4352 458.029 32.4178 450.202 28.8364 443.959Z" stroke="#49B49E"/>
<path d="M1341.84 11.959C1338.26 5.71563 1330.5 3.476 1324.53 6.9023C1318.55 10.3286 1316.57 18.1551 1320.15 24.3985C1323.73 30.6419 1331.49 32.8815 1337.46 29.4552C1343.44 26.0289 1345.42 18.2024 1341.84 11.959Z" stroke="#49B49E"/>
<path d="M1215.84 363.959C1212.26 357.716 1204.5 355.476 1198.53 358.902C1192.55 362.329 1190.57 370.155 1194.15 376.398C1197.73 382.642 1205.49 384.881 1211.46 381.455C1217.44 378.029 1219.42 370.202 1215.84 363.959Z" stroke="#49B49E"/>
<path d="M1316.27 432.813C1315.88 435.269 1317.56 437.57 1320.02 437.954L1341.26 441.273L1344.58 420.031C1344.96 417.576 1343.28 415.274 1340.83 414.89L1319.59 411.571L1316.27 432.813Z" stroke="#6989B3"/>
<path d="M1154.27 600.813C1153.88 603.269 1155.56 605.57 1158.02 605.954L1179.26 609.273L1182.58 588.031C1182.96 585.576 1181.28 583.274 1178.83 582.89L1157.59 579.571L1154.27 600.813Z" stroke="#6989B3"/>
</svg>
