<svg width="900" height="720" viewBox="0 0 900 720" fill="none" xmlns="http://www.w3.org/2000/svg">
<path d="M770.266 21.8134C769.882 24.2689 771.562 26.5705 774.017 26.9542L795.259 30.2734L798.579 9.03118C798.962 6.57569 797.283 4.27409 794.827 3.89041L773.585 0.571193L770.266 21.8134Z" stroke="#49B49E"/>
<path d="M338.266 553.813C337.882 556.269 339.562 558.57 342.017 558.954L363.259 562.273L366.579 541.031C366.962 538.576 365.283 536.274 362.827 535.89L341.585 532.571L338.266 553.813Z" stroke="#49B49E"/>
<path d="M28.8364 645.959C25.255 639.716 17.4982 637.476 11.5252 640.902C5.55219 644.329 3.56957 652.155 7.15097 658.398C10.7324 664.642 18.4892 666.881 24.4622 663.455C30.4352 660.029 32.4178 652.202 28.8364 645.959Z" stroke="#6989B3"/>
<path d="M892.836 694.959C889.255 688.716 881.498 686.476 875.525 689.902C869.552 693.329 867.57 701.155 871.151 707.398C874.732 713.642 882.489 715.881 888.462 712.455C894.435 709.029 896.418 701.202 892.836 694.959Z" stroke="#6989B3"/>
</svg>
