<svg width="72" height="72" viewBox="0 0 72 72" fill="none" xmlns="http://www.w3.org/2000/svg">
<circle cx="36" cy="36" r="36" fill="#272765"/>
<path d="M35.2727 47.3182C33.7727 47.3182 32.4356 47.0606 31.2614 46.5455C30.0947 46.0303 29.1667 45.3144 28.4773 44.3977C27.7955 43.4735 27.4242 42.4015 27.3636 41.1818H30.2273C30.2879 41.9318 30.5455 42.5795 31 43.125C31.4545 43.6629 32.0492 44.0795 32.7841 44.375C33.5189 44.6705 34.3333 44.8182 35.2273 44.8182C36.2273 44.8182 37.1136 44.6439 37.8864 44.2955C38.6591 43.947 39.2652 43.4621 39.7045 42.8409C40.1439 42.2197 40.3636 41.5 40.3636 40.6818C40.3636 39.8258 40.1515 39.072 39.7273 38.4205C39.303 37.7614 38.6818 37.2462 37.8636 36.875C37.0455 36.5038 36.0455 36.3182 34.8636 36.3182H33V33.8182H34.8636C35.7879 33.8182 36.5985 33.6515 37.2955 33.3182C38 32.9848 38.5492 32.5152 38.9432 31.9091C39.3447 31.303 39.5455 30.5909 39.5455 29.7727C39.5455 28.9848 39.3712 28.2992 39.0227 27.7159C38.6742 27.1326 38.1818 26.678 37.5455 26.3523C36.9167 26.0265 36.1742 25.8636 35.3182 25.8636C34.5152 25.8636 33.7576 26.0114 33.0455 26.3068C32.3409 26.5947 31.7652 27.0152 31.3182 27.5682C30.8712 28.1136 30.6288 28.7727 30.5909 29.5455H27.8636C27.9091 28.3258 28.2765 27.2576 28.9659 26.3409C29.6553 25.4167 30.5568 24.697 31.6705 24.1818C32.7917 23.6667 34.0227 23.4091 35.3636 23.4091C36.803 23.4091 38.0379 23.7008 39.0682 24.2841C40.0985 24.8598 40.8902 25.6212 41.4432 26.5682C41.9962 27.5152 42.2727 28.5379 42.2727 29.6364C42.2727 30.947 41.928 32.0644 41.2386 32.9886C40.5568 33.9129 39.6288 34.553 38.4545 34.9091V35.0909C39.9242 35.3333 41.072 35.9583 41.8977 36.9659C42.7235 37.9659 43.1364 39.2045 43.1364 40.6818C43.1364 41.947 42.7917 43.0833 42.1023 44.0909C41.4205 45.0909 40.4886 45.8788 39.3068 46.4545C38.125 47.0303 36.7803 47.3182 35.2727 47.3182Z" fill="white"/>
</svg>
