<svg width="72" height="72" viewBox="0 0 72 72" fill="none" xmlns="http://www.w3.org/2000/svg">
<circle cx="36" cy="36" r="36" fill="#272765"/>
<path d="M28.4091 47V44.9545L36.0909 36.5455C36.9924 35.5606 37.7348 34.7045 38.3182 33.9773C38.9015 33.2424 39.3333 32.553 39.6136 31.9091C39.9015 31.2576 40.0455 30.5758 40.0455 29.8636C40.0455 29.0455 39.8485 28.3371 39.4545 27.7386C39.0682 27.1402 38.5379 26.678 37.8636 26.3523C37.1894 26.0265 36.4318 25.8636 35.5909 25.8636C34.697 25.8636 33.9167 26.0492 33.25 26.4205C32.5909 26.7841 32.0795 27.2955 31.7159 27.9545C31.3598 28.6136 31.1818 29.3864 31.1818 30.2727H28.5C28.5 28.9091 28.8144 27.7121 29.4432 26.6818C30.072 25.6515 30.928 24.8485 32.0114 24.2727C33.1023 23.697 34.3258 23.4091 35.6818 23.4091C37.0455 23.4091 38.2538 23.697 39.3068 24.2727C40.3598 24.8485 41.1856 25.625 41.7841 26.6023C42.3826 27.5795 42.6818 28.6667 42.6818 29.8636C42.6818 30.7197 42.5265 31.5568 42.2159 32.375C41.9129 33.1856 41.3826 34.0909 40.625 35.0909C39.875 36.0833 38.8333 37.2955 37.5 38.7273L32.2727 44.3182V44.5H43.0909V47H28.4091Z" fill="white"/>
</svg>
